<svg width="196" height="90" viewBox="0 0 196 90" fill="none" xmlns="http://www.w3.org/2000/svg">
<path d="M8.71582 7.85254V11.7285C8.56999 11.9154 8.33984 12.1182 8.02539 12.3369C7.71549 12.5557 7.3099 12.7448 6.80859 12.9043C6.30729 13.0592 5.69206 13.1367 4.96289 13.1367C4.32943 13.1367 3.75065 13.0319 3.22656 12.8223C2.70247 12.6081 2.2513 12.2959 1.87305 11.8857C1.49479 11.4756 1.20312 10.9743 0.998047 10.3818C0.792969 9.78939 0.69043 9.11263 0.69043 8.35156V7.69531C0.69043 6.93424 0.786133 6.25749 0.977539 5.66504C1.1735 5.07259 1.4515 4.57129 1.81152 4.16113C2.17611 3.75098 2.61133 3.4388 3.11719 3.22461C3.6276 3.01042 4.19727 2.90332 4.82617 2.90332C5.66927 2.90332 6.36198 3.04232 6.9043 3.32031C7.45117 3.59831 7.87044 3.98112 8.16211 4.46875C8.45378 4.95182 8.63607 5.50781 8.70898 6.13672H6.87695C6.82682 5.79036 6.72656 5.4873 6.57617 5.22754C6.42578 4.96322 6.21159 4.75814 5.93359 4.6123C5.66016 4.46191 5.30469 4.38672 4.86719 4.38672C4.49805 4.38672 4.1722 4.45964 3.88965 4.60547C3.6071 4.7513 3.37012 4.96322 3.17871 5.24121C2.9873 5.51921 2.84147 5.86328 2.74121 6.27344C2.64551 6.68359 2.59766 7.15299 2.59766 7.68164V8.35156C2.59766 8.88477 2.65234 9.35872 2.76172 9.77344C2.87109 10.1836 3.02832 10.5299 3.2334 10.8125C3.44303 11.0905 3.70052 11.3024 4.00586 11.4482C4.31576 11.5895 4.66667 11.6602 5.05859 11.6602C5.41406 11.6602 5.70801 11.6305 5.94043 11.5713C6.17741 11.5075 6.36654 11.4323 6.50781 11.3457C6.64909 11.2591 6.75846 11.1748 6.83594 11.0928V9.22656H4.86035V7.85254H8.71582ZM12.2705 2.5V13H10.459V2.5H12.2705ZM13.6719 9.37695V9.2334C13.6719 8.69108 13.7493 8.19206 13.9043 7.73633C14.0592 7.27604 14.2848 6.87728 14.5811 6.54004C14.8773 6.2028 15.2396 5.94076 15.668 5.75391C16.0964 5.5625 16.584 5.4668 17.1309 5.4668C17.6868 5.4668 18.179 5.5625 18.6074 5.75391C19.0404 5.94076 19.4049 6.2028 19.7012 6.54004C19.9974 6.87728 20.223 7.27604 20.3779 7.73633C20.5329 8.19206 20.6104 8.69108 20.6104 9.2334V9.37695C20.6104 9.91471 20.5329 10.4137 20.3779 10.874C20.223 11.3298 19.9974 11.7285 19.7012 12.0703C19.4049 12.4076 19.0426 12.6696 18.6143 12.8564C18.1859 13.0433 17.696 13.1367 17.1445 13.1367C16.5977 13.1367 16.1077 13.0433 15.6748 12.8564C15.2419 12.6696 14.8773 12.4076 14.5811 12.0703C14.2848 11.7285 14.0592 11.3298 13.9043 10.874C13.7493 10.4137 13.6719 9.91471 13.6719 9.37695ZM15.4766 9.2334V9.37695C15.4766 9.70052 15.5085 10.0036 15.5723 10.2861C15.6361 10.5687 15.734 10.8171 15.8662 11.0312C15.9984 11.2454 16.1693 11.4141 16.3789 11.5371C16.5931 11.6556 16.8483 11.7148 17.1445 11.7148C17.4362 11.7148 17.6868 11.6556 17.8965 11.5371C18.1061 11.4141 18.277 11.2454 18.4092 11.0312C18.5459 10.8171 18.6462 10.5687 18.71 10.2861C18.7738 10.0036 18.8057 9.70052 18.8057 9.37695V9.2334C18.8057 8.91439 18.7738 8.61589 18.71 8.33789C18.6462 8.05534 18.5459 7.80697 18.4092 7.59277C18.277 7.37402 18.1038 7.20312 17.8896 7.08008C17.68 6.95247 17.4271 6.88867 17.1309 6.88867C16.8392 6.88867 16.5885 6.95247 16.3789 7.08008C16.1693 7.20312 15.9984 7.37402 15.8662 7.59277C15.734 7.80697 15.6361 8.05534 15.5723 8.33789C15.5085 8.61589 15.4766 8.91439 15.4766 9.2334ZM21.916 2.5H23.7275V11.3662L23.5498 13H21.916V2.5ZM28.4854 9.22656V9.37012C28.4854 9.92155 28.4238 10.4274 28.3008 10.8877C28.1823 11.348 28.0023 11.7467 27.7607 12.084C27.5192 12.4167 27.2184 12.6764 26.8584 12.8633C26.5029 13.0456 26.0859 13.1367 25.6074 13.1367C25.1517 13.1367 24.7552 13.0479 24.418 12.8701C24.0853 12.6924 23.805 12.4417 23.5771 12.1182C23.3493 11.79 23.167 11.4049 23.0303 10.9629C22.8936 10.5163 22.791 10.0286 22.7227 9.5V9.11035C22.791 8.57715 22.8936 8.08952 23.0303 7.64746C23.167 7.2054 23.3493 6.82031 23.5771 6.49219C23.805 6.16406 24.0853 5.91113 24.418 5.7334C24.7507 5.55566 25.1426 5.4668 25.5938 5.4668C26.0768 5.4668 26.4984 5.56022 26.8584 5.74707C27.223 5.92936 27.5238 6.18913 27.7607 6.52637C28.0023 6.85905 28.1823 7.25553 28.3008 7.71582C28.4238 8.17155 28.4854 8.67513 28.4854 9.22656ZM26.6738 9.37012V9.22656C26.6738 8.91211 26.6488 8.61589 26.5986 8.33789C26.5485 8.05534 26.4665 7.80697 26.3525 7.59277C26.2386 7.37858 26.0837 7.20996 25.8877 7.08691C25.6917 6.96387 25.4456 6.90234 25.1494 6.90234C24.8669 6.90234 24.6253 6.9502 24.4248 7.0459C24.2288 7.1416 24.0648 7.27376 23.9326 7.44238C23.805 7.611 23.7048 7.80924 23.6318 8.03711C23.5635 8.26497 23.5179 8.51107 23.4951 8.77539V9.8418C23.527 10.1927 23.6022 10.5094 23.7207 10.792C23.8392 11.07 24.0146 11.291 24.2471 11.4551C24.484 11.6191 24.7894 11.7012 25.1631 11.7012C25.4548 11.7012 25.6986 11.6442 25.8945 11.5303C26.0905 11.4118 26.2454 11.2477 26.3594 11.0381C26.4733 10.8239 26.5531 10.5755 26.5986 10.293C26.6488 10.0104 26.6738 9.7028 26.6738 9.37012ZM33.8721 11.4277V8.0166C33.8721 7.76595 33.8288 7.54948 33.7422 7.36719C33.6556 7.1849 33.5234 7.04362 33.3457 6.94336C33.168 6.8431 32.9424 6.79297 32.6689 6.79297C32.4274 6.79297 32.2155 6.83398 32.0332 6.91602C31.8555 6.99805 31.7188 7.11426 31.623 7.26465C31.5273 7.41048 31.4795 7.5791 31.4795 7.77051H29.668C29.668 7.46517 29.7409 7.17578 29.8867 6.90234C30.0326 6.62435 30.2399 6.37826 30.5088 6.16406C30.7822 5.94531 31.1081 5.77441 31.4863 5.65137C31.8691 5.52832 32.2975 5.4668 32.7715 5.4668C33.332 5.4668 33.8311 5.5625 34.2686 5.75391C34.7106 5.94076 35.057 6.22331 35.3076 6.60156C35.5628 6.97982 35.6904 7.45605 35.6904 8.03027V11.2568C35.6904 11.626 35.7132 11.9427 35.7588 12.207C35.8089 12.4668 35.8818 12.6924 35.9775 12.8838V13H34.1387C34.0521 12.8132 33.986 12.5762 33.9404 12.2891C33.8949 11.9974 33.8721 11.7103 33.8721 11.4277ZM34.125 8.49512L34.1387 9.56836H32.9971C32.7145 9.56836 32.4661 9.59798 32.252 9.65723C32.0378 9.71191 31.8623 9.79395 31.7256 9.90332C31.5889 10.0081 31.4863 10.1357 31.418 10.2861C31.3496 10.432 31.3154 10.5983 31.3154 10.7852C31.3154 10.9674 31.3564 11.1315 31.4385 11.2773C31.5251 11.4232 31.6481 11.5394 31.8076 11.626C31.9717 11.708 32.1631 11.749 32.3818 11.749C32.7008 11.749 32.9788 11.6852 33.2158 11.5576C33.4528 11.4255 33.6374 11.266 33.7695 11.0791C33.9017 10.8923 33.9723 10.7145 33.9814 10.5459L34.501 11.3252C34.4372 11.512 34.3415 11.7103 34.2139 11.9199C34.0863 12.1296 33.9222 12.3255 33.7217 12.5078C33.5212 12.6901 33.2796 12.8405 32.9971 12.959C32.7145 13.0775 32.3864 13.1367 32.0127 13.1367C31.5342 13.1367 31.1058 13.041 30.7275 12.8496C30.3493 12.6582 30.0508 12.3962 29.832 12.0635C29.6133 11.7308 29.5039 11.3525 29.5039 10.9287C29.5039 10.5368 29.5768 10.1904 29.7227 9.88965C29.8685 9.58887 30.085 9.33594 30.3721 9.13086C30.6592 8.92122 31.0146 8.764 31.4385 8.65918C31.8669 8.5498 32.3568 8.49512 32.9082 8.49512H34.125ZM39.2314 2.5V13H37.4199V2.5H39.2314ZM49.7861 10.416C49.7861 10.2246 49.7565 10.0537 49.6973 9.90332C49.6426 9.74837 49.54 9.60938 49.3896 9.48633C49.2438 9.35872 49.0365 9.23568 48.7676 9.11719C48.5033 8.99414 48.1615 8.86654 47.7422 8.73438C47.2773 8.58854 46.8444 8.42448 46.4434 8.24219C46.0423 8.0599 45.6891 7.84798 45.3838 7.60645C45.083 7.36491 44.8483 7.08691 44.6797 6.77246C44.5111 6.45345 44.4268 6.08431 44.4268 5.66504C44.4268 5.25488 44.5133 4.88118 44.6865 4.54395C44.8643 4.20671 45.1149 3.91732 45.4385 3.67578C45.762 3.42969 46.1426 3.24056 46.5801 3.1084C47.0221 2.97624 47.5098 2.91016 48.043 2.91016C48.7812 2.91016 49.4193 3.0446 49.957 3.31348C50.4993 3.58236 50.9186 3.94694 51.2148 4.40723C51.5111 4.86751 51.6592 5.38477 51.6592 5.95898H49.7861C49.7861 5.64909 49.7201 5.37565 49.5879 5.13867C49.4603 4.90169 49.2643 4.71484 49 4.57812C48.7402 4.44141 48.4121 4.37305 48.0156 4.37305C47.6328 4.37305 47.3138 4.43001 47.0586 4.54395C46.8079 4.65788 46.6188 4.81283 46.4912 5.00879C46.3682 5.20475 46.3066 5.4235 46.3066 5.66504C46.3066 5.84733 46.3499 6.01139 46.4365 6.15723C46.5231 6.2985 46.653 6.43294 46.8262 6.56055C46.9993 6.68359 47.2135 6.7998 47.4688 6.90918C47.7285 7.014 48.0293 7.11882 48.3711 7.22363C48.918 7.3877 49.3965 7.56999 49.8066 7.77051C50.2214 7.97103 50.5654 8.19889 50.8389 8.4541C51.1169 8.70931 51.3242 8.99642 51.4609 9.31543C51.6022 9.63444 51.6729 9.99674 51.6729 10.4023C51.6729 10.8307 51.5885 11.2135 51.4199 11.5508C51.2513 11.888 51.0098 12.1751 50.6953 12.4121C50.3809 12.6491 50.0026 12.8291 49.5605 12.9521C49.123 13.0752 48.6331 13.1367 48.0908 13.1367C47.6077 13.1367 47.1292 13.0729 46.6553 12.9453C46.1859 12.8132 45.7598 12.6172 45.377 12.3574C44.9941 12.0931 44.6888 11.7604 44.4609 11.3594C44.2331 10.9538 44.1191 10.4798 44.1191 9.9375H46.0059C46.0059 10.252 46.056 10.5208 46.1562 10.7441C46.2611 10.9629 46.4069 11.1429 46.5938 11.2842C46.7852 11.4209 47.0085 11.5212 47.2637 11.585C47.5189 11.6488 47.7946 11.6807 48.0908 11.6807C48.4736 11.6807 48.7881 11.6283 49.0342 11.5234C49.2848 11.4141 49.4717 11.2637 49.5947 11.0723C49.7223 10.8809 49.7861 10.6621 49.7861 10.416ZM54.79 2.49316V13H52.9854V2.49316H54.79ZM59.4248 5.60352L56.2051 9.21973L54.4619 10.9902L53.8877 9.58887L55.2344 7.89355L57.2441 5.60352H59.4248ZM57.5791 13L55.2891 9.55469L56.4922 8.38574L59.6709 13H57.5791ZM62.2959 5.60352V13H60.4844V5.60352H62.2959ZM60.3613 3.66895C60.3613 3.40007 60.4525 3.17676 60.6348 2.99902C60.8216 2.82129 61.0723 2.73242 61.3867 2.73242C61.7012 2.73242 61.9495 2.82129 62.1318 2.99902C62.3187 3.17676 62.4121 3.40007 62.4121 3.66895C62.4121 3.93327 62.3187 4.1543 62.1318 4.33203C61.9495 4.50977 61.7012 4.59863 61.3867 4.59863C61.0723 4.59863 60.8216 4.50977 60.6348 4.33203C60.4525 4.1543 60.3613 3.93327 60.3613 3.66895ZM65.9326 2.5V13H64.1211V2.5H65.9326ZM69.5693 2.5V13H67.7578V2.5H69.5693ZM75.3594 10.9766C75.3594 10.8216 75.3184 10.6826 75.2363 10.5596C75.1543 10.4365 74.9993 10.3249 74.7715 10.2246C74.5482 10.1198 74.2201 10.0218 73.7871 9.93066C73.4043 9.84863 73.0511 9.74609 72.7275 9.62305C72.404 9.5 72.126 9.35189 71.8936 9.17871C71.6611 9.00098 71.4788 8.79362 71.3467 8.55664C71.2191 8.3151 71.1553 8.03711 71.1553 7.72266C71.1553 7.41732 71.2214 7.13021 71.3535 6.86133C71.4857 6.58789 71.6771 6.34863 71.9277 6.14355C72.1784 5.93392 72.4837 5.76986 72.8438 5.65137C73.2038 5.52832 73.6094 5.4668 74.0605 5.4668C74.6895 5.4668 75.2295 5.56934 75.6807 5.77441C76.1364 5.97949 76.485 6.26204 76.7266 6.62207C76.9681 6.97754 77.0889 7.37858 77.0889 7.8252H75.2842C75.2842 7.62923 75.2386 7.4515 75.1475 7.29199C75.0609 7.13249 74.9264 7.00488 74.7441 6.90918C74.5618 6.80892 74.3317 6.75879 74.0537 6.75879C73.8031 6.75879 73.5911 6.7998 73.418 6.88184C73.2493 6.96387 73.1217 7.07096 73.0352 7.20312C72.9486 7.33529 72.9053 7.48112 72.9053 7.64062C72.9053 7.75911 72.9281 7.86621 72.9736 7.96191C73.0238 8.05306 73.1035 8.13737 73.2129 8.21484C73.3223 8.29232 73.4704 8.36296 73.6572 8.42676C73.8486 8.49056 74.0833 8.55208 74.3613 8.61133C74.9128 8.7207 75.3936 8.86654 75.8037 9.04883C76.2184 9.22656 76.542 9.46354 76.7744 9.75977C77.0068 10.056 77.123 10.4342 77.123 10.8945C77.123 11.2227 77.0524 11.5234 76.9111 11.7969C76.7699 12.0658 76.5648 12.3005 76.2959 12.501C76.027 12.7015 75.7057 12.8587 75.332 12.9727C74.9583 13.082 74.5368 13.1367 74.0674 13.1367C73.3883 13.1367 72.8141 13.016 72.3447 12.7744C71.8753 12.5283 71.5199 12.2184 71.2783 11.8447C71.0368 11.4665 70.916 11.0745 70.916 10.6689H72.6455C72.6592 10.9561 72.7367 11.1862 72.8779 11.3594C73.0192 11.5326 73.1969 11.6579 73.4111 11.7354C73.6299 11.8083 73.86 11.8447 74.1016 11.8447C74.375 11.8447 74.6051 11.8083 74.792 11.7354C74.9788 11.6579 75.1201 11.5553 75.2158 11.4277C75.3115 11.2956 75.3594 11.1452 75.3594 10.9766ZM82.7422 13L84.5195 3.04688H85.7021L83.918 13H82.7422ZM85.3535 13L87.1377 3.04688H88.3203L86.5361 13H85.3535ZM89.2979 6.99805H82.1816V5.89062H89.2979V6.99805ZM88.7783 10.1973H81.6689V9.08984H88.7783V10.1973ZM96.9951 11.5781V13H90.2549V11.7832L93.4883 8.29004C93.8255 7.90723 94.0921 7.57454 94.2881 7.29199C94.484 7.00944 94.623 6.75423 94.7051 6.52637C94.7917 6.29395 94.835 6.07292 94.835 5.86328C94.835 5.55794 94.7803 5.29134 94.6709 5.06348C94.5615 4.83105 94.402 4.65104 94.1924 4.52344C93.9873 4.39583 93.7344 4.33203 93.4336 4.33203C93.1009 4.33203 92.8161 4.40951 92.5791 4.56445C92.3467 4.71484 92.1689 4.92448 92.0459 5.19336C91.9274 5.46224 91.8682 5.76986 91.8682 6.11621H90.0566C90.0566 5.52832 90.1934 4.99284 90.4668 4.50977C90.7402 4.02214 91.1322 3.63249 91.6426 3.34082C92.153 3.04915 92.7591 2.90332 93.4609 2.90332C94.1445 2.90332 94.7233 3.01725 95.1973 3.24512C95.6712 3.46842 96.0312 3.78743 96.2773 4.20215C96.5234 4.61686 96.6465 5.11133 96.6465 5.68555C96.6465 6.00456 96.5941 6.31901 96.4893 6.62891C96.3844 6.9388 96.2363 7.24642 96.0449 7.55176C95.8581 7.85254 95.6348 8.15788 95.375 8.46777C95.1152 8.77767 94.8258 9.0944 94.5068 9.41797L92.5654 11.5781H96.9951ZM105.431 8.02344V9.45215H101.691V8.02344H105.431ZM114.427 9.37012H111.863V7.89355H114.427C114.846 7.89355 115.186 7.8252 115.445 7.68848C115.71 7.5472 115.903 7.35579 116.026 7.11426C116.149 6.86816 116.211 6.58789 116.211 6.27344C116.211 5.9681 116.149 5.68327 116.026 5.41895C115.903 5.15462 115.71 4.94043 115.445 4.77637C115.186 4.6123 114.846 4.53027 114.427 4.53027H112.479V13H110.599V3.04688H114.427C115.201 3.04688 115.862 3.18587 116.409 3.46387C116.961 3.7373 117.38 4.11784 117.667 4.60547C117.959 5.08854 118.104 5.63997 118.104 6.25977C118.104 6.90234 117.959 7.45605 117.667 7.9209C117.38 8.38574 116.961 8.74349 116.409 8.99414C115.862 9.24479 115.201 9.37012 114.427 9.37012ZM121.249 7.11426V13H119.444V5.60352H121.153L121.249 7.11426ZM123.498 5.55566L123.471 7.2373C123.37 7.21908 123.257 7.2054 123.129 7.19629C123.006 7.18717 122.89 7.18262 122.78 7.18262C122.502 7.18262 122.258 7.22135 122.049 7.29883C121.839 7.37174 121.664 7.47884 121.522 7.62012C121.386 7.76139 121.281 7.93457 121.208 8.13965C121.135 8.34017 121.094 8.56803 121.085 8.82324L120.695 8.77539C120.695 8.30599 120.743 7.87077 120.839 7.46973C120.935 7.06868 121.074 6.71777 121.256 6.41699C121.438 6.11621 121.666 5.88379 121.939 5.71973C122.217 5.55111 122.536 5.4668 122.896 5.4668C122.997 5.4668 123.104 5.47591 123.218 5.49414C123.336 5.50781 123.43 5.52832 123.498 5.55566ZM123.977 9.37695V9.2334C123.977 8.69108 124.054 8.19206 124.209 7.73633C124.364 7.27604 124.59 6.87728 124.886 6.54004C125.182 6.2028 125.544 5.94076 125.973 5.75391C126.401 5.5625 126.889 5.4668 127.436 5.4668C127.992 5.4668 128.484 5.5625 128.912 5.75391C129.345 5.94076 129.71 6.2028 130.006 6.54004C130.302 6.87728 130.528 7.27604 130.683 7.73633C130.838 8.19206 130.915 8.69108 130.915 9.2334V9.37695C130.915 9.91471 130.838 10.4137 130.683 10.874C130.528 11.3298 130.302 11.7285 130.006 12.0703C129.71 12.4076 129.347 12.6696 128.919 12.8564C128.491 13.0433 128.001 13.1367 127.449 13.1367C126.902 13.1367 126.412 13.0433 125.979 12.8564C125.547 12.6696 125.182 12.4076 124.886 12.0703C124.59 11.7285 124.364 11.3298 124.209 10.874C124.054 10.4137 123.977 9.91471 123.977 9.37695ZM125.781 9.2334V9.37695C125.781 9.70052 125.813 10.0036 125.877 10.2861C125.941 10.5687 126.039 10.8171 126.171 11.0312C126.303 11.2454 126.474 11.4141 126.684 11.5371C126.898 11.6556 127.153 11.7148 127.449 11.7148C127.741 11.7148 127.992 11.6556 128.201 11.5371C128.411 11.4141 128.582 11.2454 128.714 11.0312C128.851 10.8171 128.951 10.5687 129.015 10.2861C129.078 10.0036 129.11 9.70052 129.11 9.37695V9.2334C129.11 8.91439 129.078 8.61589 129.015 8.33789C128.951 8.05534 128.851 7.80697 128.714 7.59277C128.582 7.37402 128.409 7.20312 128.194 7.08008C127.985 6.95247 127.732 6.88867 127.436 6.88867C127.144 6.88867 126.893 6.95247 126.684 7.08008C126.474 7.20312 126.303 7.37402 126.171 7.59277C126.039 7.80697 125.941 8.05534 125.877 8.33789C125.813 8.61589 125.781 8.91439 125.781 9.2334ZM132.316 5.60352H134.135V13.5469C134.135 14.071 134.039 14.5153 133.848 14.8799C133.661 15.2445 133.39 15.5202 133.034 15.707C132.679 15.8939 132.243 15.9873 131.729 15.9873C131.569 15.9873 131.41 15.9782 131.25 15.96C131.09 15.9417 130.933 15.9121 130.778 15.8711L130.785 14.4766C130.885 14.4948 130.988 14.5085 131.093 14.5176C131.198 14.5312 131.302 14.5381 131.407 14.5381C131.603 14.5381 131.767 14.5039 131.899 14.4355C132.036 14.3672 132.139 14.2601 132.207 14.1143C132.28 13.9684 132.316 13.7793 132.316 13.5469V5.60352ZM132.166 3.66895C132.166 3.40007 132.257 3.17676 132.439 2.99902C132.626 2.82129 132.877 2.73242 133.191 2.73242C133.506 2.73242 133.754 2.82129 133.937 2.99902C134.123 3.17676 134.217 3.40007 134.217 3.66895C134.217 3.93327 134.123 4.1543 133.937 4.33203C133.754 4.50977 133.506 4.59863 133.191 4.59863C132.877 4.59863 132.626 4.50977 132.439 4.33203C132.257 4.1543 132.166 3.93327 132.166 3.66895ZM139.132 13.1367C138.571 13.1367 138.068 13.0456 137.621 12.8633C137.174 12.681 136.794 12.4281 136.479 12.1045C136.17 11.7764 135.93 11.3958 135.762 10.9629C135.598 10.5254 135.516 10.056 135.516 9.55469V9.28125C135.516 8.71159 135.598 8.19434 135.762 7.72949C135.926 7.26009 136.158 6.85677 136.459 6.51953C136.76 6.18229 137.12 5.92253 137.539 5.74023C137.958 5.55794 138.421 5.4668 138.927 5.4668C139.451 5.4668 139.913 5.55566 140.314 5.7334C140.715 5.90658 141.05 6.15267 141.319 6.47168C141.588 6.79069 141.791 7.1735 141.928 7.62012C142.064 8.06217 142.133 8.55208 142.133 9.08984V9.84863H136.336V8.60449H140.355V8.46777C140.346 8.18066 140.292 7.91862 140.191 7.68164C140.091 7.4401 139.936 7.2487 139.727 7.10742C139.517 6.96159 139.246 6.88867 138.913 6.88867C138.644 6.88867 138.41 6.94792 138.209 7.06641C138.013 7.18034 137.849 7.3444 137.717 7.55859C137.589 7.76823 137.493 8.01888 137.43 8.31055C137.366 8.60221 137.334 8.92578 137.334 9.28125V9.55469C137.334 9.86458 137.375 10.1517 137.457 10.416C137.544 10.6803 137.669 10.9105 137.833 11.1064C138.002 11.2979 138.202 11.4482 138.435 11.5576C138.672 11.6624 138.94 11.7148 139.241 11.7148C139.619 11.7148 139.961 11.6419 140.267 11.4961C140.576 11.3457 140.845 11.1247 141.073 10.833L141.982 11.7764C141.827 12.0042 141.618 12.223 141.354 12.4326C141.094 12.6423 140.779 12.8132 140.41 12.9453C140.041 13.0729 139.615 13.1367 139.132 13.1367ZM146.378 11.7148C146.633 11.7148 146.861 11.6647 147.062 11.5645C147.262 11.4642 147.422 11.3229 147.54 11.1406C147.663 10.9583 147.729 10.7464 147.738 10.5049H149.44C149.431 11.0062 149.29 11.4551 149.017 11.8516C148.743 12.248 148.379 12.5625 147.923 12.7949C147.472 13.0228 146.966 13.1367 146.405 13.1367C145.836 13.1367 145.339 13.041 144.915 12.8496C144.491 12.6582 144.138 12.3916 143.855 12.0498C143.577 11.708 143.368 11.3115 143.227 10.8604C143.09 10.4092 143.021 9.92611 143.021 9.41113V9.19238C143.021 8.67741 143.09 8.19434 143.227 7.74316C143.368 7.29199 143.577 6.89551 143.855 6.55371C144.138 6.21191 144.491 5.94531 144.915 5.75391C145.339 5.5625 145.833 5.4668 146.398 5.4668C146.995 5.4668 147.52 5.58301 147.971 5.81543C148.426 6.04785 148.782 6.37598 149.037 6.7998C149.297 7.22363 149.431 7.72266 149.44 8.29688H147.738C147.729 8.03255 147.67 7.79557 147.561 7.58594C147.451 7.3763 147.296 7.20768 147.096 7.08008C146.895 6.95247 146.651 6.88867 146.364 6.88867C146.059 6.88867 145.804 6.95247 145.599 7.08008C145.398 7.20768 145.241 7.38314 145.127 7.60645C145.018 7.8252 144.94 8.07129 144.895 8.34473C144.854 8.61361 144.833 8.89616 144.833 9.19238V9.41113C144.833 9.71191 144.854 9.99902 144.895 10.2725C144.94 10.5459 145.018 10.792 145.127 11.0107C145.241 11.2249 145.398 11.3958 145.599 11.5234C145.804 11.651 146.063 11.7148 146.378 11.7148ZM154.144 5.60352V6.90234H149.905V5.60352H154.144ZM151.04 3.78516H152.852V10.8672C152.852 11.0859 152.881 11.2546 152.94 11.373C153 11.4915 153.089 11.5713 153.207 11.6123C153.326 11.6533 153.467 11.6738 153.631 11.6738C153.749 11.6738 153.859 11.667 153.959 11.6533C154.059 11.6396 154.144 11.626 154.212 11.6123L154.219 12.9658C154.068 13.016 153.897 13.057 153.706 13.0889C153.519 13.1208 153.307 13.1367 153.07 13.1367C152.665 13.1367 152.309 13.0684 152.004 12.9316C151.699 12.7904 151.462 12.5648 151.293 12.2549C151.124 11.9404 151.04 11.5257 151.04 11.0107V3.78516ZM4.77832 25.3701H2.21484V23.8936H4.77832C5.19759 23.8936 5.53711 23.8252 5.79688 23.6885C6.0612 23.5472 6.25488 23.3558 6.37793 23.1143C6.50098 22.8682 6.5625 22.5879 6.5625 22.2734C6.5625 21.9681 6.50098 21.6833 6.37793 21.4189C6.25488 21.1546 6.0612 20.9404 5.79688 20.7764C5.53711 20.6123 5.19759 20.5303 4.77832 20.5303H2.83008V29H0.950195V19.0469H4.77832C5.55306 19.0469 6.21387 19.1859 6.76074 19.4639C7.31217 19.7373 7.73145 20.1178 8.01855 20.6055C8.31022 21.0885 8.45605 21.64 8.45605 22.2598C8.45605 22.9023 8.31022 23.4561 8.01855 23.9209C7.73145 24.3857 7.31217 24.7435 6.76074 24.9941C6.21387 25.2448 5.55306 25.3701 4.77832 25.3701ZM11.71 18.5V29H9.89844V18.5H11.71ZM17.5068 27.4277V24.0166C17.5068 23.766 17.4635 23.5495 17.377 23.3672C17.2904 23.1849 17.1582 23.0436 16.9805 22.9434C16.8027 22.8431 16.5771 22.793 16.3037 22.793C16.0622 22.793 15.8503 22.834 15.668 22.916C15.4902 22.998 15.3535 23.1143 15.2578 23.2646C15.1621 23.4105 15.1143 23.5791 15.1143 23.7705H13.3027C13.3027 23.4652 13.3757 23.1758 13.5215 22.9023C13.6673 22.6243 13.8747 22.3783 14.1436 22.1641C14.417 21.9453 14.7428 21.7744 15.1211 21.6514C15.5039 21.5283 15.9323 21.4668 16.4062 21.4668C16.9668 21.4668 17.4658 21.5625 17.9033 21.7539C18.3454 21.9408 18.6917 22.2233 18.9424 22.6016C19.1976 22.9798 19.3252 23.4561 19.3252 24.0303V27.2568C19.3252 27.626 19.348 27.9427 19.3936 28.207C19.4437 28.4668 19.5166 28.6924 19.6123 28.8838V29H17.7734C17.6868 28.8132 17.6208 28.5762 17.5752 28.2891C17.5296 27.9974 17.5068 27.7103 17.5068 27.4277ZM17.7598 24.4951L17.7734 25.5684H16.6318C16.3493 25.5684 16.1009 25.598 15.8867 25.6572C15.6725 25.7119 15.4971 25.7939 15.3604 25.9033C15.2236 26.0081 15.1211 26.1357 15.0527 26.2861C14.9844 26.432 14.9502 26.5983 14.9502 26.7852C14.9502 26.9674 14.9912 27.1315 15.0732 27.2773C15.1598 27.4232 15.2829 27.5394 15.4424 27.626C15.6064 27.708 15.7979 27.749 16.0166 27.749C16.3356 27.749 16.6136 27.6852 16.8506 27.5576C17.0876 27.4255 17.2721 27.266 17.4043 27.0791C17.5365 26.8923 17.6071 26.7145 17.6162 26.5459L18.1357 27.3252C18.0719 27.512 17.9762 27.7103 17.8486 27.9199C17.721 28.1296 17.557 28.3255 17.3564 28.5078C17.1559 28.6901 16.9144 28.8405 16.6318 28.959C16.3493 29.0775 16.0212 29.1367 15.6475 29.1367C15.1689 29.1367 14.7406 29.041 14.3623 28.8496C13.984 28.6582 13.6855 28.3962 13.4668 28.0635C13.248 27.7308 13.1387 27.3525 13.1387 26.9287C13.1387 26.5368 13.2116 26.1904 13.3574 25.8896C13.5033 25.5889 13.7197 25.3359 14.0068 25.1309C14.2939 24.9212 14.6494 24.764 15.0732 24.6592C15.5016 24.5498 15.9915 24.4951 16.543 24.4951H17.7598ZM22.7227 23.1826V29H20.918V21.6035H22.6133L22.7227 23.1826ZM22.4355 25.0352H21.9023C21.9069 24.4974 21.9798 24.0098 22.1211 23.5723C22.2624 23.1348 22.4606 22.7588 22.7158 22.4443C22.9756 22.1299 23.2832 21.8883 23.6387 21.7197C23.9941 21.5511 24.3906 21.4668 24.8281 21.4668C25.1836 21.4668 25.5049 21.5169 25.792 21.6172C26.0791 21.7174 26.3252 21.877 26.5303 22.0957C26.7399 22.3145 26.8994 22.6016 27.0088 22.957C27.1227 23.3079 27.1797 23.7409 27.1797 24.2559V29H25.3613V24.2422C25.3613 23.9049 25.3112 23.6383 25.2109 23.4424C25.1152 23.2464 24.974 23.1074 24.7871 23.0254C24.6048 22.9434 24.3792 22.9023 24.1104 22.9023C23.8324 22.9023 23.5885 22.9593 23.3789 23.0732C23.1738 23.1826 23.0007 23.3353 22.8594 23.5312C22.7227 23.7272 22.6178 23.9528 22.5449 24.208C22.472 24.4632 22.4355 24.7389 22.4355 25.0352ZM30.543 23.1826V29H28.7383V21.6035H30.4336L30.543 23.1826ZM30.2559 25.0352H29.7227C29.7272 24.4974 29.8001 24.0098 29.9414 23.5723C30.0827 23.1348 30.2809 22.7588 30.5361 22.4443C30.7959 22.1299 31.1035 21.8883 31.459 21.7197C31.8145 21.5511 32.2109 21.4668 32.6484 21.4668C33.0039 21.4668 33.3252 21.5169 33.6123 21.6172C33.8994 21.7174 34.1455 21.877 34.3506 22.0957C34.5602 22.3145 34.7197 22.6016 34.8291 22.957C34.943 23.3079 35 23.7409 35 24.2559V29H33.1816V24.2422C33.1816 23.9049 33.1315 23.6383 33.0312 23.4424C32.9355 23.2464 32.7943 23.1074 32.6074 23.0254C32.4251 22.9434 32.1995 22.9023 31.9307 22.9023C31.6527 22.9023 31.4089 22.9593 31.1992 23.0732C30.9941 23.1826 30.821 23.3353 30.6797 23.5312C30.543 23.7272 30.4382 23.9528 30.3652 24.208C30.2923 24.4632 30.2559 24.7389 30.2559 25.0352ZM38.5068 21.6035V29H36.6953V21.6035H38.5068ZM36.5723 19.6689C36.5723 19.4001 36.6634 19.1768 36.8457 18.999C37.0326 18.8213 37.2832 18.7324 37.5977 18.7324C37.9121 18.7324 38.1605 18.8213 38.3428 18.999C38.5296 19.1768 38.623 19.4001 38.623 19.6689C38.623 19.9333 38.5296 20.1543 38.3428 20.332C38.1605 20.5098 37.9121 20.5986 37.5977 20.5986C37.2832 20.5986 37.0326 20.5098 36.8457 20.332C36.6634 20.1543 36.5723 19.9333 36.5723 19.6689ZM42 23.1826V29H40.1953V21.6035H41.8906L42 23.1826ZM41.7129 25.0352H41.1797C41.1842 24.4974 41.2572 24.0098 41.3984 23.5723C41.5397 23.1348 41.738 22.7588 41.9932 22.4443C42.2529 22.1299 42.5605 21.8883 42.916 21.7197C43.2715 21.5511 43.668 21.4668 44.1055 21.4668C44.4609 21.4668 44.7822 21.5169 45.0693 21.6172C45.3564 21.7174 45.6025 21.877 45.8076 22.0957C46.0173 22.3145 46.1768 22.6016 46.2861 22.957C46.4001 23.3079 46.457 23.7409 46.457 24.2559V29H44.6387V24.2422C44.6387 23.9049 44.5885 23.6383 44.4883 23.4424C44.3926 23.2464 44.2513 23.1074 44.0645 23.0254C43.8822 22.9434 43.6566 22.9023 43.3877 22.9023C43.1097 22.9023 42.8659 22.9593 42.6562 23.0732C42.4512 23.1826 42.278 23.3353 42.1367 23.5312C42 23.7272 41.8952 23.9528 41.8223 24.208C41.7493 24.4632 41.7129 24.7389 41.7129 25.0352ZM52.7529 21.6035H54.3936V28.7744C54.3936 29.4443 54.2477 30.0117 53.9561 30.4766C53.6689 30.946 53.2656 31.3014 52.7461 31.543C52.2266 31.7891 51.6227 31.9121 50.9346 31.9121C50.6383 31.9121 50.3171 31.8711 49.9707 31.7891C49.6289 31.707 49.2985 31.5771 48.9795 31.3994C48.665 31.2262 48.403 31.0007 48.1934 30.7227L49.0068 29.6562C49.2529 29.9434 49.5309 30.1598 49.8408 30.3057C50.1507 30.4561 50.4857 30.5312 50.8457 30.5312C51.2103 30.5312 51.5202 30.4629 51.7754 30.3262C52.0352 30.194 52.2334 29.998 52.3701 29.7383C52.5114 29.4831 52.582 29.1686 52.582 28.7949V23.292L52.7529 21.6035ZM47.7559 25.3906V25.2471C47.7559 24.682 47.8242 24.1693 47.9609 23.709C48.0977 23.2441 48.2936 22.8454 48.5488 22.5127C48.8086 22.18 49.1208 21.9225 49.4854 21.7402C49.8545 21.5579 50.2692 21.4668 50.7295 21.4668C51.2171 21.4668 51.6273 21.5557 51.96 21.7334C52.2972 21.9111 52.5752 22.1641 52.7939 22.4922C53.0173 22.8203 53.1904 23.21 53.3135 23.6611C53.4411 24.1077 53.5391 24.5999 53.6074 25.1377V25.5273C53.5436 26.0514 53.4411 26.5322 53.2998 26.9697C53.1631 27.4072 52.9808 27.79 52.7529 28.1182C52.5251 28.4417 52.2425 28.6924 51.9053 28.8701C51.568 29.0479 51.1715 29.1367 50.7158 29.1367C50.2601 29.1367 49.8499 29.0433 49.4854 28.8564C49.1208 28.6696 48.8086 28.4076 48.5488 28.0703C48.2936 27.7331 48.0977 27.3366 47.9609 26.8809C47.8242 26.4251 47.7559 25.9284 47.7559 25.3906ZM49.5605 25.2471V25.3906C49.5605 25.7096 49.5924 26.0081 49.6562 26.2861C49.7201 26.5641 49.818 26.8102 49.9502 27.0244C50.0824 27.234 50.2487 27.3981 50.4492 27.5166C50.6497 27.6351 50.889 27.6943 51.167 27.6943C51.5407 27.6943 51.846 27.6169 52.083 27.4619C52.3245 27.3024 52.5068 27.0859 52.6299 26.8125C52.7575 26.5345 52.8395 26.2223 52.876 25.876V24.8027C52.8532 24.5293 52.8031 24.2764 52.7256 24.0439C52.6527 23.8115 52.5501 23.611 52.418 23.4424C52.2858 23.2738 52.1172 23.1416 51.9121 23.0459C51.707 22.9502 51.4632 22.9023 51.1807 22.9023C50.9072 22.9023 50.668 22.9639 50.4629 23.0869C50.2578 23.2054 50.0892 23.3717 49.957 23.5859C49.8249 23.8001 49.7246 24.0485 49.6562 24.3311C49.5924 24.6136 49.5605 24.9189 49.5605 25.2471Z" fill="black"/>
<path d="M3.29883 51H1.51758L1.5293 50.0801H3.29883C3.9082 50.0801 4.41602 49.9531 4.82227 49.6992C5.22852 49.4414 5.5332 49.082 5.73633 48.6211C5.94336 48.1562 6.04688 47.6133 6.04688 46.9922V46.4707C6.04688 45.9824 5.98828 45.5488 5.87109 45.1699C5.75391 44.7871 5.58203 44.4648 5.35547 44.2031C5.12891 43.9375 4.85156 43.7363 4.52344 43.5996C4.19922 43.4629 3.82617 43.3945 3.4043 43.3945H1.48242V42.4688H3.4043C3.96289 42.4688 4.47266 42.5625 4.93359 42.75C5.39453 42.9336 5.79102 43.2012 6.12305 43.5527C6.45898 43.9004 6.7168 44.3223 6.89648 44.8184C7.07617 45.3105 7.16602 45.8652 7.16602 46.4824V46.9922C7.16602 47.6094 7.07617 48.166 6.89648 48.6621C6.7168 49.1543 6.45703 49.5742 6.11719 49.9219C5.78125 50.2695 5.375 50.5371 4.89844 50.7246C4.42578 50.9082 3.89258 51 3.29883 51ZM2.12109 42.4688V51H0.990234V42.4688H2.12109ZM9.87891 44.6602V51H8.78906V44.6602H9.87891ZM8.70703 42.9785C8.70703 42.8027 8.75977 42.6543 8.86523 42.5332C8.97461 42.4121 9.13477 42.3516 9.3457 42.3516C9.55273 42.3516 9.71094 42.4121 9.82031 42.5332C9.93359 42.6543 9.99023 42.8027 9.99023 42.9785C9.99023 43.1465 9.93359 43.291 9.82031 43.4121C9.71094 43.5293 9.55273 43.5879 9.3457 43.5879C9.13477 43.5879 8.97461 43.5293 8.86523 43.4121C8.75977 43.291 8.70703 43.1465 8.70703 42.9785ZM15.7266 44.6602H16.7109V50.8652C16.7109 51.4238 16.5977 51.9004 16.3711 52.2949C16.1445 52.6895 15.8281 52.9883 15.4219 53.1914C15.0195 53.3984 14.5547 53.502 14.0273 53.502C13.8086 53.502 13.5508 53.4668 13.2539 53.3965C12.9609 53.3301 12.6719 53.2148 12.3867 53.0508C12.1055 52.8906 11.8691 52.6738 11.6777 52.4004L12.2461 51.7559C12.5117 52.0762 12.7891 52.2988 13.0781 52.4238C13.3711 52.5488 13.6602 52.6113 13.9453 52.6113C14.2891 52.6113 14.5859 52.5469 14.8359 52.418C15.0859 52.2891 15.2793 52.0977 15.416 51.8438C15.5566 51.5938 15.627 51.2852 15.627 50.918V46.0547L15.7266 44.6602ZM11.3613 47.9004V47.7773C11.3613 47.293 11.418 46.8535 11.5312 46.459C11.6484 46.0605 11.8145 45.7188 12.0293 45.4336C12.248 45.1484 12.5117 44.9297 12.8203 44.7773C13.1289 44.6211 13.4766 44.543 13.8633 44.543C14.2617 44.543 14.6094 44.6133 14.9062 44.7539C15.207 44.8906 15.4609 45.0918 15.668 45.3574C15.8789 45.6191 16.0449 45.9355 16.166 46.3066C16.2871 46.6777 16.3711 47.0977 16.418 47.5664V48.1055C16.375 48.5703 16.291 48.9883 16.166 49.3594C16.0449 49.7305 15.8789 50.0469 15.668 50.3086C15.4609 50.5703 15.207 50.7715 14.9062 50.9121C14.6055 51.0488 14.2539 51.1172 13.8516 51.1172C13.4727 51.1172 13.1289 51.0371 12.8203 50.877C12.5156 50.7168 12.2539 50.4922 12.0352 50.2031C11.8164 49.9141 11.6484 49.5742 11.5312 49.1836C11.418 48.7891 11.3613 48.3613 11.3613 47.9004ZM12.4453 47.7773V47.9004C12.4453 48.2168 12.4766 48.5137 12.5391 48.791C12.6055 49.0684 12.7051 49.3125 12.8379 49.5234C12.9746 49.7344 13.1484 49.9004 13.3594 50.0215C13.5703 50.1387 13.8223 50.1973 14.1152 50.1973C14.4746 50.1973 14.7715 50.1211 15.0059 49.9688C15.2402 49.8164 15.4258 49.6152 15.5625 49.3652C15.7031 49.1152 15.8125 48.8438 15.8906 48.5508V47.1387C15.8477 46.9238 15.7812 46.7168 15.6914 46.5176C15.6055 46.3145 15.4922 46.1348 15.3516 45.9785C15.2148 45.8184 15.0449 45.6914 14.8418 45.5977C14.6387 45.5039 14.4004 45.457 14.127 45.457C13.8301 45.457 13.5742 45.5195 13.3594 45.6445C13.1484 45.7656 12.9746 45.9336 12.8379 46.1484C12.7051 46.3594 12.6055 46.6055 12.5391 46.8867C12.4766 47.1641 12.4453 47.4609 12.4453 47.7773ZM19.5352 44.6602V51H18.4453V44.6602H19.5352ZM18.3633 42.9785C18.3633 42.8027 18.416 42.6543 18.5215 42.5332C18.6309 42.4121 18.791 42.3516 19.002 42.3516C19.209 42.3516 19.3672 42.4121 19.4766 42.5332C19.5898 42.6543 19.6465 42.8027 19.6465 42.9785C19.6465 43.1465 19.5898 43.291 19.4766 43.4121C19.3672 43.5293 19.209 43.5879 19.002 43.5879C18.791 43.5879 18.6309 43.5293 18.5215 43.4121C18.416 43.291 18.3633 43.1465 18.3633 42.9785ZM23.9297 44.6602V45.4922H20.502V44.6602H23.9297ZM21.6621 43.1191H22.7461V49.4297C22.7461 49.6445 22.7793 49.8066 22.8457 49.916C22.9121 50.0254 22.998 50.0977 23.1035 50.1328C23.209 50.168 23.3223 50.1855 23.4434 50.1855C23.5332 50.1855 23.627 50.1777 23.7246 50.1621C23.8262 50.1426 23.9023 50.127 23.9531 50.1152L23.959 51C23.873 51.0273 23.7598 51.0527 23.6191 51.0762C23.4824 51.1035 23.3164 51.1172 23.1211 51.1172C22.8555 51.1172 22.6113 51.0645 22.3887 50.959C22.166 50.8535 21.9883 50.6777 21.8555 50.4316C21.7266 50.1816 21.6621 49.8457 21.6621 49.4238V43.1191ZM28.9395 49.916V46.6523C28.9395 46.4023 28.8887 46.1855 28.7871 46.002C28.6895 45.8145 28.541 45.6699 28.3418 45.5684C28.1426 45.4668 27.8965 45.416 27.6035 45.416C27.3301 45.416 27.0898 45.4629 26.8828 45.5566C26.6797 45.6504 26.5195 45.7734 26.4023 45.9258C26.2891 46.0781 26.2324 46.2422 26.2324 46.418H25.1484C25.1484 46.1914 25.207 45.9668 25.3242 45.7441C25.4414 45.5215 25.6094 45.3203 25.8281 45.1406C26.0508 44.957 26.3164 44.8125 26.625 44.707C26.9375 44.5977 27.2852 44.543 27.668 44.543C28.1289 44.543 28.5352 44.6211 28.8867 44.7773C29.2422 44.9336 29.5195 45.1699 29.7188 45.4863C29.9219 45.7988 30.0234 46.1914 30.0234 46.6641V49.6172C30.0234 49.8281 30.041 50.0527 30.0762 50.291C30.1152 50.5293 30.1719 50.7344 30.2461 50.9062V51H29.1152C29.0605 50.875 29.0176 50.709 28.9863 50.502C28.9551 50.291 28.9395 50.0957 28.9395 49.916ZM29.127 47.1562L29.1387 47.918H28.043C27.7344 47.918 27.459 47.9434 27.2168 47.9941C26.9746 48.041 26.7715 48.1133 26.6074 48.2109C26.4434 48.3086 26.3184 48.4316 26.2324 48.5801C26.1465 48.7246 26.1035 48.8945 26.1035 49.0898C26.1035 49.2891 26.1484 49.4707 26.2383 49.6348C26.3281 49.7988 26.4629 49.9297 26.6426 50.0273C26.8262 50.1211 27.0508 50.168 27.3164 50.168C27.6484 50.168 27.9414 50.0977 28.1953 49.957C28.4492 49.8164 28.6504 49.6445 28.7988 49.4414C28.9512 49.2383 29.0332 49.041 29.0449 48.8496L29.5078 49.3711C29.4805 49.5352 29.4062 49.7168 29.2852 49.916C29.1641 50.1152 29.002 50.3066 28.7988 50.4902C28.5996 50.6699 28.3613 50.8203 28.084 50.9414C27.8105 51.0586 27.502 51.1172 27.1582 51.1172C26.7285 51.1172 26.3516 51.0332 26.0273 50.8652C25.707 50.6973 25.457 50.4727 25.2773 50.1914C25.1016 49.9062 25.0137 49.5879 25.0137 49.2363C25.0137 48.8965 25.0801 48.5977 25.2129 48.3398C25.3457 48.0781 25.5371 47.8613 25.7871 47.6895C26.0371 47.5137 26.3379 47.3809 26.6895 47.291C27.041 47.2012 27.4336 47.1562 27.8672 47.1562H29.127ZM32.9062 42V51H31.8164V42H32.9062ZM36.0234 42.4688V51H34.8926V42.4688H36.0234ZM39 46.0137V51H37.916V44.6602H38.9414L39 46.0137ZM38.7422 47.5898L38.291 47.5723C38.2949 47.1387 38.3594 46.7383 38.4844 46.3711C38.6094 46 38.7852 45.6777 39.0117 45.4043C39.2383 45.1309 39.5078 44.9199 39.8203 44.7715C40.1367 44.6191 40.4863 44.543 40.8691 44.543C41.1816 44.543 41.4629 44.5859 41.7129 44.6719C41.9629 44.7539 42.1758 44.8867 42.3516 45.0703C42.5312 45.2539 42.668 45.4922 42.7617 45.7852C42.8555 46.0742 42.9023 46.4277 42.9023 46.8457V51H41.8125V46.834C41.8125 46.502 41.7637 46.2363 41.666 46.0371C41.5684 45.834 41.4258 45.6875 41.2383 45.5977C41.0508 45.5039 40.8203 45.457 40.5469 45.457C40.2773 45.457 40.0312 45.5137 39.8086 45.627C39.5898 45.7402 39.4004 45.8965 39.2402 46.0957C39.084 46.2949 38.9609 46.5234 38.8711 46.7812C38.7852 47.0352 38.7422 47.3047 38.7422 47.5898ZM45.6328 46.0137V51H44.5488V44.6602H45.5742L45.6328 46.0137ZM45.375 47.5898L44.9238 47.5723C44.9277 47.1387 44.9922 46.7383 45.1172 46.3711C45.2422 46 45.418 45.6777 45.6445 45.4043C45.8711 45.1309 46.1406 44.9199 46.4531 44.7715C46.7695 44.6191 47.1191 44.543 47.502 44.543C47.8145 44.543 48.0957 44.5859 48.3457 44.6719C48.5957 44.7539 48.8086 44.8867 48.9844 45.0703C49.1641 45.2539 49.3008 45.4922 49.3945 45.7852C49.4883 46.0742 49.5352 46.4277 49.5352 46.8457V51H48.4453V46.834C48.4453 46.502 48.3965 46.2363 48.2988 46.0371C48.2012 45.834 48.0586 45.6875 47.8711 45.5977C47.6836 45.5039 47.4531 45.457 47.1797 45.457C46.9102 45.457 46.6641 45.5137 46.4414 45.627C46.2227 45.7402 46.0332 45.8965 45.873 46.0957C45.7168 46.2949 45.5938 46.5234 45.5039 46.7812C45.418 47.0352 45.375 47.3047 45.375 47.5898ZM50.8945 47.9004V47.7656C50.8945 47.3086 50.9609 46.8848 51.0938 46.4941C51.2266 46.0996 51.418 45.7578 51.668 45.4688C51.918 45.1758 52.2207 44.9492 52.5762 44.7891C52.9316 44.625 53.3301 44.543 53.7715 44.543C54.2168 44.543 54.6172 44.625 54.9727 44.7891C55.332 44.9492 55.6367 45.1758 55.8867 45.4688C56.1406 45.7578 56.334 46.0996 56.4668 46.4941C56.5996 46.8848 56.666 47.3086 56.666 47.7656V47.9004C56.666 48.3574 56.5996 48.7812 56.4668 49.1719C56.334 49.5625 56.1406 49.9043 55.8867 50.1973C55.6367 50.4863 55.334 50.7129 54.9785 50.877C54.627 51.0371 54.2285 51.1172 53.7832 51.1172C53.3379 51.1172 52.9375 51.0371 52.582 50.877C52.2266 50.7129 51.9219 50.4863 51.668 50.1973C51.418 49.9043 51.2266 49.5625 51.0938 49.1719C50.9609 48.7812 50.8945 48.3574 50.8945 47.9004ZM51.9785 47.7656V47.9004C51.9785 48.2168 52.0156 48.5156 52.0898 48.7969C52.1641 49.0742 52.2754 49.3203 52.4238 49.5352C52.5762 49.75 52.7656 49.9199 52.9922 50.0449C53.2188 50.166 53.4824 50.2266 53.7832 50.2266C54.0801 50.2266 54.3398 50.166 54.5625 50.0449C54.7891 49.9199 54.9766 49.75 55.125 49.5352C55.2734 49.3203 55.3848 49.0742 55.459 48.7969C55.5371 48.5156 55.5762 48.2168 55.5762 47.9004V47.7656C55.5762 47.4531 55.5371 47.1582 55.459 46.8809C55.3848 46.5996 55.2715 46.3516 55.1191 46.1367C54.9707 45.918 54.7832 45.7461 54.5566 45.6211C54.334 45.4961 54.0723 45.4336 53.7715 45.4336C53.4746 45.4336 53.2129 45.4961 52.9863 45.6211C52.7637 45.7461 52.5762 45.918 52.4238 46.1367C52.2754 46.3516 52.1641 46.5996 52.0898 46.8809C52.0156 47.1582 51.9785 47.4531 51.9785 47.7656ZM59.8594 50.0215L61.5938 44.6602H62.7012L60.4219 51H59.6953L59.8594 50.0215ZM58.4121 44.6602L60.1992 50.0508L60.3223 51H59.5957L57.2988 44.6602H58.4121ZM67.3887 49.916V46.6523C67.3887 46.4023 67.3379 46.1855 67.2363 46.002C67.1387 45.8145 66.9902 45.6699 66.791 45.5684C66.5918 45.4668 66.3457 45.416 66.0527 45.416C65.7793 45.416 65.5391 45.4629 65.332 45.5566C65.1289 45.6504 64.9688 45.7734 64.8516 45.9258C64.7383 46.0781 64.6816 46.2422 64.6816 46.418H63.5977C63.5977 46.1914 63.6562 45.9668 63.7734 45.7441C63.8906 45.5215 64.0586 45.3203 64.2773 45.1406C64.5 44.957 64.7656 44.8125 65.0742 44.707C65.3867 44.5977 65.7344 44.543 66.1172 44.543C66.5781 44.543 66.9844 44.6211 67.3359 44.7773C67.6914 44.9336 67.9688 45.1699 68.168 45.4863C68.3711 45.7988 68.4727 46.1914 68.4727 46.6641V49.6172C68.4727 49.8281 68.4902 50.0527 68.5254 50.291C68.5645 50.5293 68.6211 50.7344 68.6953 50.9062V51H67.5645C67.5098 50.875 67.4668 50.709 67.4355 50.502C67.4043 50.291 67.3887 50.0957 67.3887 49.916ZM67.5762 47.1562L67.5879 47.918H66.4922C66.1836 47.918 65.9082 47.9434 65.666 47.9941C65.4238 48.041 65.2207 48.1133 65.0566 48.2109C64.8926 48.3086 64.7676 48.4316 64.6816 48.5801C64.5957 48.7246 64.5527 48.8945 64.5527 49.0898C64.5527 49.2891 64.5977 49.4707 64.6875 49.6348C64.7773 49.7988 64.9121 49.9297 65.0918 50.0273C65.2754 50.1211 65.5 50.168 65.7656 50.168C66.0977 50.168 66.3906 50.0977 66.6445 49.957C66.8984 49.8164 67.0996 49.6445 67.248 49.4414C67.4004 49.2383 67.4824 49.041 67.4941 48.8496L67.957 49.3711C67.9297 49.5352 67.8555 49.7168 67.7344 49.916C67.6133 50.1152 67.4512 50.3066 67.248 50.4902C67.0488 50.6699 66.8105 50.8203 66.5332 50.9414C66.2598 51.0586 65.9512 51.1172 65.6074 51.1172C65.1777 51.1172 64.8008 51.0332 64.4766 50.8652C64.1562 50.6973 63.9062 50.4727 63.7266 50.1914C63.5508 49.9062 63.4629 49.5879 63.4629 49.2363C63.4629 48.8965 63.5293 48.5977 63.6621 48.3398C63.7949 48.0781 63.9863 47.8613 64.2363 47.6895C64.4863 47.5137 64.7871 47.3809 65.1387 47.291C65.4902 47.2012 65.8828 47.1562 66.3164 47.1562H67.5762ZM72.832 44.6602V45.4922H69.4043V44.6602H72.832ZM70.5645 43.1191H71.6484V49.4297C71.6484 49.6445 71.6816 49.8066 71.748 49.916C71.8145 50.0254 71.9004 50.0977 72.0059 50.1328C72.1113 50.168 72.2246 50.1855 72.3457 50.1855C72.4355 50.1855 72.5293 50.1777 72.627 50.1621C72.7285 50.1426 72.8047 50.127 72.8555 50.1152L72.8613 51C72.7754 51.0273 72.6621 51.0527 72.5215 51.0762C72.3848 51.1035 72.2188 51.1172 72.0234 51.1172C71.7578 51.1172 71.5137 51.0645 71.291 50.959C71.0684 50.8535 70.8906 50.6777 70.7578 50.4316C70.6289 50.1816 70.5645 49.8457 70.5645 49.4238V43.1191ZM75.2812 44.6602V51H74.1914V44.6602H75.2812ZM74.1094 42.9785C74.1094 42.8027 74.1621 42.6543 74.2676 42.5332C74.377 42.4121 74.5371 42.3516 74.748 42.3516C74.9551 42.3516 75.1133 42.4121 75.2227 42.5332C75.3359 42.6543 75.3926 42.8027 75.3926 42.9785C75.3926 43.1465 75.3359 43.291 75.2227 43.4121C75.1133 43.5293 74.9551 43.5879 74.748 43.5879C74.5371 43.5879 74.377 43.5293 74.2676 43.4121C74.1621 43.291 74.1094 43.1465 74.1094 42.9785ZM76.7344 47.9004V47.7656C76.7344 47.3086 76.8008 46.8848 76.9336 46.4941C77.0664 46.0996 77.2578 45.7578 77.5078 45.4688C77.7578 45.1758 78.0605 44.9492 78.416 44.7891C78.7715 44.625 79.1699 44.543 79.6113 44.543C80.0566 44.543 80.457 44.625 80.8125 44.7891C81.1719 44.9492 81.4766 45.1758 81.7266 45.4688C81.9805 45.7578 82.1738 46.0996 82.3066 46.4941C82.4395 46.8848 82.5059 47.3086 82.5059 47.7656V47.9004C82.5059 48.3574 82.4395 48.7812 82.3066 49.1719C82.1738 49.5625 81.9805 49.9043 81.7266 50.1973C81.4766 50.4863 81.1738 50.7129 80.8184 50.877C80.4668 51.0371 80.0684 51.1172 79.623 51.1172C79.1777 51.1172 78.7773 51.0371 78.4219 50.877C78.0664 50.7129 77.7617 50.4863 77.5078 50.1973C77.2578 49.9043 77.0664 49.5625 76.9336 49.1719C76.8008 48.7812 76.7344 48.3574 76.7344 47.9004ZM77.8184 47.7656V47.9004C77.8184 48.2168 77.8555 48.5156 77.9297 48.7969C78.0039 49.0742 78.1152 49.3203 78.2637 49.5352C78.416 49.75 78.6055 49.9199 78.832 50.0449C79.0586 50.166 79.3223 50.2266 79.623 50.2266C79.9199 50.2266 80.1797 50.166 80.4023 50.0449C80.6289 49.9199 80.8164 49.75 80.9648 49.5352C81.1133 49.3203 81.2246 49.0742 81.2988 48.7969C81.377 48.5156 81.416 48.2168 81.416 47.9004V47.7656C81.416 47.4531 81.377 47.1582 81.2988 46.8809C81.2246 46.5996 81.1113 46.3516 80.959 46.1367C80.8105 45.918 80.623 45.7461 80.3965 45.6211C80.1738 45.4961 79.9121 45.4336 79.6113 45.4336C79.3145 45.4336 79.0527 45.4961 78.8262 45.6211C78.6035 45.7461 78.416 45.918 78.2637 46.1367C78.1152 46.3516 78.0039 46.5996 77.9297 46.8809C77.8555 47.1582 77.8184 47.4531 77.8184 47.7656ZM84.9492 46.0137V51H83.8652V44.6602H84.8906L84.9492 46.0137ZM84.6914 47.5898L84.2402 47.5723C84.2441 47.1387 84.3086 46.7383 84.4336 46.3711C84.5586 46 84.7344 45.6777 84.9609 45.4043C85.1875 45.1309 85.457 44.9199 85.7695 44.7715C86.0859 44.6191 86.4355 44.543 86.8184 44.543C87.1309 44.543 87.4121 44.5859 87.6621 44.6719C87.9121 44.7539 88.125 44.8867 88.3008 45.0703C88.4805 45.2539 88.6172 45.4922 88.7109 45.7852C88.8047 46.0742 88.8516 46.4277 88.8516 46.8457V51H87.7617V46.834C87.7617 46.502 87.7129 46.2363 87.6152 46.0371C87.5176 45.834 87.375 45.6875 87.1875 45.5977C87 45.5039 86.7695 45.457 86.4961 45.457C86.2266 45.457 85.9805 45.5137 85.7578 45.627C85.5391 45.7402 85.3496 45.8965 85.1895 46.0957C85.0332 46.2949 84.9102 46.5234 84.8203 46.7812C84.7344 47.0352 84.6914 47.3047 84.6914 47.5898ZM97.2305 46.4648V47.0039C97.2305 47.6445 97.1504 48.2188 96.9902 48.7266C96.8301 49.2344 96.5996 49.666 96.2988 50.0215C95.998 50.377 95.6367 50.6484 95.2148 50.8359C94.7969 51.0234 94.3281 51.1172 93.8086 51.1172C93.3047 51.1172 92.8418 51.0234 92.4199 50.8359C92.002 50.6484 91.6387 50.377 91.3301 50.0215C91.0254 49.666 90.7891 49.2344 90.6211 48.7266C90.4531 48.2188 90.3691 47.6445 90.3691 47.0039V46.4648C90.3691 45.8242 90.4512 45.252 90.6152 44.748C90.7832 44.2402 91.0195 43.8086 91.3242 43.4531C91.6289 43.0938 91.9902 42.8203 92.4082 42.6328C92.8301 42.4453 93.293 42.3516 93.7969 42.3516C94.3164 42.3516 94.7852 42.4453 95.2031 42.6328C95.625 42.8203 95.9863 43.0938 96.2871 43.4531C96.5918 43.8086 96.8242 44.2402 96.9844 44.748C97.1484 45.252 97.2305 45.8242 97.2305 46.4648ZM96.1113 47.0039V46.4531C96.1113 45.9453 96.0586 45.4961 95.9531 45.1055C95.8516 44.7148 95.7012 44.3867 95.502 44.1211C95.3027 43.8555 95.0586 43.6543 94.7695 43.5176C94.4844 43.3809 94.1602 43.3125 93.7969 43.3125C93.4453 43.3125 93.127 43.3809 92.8418 43.5176C92.5605 43.6543 92.3184 43.8555 92.1152 44.1211C91.916 44.3867 91.7617 44.7148 91.6523 45.1055C91.543 45.4961 91.4883 45.9453 91.4883 46.4531V47.0039C91.4883 47.5156 91.543 47.9688 91.6523 48.3633C91.7617 48.7539 91.918 49.084 92.1211 49.3535C92.3281 49.6191 92.5723 49.8203 92.8535 49.957C93.1387 50.0938 93.457 50.1621 93.8086 50.1621C94.1758 50.1621 94.502 50.0938 94.7871 49.957C95.0723 49.8203 95.3125 49.6191 95.5078 49.3535C95.707 49.084 95.8574 48.7539 95.959 48.3633C96.0605 47.9688 96.1113 47.5156 96.1113 47.0039ZM99.8438 46.0137V51H98.7598V44.6602H99.7852L99.8438 46.0137ZM99.5859 47.5898L99.1348 47.5723C99.1387 47.1387 99.2031 46.7383 99.3281 46.3711C99.4531 46 99.6289 45.6777 99.8555 45.4043C100.082 45.1309 100.352 44.9199 100.664 44.7715C100.98 44.6191 101.33 44.543 101.713 44.543C102.025 44.543 102.307 44.5859 102.557 44.6719C102.807 44.7539 103.02 44.8867 103.195 45.0703C103.375 45.2539 103.512 45.4922 103.605 45.7852C103.699 46.0742 103.746 46.4277 103.746 46.8457V51H102.656V46.834C102.656 46.502 102.607 46.2363 102.51 46.0371C102.412 45.834 102.27 45.6875 102.082 45.5977C101.895 45.5039 101.664 45.457 101.391 45.457C101.121 45.457 100.875 45.5137 100.652 45.627C100.434 45.7402 100.244 45.8965 100.084 46.0957C99.9277 46.2949 99.8047 46.5234 99.7148 46.7812C99.6289 47.0352 99.5859 47.3047 99.5859 47.5898ZM108.023 51.1172C107.582 51.1172 107.182 51.043 106.822 50.8945C106.467 50.7422 106.16 50.5293 105.902 50.2559C105.648 49.9824 105.453 49.6582 105.316 49.2832C105.18 48.9082 105.111 48.498 105.111 48.0527V47.8066C105.111 47.291 105.188 46.832 105.34 46.4297C105.492 46.0234 105.699 45.6797 105.961 45.3984C106.223 45.1172 106.52 44.9043 106.852 44.7598C107.184 44.6152 107.527 44.543 107.883 44.543C108.336 44.543 108.727 44.6211 109.055 44.7773C109.387 44.9336 109.658 45.1523 109.869 45.4336C110.08 45.7109 110.236 46.0391 110.338 46.418C110.439 46.793 110.49 47.2031 110.49 47.6484V48.1348H105.756V47.25H109.406V47.168C109.391 46.8867 109.332 46.6133 109.23 46.3477C109.133 46.082 108.977 45.8633 108.762 45.6914C108.547 45.5195 108.254 45.4336 107.883 45.4336C107.637 45.4336 107.41 45.4863 107.203 45.5918C106.996 45.6934 106.818 45.8457 106.67 46.0488C106.521 46.252 106.406 46.5 106.324 46.793C106.242 47.0859 106.201 47.4238 106.201 47.8066V48.0527C106.201 48.3535 106.242 48.6367 106.324 48.9023C106.41 49.1641 106.533 49.3945 106.693 49.5938C106.857 49.793 107.055 49.9492 107.285 50.0625C107.52 50.1758 107.785 50.2324 108.082 50.2324C108.465 50.2324 108.789 50.1543 109.055 49.998C109.32 49.8418 109.553 49.6328 109.752 49.3711L110.408 49.8926C110.271 50.0996 110.098 50.2969 109.887 50.4844C109.676 50.6719 109.416 50.8242 109.107 50.9414C108.803 51.0586 108.441 51.1172 108.023 51.1172Z" fill="#515151"/>
<path d="M1.78711 72.0918H1.89844C2.52344 72.0918 3.03125 72.0039 3.42188 71.8281C3.8125 71.6523 4.11328 71.416 4.32422 71.1191C4.53516 70.8223 4.67969 70.4883 4.75781 70.1172C4.83594 69.7422 4.875 69.3574 4.875 68.9629V67.6562C4.875 67.2695 4.83008 66.9258 4.74023 66.625C4.6543 66.3242 4.5332 66.0723 4.37695 65.8691C4.22461 65.666 4.05078 65.5117 3.85547 65.4062C3.66016 65.3008 3.45312 65.248 3.23438 65.248C2.98438 65.248 2.75977 65.2988 2.56055 65.4004C2.36523 65.498 2.19922 65.6367 2.0625 65.8164C1.92969 65.9961 1.82812 66.207 1.75781 66.4492C1.6875 66.6914 1.65234 66.9551 1.65234 67.2402C1.65234 67.4941 1.68359 67.7402 1.74609 67.9785C1.80859 68.2168 1.9043 68.4316 2.0332 68.623C2.16211 68.8145 2.32227 68.9668 2.51367 69.0801C2.70898 69.1895 2.9375 69.2441 3.19922 69.2441C3.44141 69.2441 3.66797 69.1973 3.87891 69.1035C4.09375 69.0059 4.2832 68.875 4.44727 68.7109C4.61523 68.543 4.74805 68.3535 4.8457 68.1426C4.94727 67.9316 5.00586 67.7109 5.02148 67.4805H5.53711C5.53711 67.8047 5.47266 68.125 5.34375 68.4414C5.21875 68.7539 5.04297 69.0391 4.81641 69.2969C4.58984 69.5547 4.32422 69.7617 4.01953 69.918C3.71484 70.0703 3.38281 70.1465 3.02344 70.1465C2.60156 70.1465 2.23633 70.0645 1.92773 69.9004C1.61914 69.7363 1.36523 69.5176 1.16602 69.2441C0.970703 68.9707 0.824219 68.666 0.726562 68.3301C0.632812 67.9902 0.585938 67.6465 0.585938 67.2988C0.585938 66.8926 0.642578 66.5117 0.755859 66.1562C0.869141 65.8008 1.03711 65.4883 1.25977 65.2188C1.48242 64.9453 1.75781 64.7324 2.08594 64.5801C2.41797 64.4277 2.80078 64.3516 3.23438 64.3516C3.72266 64.3516 4.13867 64.4492 4.48242 64.6445C4.82617 64.8398 5.10547 65.1016 5.32031 65.4297C5.53906 65.7578 5.69922 66.127 5.80078 66.5371C5.90234 66.9473 5.95312 67.3691 5.95312 67.8027V68.1953C5.95312 68.6367 5.92383 69.0859 5.86523 69.543C5.81055 69.9961 5.70312 70.4297 5.54297 70.8438C5.38672 71.2578 5.1582 71.6289 4.85742 71.957C4.55664 72.2812 4.16406 72.5391 3.67969 72.7305C3.19922 72.918 2.60547 73.0117 1.89844 73.0117H1.78711V72.0918ZM12.9727 64.4688V65.0781L9.43945 73H8.29688L11.8242 65.3594H7.20703V64.4688H12.9727ZM17.7715 64.4219V73H16.6875V65.7754L14.502 66.5723V65.5938L17.6016 64.4219H17.7715ZM25.9805 72.0215L27.7148 66.6602H28.8223L26.543 73H25.8164L25.9805 72.0215ZM24.5332 66.6602L26.3203 72.0508L26.4434 73H25.7168L23.4199 66.6602H24.5332ZM31.043 66.6602V73H29.9531V66.6602H31.043ZM29.8711 64.9785C29.8711 64.8027 29.9238 64.6543 30.0293 64.5332C30.1387 64.4121 30.2988 64.3516 30.5098 64.3516C30.7168 64.3516 30.875 64.4121 30.9844 64.5332C31.0977 64.6543 31.1543 64.8027 31.1543 64.9785C31.1543 65.1465 31.0977 65.291 30.9844 65.4121C30.875 65.5293 30.7168 65.5879 30.5098 65.5879C30.2988 65.5879 30.1387 65.5293 30.0293 65.4121C29.9238 65.291 29.8711 65.1465 29.8711 64.9785ZM36.4746 71.3184C36.4746 71.1621 36.4395 71.0176 36.3691 70.8848C36.3027 70.748 36.1641 70.625 35.9531 70.5156C35.7461 70.4023 35.4336 70.3047 35.0156 70.2227C34.6641 70.1484 34.3457 70.0605 34.0605 69.959C33.7793 69.8574 33.5391 69.7344 33.3398 69.5898C33.1445 69.4453 32.9941 69.2754 32.8887 69.0801C32.7832 68.8848 32.7305 68.6562 32.7305 68.3945C32.7305 68.1445 32.7852 67.9082 32.8945 67.6855C33.0078 67.4629 33.166 67.2656 33.3691 67.0938C33.5762 66.9219 33.8242 66.7871 34.1133 66.6895C34.4023 66.5918 34.7246 66.543 35.0801 66.543C35.5879 66.543 36.0215 66.6328 36.3809 66.8125C36.7402 66.9922 37.0156 67.2324 37.207 67.5332C37.3984 67.8301 37.4941 68.1602 37.4941 68.5234H36.4102C36.4102 68.3477 36.3574 68.1777 36.252 68.0137C36.1504 67.8457 36 67.707 35.8008 67.5977C35.6055 67.4883 35.3652 67.4336 35.0801 67.4336C34.7793 67.4336 34.5352 67.4805 34.3477 67.5742C34.1641 67.6641 34.0293 67.7793 33.9434 67.9199C33.8613 68.0605 33.8203 68.209 33.8203 68.3652C33.8203 68.4824 33.8398 68.5879 33.8789 68.6816C33.9219 68.7715 33.9961 68.8555 34.1016 68.9336C34.207 69.0078 34.3555 69.0781 34.5469 69.1445C34.7383 69.2109 34.9824 69.2773 35.2793 69.3438C35.7988 69.4609 36.2266 69.6016 36.5625 69.7656C36.8984 69.9297 37.1484 70.1309 37.3125 70.3691C37.4766 70.6074 37.5586 70.8965 37.5586 71.2363C37.5586 71.5137 37.5 71.7676 37.3828 71.998C37.2695 72.2285 37.1035 72.4277 36.8848 72.5957C36.6699 72.7598 36.4121 72.8887 36.1113 72.9824C35.8145 73.0723 35.4805 73.1172 35.1094 73.1172C34.5508 73.1172 34.0781 73.0176 33.6914 72.8184C33.3047 72.6191 33.0117 72.3613 32.8125 72.0449C32.6133 71.7285 32.5137 71.3945 32.5137 71.043H33.6035C33.6191 71.3398 33.7051 71.5762 33.8613 71.752C34.0176 71.9238 34.209 72.0469 34.4355 72.1211C34.6621 72.1914 34.8867 72.2266 35.1094 72.2266C35.4062 72.2266 35.6543 72.1875 35.8535 72.1094C36.0566 72.0312 36.2109 71.9238 36.3164 71.7871C36.4219 71.6504 36.4746 71.4941 36.4746 71.3184ZM42.8613 71.5352V66.6602H43.9512V73H42.9141L42.8613 71.5352ZM43.0664 70.1992L43.5176 70.1875C43.5176 70.6094 43.4727 71 43.3828 71.3594C43.2969 71.7148 43.1562 72.0234 42.9609 72.2852C42.7656 72.5469 42.5098 72.752 42.1934 72.9004C41.877 73.0449 41.4922 73.1172 41.0391 73.1172C40.7305 73.1172 40.4473 73.0723 40.1895 72.9824C39.9355 72.8926 39.7168 72.7539 39.5332 72.5664C39.3496 72.3789 39.207 72.1348 39.1055 71.834C39.0078 71.5332 38.959 71.1719 38.959 70.75V66.6602H40.043V70.7617C40.043 71.0469 40.0742 71.2832 40.1367 71.4707C40.2031 71.6543 40.291 71.8008 40.4004 71.9102C40.5137 72.0156 40.6387 72.0898 40.7754 72.1328C40.916 72.1758 41.0605 72.1973 41.209 72.1973C41.6699 72.1973 42.0352 72.1094 42.3047 71.9336C42.5742 71.7539 42.7676 71.5137 42.8848 71.2129C43.0059 70.9082 43.0664 70.5703 43.0664 70.1992ZM49.3418 71.916V68.6523C49.3418 68.4023 49.291 68.1855 49.1895 68.002C49.0918 67.8145 48.9434 67.6699 48.7441 67.5684C48.5449 67.4668 48.2988 67.416 48.0059 67.416C47.7324 67.416 47.4922 67.4629 47.2852 67.5566C47.082 67.6504 46.9219 67.7734 46.8047 67.9258C46.6914 68.0781 46.6348 68.2422 46.6348 68.418H45.5508C45.5508 68.1914 45.6094 67.9668 45.7266 67.7441C45.8438 67.5215 46.0117 67.3203 46.2305 67.1406C46.4531 66.957 46.7188 66.8125 47.0273 66.707C47.3398 66.5977 47.6875 66.543 48.0703 66.543C48.5312 66.543 48.9375 66.6211 49.2891 66.7773C49.6445 66.9336 49.9219 67.1699 50.1211 67.4863C50.3242 67.7988 50.4258 68.1914 50.4258 68.6641V71.6172C50.4258 71.8281 50.4434 72.0527 50.4785 72.291C50.5176 72.5293 50.5742 72.7344 50.6484 72.9062V73H49.5176C49.4629 72.875 49.4199 72.709 49.3887 72.502C49.3574 72.291 49.3418 72.0957 49.3418 71.916ZM49.5293 69.1562L49.541 69.918H48.4453C48.1367 69.918 47.8613 69.9434 47.6191 69.9941C47.377 70.041 47.1738 70.1133 47.0098 70.2109C46.8457 70.3086 46.7207 70.4316 46.6348 70.5801C46.5488 70.7246 46.5059 70.8945 46.5059 71.0898C46.5059 71.2891 46.5508 71.4707 46.6406 71.6348C46.7305 71.7988 46.8652 71.9297 47.0449 72.0273C47.2285 72.1211 47.4531 72.168 47.7188 72.168C48.0508 72.168 48.3438 72.0977 48.5977 71.957C48.8516 71.8164 49.0527 71.6445 49.2012 71.4414C49.3535 71.2383 49.4355 71.041 49.4473 70.8496L49.9102 71.3711C49.8828 71.5352 49.8086 71.7168 49.6875 71.916C49.5664 72.1152 49.4043 72.3066 49.2012 72.4902C49.002 72.6699 48.7637 72.8203 48.4863 72.9414C48.2129 73.0586 47.9043 73.1172 47.5605 73.1172C47.1309 73.1172 46.7539 73.0332 46.4297 72.8652C46.1094 72.6973 45.8594 72.4727 45.6797 72.1914C45.5039 71.9062 45.416 71.5879 45.416 71.2363C45.416 70.8965 45.4824 70.5977 45.6152 70.3398C45.748 70.0781 45.9395 69.8613 46.1895 69.6895C46.4395 69.5137 46.7402 69.3809 47.0918 69.291C47.4434 69.2012 47.8359 69.1562 48.2695 69.1562H49.5293ZM53.3086 64V73H52.2188V64H53.3086ZM56.2266 66.6602V73H55.1367V66.6602H56.2266ZM55.0547 64.9785C55.0547 64.8027 55.1074 64.6543 55.2129 64.5332C55.3223 64.4121 55.4824 64.3516 55.6934 64.3516C55.9004 64.3516 56.0586 64.4121 56.168 64.5332C56.2812 64.6543 56.3379 64.8027 56.3379 64.9785C56.3379 65.1465 56.2812 65.291 56.168 65.4121C56.0586 65.5293 55.9004 65.5879 55.6934 65.5879C55.4824 65.5879 55.3223 65.5293 55.2129 65.4121C55.1074 65.291 55.0547 65.1465 55.0547 64.9785ZM62.6895 72.1094V73H58.0781V72.1094H62.6895ZM62.5195 67.4277L58.3242 73H57.6621V72.2031L61.8281 66.6602H62.5195V67.4277ZM62.0391 66.6602V67.5566H57.709V66.6602H62.0391ZM67.6582 71.916V68.6523C67.6582 68.4023 67.6074 68.1855 67.5059 68.002C67.4082 67.8145 67.2598 67.6699 67.0605 67.5684C66.8613 67.4668 66.6152 67.416 66.3223 67.416C66.0488 67.416 65.8086 67.4629 65.6016 67.5566C65.3984 67.6504 65.2383 67.7734 65.1211 67.9258C65.0078 68.0781 64.9512 68.2422 64.9512 68.418H63.8672C63.8672 68.1914 63.9258 67.9668 64.043 67.7441C64.1602 67.5215 64.3281 67.3203 64.5469 67.1406C64.7695 66.957 65.0352 66.8125 65.3438 66.707C65.6562 66.5977 66.0039 66.543 66.3867 66.543C66.8477 66.543 67.2539 66.6211 67.6055 66.7773C67.9609 66.9336 68.2383 67.1699 68.4375 67.4863C68.6406 67.7988 68.7422 68.1914 68.7422 68.6641V71.6172C68.7422 71.8281 68.7598 72.0527 68.7949 72.291C68.834 72.5293 68.8906 72.7344 68.9648 72.9062V73H67.834C67.7793 72.875 67.7363 72.709 67.7051 72.502C67.6738 72.291 67.6582 72.0957 67.6582 71.916ZM67.8457 69.1562L67.8574 69.918H66.7617C66.4531 69.918 66.1777 69.9434 65.9355 69.9941C65.6934 70.041 65.4902 70.1133 65.3262 70.2109C65.1621 70.3086 65.0371 70.4316 64.9512 70.5801C64.8652 70.7246 64.8223 70.8945 64.8223 71.0898C64.8223 71.2891 64.8672 71.4707 64.957 71.6348C65.0469 71.7988 65.1816 71.9297 65.3613 72.0273C65.5449 72.1211 65.7695 72.168 66.0352 72.168C66.3672 72.168 66.6602 72.0977 66.9141 71.957C67.168 71.8164 67.3691 71.6445 67.5176 71.4414C67.6699 71.2383 67.752 71.041 67.7637 70.8496L68.2266 71.3711C68.1992 71.5352 68.125 71.7168 68.0039 71.916C67.8828 72.1152 67.7207 72.3066 67.5176 72.4902C67.3184 72.6699 67.0801 72.8203 66.8027 72.9414C66.5293 73.0586 66.2207 73.1172 65.877 73.1172C65.4473 73.1172 65.0703 73.0332 64.7461 72.8652C64.4258 72.6973 64.1758 72.4727 63.9961 72.1914C63.8203 71.9062 63.7324 71.5879 63.7324 71.2363C63.7324 70.8965 63.7988 70.5977 63.9316 70.3398C64.0645 70.0781 64.2559 69.8613 64.5059 69.6895C64.7559 69.5137 65.0566 69.3809 65.4082 69.291C65.7598 69.2012 66.1523 69.1562 66.5859 69.1562H67.8457ZM72.9844 72.2266C73.2422 72.2266 73.4805 72.1738 73.6992 72.0684C73.918 71.9629 74.0977 71.8184 74.2383 71.6348C74.3789 71.4473 74.459 71.2344 74.4785 70.9961H75.5098C75.4902 71.3711 75.3633 71.7207 75.1289 72.0449C74.8984 72.3652 74.5957 72.625 74.2207 72.8242C73.8457 73.0195 73.4336 73.1172 72.9844 73.1172C72.5078 73.1172 72.0918 73.0332 71.7363 72.8652C71.3848 72.6973 71.0918 72.4668 70.8574 72.1738C70.627 71.8809 70.4531 71.5449 70.3359 71.166C70.2227 70.7832 70.166 70.3789 70.166 69.9531V69.707C70.166 69.2812 70.2227 68.8789 70.3359 68.5C70.4531 68.1172 70.627 67.7793 70.8574 67.4863C71.0918 67.1934 71.3848 66.9629 71.7363 66.7949C72.0918 66.627 72.5078 66.543 72.9844 66.543C73.4805 66.543 73.9141 66.6445 74.2852 66.8477C74.6562 67.0469 74.9473 67.3203 75.1582 67.668C75.373 68.0117 75.4902 68.4023 75.5098 68.8398H74.4785C74.459 68.5781 74.3848 68.3418 74.2559 68.1309C74.1309 67.9199 73.959 67.752 73.7402 67.627C73.5254 67.498 73.2734 67.4336 72.9844 67.4336C72.6523 67.4336 72.373 67.5 72.1465 67.6328C71.9238 67.7617 71.7461 67.9375 71.6133 68.1602C71.4844 68.3789 71.3906 68.623 71.332 68.8926C71.2773 69.1582 71.25 69.4297 71.25 69.707V69.9531C71.25 70.2305 71.2773 70.5039 71.332 70.7734C71.3867 71.043 71.4785 71.2871 71.6074 71.5059C71.7402 71.7246 71.918 71.9004 72.1406 72.0332C72.3672 72.1621 72.6484 72.2266 72.9844 72.2266ZM72.3867 73.0586H73.166L73.0957 73.3691C73.3223 73.4082 73.5273 73.502 73.7109 73.6504C73.8984 73.7988 73.9922 74.043 73.9922 74.3828C73.9922 74.5664 73.9531 74.7324 73.875 74.8809C73.8008 75.0332 73.6895 75.1621 73.541 75.2676C73.3926 75.377 73.207 75.4609 72.9844 75.5195C72.7656 75.5781 72.5098 75.6074 72.2168 75.6074L72.1758 74.9805C72.3555 74.9805 72.5176 74.9609 72.6621 74.9219C72.8105 74.8828 72.9277 74.8203 73.0137 74.7344C73.1035 74.6484 73.1484 74.5371 73.1484 74.4004C73.1484 74.2715 73.1152 74.1699 73.0488 74.0957C72.9824 74.0215 72.8789 73.9648 72.7383 73.9258C72.6016 73.8906 72.4238 73.8652 72.2051 73.8496L72.3867 73.0586ZM76.4414 69.9004V69.7656C76.4414 69.3086 76.5078 68.8848 76.6406 68.4941C76.7734 68.0996 76.9648 67.7578 77.2148 67.4688C77.4648 67.1758 77.7676 66.9492 78.123 66.7891C78.4785 66.625 78.877 66.543 79.3184 66.543C79.7637 66.543 80.1641 66.625 80.5195 66.7891C80.8789 66.9492 81.1836 67.1758 81.4336 67.4688C81.6875 67.7578 81.8809 68.0996 82.0137 68.4941C82.1465 68.8848 82.2129 69.3086 82.2129 69.7656V69.9004C82.2129 70.3574 82.1465 70.7812 82.0137 71.1719C81.8809 71.5625 81.6875 71.9043 81.4336 72.1973C81.1836 72.4863 80.8809 72.7129 80.5254 72.877C80.1738 73.0371 79.7754 73.1172 79.3301 73.1172C78.8848 73.1172 78.4844 73.0371 78.1289 72.877C77.7734 72.7129 77.4688 72.4863 77.2148 72.1973C76.9648 71.9043 76.7734 71.5625 76.6406 71.1719C76.5078 70.7812 76.4414 70.3574 76.4414 69.9004ZM77.5254 69.7656V69.9004C77.5254 70.2168 77.5625 70.5156 77.6367 70.7969C77.7109 71.0742 77.8223 71.3203 77.9707 71.5352C78.123 71.75 78.3125 71.9199 78.5391 72.0449C78.7656 72.166 79.0293 72.2266 79.3301 72.2266C79.627 72.2266 79.8867 72.166 80.1094 72.0449C80.3359 71.9199 80.5234 71.75 80.6719 71.5352C80.8203 71.3203 80.9316 71.0742 81.0059 70.7969C81.084 70.5156 81.123 70.2168 81.123 69.9004V69.7656C81.123 69.4531 81.084 69.1582 81.0059 68.8809C80.9316 68.5996 80.8184 68.3516 80.666 68.1367C80.5176 67.918 80.3301 67.7461 80.1035 67.6211C79.8809 67.4961 79.6191 67.4336 79.3184 67.4336C79.0215 67.4336 78.7598 67.4961 78.5332 67.6211C78.3105 67.7461 78.123 67.918 77.9707 68.1367C77.8223 68.3516 77.7109 68.5996 77.6367 68.8809C77.5625 69.1582 77.5254 69.4531 77.5254 69.7656ZM80.6191 64.1172L81.3516 64.1816C81.3516 64.4668 81.2949 64.7168 81.1816 64.9316C81.0684 65.1465 80.916 65.3125 80.7246 65.4297C80.5371 65.5469 80.3242 65.6055 80.0859 65.6055C79.8867 65.6055 79.7227 65.5781 79.5938 65.5234C79.4648 65.4648 79.3496 65.4004 79.248 65.3301C79.1465 65.2559 79.0391 65.1914 78.9258 65.1367C78.8164 65.0781 78.6797 65.0488 78.5156 65.0488C78.3516 65.0488 78.2129 65.1113 78.0996 65.2363C77.9902 65.3613 77.9355 65.5156 77.9355 65.6992L77.2031 65.6641C77.2031 65.3789 77.2578 65.1289 77.3672 64.9141C77.4805 64.6953 77.6328 64.5254 77.8242 64.4043C78.0156 64.2793 78.2285 64.2168 78.4629 64.2168C78.6309 64.2168 78.7773 64.2461 78.9023 64.3047C79.0312 64.3594 79.1523 64.4238 79.2656 64.498C79.3789 64.5684 79.4961 64.6328 79.6172 64.6914C79.7383 64.7461 79.877 64.7734 80.0332 64.7734C80.1973 64.7734 80.3359 64.7109 80.4492 64.5859C80.5625 64.457 80.6191 64.3008 80.6191 64.1172ZM86.2031 73.1172C85.7617 73.1172 85.3613 73.043 85.002 72.8945C84.6465 72.7422 84.3398 72.5293 84.082 72.2559C83.8281 71.9824 83.6328 71.6582 83.4961 71.2832C83.3594 70.9082 83.291 70.498 83.291 70.0527V69.8066C83.291 69.291 83.3672 68.832 83.5195 68.4297C83.6719 68.0234 83.8789 67.6797 84.1406 67.3984C84.4023 67.1172 84.6992 66.9043 85.0312 66.7598C85.3633 66.6152 85.707 66.543 86.0625 66.543C86.5156 66.543 86.9062 66.6211 87.2344 66.7773C87.5664 66.9336 87.8379 67.1523 88.0488 67.4336C88.2598 67.7109 88.416 68.0391 88.5176 68.418C88.6191 68.793 88.6699 69.2031 88.6699 69.6484V70.1348H83.9355V69.25H87.5859V69.168C87.5703 68.8867 87.5117 68.6133 87.4102 68.3477C87.3125 68.082 87.1562 67.8633 86.9414 67.6914C86.7266 67.5195 86.4336 67.4336 86.0625 67.4336C85.8164 67.4336 85.5898 67.4863 85.3828 67.5918C85.1758 67.6934 84.998 67.8457 84.8496 68.0488C84.7012 68.252 84.5859 68.5 84.5039 68.793C84.4219 69.0859 84.3809 69.4238 84.3809 69.8066V70.0527C84.3809 70.3535 84.4219 70.6367 84.5039 70.9023C84.5898 71.1641 84.7129 71.3945 84.873 71.5938C85.0371 71.793 85.2344 71.9492 85.4648 72.0625C85.6992 72.1758 85.9648 72.2324 86.2617 72.2324C86.6445 72.2324 86.9688 72.1543 87.2344 71.998C87.5 71.8418 87.7324 71.6328 87.9316 71.3711L88.5879 71.8926C88.4512 72.0996 88.2773 72.2969 88.0664 72.4844C87.8555 72.6719 87.5957 72.8242 87.2871 72.9414C86.9824 73.0586 86.6211 73.1172 86.2031 73.1172ZM93.627 71.3184C93.627 71.1621 93.5918 71.0176 93.5215 70.8848C93.4551 70.748 93.3164 70.625 93.1055 70.5156C92.8984 70.4023 92.5859 70.3047 92.168 70.2227C91.8164 70.1484 91.498 70.0605 91.2129 69.959C90.9316 69.8574 90.6914 69.7344 90.4922 69.5898C90.2969 69.4453 90.1465 69.2754 90.041 69.0801C89.9355 68.8848 89.8828 68.6562 89.8828 68.3945C89.8828 68.1445 89.9375 67.9082 90.0469 67.6855C90.1602 67.4629 90.3184 67.2656 90.5215 67.0938C90.7285 66.9219 90.9766 66.7871 91.2656 66.6895C91.5547 66.5918 91.877 66.543 92.2324 66.543C92.7402 66.543 93.1738 66.6328 93.5332 66.8125C93.8926 66.9922 94.168 67.2324 94.3594 67.5332C94.5508 67.8301 94.6465 68.1602 94.6465 68.5234H93.5625C93.5625 68.3477 93.5098 68.1777 93.4043 68.0137C93.3027 67.8457 93.1523 67.707 92.9531 67.5977C92.7578 67.4883 92.5176 67.4336 92.2324 67.4336C91.9316 67.4336 91.6875 67.4805 91.5 67.5742C91.3164 67.6641 91.1816 67.7793 91.0957 67.9199C91.0137 68.0605 90.9727 68.209 90.9727 68.3652C90.9727 68.4824 90.9922 68.5879 91.0312 68.6816C91.0742 68.7715 91.1484 68.8555 91.2539 68.9336C91.3594 69.0078 91.5078 69.0781 91.6992 69.1445C91.8906 69.2109 92.1348 69.2773 92.4316 69.3438C92.9512 69.4609 93.3789 69.6016 93.7148 69.7656C94.0508 69.9297 94.3008 70.1309 94.4648 70.3691C94.6289 70.6074 94.7109 70.8965 94.7109 71.2363C94.7109 71.5137 94.6523 71.7676 94.5352 71.998C94.4219 72.2285 94.2559 72.4277 94.0371 72.5957C93.8223 72.7598 93.5645 72.8887 93.2637 72.9824C92.9668 73.0723 92.6328 73.1172 92.2617 73.1172C91.7031 73.1172 91.2305 73.0176 90.8438 72.8184C90.457 72.6191 90.1641 72.3613 89.9648 72.0449C89.7656 71.7285 89.666 71.3945 89.666 71.043H90.7559C90.7715 71.3398 90.8574 71.5762 91.0137 71.752C91.1699 71.9238 91.3613 72.0469 91.5879 72.1211C91.8145 72.1914 92.0391 72.2266 92.2617 72.2266C92.5586 72.2266 92.8066 72.1875 93.0059 72.1094C93.209 72.0312 93.3633 71.9238 93.4688 71.7871C93.5742 71.6504 93.627 71.4941 93.627 71.3184ZM4.14258 78.4688V87H3.0293V78.4688H4.14258ZM6.88477 78.4688V79.3945H0.292969V78.4688H6.88477ZM8.625 81.6562V87H7.54102V80.6602H8.5957L8.625 81.6562ZM10.6055 80.625L10.5996 81.6328C10.5098 81.6133 10.4238 81.6016 10.3418 81.5977C10.2637 81.5898 10.1738 81.5859 10.0723 81.5859C9.82227 81.5859 9.60156 81.625 9.41016 81.7031C9.21875 81.7812 9.05664 81.8906 8.92383 82.0312C8.79102 82.1719 8.68555 82.3398 8.60742 82.5352C8.5332 82.7266 8.48438 82.9375 8.46094 83.168L8.15625 83.3438C8.15625 82.9609 8.19336 82.6016 8.26758 82.2656C8.3457 81.9297 8.46484 81.6328 8.625 81.375C8.78516 81.1133 8.98828 80.9102 9.23438 80.7656C9.48438 80.6172 9.78125 80.543 10.125 80.543C10.2031 80.543 10.293 80.5527 10.3945 80.5723C10.4961 80.5879 10.5664 80.6055 10.6055 80.625ZM15.1113 85.916V82.6523C15.1113 82.4023 15.0605 82.1855 14.959 82.002C14.8613 81.8145 14.7129 81.6699 14.5137 81.5684C14.3145 81.4668 14.0684 81.416 13.7754 81.416C13.502 81.416 13.2617 81.4629 13.0547 81.5566C12.8516 81.6504 12.6914 81.7734 12.5742 81.9258C12.4609 82.0781 12.4043 82.2422 12.4043 82.418H11.3203C11.3203 82.1914 11.3789 81.9668 11.4961 81.7441C11.6133 81.5215 11.7812 81.3203 12 81.1406C12.2227 80.957 12.4883 80.8125 12.7969 80.707C13.1094 80.5977 13.457 80.543 13.8398 80.543C14.3008 80.543 14.707 80.6211 15.0586 80.7773C15.4141 80.9336 15.6914 81.1699 15.8906 81.4863C16.0938 81.7988 16.1953 82.1914 16.1953 82.6641V85.6172C16.1953 85.8281 16.2129 86.0527 16.248 86.291C16.2871 86.5293 16.3438 86.7344 16.418 86.9062V87H15.2871C15.2324 86.875 15.1895 86.709 15.1582 86.502C15.127 86.291 15.1113 86.0957 15.1113 85.916ZM15.2988 83.1562L15.3105 83.918H14.2148C13.9062 83.918 13.6309 83.9434 13.3887 83.9941C13.1465 84.041 12.9434 84.1133 12.7793 84.2109C12.6152 84.3086 12.4902 84.4316 12.4043 84.5801C12.3184 84.7246 12.2754 84.8945 12.2754 85.0898C12.2754 85.2891 12.3203 85.4707 12.4102 85.6348C12.5 85.7988 12.6348 85.9297 12.8145 86.0273C12.998 86.1211 13.2227 86.168 13.4883 86.168C13.8203 86.168 14.1133 86.0977 14.3672 85.957C14.6211 85.8164 14.8223 85.6445 14.9707 85.4414C15.123 85.2383 15.2051 85.041 15.2168 84.8496L15.6797 85.3711C15.6523 85.5352 15.5781 85.7168 15.457 85.916C15.3359 86.1152 15.1738 86.3066 14.9707 86.4902C14.7715 86.6699 14.5332 86.8203 14.2559 86.9414C13.9824 87.0586 13.6738 87.1172 13.3301 87.1172C12.9004 87.1172 12.5234 87.0332 12.1992 86.8652C11.8789 86.6973 11.6289 86.4727 11.4492 86.1914C11.2734 85.9062 11.1855 85.5879 11.1855 85.2363C11.1855 84.8965 11.252 84.5977 11.3848 84.3398C11.5176 84.0781 11.709 83.8613 11.959 83.6895C12.209 83.5137 12.5098 83.3809 12.8613 83.291C13.2129 83.2012 13.6055 83.1562 14.0391 83.1562H15.2988ZM18.9844 82.0137V87H17.9004V80.6602H18.9258L18.9844 82.0137ZM18.7266 83.5898L18.2754 83.5723C18.2793 83.1387 18.3438 82.7383 18.4688 82.3711C18.5938 82 18.7695 81.6777 18.9961 81.4043C19.2227 81.1309 19.4922 80.9199 19.8047 80.7715C20.1211 80.6191 20.4707 80.543 20.8535 80.543C21.166 80.543 21.4473 80.5859 21.6973 80.6719C21.9473 80.7539 22.1602 80.8867 22.3359 81.0703C22.5156 81.2539 22.6523 81.4922 22.7461 81.7852C22.8398 82.0742 22.8867 82.4277 22.8867 82.8457V87H21.7969V82.834C21.7969 82.502 21.748 82.2363 21.6504 82.0371C21.5527 81.834 21.4102 81.6875 21.2227 81.5977C21.0352 81.5039 20.8047 81.457 20.5312 81.457C20.2617 81.457 20.0156 81.5137 19.793 81.627C19.5742 81.7402 19.3848 81.8965 19.2246 82.0957C19.0684 82.2949 18.9453 82.5234 18.8555 82.7812C18.7695 83.0352 18.7266 83.3047 18.7266 83.5898ZM28.2246 85.3184C28.2246 85.1621 28.1895 85.0176 28.1191 84.8848C28.0527 84.748 27.9141 84.625 27.7031 84.5156C27.4961 84.4023 27.1836 84.3047 26.7656 84.2227C26.4141 84.1484 26.0957 84.0605 25.8105 83.959C25.5293 83.8574 25.2891 83.7344 25.0898 83.5898C24.8945 83.4453 24.7441 83.2754 24.6387 83.0801C24.5332 82.8848 24.4805 82.6562 24.4805 82.3945C24.4805 82.1445 24.5352 81.9082 24.6445 81.6855C24.7578 81.4629 24.916 81.2656 25.1191 81.0938C25.3262 80.9219 25.5742 80.7871 25.8633 80.6895C26.1523 80.5918 26.4746 80.543 26.8301 80.543C27.3379 80.543 27.7715 80.6328 28.1309 80.8125C28.4902 80.9922 28.7656 81.2324 28.957 81.5332C29.1484 81.8301 29.2441 82.1602 29.2441 82.5234H28.1602C28.1602 82.3477 28.1074 82.1777 28.002 82.0137C27.9004 81.8457 27.75 81.707 27.5508 81.5977C27.3555 81.4883 27.1152 81.4336 26.8301 81.4336C26.5293 81.4336 26.2852 81.4805 26.0977 81.5742C25.9141 81.6641 25.7793 81.7793 25.6934 81.9199C25.6113 82.0605 25.5703 82.209 25.5703 82.3652C25.5703 82.4824 25.5898 82.5879 25.6289 82.6816C25.6719 82.7715 25.7461 82.8555 25.8516 82.9336C25.957 83.0078 26.1055 83.0781 26.2969 83.1445C26.4883 83.2109 26.7324 83.2773 27.0293 83.3438C27.5488 83.4609 27.9766 83.6016 28.3125 83.7656C28.6484 83.9297 28.8984 84.1309 29.0625 84.3691C29.2266 84.6074 29.3086 84.8965 29.3086 85.2363C29.3086 85.5137 29.25 85.7676 29.1328 85.998C29.0195 86.2285 28.8535 86.4277 28.6348 86.5957C28.4199 86.7598 28.1621 86.8887 27.8613 86.9824C27.5645 87.0723 27.2305 87.1172 26.8594 87.1172C26.3008 87.1172 25.8281 87.0176 25.4414 86.8184C25.0547 86.6191 24.7617 86.3613 24.5625 86.0449C24.3633 85.7285 24.2637 85.3945 24.2637 85.043H25.3535C25.3691 85.3398 25.4551 85.5762 25.6113 85.752C25.7676 85.9238 25.959 86.0469 26.1855 86.1211C26.4121 86.1914 26.6367 86.2266 26.8594 86.2266C27.1562 86.2266 27.4043 86.1875 27.6035 86.1094C27.8066 86.0312 27.9609 85.9238 28.0664 85.7871C28.1719 85.6504 28.2246 85.4941 28.2246 85.3184ZM31.8105 81.9199V87H30.7207V80.6602H31.752L31.8105 81.9199ZM31.5879 83.5898L31.084 83.5723C31.0879 83.1387 31.1445 82.7383 31.2539 82.3711C31.3633 82 31.5254 81.6777 31.7402 81.4043C31.9551 81.1309 32.2227 80.9199 32.543 80.7715C32.8633 80.6191 33.2344 80.543 33.6562 80.543C33.9531 80.543 34.2266 80.5859 34.4766 80.6719C34.7266 80.7539 34.9434 80.8848 35.127 81.0645C35.3105 81.2441 35.4531 81.4746 35.5547 81.7559C35.6562 82.0371 35.707 82.377 35.707 82.7754V87H34.623V82.8281C34.623 82.4961 34.5664 82.2305 34.4531 82.0312C34.3438 81.832 34.1875 81.6875 33.9844 81.5977C33.7812 81.5039 33.543 81.457 33.2695 81.457C32.9492 81.457 32.6816 81.5137 32.4668 81.627C32.252 81.7402 32.0801 81.8965 31.9512 82.0957C31.8223 82.2949 31.7285 82.5234 31.6699 82.7812C31.6152 83.0352 31.5879 83.3047 31.5879 83.5898ZM35.6953 82.9922L34.9688 83.2148C34.9727 82.8672 35.0293 82.5332 35.1387 82.2129C35.252 81.8926 35.4141 81.6074 35.625 81.3574C35.8398 81.1074 36.1035 80.9102 36.416 80.7656C36.7285 80.6172 37.0859 80.543 37.4883 80.543C37.8281 80.543 38.1289 80.5879 38.3906 80.6777C38.6562 80.7676 38.8789 80.9062 39.0586 81.0938C39.2422 81.2773 39.3809 81.5137 39.4746 81.8027C39.5684 82.0918 39.6152 82.4355 39.6152 82.834V87H38.5254V82.8223C38.5254 82.4668 38.4688 82.1914 38.3555 81.9961C38.2461 81.7969 38.0898 81.6582 37.8867 81.5801C37.6875 81.498 37.4492 81.457 37.1719 81.457C36.9336 81.457 36.7227 81.498 36.5391 81.5801C36.3555 81.6621 36.2012 81.7754 36.0762 81.9199C35.9512 82.0605 35.8555 82.2227 35.7891 82.4062C35.7266 82.5898 35.6953 82.7852 35.6953 82.9922ZM42.4336 80.6602V87H41.3438V80.6602H42.4336ZM41.2617 78.9785C41.2617 78.8027 41.3145 78.6543 41.4199 78.5332C41.5293 78.4121 41.6895 78.3516 41.9004 78.3516C42.1074 78.3516 42.2656 78.4121 42.375 78.5332C42.4883 78.6543 42.5449 78.8027 42.5449 78.9785C42.5449 79.1465 42.4883 79.291 42.375 79.4121C42.2656 79.5293 42.1074 79.5879 41.9004 79.5879C41.6895 79.5879 41.5293 79.5293 41.4199 79.4121C41.3145 79.291 41.2617 79.1465 41.2617 78.9785ZM46.8281 80.6602V81.4922H43.4004V80.6602H46.8281ZM44.5605 79.1191H45.6445V85.4297C45.6445 85.6445 45.6777 85.8066 45.7441 85.916C45.8105 86.0254 45.8965 86.0977 46.002 86.1328C46.1074 86.168 46.2207 86.1855 46.3418 86.1855C46.4316 86.1855 46.5254 86.1777 46.623 86.1621C46.7246 86.1426 46.8008 86.127 46.8516 86.1152L46.8574 87C46.7715 87.0273 46.6582 87.0527 46.5176 87.0762C46.3809 87.1035 46.2148 87.1172 46.0195 87.1172C45.7539 87.1172 45.5098 87.0645 45.2871 86.959C45.0645 86.8535 44.8867 86.6777 44.7539 86.4316C44.625 86.1816 44.5605 85.8457 44.5605 85.4238V79.1191ZM49.2773 80.6602V87H48.1875V80.6602H49.2773ZM48.1055 78.9785C48.1055 78.8027 48.1582 78.6543 48.2637 78.5332C48.373 78.4121 48.5332 78.3516 48.7441 78.3516C48.9512 78.3516 49.1094 78.4121 49.2188 78.5332C49.332 78.6543 49.3887 78.8027 49.3887 78.9785C49.3887 79.1465 49.332 79.291 49.2188 79.4121C49.1094 79.5293 48.9512 79.5879 48.7441 79.5879C48.5332 79.5879 48.373 79.5293 48.2637 79.4121C48.1582 79.291 48.1055 79.1465 48.1055 78.9785ZM55.0137 85.7695V78H56.1035V87H55.1074L55.0137 85.7695ZM50.748 83.9004V83.7773C50.748 83.293 50.8066 82.8535 50.9238 82.459C51.0449 82.0605 51.2148 81.7188 51.4336 81.4336C51.6562 81.1484 51.9199 80.9297 52.2246 80.7773C52.5332 80.6211 52.877 80.543 53.2559 80.543C53.6543 80.543 54.002 80.6133 54.2988 80.7539C54.5996 80.8906 54.8535 81.0918 55.0605 81.3574C55.2715 81.6191 55.4375 81.9355 55.5586 82.3066C55.6797 82.6777 55.7637 83.0977 55.8105 83.5664V84.1055C55.7676 84.5703 55.6836 84.9883 55.5586 85.3594C55.4375 85.7305 55.2715 86.0469 55.0605 86.3086C54.8535 86.5703 54.5996 86.7715 54.2988 86.9121C53.998 87.0488 53.6465 87.1172 53.2441 87.1172C52.873 87.1172 52.5332 87.0371 52.2246 86.877C51.9199 86.7168 51.6562 86.4922 51.4336 86.2031C51.2148 85.9141 51.0449 85.5742 50.9238 85.1836C50.8066 84.7891 50.748 84.3613 50.748 83.9004ZM51.8379 83.7773V83.9004C51.8379 84.2168 51.8691 84.5137 51.9316 84.791C51.998 85.0684 52.0996 85.3125 52.2363 85.5234C52.373 85.7344 52.5469 85.9004 52.7578 86.0215C52.9688 86.1387 53.2207 86.1973 53.5137 86.1973C53.873 86.1973 54.168 86.1211 54.3984 85.9688C54.6328 85.8164 54.8203 85.6152 54.9609 85.3652C55.1016 85.1152 55.2109 84.8438 55.2891 84.5508V83.1387C55.2422 82.9238 55.1738 82.7168 55.084 82.5176C54.998 82.3145 54.8848 82.1348 54.7441 81.9785C54.6074 81.8184 54.4375 81.6914 54.2344 81.5977C54.0352 81.5039 53.7988 81.457 53.5254 81.457C53.2285 81.457 52.9727 81.5195 52.7578 81.6445C52.5469 81.7656 52.373 81.9336 52.2363 82.1484C52.0996 82.3594 51.998 82.6055 51.9316 82.8867C51.8691 83.1641 51.8379 83.4609 51.8379 83.7773ZM57.5039 83.9004V83.7656C57.5039 83.3086 57.5703 82.8848 57.7031 82.4941C57.8359 82.0996 58.0273 81.7578 58.2773 81.4688C58.5273 81.1758 58.8301 80.9492 59.1855 80.7891C59.541 80.625 59.9395 80.543 60.3809 80.543C60.8262 80.543 61.2266 80.625 61.582 80.7891C61.9414 80.9492 62.2461 81.1758 62.4961 81.4688C62.75 81.7578 62.9434 82.0996 63.0762 82.4941C63.209 82.8848 63.2754 83.3086 63.2754 83.7656V83.9004C63.2754 84.3574 63.209 84.7812 63.0762 85.1719C62.9434 85.5625 62.75 85.9043 62.4961 86.1973C62.2461 86.4863 61.9434 86.7129 61.5879 86.877C61.2363 87.0371 60.8379 87.1172 60.3926 87.1172C59.9473 87.1172 59.5469 87.0371 59.1914 86.877C58.8359 86.7129 58.5312 86.4863 58.2773 86.1973C58.0273 85.9043 57.8359 85.5625 57.7031 85.1719C57.5703 84.7812 57.5039 84.3574 57.5039 83.9004ZM58.5879 83.7656V83.9004C58.5879 84.2168 58.625 84.5156 58.6992 84.7969C58.7734 85.0742 58.8848 85.3203 59.0332 85.5352C59.1855 85.75 59.375 85.9199 59.6016 86.0449C59.8281 86.166 60.0918 86.2266 60.3926 86.2266C60.6895 86.2266 60.9492 86.166 61.1719 86.0449C61.3984 85.9199 61.5859 85.75 61.7344 85.5352C61.8828 85.3203 61.9941 85.0742 62.0684 84.7969C62.1465 84.5156 62.1855 84.2168 62.1855 83.9004V83.7656C62.1855 83.4531 62.1465 83.1582 62.0684 82.8809C61.9941 82.5996 61.8809 82.3516 61.7285 82.1367C61.5801 81.918 61.3926 81.7461 61.166 81.6211C60.9434 81.4961 60.6816 81.4336 60.3809 81.4336C60.084 81.4336 59.8223 81.4961 59.5957 81.6211C59.373 81.7461 59.1855 81.918 59.0332 82.1367C58.8848 82.3516 58.7734 82.5996 58.6992 82.8809C58.625 83.1582 58.5879 83.4531 58.5879 83.7656ZM68.6953 78V87H67.6113V78H68.6953ZM68.4375 83.5898L67.9863 83.5723C67.9902 83.1387 68.0547 82.7383 68.1797 82.3711C68.3047 82 68.4805 81.6777 68.707 81.4043C68.9336 81.1309 69.2031 80.9199 69.5156 80.7715C69.832 80.6191 70.1816 80.543 70.5645 80.543C70.877 80.543 71.1582 80.5859 71.4082 80.6719C71.6582 80.7539 71.8711 80.8867 72.0469 81.0703C72.2266 81.2539 72.3633 81.4922 72.457 81.7852C72.5508 82.0742 72.5977 82.4277 72.5977 82.8457V87H71.5078V82.834C71.5078 82.502 71.459 82.2363 71.3613 82.0371C71.2637 81.834 71.1211 81.6875 70.9336 81.5977C70.7461 81.5039 70.5156 81.457 70.2422 81.457C69.9727 81.457 69.7266 81.5137 69.5039 81.627C69.2852 81.7402 69.0957 81.8965 68.9355 82.0957C68.7793 82.2949 68.6562 82.5234 68.5664 82.7812C68.4805 83.0352 68.4375 83.3047 68.4375 83.5898ZM77.959 85.916V82.6523C77.959 82.4023 77.9082 82.1855 77.8066 82.002C77.709 81.8145 77.5605 81.6699 77.3613 81.5684C77.1621 81.4668 76.916 81.416 76.623 81.416C76.3496 81.416 76.1094 81.4629 75.9023 81.5566C75.6992 81.6504 75.5391 81.7734 75.4219 81.9258C75.3086 82.0781 75.252 82.2422 75.252 82.418H74.168C74.168 82.1914 74.2266 81.9668 74.3438 81.7441C74.4609 81.5215 74.6289 81.3203 74.8477 81.1406C75.0703 80.957 75.3359 80.8125 75.6445 80.707C75.957 80.5977 76.3047 80.543 76.6875 80.543C77.1484 80.543 77.5547 80.6211 77.9062 80.7773C78.2617 80.9336 78.5391 81.1699 78.7383 81.4863C78.9414 81.7988 79.043 82.1914 79.043 82.6641V85.6172C79.043 85.8281 79.0605 86.0527 79.0957 86.291C79.1348 86.5293 79.1914 86.7344 79.2656 86.9062V87H78.1348C78.0801 86.875 78.0371 86.709 78.0059 86.502C77.9746 86.291 77.959 86.0957 77.959 85.916ZM78.1465 83.1562L78.1582 83.918H77.0625C76.7539 83.918 76.4785 83.9434 76.2363 83.9941C75.9941 84.041 75.791 84.1133 75.627 84.2109C75.4629 84.3086 75.3379 84.4316 75.252 84.5801C75.166 84.7246 75.123 84.8945 75.123 85.0898C75.123 85.2891 75.168 85.4707 75.2578 85.6348C75.3477 85.7988 75.4824 85.9297 75.6621 86.0273C75.8457 86.1211 76.0703 86.168 76.3359 86.168C76.668 86.168 76.9609 86.0977 77.2148 85.957C77.4688 85.8164 77.6699 85.6445 77.8184 85.4414C77.9707 85.2383 78.0527 85.041 78.0645 84.8496L78.5273 85.3711C78.5 85.5352 78.4258 85.7168 78.3047 85.916C78.1836 86.1152 78.0215 86.3066 77.8184 86.4902C77.6191 86.6699 77.3809 86.8203 77.1035 86.9414C76.8301 87.0586 76.5215 87.1172 76.1777 87.1172C75.748 87.1172 75.3711 87.0332 75.0469 86.8652C74.7266 86.6973 74.4766 86.4727 74.2969 86.1914C74.1211 85.9062 74.0332 85.5879 74.0332 85.2363C74.0332 84.8965 74.0996 84.5977 74.2324 84.3398C74.3652 84.0781 74.5566 83.8613 74.8066 83.6895C75.0566 83.5137 75.3574 83.3809 75.709 83.291C76.0605 83.2012 76.4531 83.1562 76.8867 83.1562H78.1465ZM76.207 79.7227L77.3438 78H78.6504L77.0801 79.7227H76.207ZM84.9785 82.9395L84.1113 82.7168L84.5391 78.4688H88.916V79.4707H85.459L85.2012 81.791C85.3574 81.7012 85.5547 81.6172 85.793 81.5391C86.0352 81.4609 86.3125 81.4219 86.625 81.4219C87.0195 81.4219 87.373 81.4902 87.6855 81.627C87.998 81.7598 88.2637 81.9512 88.4824 82.2012C88.7051 82.4512 88.875 82.752 88.9922 83.1035C89.1094 83.4551 89.168 83.8477 89.168 84.2812C89.168 84.6914 89.1113 85.0684 88.998 85.4121C88.8887 85.7559 88.7227 86.0566 88.5 86.3145C88.2773 86.5684 87.9961 86.7656 87.6562 86.9062C87.3203 87.0469 86.9238 87.1172 86.4668 87.1172C86.123 87.1172 85.7969 87.0703 85.4883 86.9766C85.1836 86.8789 84.9102 86.7324 84.668 86.5371C84.4297 86.3379 84.2344 86.0918 84.082 85.7988C83.9336 85.502 83.8398 85.1543 83.8008 84.7559H84.832C84.8789 85.0762 84.9727 85.3457 85.1133 85.5645C85.2539 85.7832 85.4375 85.9492 85.6641 86.0625C85.8945 86.1719 86.1621 86.2266 86.4668 86.2266C86.7246 86.2266 86.9531 86.1816 87.1523 86.0918C87.3516 86.002 87.5195 85.873 87.6562 85.7051C87.793 85.5371 87.8965 85.334 87.9668 85.0957C88.041 84.8574 88.0781 84.5898 88.0781 84.293C88.0781 84.0234 88.041 83.7734 87.9668 83.543C87.8926 83.3125 87.7812 83.1113 87.6328 82.9395C87.4883 82.7676 87.3105 82.6348 87.0996 82.541C86.8887 82.4434 86.6465 82.3945 86.373 82.3945C86.0098 82.3945 85.7344 82.4434 85.5469 82.541C85.3633 82.6387 85.1738 82.7715 84.9785 82.9395ZM97.4473 85.7695V78H98.5371V87H97.541L97.4473 85.7695ZM93.1816 83.9004V83.7773C93.1816 83.293 93.2402 82.8535 93.3574 82.459C93.4785 82.0605 93.6484 81.7188 93.8672 81.4336C94.0898 81.1484 94.3535 80.9297 94.6582 80.7773C94.9668 80.6211 95.3105 80.543 95.6895 80.543C96.0879 80.543 96.4355 80.6133 96.7324 80.7539C97.0332 80.8906 97.2871 81.0918 97.4941 81.3574C97.7051 81.6191 97.8711 81.9355 97.9922 82.3066C98.1133 82.6777 98.1973 83.0977 98.2441 83.5664V84.1055C98.2012 84.5703 98.1172 84.9883 97.9922 85.3594C97.8711 85.7305 97.7051 86.0469 97.4941 86.3086C97.2871 86.5703 97.0332 86.7715 96.7324 86.9121C96.4316 87.0488 96.0801 87.1172 95.6777 87.1172C95.3066 87.1172 94.9668 87.0371 94.6582 86.877C94.3535 86.7168 94.0898 86.4922 93.8672 86.2031C93.6484 85.9141 93.4785 85.5742 93.3574 85.1836C93.2402 84.7891 93.1816 84.3613 93.1816 83.9004ZM94.2715 83.7773V83.9004C94.2715 84.2168 94.3027 84.5137 94.3652 84.791C94.4316 85.0684 94.5332 85.3125 94.6699 85.5234C94.8066 85.7344 94.9805 85.9004 95.1914 86.0215C95.4023 86.1387 95.6543 86.1973 95.9473 86.1973C96.3066 86.1973 96.6016 86.1211 96.832 85.9688C97.0664 85.8164 97.2539 85.6152 97.3945 85.3652C97.5352 85.1152 97.6445 84.8438 97.7227 84.5508V83.1387C97.6758 82.9238 97.6074 82.7168 97.5176 82.5176C97.4316 82.3145 97.3184 82.1348 97.1777 81.9785C97.041 81.8184 96.8711 81.6914 96.668 81.5977C96.4688 81.5039 96.2324 81.457 95.959 81.457C95.6621 81.457 95.4062 81.5195 95.1914 81.6445C94.9805 81.7656 94.8066 81.9336 94.6699 82.1484C94.5332 82.3594 94.4316 82.6055 94.3652 82.8867C94.3027 83.1641 94.2715 83.4609 94.2715 83.7773ZM101.402 80.6602V87H100.312V80.6602H101.402ZM100.23 78.9785C100.23 78.8027 100.283 78.6543 100.389 78.5332C100.498 78.4121 100.658 78.3516 100.869 78.3516C101.076 78.3516 101.234 78.4121 101.344 78.5332C101.457 78.6543 101.514 78.8027 101.514 78.9785C101.514 79.1465 101.457 79.291 101.344 79.4121C101.234 79.5293 101.076 79.5879 100.869 79.5879C100.658 79.5879 100.498 79.5293 100.389 79.4121C100.283 79.291 100.23 79.1465 100.23 78.9785ZM106.881 85.916V82.6523C106.881 82.4023 106.83 82.1855 106.729 82.002C106.631 81.8145 106.482 81.6699 106.283 81.5684C106.084 81.4668 105.838 81.416 105.545 81.416C105.271 81.416 105.031 81.4629 104.824 81.5566C104.621 81.6504 104.461 81.7734 104.344 81.9258C104.23 82.0781 104.174 82.2422 104.174 82.418H103.09C103.09 82.1914 103.148 81.9668 103.266 81.7441C103.383 81.5215 103.551 81.3203 103.77 81.1406C103.992 80.957 104.258 80.8125 104.566 80.707C104.879 80.5977 105.227 80.543 105.609 80.543C106.07 80.543 106.477 80.6211 106.828 80.7773C107.184 80.9336 107.461 81.1699 107.66 81.4863C107.863 81.7988 107.965 82.1914 107.965 82.6641V85.6172C107.965 85.8281 107.982 86.0527 108.018 86.291C108.057 86.5293 108.113 86.7344 108.188 86.9062V87H107.057C107.002 86.875 106.959 86.709 106.928 86.502C106.896 86.291 106.881 86.0957 106.881 85.916ZM107.068 83.1562L107.08 83.918H105.984C105.676 83.918 105.4 83.9434 105.158 83.9941C104.916 84.041 104.713 84.1133 104.549 84.2109C104.385 84.3086 104.26 84.4316 104.174 84.5801C104.088 84.7246 104.045 84.8945 104.045 85.0898C104.045 85.2891 104.09 85.4707 104.18 85.6348C104.27 85.7988 104.404 85.9297 104.584 86.0273C104.768 86.1211 104.992 86.168 105.258 86.168C105.59 86.168 105.883 86.0977 106.137 85.957C106.391 85.8164 106.592 85.6445 106.74 85.4414C106.893 85.2383 106.975 85.041 106.986 84.8496L107.449 85.3711C107.422 85.5352 107.348 85.7168 107.227 85.916C107.105 86.1152 106.943 86.3066 106.74 86.4902C106.541 86.6699 106.303 86.8203 106.025 86.9414C105.752 87.0586 105.443 87.1172 105.1 87.1172C104.67 87.1172 104.293 87.0332 103.969 86.8652C103.648 86.6973 103.398 86.4727 103.219 86.1914C103.043 85.9062 102.955 85.5879 102.955 85.2363C102.955 84.8965 103.021 84.5977 103.154 84.3398C103.287 84.0781 103.479 83.8613 103.729 83.6895C103.979 83.5137 104.279 83.3809 104.631 83.291C104.982 83.2012 105.375 83.1562 105.809 83.1562H107.068ZM113.361 85.3184C113.361 85.1621 113.326 85.0176 113.256 84.8848C113.189 84.748 113.051 84.625 112.84 84.5156C112.633 84.4023 112.32 84.3047 111.902 84.2227C111.551 84.1484 111.232 84.0605 110.947 83.959C110.666 83.8574 110.426 83.7344 110.227 83.5898C110.031 83.4453 109.881 83.2754 109.775 83.0801C109.67 82.8848 109.617 82.6562 109.617 82.3945C109.617 82.1445 109.672 81.9082 109.781 81.6855C109.895 81.4629 110.053 81.2656 110.256 81.0938C110.463 80.9219 110.711 80.7871 111 80.6895C111.289 80.5918 111.611 80.543 111.967 80.543C112.475 80.543 112.908 80.6328 113.268 80.8125C113.627 80.9922 113.902 81.2324 114.094 81.5332C114.285 81.8301 114.381 82.1602 114.381 82.5234H113.297C113.297 82.3477 113.244 82.1777 113.139 82.0137C113.037 81.8457 112.887 81.707 112.688 81.5977C112.492 81.4883 112.252 81.4336 111.967 81.4336C111.666 81.4336 111.422 81.4805 111.234 81.5742C111.051 81.6641 110.916 81.7793 110.83 81.9199C110.748 82.0605 110.707 82.209 110.707 82.3652C110.707 82.4824 110.727 82.5879 110.766 82.6816C110.809 82.7715 110.883 82.8555 110.988 82.9336C111.094 83.0078 111.242 83.0781 111.434 83.1445C111.625 83.2109 111.869 83.2773 112.166 83.3438C112.686 83.4609 113.113 83.6016 113.449 83.7656C113.785 83.9297 114.035 84.1309 114.199 84.3691C114.363 84.6074 114.445 84.8965 114.445 85.2363C114.445 85.5137 114.387 85.7676 114.27 85.998C114.156 86.2285 113.99 86.4277 113.771 86.5957C113.557 86.7598 113.299 86.8887 112.998 86.9824C112.701 87.0723 112.367 87.1172 111.996 87.1172C111.438 87.1172 110.965 87.0176 110.578 86.8184C110.191 86.6191 109.898 86.3613 109.699 86.0449C109.5 85.7285 109.4 85.3945 109.4 85.043H110.49C110.506 85.3398 110.592 85.5762 110.748 85.752C110.904 85.9238 111.096 86.0469 111.322 86.1211C111.549 86.1914 111.773 86.2266 111.996 86.2266C112.293 86.2266 112.541 86.1875 112.74 86.1094C112.943 86.0312 113.098 85.9238 113.203 85.7871C113.309 85.6504 113.361 85.4941 113.361 85.3184Z" fill="#515151"/>
</svg>
