<svg width="196" height="90" viewBox="0 0 196 90" fill="none" xmlns="http://www.w3.org/2000/svg">
<path d="M6.77441 9.72559H8.6543C8.60417 10.391 8.4196 10.9811 8.10059 11.4961C7.78158 12.0065 7.33724 12.4076 6.76758 12.6992C6.19792 12.9909 5.50749 13.1367 4.69629 13.1367C4.07194 13.1367 3.50911 13.0273 3.00781 12.8086C2.51107 12.5853 2.08496 12.2686 1.72949 11.8584C1.37858 11.4437 1.1097 10.9469 0.922852 10.3682C0.736003 9.78483 0.642578 9.13086 0.642578 8.40625V7.64746C0.642578 6.92285 0.738281 6.26888 0.929688 5.68555C1.12109 5.10221 1.39453 4.60547 1.75 4.19531C2.11003 3.7806 2.54069 3.46159 3.04199 3.23828C3.54785 3.01497 4.11296 2.90332 4.7373 2.90332C5.5485 2.90332 6.23438 3.05371 6.79492 3.35449C7.35547 3.65072 7.79069 4.05859 8.10059 4.57812C8.41048 5.09766 8.59733 5.69466 8.66113 6.36914H6.78125C6.74479 5.94987 6.65365 5.5944 6.50781 5.30273C6.36654 5.01107 6.15234 4.79004 5.86523 4.63965C5.58268 4.4847 5.20671 4.40723 4.7373 4.40723C4.37272 4.40723 4.05143 4.47559 3.77344 4.6123C3.5 4.74902 3.27214 4.9541 3.08984 5.22754C2.90755 5.49642 2.77083 5.83366 2.67969 6.23926C2.58854 6.6403 2.54297 7.10514 2.54297 7.63379V8.40625C2.54297 8.91211 2.58398 9.36556 2.66602 9.7666C2.74805 10.1676 2.87565 10.5072 3.04883 10.7852C3.22201 11.0632 3.44531 11.2751 3.71875 11.4209C3.99219 11.5667 4.31803 11.6396 4.69629 11.6396C5.15658 11.6396 5.53027 11.5667 5.81738 11.4209C6.10905 11.2751 6.33008 11.0609 6.48047 10.7783C6.63542 10.4958 6.7334 10.1449 6.77441 9.72559ZM9.65234 9.37695V9.2334C9.65234 8.69108 9.72982 8.19206 9.88477 7.73633C10.0397 7.27604 10.2653 6.87728 10.5615 6.54004C10.8577 6.2028 11.2201 5.94076 11.6484 5.75391C12.0768 5.5625 12.5645 5.4668 13.1113 5.4668C13.6673 5.4668 14.1595 5.5625 14.5879 5.75391C15.0208 5.94076 15.3854 6.2028 15.6816 6.54004C15.9779 6.87728 16.2035 7.27604 16.3584 7.73633C16.5133 8.19206 16.5908 8.69108 16.5908 9.2334V9.37695C16.5908 9.91471 16.5133 10.4137 16.3584 10.874C16.2035 11.3298 15.9779 11.7285 15.6816 12.0703C15.3854 12.4076 15.0231 12.6696 14.5947 12.8564C14.1663 13.0433 13.6764 13.1367 13.125 13.1367C12.5781 13.1367 12.0882 13.0433 11.6553 12.8564C11.2223 12.6696 10.8577 12.4076 10.5615 12.0703C10.2653 11.7285 10.0397 11.3298 9.88477 10.874C9.72982 10.4137 9.65234 9.91471 9.65234 9.37695ZM11.457 9.2334V9.37695C11.457 9.70052 11.4889 10.0036 11.5527 10.2861C11.6165 10.5687 11.7145 10.8171 11.8467 11.0312C11.9788 11.2454 12.1497 11.4141 12.3594 11.5371C12.5736 11.6556 12.8288 11.7148 13.125 11.7148C13.4167 11.7148 13.6673 11.6556 13.877 11.5371C14.0866 11.4141 14.2575 11.2454 14.3896 11.0312C14.5264 10.8171 14.6266 10.5687 14.6904 10.2861C14.7542 10.0036 14.7861 9.70052 14.7861 9.37695V9.2334C14.7861 8.91439 14.7542 8.61589 14.6904 8.33789C14.6266 8.05534 14.5264 7.80697 14.3896 7.59277C14.2575 7.37402 14.0843 7.20312 13.8701 7.08008C13.6605 6.95247 13.4076 6.88867 13.1113 6.88867C12.8197 6.88867 12.569 6.95247 12.3594 7.08008C12.1497 7.20312 11.9788 7.37402 11.8467 7.59277C11.7145 7.80697 11.6165 8.05534 11.5527 8.33789C11.4889 8.61589 11.457 8.91439 11.457 9.2334ZM19.7012 7.12109V13H17.8965V5.60352H19.5986L19.7012 7.12109ZM19.4346 9.03516H18.8809C18.8809 8.52018 18.9424 8.04622 19.0654 7.61328C19.193 7.18034 19.3799 6.80436 19.626 6.48535C19.8721 6.16178 20.1751 5.91113 20.5352 5.7334C20.8997 5.55566 21.3213 5.4668 21.7998 5.4668C22.1325 5.4668 22.4378 5.51693 22.7158 5.61719C22.9938 5.71289 23.2331 5.86556 23.4336 6.0752C23.6387 6.28027 23.7959 6.54915 23.9053 6.88184C24.0146 7.20996 24.0693 7.60417 24.0693 8.06445V13H22.2646V8.24902C22.2646 7.90267 22.2145 7.63151 22.1143 7.43555C22.0186 7.23958 21.8796 7.10286 21.6973 7.02539C21.515 6.94336 21.2962 6.90234 21.041 6.90234C20.7585 6.90234 20.5146 6.95931 20.3096 7.07324C20.109 7.18262 19.9427 7.33529 19.8105 7.53125C19.6829 7.72721 19.5872 7.9528 19.5234 8.20801C19.4642 8.46322 19.4346 8.73893 19.4346 9.03516ZM23.9326 8.7002L23.1875 8.83691C23.1921 8.37207 23.2559 7.93685 23.3789 7.53125C23.502 7.12109 23.682 6.76335 23.9189 6.45801C24.1605 6.14811 24.459 5.90658 24.8145 5.7334C25.1745 5.55566 25.5892 5.4668 26.0586 5.4668C26.4232 5.4668 26.7513 5.51921 27.043 5.62402C27.3392 5.72428 27.5921 5.88607 27.8018 6.10938C28.0114 6.32812 28.1709 6.61296 28.2803 6.96387C28.3942 7.31478 28.4512 7.74316 28.4512 8.24902V13H26.6328V8.24219C26.6328 7.88216 26.5827 7.60645 26.4824 7.41504C26.3867 7.22363 26.2477 7.09147 26.0654 7.01855C25.8831 6.94108 25.6689 6.90234 25.4229 6.90234C25.1722 6.90234 24.9535 6.9502 24.7666 7.0459C24.5843 7.13704 24.4294 7.26465 24.3018 7.42871C24.1787 7.59277 24.0853 7.78418 24.0215 8.00293C23.9622 8.21712 23.9326 8.44954 23.9326 8.7002ZM29.75 9.37695V9.2334C29.75 8.69108 29.8275 8.19206 29.9824 7.73633C30.1374 7.27604 30.363 6.87728 30.6592 6.54004C30.9554 6.2028 31.3177 5.94076 31.7461 5.75391C32.1745 5.5625 32.6621 5.4668 33.209 5.4668C33.765 5.4668 34.2572 5.5625 34.6855 5.75391C35.1185 5.94076 35.4831 6.2028 35.7793 6.54004C36.0755 6.87728 36.3011 7.27604 36.4561 7.73633C36.611 8.19206 36.6885 8.69108 36.6885 9.2334V9.37695C36.6885 9.91471 36.611 10.4137 36.4561 10.874C36.3011 11.3298 36.0755 11.7285 35.7793 12.0703C35.4831 12.4076 35.1208 12.6696 34.6924 12.8564C34.264 13.0433 33.7741 13.1367 33.2227 13.1367C32.6758 13.1367 32.1859 13.0433 31.7529 12.8564C31.32 12.6696 30.9554 12.4076 30.6592 12.0703C30.363 11.7285 30.1374 11.3298 29.9824 10.874C29.8275 10.4137 29.75 9.91471 29.75 9.37695ZM31.5547 9.2334V9.37695C31.5547 9.70052 31.5866 10.0036 31.6504 10.2861C31.7142 10.5687 31.8122 10.8171 31.9443 11.0312C32.0765 11.2454 32.2474 11.4141 32.457 11.5371C32.6712 11.6556 32.9264 11.7148 33.2227 11.7148C33.5143 11.7148 33.765 11.6556 33.9746 11.5371C34.1842 11.4141 34.3551 11.2454 34.4873 11.0312C34.624 10.8171 34.7243 10.5687 34.7881 10.2861C34.8519 10.0036 34.8838 9.70052 34.8838 9.37695V9.2334C34.8838 8.91439 34.8519 8.61589 34.7881 8.33789C34.7243 8.05534 34.624 7.80697 34.4873 7.59277C34.3551 7.37402 34.182 7.20312 33.9678 7.08008C33.7581 6.95247 33.5052 6.88867 33.209 6.88867C32.9173 6.88867 32.6667 6.95247 32.457 7.08008C32.2474 7.20312 32.0765 7.37402 31.9443 7.59277C31.8122 7.80697 31.7142 8.05534 31.6504 8.33789C31.5866 8.61589 31.5547 8.91439 31.5547 9.2334ZM45.5615 11.4277V8.0166C45.5615 7.76595 45.5182 7.54948 45.4316 7.36719C45.3451 7.1849 45.2129 7.04362 45.0352 6.94336C44.8574 6.8431 44.6318 6.79297 44.3584 6.79297C44.1169 6.79297 43.9049 6.83398 43.7227 6.91602C43.5449 6.99805 43.4082 7.11426 43.3125 7.26465C43.2168 7.41048 43.1689 7.5791 43.1689 7.77051H41.3574C41.3574 7.46517 41.4303 7.17578 41.5762 6.90234C41.722 6.62435 41.9294 6.37826 42.1982 6.16406C42.4717 5.94531 42.7975 5.77441 43.1758 5.65137C43.5586 5.52832 43.987 5.4668 44.4609 5.4668C45.0215 5.4668 45.5205 5.5625 45.958 5.75391C46.4001 5.94076 46.7464 6.22331 46.9971 6.60156C47.2523 6.97982 47.3799 7.45605 47.3799 8.03027V11.2568C47.3799 11.626 47.4027 11.9427 47.4482 12.207C47.4984 12.4668 47.5713 12.6924 47.667 12.8838V13H45.8281C45.7415 12.8132 45.6755 12.5762 45.6299 12.2891C45.5843 11.9974 45.5615 11.7103 45.5615 11.4277ZM45.8145 8.49512L45.8281 9.56836H44.6865C44.404 9.56836 44.1556 9.59798 43.9414 9.65723C43.7272 9.71191 43.5518 9.79395 43.415 9.90332C43.2783 10.0081 43.1758 10.1357 43.1074 10.2861C43.0391 10.432 43.0049 10.5983 43.0049 10.7852C43.0049 10.9674 43.0459 11.1315 43.1279 11.2773C43.2145 11.4232 43.3376 11.5394 43.4971 11.626C43.6611 11.708 43.8525 11.749 44.0713 11.749C44.3903 11.749 44.6683 11.6852 44.9053 11.5576C45.1423 11.4255 45.3268 11.266 45.459 11.0791C45.5911 10.8923 45.6618 10.7145 45.6709 10.5459L46.1904 11.3252C46.1266 11.512 46.0309 11.7103 45.9033 11.9199C45.7757 12.1296 45.6117 12.3255 45.4111 12.5078C45.2106 12.6901 44.9691 12.8405 44.6865 12.959C44.404 13.0775 44.0758 13.1367 43.7021 13.1367C43.2236 13.1367 42.7952 13.041 42.417 12.8496C42.0387 12.6582 41.7402 12.3962 41.5215 12.0635C41.3027 11.7308 41.1934 11.3525 41.1934 10.9287C41.1934 10.5368 41.2663 10.1904 41.4121 9.88965C41.5579 9.58887 41.7744 9.33594 42.0615 9.13086C42.3486 8.92122 42.7041 8.764 43.1279 8.65918C43.5563 8.5498 44.0462 8.49512 44.5977 8.49512H45.8145ZM50.8115 7.02539V15.8438H49V5.60352H50.6748L50.8115 7.02539ZM55.5625 9.22656V9.37012C55.5625 9.90788 55.4987 10.4069 55.3711 10.8672C55.248 11.3229 55.0658 11.7217 54.8242 12.0635C54.5827 12.4007 54.2819 12.665 53.9219 12.8564C53.5664 13.0433 53.1562 13.1367 52.6914 13.1367C52.2357 13.1367 51.8392 13.0501 51.502 12.877C51.1647 12.6992 50.8799 12.4486 50.6475 12.125C50.415 11.8014 50.2282 11.4255 50.0869 10.9971C49.9502 10.5641 49.8477 10.0924 49.7793 9.58203V9.12402C49.8477 8.58171 49.9502 8.08952 50.0869 7.64746C50.2282 7.20085 50.415 6.81576 50.6475 6.49219C50.8799 6.16406 51.1624 5.91113 51.4951 5.7334C51.8324 5.55566 52.2266 5.4668 52.6777 5.4668C53.1471 5.4668 53.5596 5.55566 53.915 5.7334C54.2751 5.91113 54.5781 6.16634 54.8242 6.49902C55.0703 6.83171 55.2549 7.22819 55.3779 7.68848C55.501 8.14876 55.5625 8.66146 55.5625 9.22656ZM53.751 9.37012V9.22656C53.751 8.89844 53.7214 8.59538 53.6621 8.31738C53.6029 8.03483 53.5117 7.78874 53.3887 7.5791C53.2656 7.36491 53.1061 7.19857 52.9102 7.08008C52.7142 6.96159 52.4772 6.90234 52.1992 6.90234C51.9212 6.90234 51.682 6.94792 51.4814 7.03906C51.2809 7.13021 51.1169 7.26009 50.9893 7.42871C50.8617 7.59733 50.7614 7.79785 50.6885 8.03027C50.6201 8.25814 50.5745 8.51107 50.5518 8.78906V9.92383C50.5928 10.2611 50.6725 10.5641 50.791 10.833C50.9095 11.1019 51.0827 11.3161 51.3105 11.4756C51.543 11.6351 51.8438 11.7148 52.2129 11.7148C52.4909 11.7148 52.7279 11.6533 52.9238 11.5303C53.1198 11.4072 53.2793 11.2386 53.4023 11.0244C53.5254 10.8057 53.6143 10.555 53.6689 10.2725C53.7236 9.98991 53.751 9.68913 53.751 9.37012ZM58.6865 7.11426V13H56.8818V5.60352H58.5908L58.6865 7.11426ZM60.9355 5.55566L60.9082 7.2373C60.8079 7.21908 60.694 7.2054 60.5664 7.19629C60.4434 7.18717 60.3271 7.18262 60.2178 7.18262C59.9398 7.18262 59.696 7.22135 59.4863 7.29883C59.2767 7.37174 59.1012 7.47884 58.96 7.62012C58.8232 7.76139 58.7184 7.93457 58.6455 8.13965C58.5726 8.34017 58.5316 8.56803 58.5225 8.82324L58.1328 8.77539C58.1328 8.30599 58.1807 7.87077 58.2764 7.46973C58.3721 7.06868 58.5111 6.71777 58.6934 6.41699C58.8757 6.11621 59.1035 5.88379 59.377 5.71973C59.6549 5.55111 59.974 5.4668 60.334 5.4668C60.4342 5.4668 60.5413 5.47591 60.6553 5.49414C60.7738 5.50781 60.8672 5.52832 60.9355 5.55566ZM65.1123 13.1367C64.5518 13.1367 64.0482 13.0456 63.6016 12.8633C63.1549 12.681 62.7744 12.4281 62.46 12.1045C62.1501 11.7764 61.9108 11.3958 61.7422 10.9629C61.5781 10.5254 61.4961 10.056 61.4961 9.55469V9.28125C61.4961 8.71159 61.5781 8.19434 61.7422 7.72949C61.9062 7.26009 62.1387 6.85677 62.4395 6.51953C62.7402 6.18229 63.1003 5.92253 63.5195 5.74023C63.9388 5.55794 64.4014 5.4668 64.9072 5.4668C65.4313 5.4668 65.8939 5.55566 66.2949 5.7334C66.696 5.90658 67.0309 6.15267 67.2998 6.47168C67.5687 6.79069 67.7715 7.1735 67.9082 7.62012C68.0449 8.06217 68.1133 8.55208 68.1133 9.08984V9.84863H62.3164V8.60449H66.3359V8.46777C66.3268 8.18066 66.2721 7.91862 66.1719 7.68164C66.0716 7.4401 65.9167 7.2487 65.707 7.10742C65.4974 6.96159 65.2262 6.88867 64.8936 6.88867C64.6247 6.88867 64.39 6.94792 64.1895 7.06641C63.9935 7.18034 63.8294 7.3444 63.6973 7.55859C63.5697 7.76823 63.474 8.01888 63.4102 8.31055C63.3464 8.60221 63.3145 8.92578 63.3145 9.28125V9.55469C63.3145 9.86458 63.3555 10.1517 63.4375 10.416C63.5241 10.6803 63.6494 10.9105 63.8135 11.1064C63.9821 11.2979 64.1826 11.4482 64.415 11.5576C64.652 11.6624 64.9209 11.7148 65.2217 11.7148C65.5999 11.7148 65.9417 11.6419 66.2471 11.4961C66.557 11.3457 66.8258 11.1247 67.0537 10.833L67.9629 11.7764C67.8079 12.0042 67.5983 12.223 67.334 12.4326C67.0742 12.6423 66.7598 12.8132 66.3906 12.9453C66.0215 13.0729 65.5954 13.1367 65.1123 13.1367ZM71.0938 7.18262V13H69.2891V5.60352H70.9844L71.0938 7.18262ZM70.8066 9.03516H70.2734C70.278 8.4974 70.3509 8.00977 70.4922 7.57227C70.6335 7.13477 70.8317 6.75879 71.0869 6.44434C71.3467 6.12988 71.6543 5.88835 72.0098 5.71973C72.3652 5.55111 72.7617 5.4668 73.1992 5.4668C73.5547 5.4668 73.876 5.51693 74.1631 5.61719C74.4502 5.71745 74.6963 5.87695 74.9014 6.0957C75.111 6.31445 75.2705 6.60156 75.3799 6.95703C75.4938 7.30794 75.5508 7.74089 75.5508 8.25586V13H73.7324V8.24219C73.7324 7.90495 73.6823 7.63835 73.582 7.44238C73.4863 7.24642 73.3451 7.10742 73.1582 7.02539C72.9759 6.94336 72.7503 6.90234 72.4814 6.90234C72.2035 6.90234 71.9596 6.95931 71.75 7.07324C71.5449 7.18262 71.3717 7.33529 71.2305 7.53125C71.0938 7.72721 70.9889 7.9528 70.916 8.20801C70.8431 8.46322 70.8066 8.73893 70.8066 9.03516ZM81.5801 11.4277V2.5H83.3984V13H81.7578L81.5801 11.4277ZM76.8291 9.39062V9.24707C76.8291 8.68197 76.8929 8.16927 77.0205 7.70898C77.1527 7.24414 77.3441 6.84538 77.5947 6.5127C77.8454 6.18001 78.1484 5.92253 78.5039 5.74023C78.8639 5.55794 79.2718 5.4668 79.7275 5.4668C80.1696 5.4668 80.5547 5.55566 80.8828 5.7334C81.2155 5.91113 81.498 6.16406 81.7305 6.49219C81.9674 6.82031 82.1566 7.20996 82.2979 7.66113C82.4391 8.10775 82.5417 8.59993 82.6055 9.1377V9.52734C82.5417 10.0514 82.4391 10.5322 82.2979 10.9697C82.1566 11.4072 81.9674 11.79 81.7305 12.1182C81.498 12.4417 81.2155 12.6924 80.8828 12.8701C80.5501 13.0479 80.1605 13.1367 79.7139 13.1367C79.2627 13.1367 78.8571 13.0433 78.4971 12.8564C78.1416 12.6696 77.8385 12.4076 77.5879 12.0703C77.3418 11.7331 77.1527 11.3366 77.0205 10.8809C76.8929 10.4251 76.8291 9.92839 76.8291 9.39062ZM78.6406 9.24707V9.39062C78.6406 9.70964 78.668 10.0081 78.7227 10.2861C78.7773 10.5641 78.8662 10.8102 78.9893 11.0244C79.1123 11.234 79.2695 11.3981 79.4609 11.5166C79.6569 11.6351 79.8939 11.6943 80.1719 11.6943C80.5273 11.6943 80.819 11.6169 81.0469 11.4619C81.2793 11.3024 81.4593 11.0859 81.5869 10.8125C81.7145 10.5345 81.7965 10.2223 81.833 9.87598V8.80273C81.8148 8.5293 81.7669 8.27637 81.6895 8.04395C81.6165 7.81152 81.5117 7.611 81.375 7.44238C81.2428 7.27376 81.0788 7.1416 80.8828 7.0459C80.6868 6.9502 80.4544 6.90234 80.1855 6.90234C79.9076 6.90234 79.6706 6.96387 79.4746 7.08691C79.2786 7.2054 79.1191 7.37174 78.9961 7.58594C78.873 7.80013 78.7819 8.0485 78.7227 8.33105C78.668 8.61361 78.6406 8.91895 78.6406 9.24707ZM88.3545 13.1367C87.7939 13.1367 87.2904 13.0456 86.8438 12.8633C86.3971 12.681 86.0166 12.4281 85.7021 12.1045C85.3923 11.7764 85.153 11.3958 84.9844 10.9629C84.8203 10.5254 84.7383 10.056 84.7383 9.55469V9.28125C84.7383 8.71159 84.8203 8.19434 84.9844 7.72949C85.1484 7.26009 85.3809 6.85677 85.6816 6.51953C85.9824 6.18229 86.3424 5.92253 86.7617 5.74023C87.181 5.55794 87.6436 5.4668 88.1494 5.4668C88.6735 5.4668 89.1361 5.55566 89.5371 5.7334C89.9382 5.90658 90.2731 6.15267 90.542 6.47168C90.8109 6.79069 91.0137 7.1735 91.1504 7.62012C91.2871 8.06217 91.3555 8.55208 91.3555 9.08984V9.84863H85.5586V8.60449H89.5781V8.46777C89.569 8.18066 89.5143 7.91862 89.4141 7.68164C89.3138 7.4401 89.1589 7.2487 88.9492 7.10742C88.7396 6.96159 88.4684 6.88867 88.1357 6.88867C87.8669 6.88867 87.6322 6.94792 87.4316 7.06641C87.2357 7.18034 87.0716 7.3444 86.9395 7.55859C86.8118 7.76823 86.7161 8.01888 86.6523 8.31055C86.5885 8.60221 86.5566 8.92578 86.5566 9.28125V9.55469C86.5566 9.86458 86.5977 10.1517 86.6797 10.416C86.7663 10.6803 86.8916 10.9105 87.0557 11.1064C87.2243 11.2979 87.4248 11.4482 87.6572 11.5576C87.8942 11.6624 88.1631 11.7148 88.4639 11.7148C88.8421 11.7148 89.1839 11.6419 89.4893 11.4961C89.7992 11.3457 90.068 11.1247 90.2959 10.833L91.2051 11.7764C91.0501 12.0042 90.8405 12.223 90.5762 12.4326C90.3164 12.6423 90.002 12.8132 89.6328 12.9453C89.2637 13.0729 88.8376 13.1367 88.3545 13.1367ZM94.3701 7.11426V13H92.5654V5.60352H94.2744L94.3701 7.11426ZM96.6191 5.55566L96.5918 7.2373C96.4915 7.21908 96.3776 7.2054 96.25 7.19629C96.127 7.18717 96.0107 7.18262 95.9014 7.18262C95.6234 7.18262 95.3796 7.22135 95.1699 7.29883C94.9603 7.37174 94.7848 7.47884 94.6436 7.62012C94.5068 7.76139 94.402 7.93457 94.3291 8.13965C94.2562 8.34017 94.2152 8.56803 94.2061 8.82324L93.8164 8.77539C93.8164 8.30599 93.8643 7.87077 93.96 7.46973C94.0557 7.06868 94.1947 6.71777 94.377 6.41699C94.5592 6.11621 94.7871 5.88379 95.0605 5.71973C95.3385 5.55111 95.6576 5.4668 96.0176 5.4668C96.1178 5.4668 96.2249 5.47591 96.3389 5.49414C96.4574 5.50781 96.5508 5.52832 96.6191 5.55566ZM105.171 11.4277V8.0166C105.171 7.76595 105.128 7.54948 105.041 7.36719C104.954 7.1849 104.822 7.04362 104.645 6.94336C104.467 6.8431 104.241 6.79297 103.968 6.79297C103.726 6.79297 103.514 6.83398 103.332 6.91602C103.154 6.99805 103.018 7.11426 102.922 7.26465C102.826 7.41048 102.778 7.5791 102.778 7.77051H100.967C100.967 7.46517 101.04 7.17578 101.186 6.90234C101.331 6.62435 101.539 6.37826 101.808 6.16406C102.081 5.94531 102.407 5.77441 102.785 5.65137C103.168 5.52832 103.596 5.4668 104.07 5.4668C104.631 5.4668 105.13 5.5625 105.567 5.75391C106.009 5.94076 106.356 6.22331 106.606 6.60156C106.862 6.97982 106.989 7.45605 106.989 8.03027V11.2568C106.989 11.626 107.012 11.9427 107.058 12.207C107.108 12.4668 107.181 12.6924 107.276 12.8838V13H105.438C105.351 12.8132 105.285 12.5762 105.239 12.2891C105.194 11.9974 105.171 11.7103 105.171 11.4277ZM105.424 8.49512L105.438 9.56836H104.296C104.013 9.56836 103.765 9.59798 103.551 9.65723C103.337 9.71191 103.161 9.79395 103.024 9.90332C102.888 10.0081 102.785 10.1357 102.717 10.2861C102.648 10.432 102.614 10.5983 102.614 10.7852C102.614 10.9674 102.655 11.1315 102.737 11.2773C102.824 11.4232 102.947 11.5394 103.106 11.626C103.271 11.708 103.462 11.749 103.681 11.749C104 11.749 104.278 11.6852 104.515 11.5576C104.752 11.4255 104.936 11.266 105.068 11.0791C105.201 10.8923 105.271 10.7145 105.28 10.5459L105.8 11.3252C105.736 11.512 105.64 11.7103 105.513 11.9199C105.385 12.1296 105.221 12.3255 105.021 12.5078C104.82 12.6901 104.578 12.8405 104.296 12.959C104.013 13.0775 103.685 13.1367 103.312 13.1367C102.833 13.1367 102.405 13.041 102.026 12.8496C101.648 12.6582 101.35 12.3962 101.131 12.0635C100.912 11.7308 100.803 11.3525 100.803 10.9287C100.803 10.5368 100.876 10.1904 101.021 9.88965C101.167 9.58887 101.384 9.33594 101.671 9.13086C101.958 8.92122 102.313 8.764 102.737 8.65918C103.166 8.5498 103.656 8.49512 104.207 8.49512H105.424ZM113.907 7.02539V15.8438H112.096V5.60352H113.771L113.907 7.02539ZM118.658 9.22656V9.37012C118.658 9.90788 118.594 10.4069 118.467 10.8672C118.344 11.3229 118.161 11.7217 117.92 12.0635C117.678 12.4007 117.378 12.665 117.018 12.8564C116.662 13.0433 116.252 13.1367 115.787 13.1367C115.331 13.1367 114.935 13.0501 114.598 12.877C114.26 12.6992 113.976 12.4486 113.743 12.125C113.511 11.8014 113.324 11.4255 113.183 10.9971C113.046 10.5641 112.943 10.0924 112.875 9.58203V9.12402C112.943 8.58171 113.046 8.08952 113.183 7.64746C113.324 7.20085 113.511 6.81576 113.743 6.49219C113.976 6.16406 114.258 5.91113 114.591 5.7334C114.928 5.55566 115.322 5.4668 115.773 5.4668C116.243 5.4668 116.655 5.55566 117.011 5.7334C117.371 5.91113 117.674 6.16634 117.92 6.49902C118.166 6.83171 118.351 7.22819 118.474 7.68848C118.597 8.14876 118.658 8.66146 118.658 9.22656ZM116.847 9.37012V9.22656C116.847 8.89844 116.817 8.59538 116.758 8.31738C116.699 8.03483 116.607 7.78874 116.484 7.5791C116.361 7.36491 116.202 7.19857 116.006 7.08008C115.81 6.96159 115.573 6.90234 115.295 6.90234C115.017 6.90234 114.778 6.94792 114.577 7.03906C114.377 7.13021 114.213 7.26009 114.085 7.42871C113.957 7.59733 113.857 7.79785 113.784 8.03027C113.716 8.25814 113.67 8.51107 113.647 8.78906V9.92383C113.688 10.2611 113.768 10.5641 113.887 10.833C114.005 11.1019 114.178 11.3161 114.406 11.4756C114.639 11.6351 114.939 11.7148 115.309 11.7148C115.587 11.7148 115.824 11.6533 116.02 11.5303C116.215 11.4072 116.375 11.2386 116.498 11.0244C116.621 10.8057 116.71 10.555 116.765 10.2725C116.819 9.98991 116.847 9.68913 116.847 9.37012ZM121.782 7.11426V13H119.978V5.60352H121.687L121.782 7.11426ZM124.031 5.55566L124.004 7.2373C123.904 7.21908 123.79 7.2054 123.662 7.19629C123.539 7.18717 123.423 7.18262 123.313 7.18262C123.035 7.18262 122.792 7.22135 122.582 7.29883C122.372 7.37174 122.197 7.47884 122.056 7.62012C121.919 7.76139 121.814 7.93457 121.741 8.13965C121.668 8.34017 121.627 8.56803 121.618 8.82324L121.229 8.77539C121.229 8.30599 121.276 7.87077 121.372 7.46973C121.468 7.06868 121.607 6.71777 121.789 6.41699C121.971 6.11621 122.199 5.88379 122.473 5.71973C122.751 5.55111 123.07 5.4668 123.43 5.4668C123.53 5.4668 123.637 5.47591 123.751 5.49414C123.869 5.50781 123.963 5.52832 124.031 5.55566ZM124.51 9.37695V9.2334C124.51 8.69108 124.587 8.19206 124.742 7.73633C124.897 7.27604 125.123 6.87728 125.419 6.54004C125.715 6.2028 126.077 5.94076 126.506 5.75391C126.934 5.5625 127.422 5.4668 127.969 5.4668C128.525 5.4668 129.017 5.5625 129.445 5.75391C129.878 5.94076 130.243 6.2028 130.539 6.54004C130.835 6.87728 131.061 7.27604 131.216 7.73633C131.371 8.19206 131.448 8.69108 131.448 9.2334V9.37695C131.448 9.91471 131.371 10.4137 131.216 10.874C131.061 11.3298 130.835 11.7285 130.539 12.0703C130.243 12.4076 129.881 12.6696 129.452 12.8564C129.024 13.0433 128.534 13.1367 127.982 13.1367C127.436 13.1367 126.946 13.0433 126.513 12.8564C126.08 12.6696 125.715 12.4076 125.419 12.0703C125.123 11.7285 124.897 11.3298 124.742 10.874C124.587 10.4137 124.51 9.91471 124.51 9.37695ZM126.314 9.2334V9.37695C126.314 9.70052 126.346 10.0036 126.41 10.2861C126.474 10.5687 126.572 10.8171 126.704 11.0312C126.836 11.2454 127.007 11.4141 127.217 11.5371C127.431 11.6556 127.686 11.7148 127.982 11.7148C128.274 11.7148 128.525 11.6556 128.734 11.5371C128.944 11.4141 129.115 11.2454 129.247 11.0312C129.384 10.8171 129.484 10.5687 129.548 10.2861C129.612 10.0036 129.644 9.70052 129.644 9.37695V9.2334C129.644 8.91439 129.612 8.61589 129.548 8.33789C129.484 8.05534 129.384 7.80697 129.247 7.59277C129.115 7.37402 128.942 7.20312 128.728 7.08008C128.518 6.95247 128.265 6.88867 127.969 6.88867C127.677 6.88867 127.426 6.95247 127.217 7.08008C127.007 7.20312 126.836 7.37402 126.704 7.59277C126.572 7.80697 126.474 8.05534 126.41 8.33789C126.346 8.61589 126.314 8.91439 126.314 9.2334ZM137.464 5.60352H139.104V12.7744C139.104 13.4443 138.959 14.0117 138.667 14.4766C138.38 14.946 137.977 15.3014 137.457 15.543C136.938 15.7891 136.334 15.9121 135.646 15.9121C135.349 15.9121 135.028 15.8711 134.682 15.7891C134.34 15.707 134.009 15.5771 133.69 15.3994C133.376 15.2262 133.114 15.0007 132.904 14.7227L133.718 13.6562C133.964 13.9434 134.242 14.1598 134.552 14.3057C134.862 14.4561 135.197 14.5312 135.557 14.5312C135.921 14.5312 136.231 14.4629 136.486 14.3262C136.746 14.194 136.944 13.998 137.081 13.7383C137.222 13.4831 137.293 13.1686 137.293 12.7949V7.29199L137.464 5.60352ZM132.467 9.39062V9.24707C132.467 8.68197 132.535 8.16927 132.672 7.70898C132.809 7.24414 133.005 6.84538 133.26 6.5127C133.52 6.18001 133.832 5.92253 134.196 5.74023C134.565 5.55794 134.98 5.4668 135.44 5.4668C135.928 5.4668 136.338 5.55566 136.671 5.7334C137.008 5.91113 137.286 6.16406 137.505 6.49219C137.728 6.82031 137.901 7.20996 138.024 7.66113C138.152 8.10775 138.25 8.59993 138.318 9.1377V9.52734C138.255 10.0514 138.152 10.5322 138.011 10.9697C137.874 11.4072 137.692 11.79 137.464 12.1182C137.236 12.4417 136.953 12.6924 136.616 12.8701C136.279 13.0479 135.882 13.1367 135.427 13.1367C134.971 13.1367 134.561 13.0433 134.196 12.8564C133.832 12.6696 133.52 12.4076 133.26 12.0703C133.005 11.7331 132.809 11.3366 132.672 10.8809C132.535 10.4251 132.467 9.92839 132.467 9.39062ZM134.271 9.24707V9.39062C134.271 9.70964 134.303 10.0081 134.367 10.2861C134.431 10.5641 134.529 10.8102 134.661 11.0244C134.793 11.234 134.96 11.3981 135.16 11.5166C135.361 11.6351 135.6 11.6943 135.878 11.6943C136.252 11.6943 136.557 11.6169 136.794 11.4619C137.035 11.3024 137.218 11.0859 137.341 10.8125C137.468 10.5345 137.55 10.2223 137.587 9.87598V8.80273C137.564 8.5293 137.514 8.27637 137.437 8.04395C137.364 7.81152 137.261 7.611 137.129 7.44238C136.997 7.27376 136.828 7.1416 136.623 7.0459C136.418 6.9502 136.174 6.90234 135.892 6.90234C135.618 6.90234 135.379 6.96387 135.174 7.08691C134.969 7.2054 134.8 7.37174 134.668 7.58594C134.536 7.80013 134.436 8.0485 134.367 8.33105C134.303 8.61361 134.271 8.91895 134.271 9.24707ZM142.536 7.11426V13H140.731V5.60352H142.44L142.536 7.11426ZM144.785 5.55566L144.758 7.2373C144.658 7.21908 144.544 7.2054 144.416 7.19629C144.293 7.18717 144.177 7.18262 144.067 7.18262C143.789 7.18262 143.546 7.22135 143.336 7.29883C143.126 7.37174 142.951 7.47884 142.81 7.62012C142.673 7.76139 142.568 7.93457 142.495 8.13965C142.422 8.34017 142.381 8.56803 142.372 8.82324L141.982 8.77539C141.982 8.30599 142.03 7.87077 142.126 7.46973C142.222 7.06868 142.361 6.71777 142.543 6.41699C142.725 6.11621 142.953 5.88379 143.227 5.71973C143.505 5.55111 143.824 5.4668 144.184 5.4668C144.284 5.4668 144.391 5.47591 144.505 5.49414C144.623 5.50781 144.717 5.52832 144.785 5.55566ZM149.618 11.4277V8.0166C149.618 7.76595 149.575 7.54948 149.488 7.36719C149.402 7.1849 149.27 7.04362 149.092 6.94336C148.914 6.8431 148.688 6.79297 148.415 6.79297C148.174 6.79297 147.962 6.83398 147.779 6.91602C147.602 6.99805 147.465 7.11426 147.369 7.26465C147.273 7.41048 147.226 7.5791 147.226 7.77051H145.414C145.414 7.46517 145.487 7.17578 145.633 6.90234C145.779 6.62435 145.986 6.37826 146.255 6.16406C146.528 5.94531 146.854 5.77441 147.232 5.65137C147.615 5.52832 148.044 5.4668 148.518 5.4668C149.078 5.4668 149.577 5.5625 150.015 5.75391C150.457 5.94076 150.803 6.22331 151.054 6.60156C151.309 6.97982 151.437 7.45605 151.437 8.03027V11.2568C151.437 11.626 151.459 11.9427 151.505 12.207C151.555 12.4668 151.628 12.6924 151.724 12.8838V13H149.885C149.798 12.8132 149.732 12.5762 149.687 12.2891C149.641 11.9974 149.618 11.7103 149.618 11.4277ZM149.871 8.49512L149.885 9.56836H148.743C148.461 9.56836 148.212 9.59798 147.998 9.65723C147.784 9.71191 147.608 9.79395 147.472 9.90332C147.335 10.0081 147.232 10.1357 147.164 10.2861C147.096 10.432 147.062 10.5983 147.062 10.7852C147.062 10.9674 147.103 11.1315 147.185 11.2773C147.271 11.4232 147.394 11.5394 147.554 11.626C147.718 11.708 147.909 11.749 148.128 11.749C148.447 11.749 148.725 11.6852 148.962 11.5576C149.199 11.4255 149.383 11.266 149.516 11.0791C149.648 10.8923 149.718 10.7145 149.728 10.5459L150.247 11.3252C150.183 11.512 150.088 11.7103 149.96 11.9199C149.832 12.1296 149.668 12.3255 149.468 12.5078C149.267 12.6901 149.026 12.8405 148.743 12.959C148.461 13.0775 148.132 13.1367 147.759 13.1367C147.28 13.1367 146.852 13.041 146.474 12.8496C146.095 12.6582 145.797 12.3962 145.578 12.0635C145.359 11.7308 145.25 11.3525 145.25 10.9287C145.25 10.5368 145.323 10.1904 145.469 9.88965C145.615 9.58887 145.831 9.33594 146.118 9.13086C146.405 8.92122 146.761 8.764 147.185 8.65918C147.613 8.5498 148.103 8.49512 148.654 8.49512H149.871ZM154.861 7.12109V13H153.057V5.60352H154.759L154.861 7.12109ZM154.595 9.03516H154.041C154.041 8.52018 154.103 8.04622 154.226 7.61328C154.353 7.18034 154.54 6.80436 154.786 6.48535C155.032 6.16178 155.335 5.91113 155.695 5.7334C156.06 5.55566 156.481 5.4668 156.96 5.4668C157.293 5.4668 157.598 5.51693 157.876 5.61719C158.154 5.71289 158.393 5.86556 158.594 6.0752C158.799 6.28027 158.956 6.54915 159.065 6.88184C159.175 7.20996 159.229 7.60417 159.229 8.06445V13H157.425V8.24902C157.425 7.90267 157.375 7.63151 157.274 7.43555C157.179 7.23958 157.04 7.10286 156.857 7.02539C156.675 6.94336 156.456 6.90234 156.201 6.90234C155.919 6.90234 155.675 6.95931 155.47 7.07324C155.269 7.18262 155.103 7.33529 154.971 7.53125C154.843 7.72721 154.747 7.9528 154.684 8.20801C154.624 8.46322 154.595 8.73893 154.595 9.03516ZM159.093 8.7002L158.348 8.83691C158.352 8.37207 158.416 7.93685 158.539 7.53125C158.662 7.12109 158.842 6.76335 159.079 6.45801C159.321 6.14811 159.619 5.90658 159.975 5.7334C160.335 5.55566 160.749 5.4668 161.219 5.4668C161.583 5.4668 161.911 5.51921 162.203 5.62402C162.499 5.72428 162.752 5.88607 162.962 6.10938C163.172 6.32812 163.331 6.61296 163.44 6.96387C163.554 7.31478 163.611 7.74316 163.611 8.24902V13H161.793V8.24219C161.793 7.88216 161.743 7.60645 161.643 7.41504C161.547 7.22363 161.408 7.09147 161.226 7.01855C161.043 6.94108 160.829 6.90234 160.583 6.90234C160.332 6.90234 160.114 6.9502 159.927 7.0459C159.744 7.13704 159.59 7.26465 159.462 7.42871C159.339 7.59277 159.245 7.78418 159.182 8.00293C159.122 8.21712 159.093 8.44954 159.093 8.7002ZM169.306 11.4277V8.0166C169.306 7.76595 169.262 7.54948 169.176 7.36719C169.089 7.1849 168.957 7.04362 168.779 6.94336C168.602 6.8431 168.376 6.79297 168.103 6.79297C167.861 6.79297 167.649 6.83398 167.467 6.91602C167.289 6.99805 167.152 7.11426 167.057 7.26465C166.961 7.41048 166.913 7.5791 166.913 7.77051H165.102C165.102 7.46517 165.174 7.17578 165.32 6.90234C165.466 6.62435 165.674 6.37826 165.942 6.16406C166.216 5.94531 166.542 5.77441 166.92 5.65137C167.303 5.52832 167.731 5.4668 168.205 5.4668C168.766 5.4668 169.265 5.5625 169.702 5.75391C170.144 5.94076 170.491 6.22331 170.741 6.60156C170.996 6.97982 171.124 7.45605 171.124 8.03027V11.2568C171.124 11.626 171.147 11.9427 171.192 12.207C171.243 12.4668 171.315 12.6924 171.411 12.8838V13H169.572C169.486 12.8132 169.42 12.5762 169.374 12.2891C169.328 11.9974 169.306 11.7103 169.306 11.4277ZM169.559 8.49512L169.572 9.56836H168.431C168.148 9.56836 167.9 9.59798 167.686 9.65723C167.471 9.71191 167.296 9.79395 167.159 9.90332C167.022 10.0081 166.92 10.1357 166.852 10.2861C166.783 10.432 166.749 10.5983 166.749 10.7852C166.749 10.9674 166.79 11.1315 166.872 11.2773C166.959 11.4232 167.082 11.5394 167.241 11.626C167.405 11.708 167.597 11.749 167.815 11.749C168.134 11.749 168.412 11.6852 168.649 11.5576C168.886 11.4255 169.071 11.266 169.203 11.0791C169.335 10.8923 169.406 10.7145 169.415 10.5459L169.935 11.3252C169.871 11.512 169.775 11.7103 169.647 11.9199C169.52 12.1296 169.356 12.3255 169.155 12.5078C168.955 12.6901 168.713 12.8405 168.431 12.959C168.148 13.0775 167.82 13.1367 167.446 13.1367C166.968 13.1367 166.539 13.041 166.161 12.8496C165.783 12.6582 165.484 12.3962 165.266 12.0635C165.047 11.7308 164.938 11.3525 164.938 10.9287C164.938 10.5368 165.01 10.1904 165.156 9.88965C165.302 9.58887 165.519 9.33594 165.806 9.13086C166.093 8.92122 166.448 8.764 166.872 8.65918C167.3 8.5498 167.79 8.49512 168.342 8.49512H169.559ZM174.556 7.11426V13H172.751V5.60352H174.46L174.556 7.11426ZM176.805 5.55566L176.777 7.2373C176.677 7.21908 176.563 7.2054 176.436 7.19629C176.312 7.18717 176.196 7.18262 176.087 7.18262C175.809 7.18262 175.565 7.22135 175.355 7.29883C175.146 7.37174 174.97 7.47884 174.829 7.62012C174.692 7.76139 174.588 7.93457 174.515 8.13965C174.442 8.34017 174.401 8.56803 174.392 8.82324L174.002 8.77539C174.002 8.30599 174.05 7.87077 174.146 7.46973C174.241 7.06868 174.38 6.71777 174.562 6.41699C174.745 6.11621 174.973 5.88379 175.246 5.71973C175.524 5.55111 175.843 5.4668 176.203 5.4668C176.303 5.4668 176.41 5.47591 176.524 5.49414C176.643 5.50781 176.736 5.52832 176.805 5.55566ZM4.77832 25.3701H2.21484V23.8936H4.77832C5.19759 23.8936 5.53711 23.8252 5.79688 23.6885C6.0612 23.5472 6.25488 23.3558 6.37793 23.1143C6.50098 22.8682 6.5625 22.5879 6.5625 22.2734C6.5625 21.9681 6.50098 21.6833 6.37793 21.4189C6.25488 21.1546 6.0612 20.9404 5.79688 20.7764C5.53711 20.6123 5.19759 20.5303 4.77832 20.5303H2.83008V29H0.950195V19.0469H4.77832C5.55306 19.0469 6.21387 19.1859 6.76074 19.4639C7.31217 19.7373 7.73145 20.1178 8.01855 20.6055C8.31022 21.0885 8.45605 21.64 8.45605 22.2598C8.45605 22.9023 8.31022 23.4561 8.01855 23.9209C7.73145 24.3857 7.31217 24.7435 6.76074 24.9941C6.21387 25.2448 5.55306 25.3701 4.77832 25.3701ZM12.0723 28.1797L14.0547 21.6035H15.9893L13.0225 30.1211C12.9541 30.3034 12.8652 30.5016 12.7559 30.7158C12.651 30.93 12.5098 31.1328 12.332 31.3242C12.1543 31.5202 11.931 31.6797 11.6621 31.8027C11.3978 31.9258 11.0765 31.9873 10.6982 31.9873C10.5342 31.9873 10.3883 31.9759 10.2607 31.9531C10.1331 31.9303 9.9987 31.9007 9.85742 31.8643V30.5107C9.90299 30.5153 9.9554 30.5176 10.0146 30.5176C10.0785 30.5221 10.1331 30.5244 10.1787 30.5244C10.443 30.5244 10.6618 30.4925 10.835 30.4287C11.0081 30.3695 11.1471 30.2715 11.252 30.1348C11.3613 30.0026 11.4525 29.8294 11.5254 29.6152L12.0723 28.1797ZM11.0947 21.6035L12.7695 27.0518L13.0635 28.959L11.8193 29.1846L9.14648 21.6035H11.0947ZM20.3643 21.6035V22.9023H16.126V21.6035H20.3643ZM17.2607 19.7852H19.0723V26.8672C19.0723 27.0859 19.1019 27.2546 19.1611 27.373C19.2204 27.4915 19.3092 27.5713 19.4277 27.6123C19.5462 27.6533 19.6875 27.6738 19.8516 27.6738C19.9701 27.6738 20.0794 27.667 20.1797 27.6533C20.2799 27.6396 20.3643 27.626 20.4326 27.6123L20.4395 28.9658C20.2891 29.016 20.1182 29.057 19.9268 29.0889C19.7399 29.1208 19.528 29.1367 19.291 29.1367C18.8854 29.1367 18.5299 29.0684 18.2246 28.9316C17.9193 28.7904 17.6823 28.5648 17.5137 28.2549C17.3451 27.9404 17.2607 27.5257 17.2607 27.0107V19.7852ZM23.3379 18.5V29H21.5264V18.5H23.3379ZM23.0508 25.0352H22.5176C22.5176 24.5202 22.5859 24.0462 22.7227 23.6133C22.8594 23.1803 23.0531 22.8044 23.3037 22.4854C23.5544 22.1618 23.8529 21.9111 24.1992 21.7334C24.5501 21.5557 24.9375 21.4668 25.3613 21.4668C25.7259 21.4668 26.0563 21.5192 26.3525 21.624C26.6533 21.7243 26.9108 21.8861 27.125 22.1094C27.3392 22.3327 27.5033 22.6243 27.6172 22.9844C27.7357 23.3398 27.7949 23.7728 27.7949 24.2832V29H25.9766V24.2695C25.9766 23.9277 25.9264 23.6589 25.8262 23.4629C25.7259 23.2624 25.5824 23.1188 25.3955 23.0322C25.2132 22.9456 24.9876 22.9023 24.7188 22.9023C24.4271 22.9023 24.1764 22.9593 23.9668 23.0732C23.7572 23.1826 23.584 23.3353 23.4473 23.5312C23.3151 23.7272 23.2148 23.9528 23.1465 24.208C23.0827 24.4632 23.0508 24.7389 23.0508 25.0352ZM29.0664 25.377V25.2334C29.0664 24.6911 29.1439 24.1921 29.2988 23.7363C29.4538 23.276 29.6794 22.8773 29.9756 22.54C30.2718 22.2028 30.6341 21.9408 31.0625 21.7539C31.4909 21.5625 31.9785 21.4668 32.5254 21.4668C33.0814 21.4668 33.5736 21.5625 34.002 21.7539C34.4349 21.9408 34.7995 22.2028 35.0957 22.54C35.3919 22.8773 35.6175 23.276 35.7725 23.7363C35.9274 24.1921 36.0049 24.6911 36.0049 25.2334V25.377C36.0049 25.9147 35.9274 26.4137 35.7725 26.874C35.6175 27.3298 35.3919 27.7285 35.0957 28.0703C34.7995 28.4076 34.4372 28.6696 34.0088 28.8564C33.5804 29.0433 33.0905 29.1367 32.5391 29.1367C31.9922 29.1367 31.5023 29.0433 31.0693 28.8564C30.6364 28.6696 30.2718 28.4076 29.9756 28.0703C29.6794 27.7285 29.4538 27.3298 29.2988 26.874C29.1439 26.4137 29.0664 25.9147 29.0664 25.377ZM30.8711 25.2334V25.377C30.8711 25.7005 30.903 26.0036 30.9668 26.2861C31.0306 26.5687 31.1286 26.8171 31.2607 27.0312C31.3929 27.2454 31.5638 27.4141 31.7734 27.5371C31.9876 27.6556 32.2428 27.7148 32.5391 27.7148C32.8307 27.7148 33.0814 27.6556 33.291 27.5371C33.5007 27.4141 33.6715 27.2454 33.8037 27.0312C33.9404 26.8171 34.0407 26.5687 34.1045 26.2861C34.1683 26.0036 34.2002 25.7005 34.2002 25.377V25.2334C34.2002 24.9144 34.1683 24.6159 34.1045 24.3379C34.0407 24.0553 33.9404 23.807 33.8037 23.5928C33.6715 23.374 33.4984 23.2031 33.2842 23.0801C33.0745 22.9525 32.8216 22.8887 32.5254 22.8887C32.2337 22.8887 31.9831 22.9525 31.7734 23.0801C31.5638 23.2031 31.3929 23.374 31.2607 23.5928C31.1286 23.807 31.0306 24.0553 30.9668 24.3379C30.903 24.6159 30.8711 24.9144 30.8711 25.2334ZM39.0879 23.1826V29H37.2832V21.6035H38.9785L39.0879 23.1826ZM38.8008 25.0352H38.2676C38.2721 24.4974 38.3451 24.0098 38.4863 23.5723C38.6276 23.1348 38.8258 22.7588 39.0811 22.4443C39.3408 22.1299 39.6484 21.8883 40.0039 21.7197C40.3594 21.5511 40.7559 21.4668 41.1934 21.4668C41.5488 21.4668 41.8701 21.5169 42.1572 21.6172C42.4443 21.7174 42.6904 21.877 42.8955 22.0957C43.1051 22.3145 43.2646 22.6016 43.374 22.957C43.488 23.3079 43.5449 23.7409 43.5449 24.2559V29H41.7266V24.2422C41.7266 23.9049 41.6764 23.6383 41.5762 23.4424C41.4805 23.2464 41.3392 23.1074 41.1523 23.0254C40.9701 22.9434 40.7445 22.9023 40.4756 22.9023C40.1976 22.9023 39.9538 22.9593 39.7441 23.0732C39.5391 23.1826 39.3659 23.3353 39.2246 23.5312C39.0879 23.7272 38.9831 23.9528 38.9102 24.208C38.8372 24.4632 38.8008 24.7389 38.8008 25.0352ZM53.0605 27.4277V18.5H54.8789V29H53.2383L53.0605 27.4277ZM48.3096 25.3906V25.2471C48.3096 24.682 48.3734 24.1693 48.501 23.709C48.6331 23.2441 48.8245 22.8454 49.0752 22.5127C49.3258 22.18 49.6289 21.9225 49.9844 21.7402C50.3444 21.5579 50.7523 21.4668 51.208 21.4668C51.6501 21.4668 52.0352 21.5557 52.3633 21.7334C52.696 21.9111 52.9785 22.1641 53.2109 22.4922C53.4479 22.8203 53.637 23.21 53.7783 23.6611C53.9196 24.1077 54.0221 24.5999 54.0859 25.1377V25.5273C54.0221 26.0514 53.9196 26.5322 53.7783 26.9697C53.637 27.4072 53.4479 27.79 53.2109 28.1182C52.9785 28.4417 52.696 28.6924 52.3633 28.8701C52.0306 29.0479 51.641 29.1367 51.1943 29.1367C50.7432 29.1367 50.3376 29.0433 49.9775 28.8564C49.6221 28.6696 49.319 28.4076 49.0684 28.0703C48.8223 27.7331 48.6331 27.3366 48.501 26.8809C48.3734 26.4251 48.3096 25.9284 48.3096 25.3906ZM50.1211 25.2471V25.3906C50.1211 25.7096 50.1484 26.0081 50.2031 26.2861C50.2578 26.5641 50.3467 26.8102 50.4697 27.0244C50.5928 27.234 50.75 27.3981 50.9414 27.5166C51.1374 27.6351 51.3743 27.6943 51.6523 27.6943C52.0078 27.6943 52.2995 27.6169 52.5273 27.4619C52.7598 27.3024 52.9398 27.0859 53.0674 26.8125C53.195 26.5345 53.277 26.2223 53.3135 25.876V24.8027C53.2952 24.5293 53.2474 24.2764 53.1699 24.0439C53.097 23.8115 52.9922 23.611 52.8555 23.4424C52.7233 23.2738 52.5592 23.1416 52.3633 23.0459C52.1673 22.9502 51.9349 22.9023 51.666 22.9023C51.388 22.9023 51.151 22.9639 50.9551 23.0869C50.7591 23.2054 50.5996 23.3717 50.4766 23.5859C50.3535 23.8001 50.2624 24.0485 50.2031 24.3311C50.1484 24.6136 50.1211 24.9189 50.1211 25.2471ZM56.1914 25.377V25.2334C56.1914 24.6911 56.2689 24.1921 56.4238 23.7363C56.5788 23.276 56.8044 22.8773 57.1006 22.54C57.3968 22.2028 57.7591 21.9408 58.1875 21.7539C58.6159 21.5625 59.1035 21.4668 59.6504 21.4668C60.2064 21.4668 60.6986 21.5625 61.127 21.7539C61.5599 21.9408 61.9245 22.2028 62.2207 22.54C62.5169 22.8773 62.7425 23.276 62.8975 23.7363C63.0524 24.1921 63.1299 24.6911 63.1299 25.2334V25.377C63.1299 25.9147 63.0524 26.4137 62.8975 26.874C62.7425 27.3298 62.5169 27.7285 62.2207 28.0703C61.9245 28.4076 61.5622 28.6696 61.1338 28.8564C60.7054 29.0433 60.2155 29.1367 59.6641 29.1367C59.1172 29.1367 58.6273 29.0433 58.1943 28.8564C57.7614 28.6696 57.3968 28.4076 57.1006 28.0703C56.8044 27.7285 56.5788 27.3298 56.4238 26.874C56.2689 26.4137 56.1914 25.9147 56.1914 25.377ZM57.9961 25.2334V25.377C57.9961 25.7005 58.028 26.0036 58.0918 26.2861C58.1556 26.5687 58.2536 26.8171 58.3857 27.0312C58.5179 27.2454 58.6888 27.4141 58.8984 27.5371C59.1126 27.6556 59.3678 27.7148 59.6641 27.7148C59.9557 27.7148 60.2064 27.6556 60.416 27.5371C60.6257 27.4141 60.7965 27.2454 60.9287 27.0312C61.0654 26.8171 61.1657 26.5687 61.2295 26.2861C61.2933 26.0036 61.3252 25.7005 61.3252 25.377V25.2334C61.3252 24.9144 61.2933 24.6159 61.2295 24.3379C61.1657 24.0553 61.0654 23.807 60.9287 23.5928C60.7965 23.374 60.6234 23.2031 60.4092 23.0801C60.1995 22.9525 59.9466 22.8887 59.6504 22.8887C59.3587 22.8887 59.1081 22.9525 58.8984 23.0801C58.6888 23.2031 58.5179 23.374 58.3857 23.5928C58.2536 23.807 58.1556 24.0553 58.0918 24.3379C58.028 24.6159 57.9961 24.9144 57.9961 25.2334ZM75.1475 27.5234V29H68.1611V27.5234H75.1475ZM75.0176 20.1475L68.9336 29H67.6416V27.8721L73.7529 19.0469H75.0176V20.1475ZM74.3477 19.0469V20.5303H67.6621V19.0469H74.3477ZM83.1387 27.5234V29H77.8477V27.5234H83.1387ZM78.4219 19.0469V29H76.542V19.0469H78.4219ZM82.4482 23.1553V24.5977H77.8477V23.1553H82.4482ZM83.1182 19.0469V20.5303H77.8477V19.0469H83.1182ZM84.4443 19.0469H88.0605C88.8171 19.0469 89.4665 19.1608 90.0088 19.3887C90.5511 19.6165 90.9681 19.9538 91.2598 20.4004C91.5514 20.847 91.6973 21.3962 91.6973 22.0479C91.6973 22.5628 91.6061 23.0094 91.4238 23.3877C91.2415 23.766 90.984 24.0827 90.6514 24.3379C90.3232 24.5931 89.9359 24.7936 89.4893 24.9395L88.9014 25.2402H85.709L85.6953 23.7568H88.0811C88.4684 23.7568 88.7897 23.6885 89.0449 23.5518C89.3001 23.415 89.4915 23.2259 89.6191 22.9844C89.7513 22.7428 89.8174 22.4671 89.8174 22.1572C89.8174 21.8245 89.7536 21.5374 89.626 21.2959C89.4984 21.0498 89.3047 20.8607 89.0449 20.7285C88.7852 20.5964 88.457 20.5303 88.0605 20.5303H86.3242V29H84.4443V19.0469ZM90.0635 29L87.7598 24.543L89.749 24.5361L92.0801 28.9043V29H90.0635ZM101.404 23.7705V24.2832C101.404 25.0352 101.304 25.7119 101.104 26.3135C100.903 26.9105 100.618 27.4186 100.249 27.8379C99.8799 28.2572 99.4401 28.5785 98.9297 28.8018C98.4193 29.0251 97.8519 29.1367 97.2275 29.1367C96.6123 29.1367 96.0472 29.0251 95.5322 28.8018C95.0218 28.5785 94.5798 28.2572 94.2061 27.8379C93.8324 27.4186 93.543 26.9105 93.3379 26.3135C93.1328 25.7119 93.0303 25.0352 93.0303 24.2832V23.7705C93.0303 23.014 93.1328 22.3372 93.3379 21.7402C93.543 21.1432 93.8301 20.6351 94.1992 20.2158C94.5684 19.792 95.0081 19.4684 95.5186 19.2451C96.0335 19.0218 96.5986 18.9102 97.2139 18.9102C97.8382 18.9102 98.4056 19.0218 98.916 19.2451C99.4264 19.4684 99.8662 19.792 100.235 20.2158C100.609 20.6351 100.896 21.1432 101.097 21.7402C101.302 22.3372 101.404 23.014 101.404 23.7705ZM99.5039 24.2832V23.7568C99.5039 23.2145 99.4538 22.7383 99.3535 22.3281C99.2533 21.9134 99.1051 21.5648 98.9092 21.2822C98.7132 20.9997 98.4717 20.7878 98.1846 20.6465C97.8975 20.5007 97.5739 20.4277 97.2139 20.4277C96.8493 20.4277 96.5257 20.5007 96.2432 20.6465C95.9652 20.7878 95.7282 20.9997 95.5322 21.2822C95.3363 21.5648 95.1859 21.9134 95.0811 22.3281C94.9808 22.7383 94.9307 23.2145 94.9307 23.7568V24.2832C94.9307 24.821 94.9808 25.2972 95.0811 25.7119C95.1859 26.1266 95.3363 26.4775 95.5322 26.7646C95.7327 27.0472 95.9743 27.2614 96.2568 27.4072C96.5394 27.5531 96.863 27.626 97.2275 27.626C97.5921 27.626 97.9157 27.5531 98.1982 27.4072C98.4808 27.2614 98.7178 27.0472 98.9092 26.7646C99.1051 26.4775 99.2533 26.1266 99.3535 25.7119C99.4538 25.2972 99.5039 24.821 99.5039 24.2832Z" fill="black"/>
<path d="M3.29883 51H1.51758L1.5293 50.0801H3.29883C3.9082 50.0801 4.41602 49.9531 4.82227 49.6992C5.22852 49.4414 5.5332 49.082 5.73633 48.6211C5.94336 48.1562 6.04688 47.6133 6.04688 46.9922V46.4707C6.04688 45.9824 5.98828 45.5488 5.87109 45.1699C5.75391 44.7871 5.58203 44.4648 5.35547 44.2031C5.12891 43.9375 4.85156 43.7363 4.52344 43.5996C4.19922 43.4629 3.82617 43.3945 3.4043 43.3945H1.48242V42.4688H3.4043C3.96289 42.4688 4.47266 42.5625 4.93359 42.75C5.39453 42.9336 5.79102 43.2012 6.12305 43.5527C6.45898 43.9004 6.7168 44.3223 6.89648 44.8184C7.07617 45.3105 7.16602 45.8652 7.16602 46.4824V46.9922C7.16602 47.6094 7.07617 48.166 6.89648 48.6621C6.7168 49.1543 6.45703 49.5742 6.11719 49.9219C5.78125 50.2695 5.375 50.5371 4.89844 50.7246C4.42578 50.9082 3.89258 51 3.29883 51ZM2.12109 42.4688V51H0.990234V42.4688H2.12109ZM9.87891 44.6602V51H8.78906V44.6602H9.87891ZM8.70703 42.9785C8.70703 42.8027 8.75977 42.6543 8.86523 42.5332C8.97461 42.4121 9.13477 42.3516 9.3457 42.3516C9.55273 42.3516 9.71094 42.4121 9.82031 42.5332C9.93359 42.6543 9.99023 42.8027 9.99023 42.9785C9.99023 43.1465 9.93359 43.291 9.82031 43.4121C9.71094 43.5293 9.55273 43.5879 9.3457 43.5879C9.13477 43.5879 8.97461 43.5293 8.86523 43.4121C8.75977 43.291 8.70703 43.1465 8.70703 42.9785ZM15.7266 44.6602H16.7109V50.8652C16.7109 51.4238 16.5977 51.9004 16.3711 52.2949C16.1445 52.6895 15.8281 52.9883 15.4219 53.1914C15.0195 53.3984 14.5547 53.502 14.0273 53.502C13.8086 53.502 13.5508 53.4668 13.2539 53.3965C12.9609 53.3301 12.6719 53.2148 12.3867 53.0508C12.1055 52.8906 11.8691 52.6738 11.6777 52.4004L12.2461 51.7559C12.5117 52.0762 12.7891 52.2988 13.0781 52.4238C13.3711 52.5488 13.6602 52.6113 13.9453 52.6113C14.2891 52.6113 14.5859 52.5469 14.8359 52.418C15.0859 52.2891 15.2793 52.0977 15.416 51.8438C15.5566 51.5938 15.627 51.2852 15.627 50.918V46.0547L15.7266 44.6602ZM11.3613 47.9004V47.7773C11.3613 47.293 11.418 46.8535 11.5312 46.459C11.6484 46.0605 11.8145 45.7188 12.0293 45.4336C12.248 45.1484 12.5117 44.9297 12.8203 44.7773C13.1289 44.6211 13.4766 44.543 13.8633 44.543C14.2617 44.543 14.6094 44.6133 14.9062 44.7539C15.207 44.8906 15.4609 45.0918 15.668 45.3574C15.8789 45.6191 16.0449 45.9355 16.166 46.3066C16.2871 46.6777 16.3711 47.0977 16.418 47.5664V48.1055C16.375 48.5703 16.291 48.9883 16.166 49.3594C16.0449 49.7305 15.8789 50.0469 15.668 50.3086C15.4609 50.5703 15.207 50.7715 14.9062 50.9121C14.6055 51.0488 14.2539 51.1172 13.8516 51.1172C13.4727 51.1172 13.1289 51.0371 12.8203 50.877C12.5156 50.7168 12.2539 50.4922 12.0352 50.2031C11.8164 49.9141 11.6484 49.5742 11.5312 49.1836C11.418 48.7891 11.3613 48.3613 11.3613 47.9004ZM12.4453 47.7773V47.9004C12.4453 48.2168 12.4766 48.5137 12.5391 48.791C12.6055 49.0684 12.7051 49.3125 12.8379 49.5234C12.9746 49.7344 13.1484 49.9004 13.3594 50.0215C13.5703 50.1387 13.8223 50.1973 14.1152 50.1973C14.4746 50.1973 14.7715 50.1211 15.0059 49.9688C15.2402 49.8164 15.4258 49.6152 15.5625 49.3652C15.7031 49.1152 15.8125 48.8438 15.8906 48.5508V47.1387C15.8477 46.9238 15.7812 46.7168 15.6914 46.5176C15.6055 46.3145 15.4922 46.1348 15.3516 45.9785C15.2148 45.8184 15.0449 45.6914 14.8418 45.5977C14.6387 45.5039 14.4004 45.457 14.127 45.457C13.8301 45.457 13.5742 45.5195 13.3594 45.6445C13.1484 45.7656 12.9746 45.9336 12.8379 46.1484C12.7051 46.3594 12.6055 46.6055 12.5391 46.8867C12.4766 47.1641 12.4453 47.4609 12.4453 47.7773ZM19.5352 44.6602V51H18.4453V44.6602H19.5352ZM18.3633 42.9785C18.3633 42.8027 18.416 42.6543 18.5215 42.5332C18.6309 42.4121 18.791 42.3516 19.002 42.3516C19.209 42.3516 19.3672 42.4121 19.4766 42.5332C19.5898 42.6543 19.6465 42.8027 19.6465 42.9785C19.6465 43.1465 19.5898 43.291 19.4766 43.4121C19.3672 43.5293 19.209 43.5879 19.002 43.5879C18.791 43.5879 18.6309 43.5293 18.5215 43.4121C18.416 43.291 18.3633 43.1465 18.3633 42.9785ZM23.9297 44.6602V45.4922H20.502V44.6602H23.9297ZM21.6621 43.1191H22.7461V49.4297C22.7461 49.6445 22.7793 49.8066 22.8457 49.916C22.9121 50.0254 22.998 50.0977 23.1035 50.1328C23.209 50.168 23.3223 50.1855 23.4434 50.1855C23.5332 50.1855 23.627 50.1777 23.7246 50.1621C23.8262 50.1426 23.9023 50.127 23.9531 50.1152L23.959 51C23.873 51.0273 23.7598 51.0527 23.6191 51.0762C23.4824 51.1035 23.3164 51.1172 23.1211 51.1172C22.8555 51.1172 22.6113 51.0645 22.3887 50.959C22.166 50.8535 21.9883 50.6777 21.8555 50.4316C21.7266 50.1816 21.6621 49.8457 21.6621 49.4238V43.1191ZM28.9395 49.916V46.6523C28.9395 46.4023 28.8887 46.1855 28.7871 46.002C28.6895 45.8145 28.541 45.6699 28.3418 45.5684C28.1426 45.4668 27.8965 45.416 27.6035 45.416C27.3301 45.416 27.0898 45.4629 26.8828 45.5566C26.6797 45.6504 26.5195 45.7734 26.4023 45.9258C26.2891 46.0781 26.2324 46.2422 26.2324 46.418H25.1484C25.1484 46.1914 25.207 45.9668 25.3242 45.7441C25.4414 45.5215 25.6094 45.3203 25.8281 45.1406C26.0508 44.957 26.3164 44.8125 26.625 44.707C26.9375 44.5977 27.2852 44.543 27.668 44.543C28.1289 44.543 28.5352 44.6211 28.8867 44.7773C29.2422 44.9336 29.5195 45.1699 29.7188 45.4863C29.9219 45.7988 30.0234 46.1914 30.0234 46.6641V49.6172C30.0234 49.8281 30.041 50.0527 30.0762 50.291C30.1152 50.5293 30.1719 50.7344 30.2461 50.9062V51H29.1152C29.0605 50.875 29.0176 50.709 28.9863 50.502C28.9551 50.291 28.9395 50.0957 28.9395 49.916ZM29.127 47.1562L29.1387 47.918H28.043C27.7344 47.918 27.459 47.9434 27.2168 47.9941C26.9746 48.041 26.7715 48.1133 26.6074 48.2109C26.4434 48.3086 26.3184 48.4316 26.2324 48.5801C26.1465 48.7246 26.1035 48.8945 26.1035 49.0898C26.1035 49.2891 26.1484 49.4707 26.2383 49.6348C26.3281 49.7988 26.4629 49.9297 26.6426 50.0273C26.8262 50.1211 27.0508 50.168 27.3164 50.168C27.6484 50.168 27.9414 50.0977 28.1953 49.957C28.4492 49.8164 28.6504 49.6445 28.7988 49.4414C28.9512 49.2383 29.0332 49.041 29.0449 48.8496L29.5078 49.3711C29.4805 49.5352 29.4062 49.7168 29.2852 49.916C29.1641 50.1152 29.002 50.3066 28.7988 50.4902C28.5996 50.6699 28.3613 50.8203 28.084 50.9414C27.8105 51.0586 27.502 51.1172 27.1582 51.1172C26.7285 51.1172 26.3516 51.0332 26.0273 50.8652C25.707 50.6973 25.457 50.4727 25.2773 50.1914C25.1016 49.9062 25.0137 49.5879 25.0137 49.2363C25.0137 48.8965 25.0801 48.5977 25.2129 48.3398C25.3457 48.0781 25.5371 47.8613 25.7871 47.6895C26.0371 47.5137 26.3379 47.3809 26.6895 47.291C27.041 47.2012 27.4336 47.1562 27.8672 47.1562H29.127ZM32.9062 42V51H31.8164V42H32.9062ZM36.0234 42.4688V51H34.8926V42.4688H36.0234ZM39 46.0137V51H37.916V44.6602H38.9414L39 46.0137ZM38.7422 47.5898L38.291 47.5723C38.2949 47.1387 38.3594 46.7383 38.4844 46.3711C38.6094 46 38.7852 45.6777 39.0117 45.4043C39.2383 45.1309 39.5078 44.9199 39.8203 44.7715C40.1367 44.6191 40.4863 44.543 40.8691 44.543C41.1816 44.543 41.4629 44.5859 41.7129 44.6719C41.9629 44.7539 42.1758 44.8867 42.3516 45.0703C42.5312 45.2539 42.668 45.4922 42.7617 45.7852C42.8555 46.0742 42.9023 46.4277 42.9023 46.8457V51H41.8125V46.834C41.8125 46.502 41.7637 46.2363 41.666 46.0371C41.5684 45.834 41.4258 45.6875 41.2383 45.5977C41.0508 45.5039 40.8203 45.457 40.5469 45.457C40.2773 45.457 40.0312 45.5137 39.8086 45.627C39.5898 45.7402 39.4004 45.8965 39.2402 46.0957C39.084 46.2949 38.9609 46.5234 38.8711 46.7812C38.7852 47.0352 38.7422 47.3047 38.7422 47.5898ZM45.6328 46.0137V51H44.5488V44.6602H45.5742L45.6328 46.0137ZM45.375 47.5898L44.9238 47.5723C44.9277 47.1387 44.9922 46.7383 45.1172 46.3711C45.2422 46 45.418 45.6777 45.6445 45.4043C45.8711 45.1309 46.1406 44.9199 46.4531 44.7715C46.7695 44.6191 47.1191 44.543 47.502 44.543C47.8145 44.543 48.0957 44.5859 48.3457 44.6719C48.5957 44.7539 48.8086 44.8867 48.9844 45.0703C49.1641 45.2539 49.3008 45.4922 49.3945 45.7852C49.4883 46.0742 49.5352 46.4277 49.5352 46.8457V51H48.4453V46.834C48.4453 46.502 48.3965 46.2363 48.2988 46.0371C48.2012 45.834 48.0586 45.6875 47.8711 45.5977C47.6836 45.5039 47.4531 45.457 47.1797 45.457C46.9102 45.457 46.6641 45.5137 46.4414 45.627C46.2227 45.7402 46.0332 45.8965 45.873 46.0957C45.7168 46.2949 45.5938 46.5234 45.5039 46.7812C45.418 47.0352 45.375 47.3047 45.375 47.5898ZM50.8945 47.9004V47.7656C50.8945 47.3086 50.9609 46.8848 51.0938 46.4941C51.2266 46.0996 51.418 45.7578 51.668 45.4688C51.918 45.1758 52.2207 44.9492 52.5762 44.7891C52.9316 44.625 53.3301 44.543 53.7715 44.543C54.2168 44.543 54.6172 44.625 54.9727 44.7891C55.332 44.9492 55.6367 45.1758 55.8867 45.4688C56.1406 45.7578 56.334 46.0996 56.4668 46.4941C56.5996 46.8848 56.666 47.3086 56.666 47.7656V47.9004C56.666 48.3574 56.5996 48.7812 56.4668 49.1719C56.334 49.5625 56.1406 49.9043 55.8867 50.1973C55.6367 50.4863 55.334 50.7129 54.9785 50.877C54.627 51.0371 54.2285 51.1172 53.7832 51.1172C53.3379 51.1172 52.9375 51.0371 52.582 50.877C52.2266 50.7129 51.9219 50.4863 51.668 50.1973C51.418 49.9043 51.2266 49.5625 51.0938 49.1719C50.9609 48.7812 50.8945 48.3574 50.8945 47.9004ZM51.9785 47.7656V47.9004C51.9785 48.2168 52.0156 48.5156 52.0898 48.7969C52.1641 49.0742 52.2754 49.3203 52.4238 49.5352C52.5762 49.75 52.7656 49.9199 52.9922 50.0449C53.2188 50.166 53.4824 50.2266 53.7832 50.2266C54.0801 50.2266 54.3398 50.166 54.5625 50.0449C54.7891 49.9199 54.9766 49.75 55.125 49.5352C55.2734 49.3203 55.3848 49.0742 55.459 48.7969C55.5371 48.5156 55.5762 48.2168 55.5762 47.9004V47.7656C55.5762 47.4531 55.5371 47.1582 55.459 46.8809C55.3848 46.5996 55.2715 46.3516 55.1191 46.1367C54.9707 45.918 54.7832 45.7461 54.5566 45.6211C54.334 45.4961 54.0723 45.4336 53.7715 45.4336C53.4746 45.4336 53.2129 45.4961 52.9863 45.6211C52.7637 45.7461 52.5762 45.918 52.4238 46.1367C52.2754 46.3516 52.1641 46.5996 52.0898 46.8809C52.0156 47.1582 51.9785 47.4531 51.9785 47.7656ZM59.8594 50.0215L61.5938 44.6602H62.7012L60.4219 51H59.6953L59.8594 50.0215ZM58.4121 44.6602L60.1992 50.0508L60.3223 51H59.5957L57.2988 44.6602H58.4121ZM67.3887 49.916V46.6523C67.3887 46.4023 67.3379 46.1855 67.2363 46.002C67.1387 45.8145 66.9902 45.6699 66.791 45.5684C66.5918 45.4668 66.3457 45.416 66.0527 45.416C65.7793 45.416 65.5391 45.4629 65.332 45.5566C65.1289 45.6504 64.9688 45.7734 64.8516 45.9258C64.7383 46.0781 64.6816 46.2422 64.6816 46.418H63.5977C63.5977 46.1914 63.6562 45.9668 63.7734 45.7441C63.8906 45.5215 64.0586 45.3203 64.2773 45.1406C64.5 44.957 64.7656 44.8125 65.0742 44.707C65.3867 44.5977 65.7344 44.543 66.1172 44.543C66.5781 44.543 66.9844 44.6211 67.3359 44.7773C67.6914 44.9336 67.9688 45.1699 68.168 45.4863C68.3711 45.7988 68.4727 46.1914 68.4727 46.6641V49.6172C68.4727 49.8281 68.4902 50.0527 68.5254 50.291C68.5645 50.5293 68.6211 50.7344 68.6953 50.9062V51H67.5645C67.5098 50.875 67.4668 50.709 67.4355 50.502C67.4043 50.291 67.3887 50.0957 67.3887 49.916ZM67.5762 47.1562L67.5879 47.918H66.4922C66.1836 47.918 65.9082 47.9434 65.666 47.9941C65.4238 48.041 65.2207 48.1133 65.0566 48.2109C64.8926 48.3086 64.7676 48.4316 64.6816 48.5801C64.5957 48.7246 64.5527 48.8945 64.5527 49.0898C64.5527 49.2891 64.5977 49.4707 64.6875 49.6348C64.7773 49.7988 64.9121 49.9297 65.0918 50.0273C65.2754 50.1211 65.5 50.168 65.7656 50.168C66.0977 50.168 66.3906 50.0977 66.6445 49.957C66.8984 49.8164 67.0996 49.6445 67.248 49.4414C67.4004 49.2383 67.4824 49.041 67.4941 48.8496L67.957 49.3711C67.9297 49.5352 67.8555 49.7168 67.7344 49.916C67.6133 50.1152 67.4512 50.3066 67.248 50.4902C67.0488 50.6699 66.8105 50.8203 66.5332 50.9414C66.2598 51.0586 65.9512 51.1172 65.6074 51.1172C65.1777 51.1172 64.8008 51.0332 64.4766 50.8652C64.1562 50.6973 63.9062 50.4727 63.7266 50.1914C63.5508 49.9062 63.4629 49.5879 63.4629 49.2363C63.4629 48.8965 63.5293 48.5977 63.6621 48.3398C63.7949 48.0781 63.9863 47.8613 64.2363 47.6895C64.4863 47.5137 64.7871 47.3809 65.1387 47.291C65.4902 47.2012 65.8828 47.1562 66.3164 47.1562H67.5762ZM72.832 44.6602V45.4922H69.4043V44.6602H72.832ZM70.5645 43.1191H71.6484V49.4297C71.6484 49.6445 71.6816 49.8066 71.748 49.916C71.8145 50.0254 71.9004 50.0977 72.0059 50.1328C72.1113 50.168 72.2246 50.1855 72.3457 50.1855C72.4355 50.1855 72.5293 50.1777 72.627 50.1621C72.7285 50.1426 72.8047 50.127 72.8555 50.1152L72.8613 51C72.7754 51.0273 72.6621 51.0527 72.5215 51.0762C72.3848 51.1035 72.2188 51.1172 72.0234 51.1172C71.7578 51.1172 71.5137 51.0645 71.291 50.959C71.0684 50.8535 70.8906 50.6777 70.7578 50.4316C70.6289 50.1816 70.5645 49.8457 70.5645 49.4238V43.1191ZM75.2812 44.6602V51H74.1914V44.6602H75.2812ZM74.1094 42.9785C74.1094 42.8027 74.1621 42.6543 74.2676 42.5332C74.377 42.4121 74.5371 42.3516 74.748 42.3516C74.9551 42.3516 75.1133 42.4121 75.2227 42.5332C75.3359 42.6543 75.3926 42.8027 75.3926 42.9785C75.3926 43.1465 75.3359 43.291 75.2227 43.4121C75.1133 43.5293 74.9551 43.5879 74.748 43.5879C74.5371 43.5879 74.377 43.5293 74.2676 43.4121C74.1621 43.291 74.1094 43.1465 74.1094 42.9785ZM76.7344 47.9004V47.7656C76.7344 47.3086 76.8008 46.8848 76.9336 46.4941C77.0664 46.0996 77.2578 45.7578 77.5078 45.4688C77.7578 45.1758 78.0605 44.9492 78.416 44.7891C78.7715 44.625 79.1699 44.543 79.6113 44.543C80.0566 44.543 80.457 44.625 80.8125 44.7891C81.1719 44.9492 81.4766 45.1758 81.7266 45.4688C81.9805 45.7578 82.1738 46.0996 82.3066 46.4941C82.4395 46.8848 82.5059 47.3086 82.5059 47.7656V47.9004C82.5059 48.3574 82.4395 48.7812 82.3066 49.1719C82.1738 49.5625 81.9805 49.9043 81.7266 50.1973C81.4766 50.4863 81.1738 50.7129 80.8184 50.877C80.4668 51.0371 80.0684 51.1172 79.623 51.1172C79.1777 51.1172 78.7773 51.0371 78.4219 50.877C78.0664 50.7129 77.7617 50.4863 77.5078 50.1973C77.2578 49.9043 77.0664 49.5625 76.9336 49.1719C76.8008 48.7812 76.7344 48.3574 76.7344 47.9004ZM77.8184 47.7656V47.9004C77.8184 48.2168 77.8555 48.5156 77.9297 48.7969C78.0039 49.0742 78.1152 49.3203 78.2637 49.5352C78.416 49.75 78.6055 49.9199 78.832 50.0449C79.0586 50.166 79.3223 50.2266 79.623 50.2266C79.9199 50.2266 80.1797 50.166 80.4023 50.0449C80.6289 49.9199 80.8164 49.75 80.9648 49.5352C81.1133 49.3203 81.2246 49.0742 81.2988 48.7969C81.377 48.5156 81.416 48.2168 81.416 47.9004V47.7656C81.416 47.4531 81.377 47.1582 81.2988 46.8809C81.2246 46.5996 81.1113 46.3516 80.959 46.1367C80.8105 45.918 80.623 45.7461 80.3965 45.6211C80.1738 45.4961 79.9121 45.4336 79.6113 45.4336C79.3145 45.4336 79.0527 45.4961 78.8262 45.6211C78.6035 45.7461 78.416 45.918 78.2637 46.1367C78.1152 46.3516 78.0039 46.5996 77.9297 46.8809C77.8555 47.1582 77.8184 47.4531 77.8184 47.7656ZM84.9492 46.0137V51H83.8652V44.6602H84.8906L84.9492 46.0137ZM84.6914 47.5898L84.2402 47.5723C84.2441 47.1387 84.3086 46.7383 84.4336 46.3711C84.5586 46 84.7344 45.6777 84.9609 45.4043C85.1875 45.1309 85.457 44.9199 85.7695 44.7715C86.0859 44.6191 86.4355 44.543 86.8184 44.543C87.1309 44.543 87.4121 44.5859 87.6621 44.6719C87.9121 44.7539 88.125 44.8867 88.3008 45.0703C88.4805 45.2539 88.6172 45.4922 88.7109 45.7852C88.8047 46.0742 88.8516 46.4277 88.8516 46.8457V51H87.7617V46.834C87.7617 46.502 87.7129 46.2363 87.6152 46.0371C87.5176 45.834 87.375 45.6875 87.1875 45.5977C87 45.5039 86.7695 45.457 86.4961 45.457C86.2266 45.457 85.9805 45.5137 85.7578 45.627C85.5391 45.7402 85.3496 45.8965 85.1895 46.0957C85.0332 46.2949 84.9102 46.5234 84.8203 46.7812C84.7344 47.0352 84.6914 47.3047 84.6914 47.5898ZM97.2305 46.4648V47.0039C97.2305 47.6445 97.1504 48.2188 96.9902 48.7266C96.8301 49.2344 96.5996 49.666 96.2988 50.0215C95.998 50.377 95.6367 50.6484 95.2148 50.8359C94.7969 51.0234 94.3281 51.1172 93.8086 51.1172C93.3047 51.1172 92.8418 51.0234 92.4199 50.8359C92.002 50.6484 91.6387 50.377 91.3301 50.0215C91.0254 49.666 90.7891 49.2344 90.6211 48.7266C90.4531 48.2188 90.3691 47.6445 90.3691 47.0039V46.4648C90.3691 45.8242 90.4512 45.252 90.6152 44.748C90.7832 44.2402 91.0195 43.8086 91.3242 43.4531C91.6289 43.0938 91.9902 42.8203 92.4082 42.6328C92.8301 42.4453 93.293 42.3516 93.7969 42.3516C94.3164 42.3516 94.7852 42.4453 95.2031 42.6328C95.625 42.8203 95.9863 43.0938 96.2871 43.4531C96.5918 43.8086 96.8242 44.2402 96.9844 44.748C97.1484 45.252 97.2305 45.8242 97.2305 46.4648ZM96.1113 47.0039V46.4531C96.1113 45.9453 96.0586 45.4961 95.9531 45.1055C95.8516 44.7148 95.7012 44.3867 95.502 44.1211C95.3027 43.8555 95.0586 43.6543 94.7695 43.5176C94.4844 43.3809 94.1602 43.3125 93.7969 43.3125C93.4453 43.3125 93.127 43.3809 92.8418 43.5176C92.5605 43.6543 92.3184 43.8555 92.1152 44.1211C91.916 44.3867 91.7617 44.7148 91.6523 45.1055C91.543 45.4961 91.4883 45.9453 91.4883 46.4531V47.0039C91.4883 47.5156 91.543 47.9688 91.6523 48.3633C91.7617 48.7539 91.918 49.084 92.1211 49.3535C92.3281 49.6191 92.5723 49.8203 92.8535 49.957C93.1387 50.0938 93.457 50.1621 93.8086 50.1621C94.1758 50.1621 94.502 50.0938 94.7871 49.957C95.0723 49.8203 95.3125 49.6191 95.5078 49.3535C95.707 49.084 95.8574 48.7539 95.959 48.3633C96.0605 47.9688 96.1113 47.5156 96.1113 47.0039ZM99.8438 46.0137V51H98.7598V44.6602H99.7852L99.8438 46.0137ZM99.5859 47.5898L99.1348 47.5723C99.1387 47.1387 99.2031 46.7383 99.3281 46.3711C99.4531 46 99.6289 45.6777 99.8555 45.4043C100.082 45.1309 100.352 44.9199 100.664 44.7715C100.98 44.6191 101.33 44.543 101.713 44.543C102.025 44.543 102.307 44.5859 102.557 44.6719C102.807 44.7539 103.02 44.8867 103.195 45.0703C103.375 45.2539 103.512 45.4922 103.605 45.7852C103.699 46.0742 103.746 46.4277 103.746 46.8457V51H102.656V46.834C102.656 46.502 102.607 46.2363 102.51 46.0371C102.412 45.834 102.27 45.6875 102.082 45.5977C101.895 45.5039 101.664 45.457 101.391 45.457C101.121 45.457 100.875 45.5137 100.652 45.627C100.434 45.7402 100.244 45.8965 100.084 46.0957C99.9277 46.2949 99.8047 46.5234 99.7148 46.7812C99.6289 47.0352 99.5859 47.3047 99.5859 47.5898ZM108.023 51.1172C107.582 51.1172 107.182 51.043 106.822 50.8945C106.467 50.7422 106.16 50.5293 105.902 50.2559C105.648 49.9824 105.453 49.6582 105.316 49.2832C105.18 48.9082 105.111 48.498 105.111 48.0527V47.8066C105.111 47.291 105.188 46.832 105.34 46.4297C105.492 46.0234 105.699 45.6797 105.961 45.3984C106.223 45.1172 106.52 44.9043 106.852 44.7598C107.184 44.6152 107.527 44.543 107.883 44.543C108.336 44.543 108.727 44.6211 109.055 44.7773C109.387 44.9336 109.658 45.1523 109.869 45.4336C110.08 45.7109 110.236 46.0391 110.338 46.418C110.439 46.793 110.49 47.2031 110.49 47.6484V48.1348H105.756V47.25H109.406V47.168C109.391 46.8867 109.332 46.6133 109.23 46.3477C109.133 46.082 108.977 45.8633 108.762 45.6914C108.547 45.5195 108.254 45.4336 107.883 45.4336C107.637 45.4336 107.41 45.4863 107.203 45.5918C106.996 45.6934 106.818 45.8457 106.67 46.0488C106.521 46.252 106.406 46.5 106.324 46.793C106.242 47.0859 106.201 47.4238 106.201 47.8066V48.0527C106.201 48.3535 106.242 48.6367 106.324 48.9023C106.41 49.1641 106.533 49.3945 106.693 49.5938C106.857 49.793 107.055 49.9492 107.285 50.0625C107.52 50.1758 107.785 50.2324 108.082 50.2324C108.465 50.2324 108.789 50.1543 109.055 49.998C109.32 49.8418 109.553 49.6328 109.752 49.3711L110.408 49.8926C110.271 50.0996 110.098 50.2969 109.887 50.4844C109.676 50.6719 109.416 50.8242 109.107 50.9414C108.803 51.0586 108.441 51.1172 108.023 51.1172Z" fill="#515151"/>
<path d="M6.22266 64.4688V65.0781L2.68945 73H1.54688L5.07422 65.3594H0.457031V64.4688H6.22266ZM11.0215 64.4219V73H9.9375V65.7754L7.75195 66.5723V65.5938L10.8516 64.4219H11.0215ZM17.7715 64.4219V73H16.6875V65.7754L14.502 66.5723V65.5938L17.6016 64.4219H17.7715ZM25.9805 72.0215L27.7148 66.6602H28.8223L26.543 73H25.8164L25.9805 72.0215ZM24.5332 66.6602L26.3203 72.0508L26.4434 73H25.7168L23.4199 66.6602H24.5332ZM31.043 66.6602V73H29.9531V66.6602H31.043ZM29.8711 64.9785C29.8711 64.8027 29.9238 64.6543 30.0293 64.5332C30.1387 64.4121 30.2988 64.3516 30.5098 64.3516C30.7168 64.3516 30.875 64.4121 30.9844 64.5332C31.0977 64.6543 31.1543 64.8027 31.1543 64.9785C31.1543 65.1465 31.0977 65.291 30.9844 65.4121C30.875 65.5293 30.7168 65.5879 30.5098 65.5879C30.2988 65.5879 30.1387 65.5293 30.0293 65.4121C29.9238 65.291 29.8711 65.1465 29.8711 64.9785ZM36.4746 71.3184C36.4746 71.1621 36.4395 71.0176 36.3691 70.8848C36.3027 70.748 36.1641 70.625 35.9531 70.5156C35.7461 70.4023 35.4336 70.3047 35.0156 70.2227C34.6641 70.1484 34.3457 70.0605 34.0605 69.959C33.7793 69.8574 33.5391 69.7344 33.3398 69.5898C33.1445 69.4453 32.9941 69.2754 32.8887 69.0801C32.7832 68.8848 32.7305 68.6562 32.7305 68.3945C32.7305 68.1445 32.7852 67.9082 32.8945 67.6855C33.0078 67.4629 33.166 67.2656 33.3691 67.0938C33.5762 66.9219 33.8242 66.7871 34.1133 66.6895C34.4023 66.5918 34.7246 66.543 35.0801 66.543C35.5879 66.543 36.0215 66.6328 36.3809 66.8125C36.7402 66.9922 37.0156 67.2324 37.207 67.5332C37.3984 67.8301 37.4941 68.1602 37.4941 68.5234H36.4102C36.4102 68.3477 36.3574 68.1777 36.252 68.0137C36.1504 67.8457 36 67.707 35.8008 67.5977C35.6055 67.4883 35.3652 67.4336 35.0801 67.4336C34.7793 67.4336 34.5352 67.4805 34.3477 67.5742C34.1641 67.6641 34.0293 67.7793 33.9434 67.9199C33.8613 68.0605 33.8203 68.209 33.8203 68.3652C33.8203 68.4824 33.8398 68.5879 33.8789 68.6816C33.9219 68.7715 33.9961 68.8555 34.1016 68.9336C34.207 69.0078 34.3555 69.0781 34.5469 69.1445C34.7383 69.2109 34.9824 69.2773 35.2793 69.3438C35.7988 69.4609 36.2266 69.6016 36.5625 69.7656C36.8984 69.9297 37.1484 70.1309 37.3125 70.3691C37.4766 70.6074 37.5586 70.8965 37.5586 71.2363C37.5586 71.5137 37.5 71.7676 37.3828 71.998C37.2695 72.2285 37.1035 72.4277 36.8848 72.5957C36.6699 72.7598 36.4121 72.8887 36.1113 72.9824C35.8145 73.0723 35.4805 73.1172 35.1094 73.1172C34.5508 73.1172 34.0781 73.0176 33.6914 72.8184C33.3047 72.6191 33.0117 72.3613 32.8125 72.0449C32.6133 71.7285 32.5137 71.3945 32.5137 71.043H33.6035C33.6191 71.3398 33.7051 71.5762 33.8613 71.752C34.0176 71.9238 34.209 72.0469 34.4355 72.1211C34.6621 72.1914 34.8867 72.2266 35.1094 72.2266C35.4062 72.2266 35.6543 72.1875 35.8535 72.1094C36.0566 72.0312 36.2109 71.9238 36.3164 71.7871C36.4219 71.6504 36.4746 71.4941 36.4746 71.3184ZM42.8613 71.5352V66.6602H43.9512V73H42.9141L42.8613 71.5352ZM43.0664 70.1992L43.5176 70.1875C43.5176 70.6094 43.4727 71 43.3828 71.3594C43.2969 71.7148 43.1562 72.0234 42.9609 72.2852C42.7656 72.5469 42.5098 72.752 42.1934 72.9004C41.877 73.0449 41.4922 73.1172 41.0391 73.1172C40.7305 73.1172 40.4473 73.0723 40.1895 72.9824C39.9355 72.8926 39.7168 72.7539 39.5332 72.5664C39.3496 72.3789 39.207 72.1348 39.1055 71.834C39.0078 71.5332 38.959 71.1719 38.959 70.75V66.6602H40.043V70.7617C40.043 71.0469 40.0742 71.2832 40.1367 71.4707C40.2031 71.6543 40.291 71.8008 40.4004 71.9102C40.5137 72.0156 40.6387 72.0898 40.7754 72.1328C40.916 72.1758 41.0605 72.1973 41.209 72.1973C41.6699 72.1973 42.0352 72.1094 42.3047 71.9336C42.5742 71.7539 42.7676 71.5137 42.8848 71.2129C43.0059 70.9082 43.0664 70.5703 43.0664 70.1992ZM49.3418 71.916V68.6523C49.3418 68.4023 49.291 68.1855 49.1895 68.002C49.0918 67.8145 48.9434 67.6699 48.7441 67.5684C48.5449 67.4668 48.2988 67.416 48.0059 67.416C47.7324 67.416 47.4922 67.4629 47.2852 67.5566C47.082 67.6504 46.9219 67.7734 46.8047 67.9258C46.6914 68.0781 46.6348 68.2422 46.6348 68.418H45.5508C45.5508 68.1914 45.6094 67.9668 45.7266 67.7441C45.8438 67.5215 46.0117 67.3203 46.2305 67.1406C46.4531 66.957 46.7188 66.8125 47.0273 66.707C47.3398 66.5977 47.6875 66.543 48.0703 66.543C48.5312 66.543 48.9375 66.6211 49.2891 66.7773C49.6445 66.9336 49.9219 67.1699 50.1211 67.4863C50.3242 67.7988 50.4258 68.1914 50.4258 68.6641V71.6172C50.4258 71.8281 50.4434 72.0527 50.4785 72.291C50.5176 72.5293 50.5742 72.7344 50.6484 72.9062V73H49.5176C49.4629 72.875 49.4199 72.709 49.3887 72.502C49.3574 72.291 49.3418 72.0957 49.3418 71.916ZM49.5293 69.1562L49.541 69.918H48.4453C48.1367 69.918 47.8613 69.9434 47.6191 69.9941C47.377 70.041 47.1738 70.1133 47.0098 70.2109C46.8457 70.3086 46.7207 70.4316 46.6348 70.5801C46.5488 70.7246 46.5059 70.8945 46.5059 71.0898C46.5059 71.2891 46.5508 71.4707 46.6406 71.6348C46.7305 71.7988 46.8652 71.9297 47.0449 72.0273C47.2285 72.1211 47.4531 72.168 47.7188 72.168C48.0508 72.168 48.3438 72.0977 48.5977 71.957C48.8516 71.8164 49.0527 71.6445 49.2012 71.4414C49.3535 71.2383 49.4355 71.041 49.4473 70.8496L49.9102 71.3711C49.8828 71.5352 49.8086 71.7168 49.6875 71.916C49.5664 72.1152 49.4043 72.3066 49.2012 72.4902C49.002 72.6699 48.7637 72.8203 48.4863 72.9414C48.2129 73.0586 47.9043 73.1172 47.5605 73.1172C47.1309 73.1172 46.7539 73.0332 46.4297 72.8652C46.1094 72.6973 45.8594 72.4727 45.6797 72.1914C45.5039 71.9062 45.416 71.5879 45.416 71.2363C45.416 70.8965 45.4824 70.5977 45.6152 70.3398C45.748 70.0781 45.9395 69.8613 46.1895 69.6895C46.4395 69.5137 46.7402 69.3809 47.0918 69.291C47.4434 69.2012 47.8359 69.1562 48.2695 69.1562H49.5293ZM53.3086 64V73H52.2188V64H53.3086ZM56.2266 66.6602V73H55.1367V66.6602H56.2266ZM55.0547 64.9785C55.0547 64.8027 55.1074 64.6543 55.2129 64.5332C55.3223 64.4121 55.4824 64.3516 55.6934 64.3516C55.9004 64.3516 56.0586 64.4121 56.168 64.5332C56.2812 64.6543 56.3379 64.8027 56.3379 64.9785C56.3379 65.1465 56.2812 65.291 56.168 65.4121C56.0586 65.5293 55.9004 65.5879 55.6934 65.5879C55.4824 65.5879 55.3223 65.5293 55.2129 65.4121C55.1074 65.291 55.0547 65.1465 55.0547 64.9785ZM62.6895 72.1094V73H58.0781V72.1094H62.6895ZM62.5195 67.4277L58.3242 73H57.6621V72.2031L61.8281 66.6602H62.5195V67.4277ZM62.0391 66.6602V67.5566H57.709V66.6602H62.0391ZM67.6582 71.916V68.6523C67.6582 68.4023 67.6074 68.1855 67.5059 68.002C67.4082 67.8145 67.2598 67.6699 67.0605 67.5684C66.8613 67.4668 66.6152 67.416 66.3223 67.416C66.0488 67.416 65.8086 67.4629 65.6016 67.5566C65.3984 67.6504 65.2383 67.7734 65.1211 67.9258C65.0078 68.0781 64.9512 68.2422 64.9512 68.418H63.8672C63.8672 68.1914 63.9258 67.9668 64.043 67.7441C64.1602 67.5215 64.3281 67.3203 64.5469 67.1406C64.7695 66.957 65.0352 66.8125 65.3438 66.707C65.6562 66.5977 66.0039 66.543 66.3867 66.543C66.8477 66.543 67.2539 66.6211 67.6055 66.7773C67.9609 66.9336 68.2383 67.1699 68.4375 67.4863C68.6406 67.7988 68.7422 68.1914 68.7422 68.6641V71.6172C68.7422 71.8281 68.7598 72.0527 68.7949 72.291C68.834 72.5293 68.8906 72.7344 68.9648 72.9062V73H67.834C67.7793 72.875 67.7363 72.709 67.7051 72.502C67.6738 72.291 67.6582 72.0957 67.6582 71.916ZM67.8457 69.1562L67.8574 69.918H66.7617C66.4531 69.918 66.1777 69.9434 65.9355 69.9941C65.6934 70.041 65.4902 70.1133 65.3262 70.2109C65.1621 70.3086 65.0371 70.4316 64.9512 70.5801C64.8652 70.7246 64.8223 70.8945 64.8223 71.0898C64.8223 71.2891 64.8672 71.4707 64.957 71.6348C65.0469 71.7988 65.1816 71.9297 65.3613 72.0273C65.5449 72.1211 65.7695 72.168 66.0352 72.168C66.3672 72.168 66.6602 72.0977 66.9141 71.957C67.168 71.8164 67.3691 71.6445 67.5176 71.4414C67.6699 71.2383 67.752 71.041 67.7637 70.8496L68.2266 71.3711C68.1992 71.5352 68.125 71.7168 68.0039 71.916C67.8828 72.1152 67.7207 72.3066 67.5176 72.4902C67.3184 72.6699 67.0801 72.8203 66.8027 72.9414C66.5293 73.0586 66.2207 73.1172 65.877 73.1172C65.4473 73.1172 65.0703 73.0332 64.7461 72.8652C64.4258 72.6973 64.1758 72.4727 63.9961 72.1914C63.8203 71.9062 63.7324 71.5879 63.7324 71.2363C63.7324 70.8965 63.7988 70.5977 63.9316 70.3398C64.0645 70.0781 64.2559 69.8613 64.5059 69.6895C64.7559 69.5137 65.0566 69.3809 65.4082 69.291C65.7598 69.2012 66.1523 69.1562 66.5859 69.1562H67.8457ZM72.9844 72.2266C73.2422 72.2266 73.4805 72.1738 73.6992 72.0684C73.918 71.9629 74.0977 71.8184 74.2383 71.6348C74.3789 71.4473 74.459 71.2344 74.4785 70.9961H75.5098C75.4902 71.3711 75.3633 71.7207 75.1289 72.0449C74.8984 72.3652 74.5957 72.625 74.2207 72.8242C73.8457 73.0195 73.4336 73.1172 72.9844 73.1172C72.5078 73.1172 72.0918 73.0332 71.7363 72.8652C71.3848 72.6973 71.0918 72.4668 70.8574 72.1738C70.627 71.8809 70.4531 71.5449 70.3359 71.166C70.2227 70.7832 70.166 70.3789 70.166 69.9531V69.707C70.166 69.2812 70.2227 68.8789 70.3359 68.5C70.4531 68.1172 70.627 67.7793 70.8574 67.4863C71.0918 67.1934 71.3848 66.9629 71.7363 66.7949C72.0918 66.627 72.5078 66.543 72.9844 66.543C73.4805 66.543 73.9141 66.6445 74.2852 66.8477C74.6562 67.0469 74.9473 67.3203 75.1582 67.668C75.373 68.0117 75.4902 68.4023 75.5098 68.8398H74.4785C74.459 68.5781 74.3848 68.3418 74.2559 68.1309C74.1309 67.9199 73.959 67.752 73.7402 67.627C73.5254 67.498 73.2734 67.4336 72.9844 67.4336C72.6523 67.4336 72.373 67.5 72.1465 67.6328C71.9238 67.7617 71.7461 67.9375 71.6133 68.1602C71.4844 68.3789 71.3906 68.623 71.332 68.8926C71.2773 69.1582 71.25 69.4297 71.25 69.707V69.9531C71.25 70.2305 71.2773 70.5039 71.332 70.7734C71.3867 71.043 71.4785 71.2871 71.6074 71.5059C71.7402 71.7246 71.918 71.9004 72.1406 72.0332C72.3672 72.1621 72.6484 72.2266 72.9844 72.2266ZM72.3867 73.0586H73.166L73.0957 73.3691C73.3223 73.4082 73.5273 73.502 73.7109 73.6504C73.8984 73.7988 73.9922 74.043 73.9922 74.3828C73.9922 74.5664 73.9531 74.7324 73.875 74.8809C73.8008 75.0332 73.6895 75.1621 73.541 75.2676C73.3926 75.377 73.207 75.4609 72.9844 75.5195C72.7656 75.5781 72.5098 75.6074 72.2168 75.6074L72.1758 74.9805C72.3555 74.9805 72.5176 74.9609 72.6621 74.9219C72.8105 74.8828 72.9277 74.8203 73.0137 74.7344C73.1035 74.6484 73.1484 74.5371 73.1484 74.4004C73.1484 74.2715 73.1152 74.1699 73.0488 74.0957C72.9824 74.0215 72.8789 73.9648 72.7383 73.9258C72.6016 73.8906 72.4238 73.8652 72.2051 73.8496L72.3867 73.0586ZM76.4414 69.9004V69.7656C76.4414 69.3086 76.5078 68.8848 76.6406 68.4941C76.7734 68.0996 76.9648 67.7578 77.2148 67.4688C77.4648 67.1758 77.7676 66.9492 78.123 66.7891C78.4785 66.625 78.877 66.543 79.3184 66.543C79.7637 66.543 80.1641 66.625 80.5195 66.7891C80.8789 66.9492 81.1836 67.1758 81.4336 67.4688C81.6875 67.7578 81.8809 68.0996 82.0137 68.4941C82.1465 68.8848 82.2129 69.3086 82.2129 69.7656V69.9004C82.2129 70.3574 82.1465 70.7812 82.0137 71.1719C81.8809 71.5625 81.6875 71.9043 81.4336 72.1973C81.1836 72.4863 80.8809 72.7129 80.5254 72.877C80.1738 73.0371 79.7754 73.1172 79.3301 73.1172C78.8848 73.1172 78.4844 73.0371 78.1289 72.877C77.7734 72.7129 77.4688 72.4863 77.2148 72.1973C76.9648 71.9043 76.7734 71.5625 76.6406 71.1719C76.5078 70.7812 76.4414 70.3574 76.4414 69.9004ZM77.5254 69.7656V69.9004C77.5254 70.2168 77.5625 70.5156 77.6367 70.7969C77.7109 71.0742 77.8223 71.3203 77.9707 71.5352C78.123 71.75 78.3125 71.9199 78.5391 72.0449C78.7656 72.166 79.0293 72.2266 79.3301 72.2266C79.627 72.2266 79.8867 72.166 80.1094 72.0449C80.3359 71.9199 80.5234 71.75 80.6719 71.5352C80.8203 71.3203 80.9316 71.0742 81.0059 70.7969C81.084 70.5156 81.123 70.2168 81.123 69.9004V69.7656C81.123 69.4531 81.084 69.1582 81.0059 68.8809C80.9316 68.5996 80.8184 68.3516 80.666 68.1367C80.5176 67.918 80.3301 67.7461 80.1035 67.6211C79.8809 67.4961 79.6191 67.4336 79.3184 67.4336C79.0215 67.4336 78.7598 67.4961 78.5332 67.6211C78.3105 67.7461 78.123 67.918 77.9707 68.1367C77.8223 68.3516 77.7109 68.5996 77.6367 68.8809C77.5625 69.1582 77.5254 69.4531 77.5254 69.7656ZM80.6191 64.1172L81.3516 64.1816C81.3516 64.4668 81.2949 64.7168 81.1816 64.9316C81.0684 65.1465 80.916 65.3125 80.7246 65.4297C80.5371 65.5469 80.3242 65.6055 80.0859 65.6055C79.8867 65.6055 79.7227 65.5781 79.5938 65.5234C79.4648 65.4648 79.3496 65.4004 79.248 65.3301C79.1465 65.2559 79.0391 65.1914 78.9258 65.1367C78.8164 65.0781 78.6797 65.0488 78.5156 65.0488C78.3516 65.0488 78.2129 65.1113 78.0996 65.2363C77.9902 65.3613 77.9355 65.5156 77.9355 65.6992L77.2031 65.6641C77.2031 65.3789 77.2578 65.1289 77.3672 64.9141C77.4805 64.6953 77.6328 64.5254 77.8242 64.4043C78.0156 64.2793 78.2285 64.2168 78.4629 64.2168C78.6309 64.2168 78.7773 64.2461 78.9023 64.3047C79.0312 64.3594 79.1523 64.4238 79.2656 64.498C79.3789 64.5684 79.4961 64.6328 79.6172 64.6914C79.7383 64.7461 79.877 64.7734 80.0332 64.7734C80.1973 64.7734 80.3359 64.7109 80.4492 64.5859C80.5625 64.457 80.6191 64.3008 80.6191 64.1172ZM86.2031 73.1172C85.7617 73.1172 85.3613 73.043 85.002 72.8945C84.6465 72.7422 84.3398 72.5293 84.082 72.2559C83.8281 71.9824 83.6328 71.6582 83.4961 71.2832C83.3594 70.9082 83.291 70.498 83.291 70.0527V69.8066C83.291 69.291 83.3672 68.832 83.5195 68.4297C83.6719 68.0234 83.8789 67.6797 84.1406 67.3984C84.4023 67.1172 84.6992 66.9043 85.0312 66.7598C85.3633 66.6152 85.707 66.543 86.0625 66.543C86.5156 66.543 86.9062 66.6211 87.2344 66.7773C87.5664 66.9336 87.8379 67.1523 88.0488 67.4336C88.2598 67.7109 88.416 68.0391 88.5176 68.418C88.6191 68.793 88.6699 69.2031 88.6699 69.6484V70.1348H83.9355V69.25H87.5859V69.168C87.5703 68.8867 87.5117 68.6133 87.4102 68.3477C87.3125 68.082 87.1562 67.8633 86.9414 67.6914C86.7266 67.5195 86.4336 67.4336 86.0625 67.4336C85.8164 67.4336 85.5898 67.4863 85.3828 67.5918C85.1758 67.6934 84.998 67.8457 84.8496 68.0488C84.7012 68.252 84.5859 68.5 84.5039 68.793C84.4219 69.0859 84.3809 69.4238 84.3809 69.8066V70.0527C84.3809 70.3535 84.4219 70.6367 84.5039 70.9023C84.5898 71.1641 84.7129 71.3945 84.873 71.5938C85.0371 71.793 85.2344 71.9492 85.4648 72.0625C85.6992 72.1758 85.9648 72.2324 86.2617 72.2324C86.6445 72.2324 86.9688 72.1543 87.2344 71.998C87.5 71.8418 87.7324 71.6328 87.9316 71.3711L88.5879 71.8926C88.4512 72.0996 88.2773 72.2969 88.0664 72.4844C87.8555 72.6719 87.5957 72.8242 87.2871 72.9414C86.9824 73.0586 86.6211 73.1172 86.2031 73.1172ZM93.627 71.3184C93.627 71.1621 93.5918 71.0176 93.5215 70.8848C93.4551 70.748 93.3164 70.625 93.1055 70.5156C92.8984 70.4023 92.5859 70.3047 92.168 70.2227C91.8164 70.1484 91.498 70.0605 91.2129 69.959C90.9316 69.8574 90.6914 69.7344 90.4922 69.5898C90.2969 69.4453 90.1465 69.2754 90.041 69.0801C89.9355 68.8848 89.8828 68.6562 89.8828 68.3945C89.8828 68.1445 89.9375 67.9082 90.0469 67.6855C90.1602 67.4629 90.3184 67.2656 90.5215 67.0938C90.7285 66.9219 90.9766 66.7871 91.2656 66.6895C91.5547 66.5918 91.877 66.543 92.2324 66.543C92.7402 66.543 93.1738 66.6328 93.5332 66.8125C93.8926 66.9922 94.168 67.2324 94.3594 67.5332C94.5508 67.8301 94.6465 68.1602 94.6465 68.5234H93.5625C93.5625 68.3477 93.5098 68.1777 93.4043 68.0137C93.3027 67.8457 93.1523 67.707 92.9531 67.5977C92.7578 67.4883 92.5176 67.4336 92.2324 67.4336C91.9316 67.4336 91.6875 67.4805 91.5 67.5742C91.3164 67.6641 91.1816 67.7793 91.0957 67.9199C91.0137 68.0605 90.9727 68.209 90.9727 68.3652C90.9727 68.4824 90.9922 68.5879 91.0312 68.6816C91.0742 68.7715 91.1484 68.8555 91.2539 68.9336C91.3594 69.0078 91.5078 69.0781 91.6992 69.1445C91.8906 69.2109 92.1348 69.2773 92.4316 69.3438C92.9512 69.4609 93.3789 69.6016 93.7148 69.7656C94.0508 69.9297 94.3008 70.1309 94.4648 70.3691C94.6289 70.6074 94.7109 70.8965 94.7109 71.2363C94.7109 71.5137 94.6523 71.7676 94.5352 71.998C94.4219 72.2285 94.2559 72.4277 94.0371 72.5957C93.8223 72.7598 93.5645 72.8887 93.2637 72.9824C92.9668 73.0723 92.6328 73.1172 92.2617 73.1172C91.7031 73.1172 91.2305 73.0176 90.8438 72.8184C90.457 72.6191 90.1641 72.3613 89.9648 72.0449C89.7656 71.7285 89.666 71.3945 89.666 71.043H90.7559C90.7715 71.3398 90.8574 71.5762 91.0137 71.752C91.1699 71.9238 91.3613 72.0469 91.5879 72.1211C91.8145 72.1914 92.0391 72.2266 92.2617 72.2266C92.5586 72.2266 92.8066 72.1875 93.0059 72.1094C93.209 72.0312 93.3633 71.9238 93.4688 71.7871C93.5742 71.6504 93.627 71.4941 93.627 71.3184ZM4.14258 78.4688V87H3.0293V78.4688H4.14258ZM6.88477 78.4688V79.3945H0.292969V78.4688H6.88477ZM8.625 81.6562V87H7.54102V80.6602H8.5957L8.625 81.6562ZM10.6055 80.625L10.5996 81.6328C10.5098 81.6133 10.4238 81.6016 10.3418 81.5977C10.2637 81.5898 10.1738 81.5859 10.0723 81.5859C9.82227 81.5859 9.60156 81.625 9.41016 81.7031C9.21875 81.7812 9.05664 81.8906 8.92383 82.0312C8.79102 82.1719 8.68555 82.3398 8.60742 82.5352C8.5332 82.7266 8.48438 82.9375 8.46094 83.168L8.15625 83.3438C8.15625 82.9609 8.19336 82.6016 8.26758 82.2656C8.3457 81.9297 8.46484 81.6328 8.625 81.375C8.78516 81.1133 8.98828 80.9102 9.23438 80.7656C9.48438 80.6172 9.78125 80.543 10.125 80.543C10.2031 80.543 10.293 80.5527 10.3945 80.5723C10.4961 80.5879 10.5664 80.6055 10.6055 80.625ZM15.1113 85.916V82.6523C15.1113 82.4023 15.0605 82.1855 14.959 82.002C14.8613 81.8145 14.7129 81.6699 14.5137 81.5684C14.3145 81.4668 14.0684 81.416 13.7754 81.416C13.502 81.416 13.2617 81.4629 13.0547 81.5566C12.8516 81.6504 12.6914 81.7734 12.5742 81.9258C12.4609 82.0781 12.4043 82.2422 12.4043 82.418H11.3203C11.3203 82.1914 11.3789 81.9668 11.4961 81.7441C11.6133 81.5215 11.7812 81.3203 12 81.1406C12.2227 80.957 12.4883 80.8125 12.7969 80.707C13.1094 80.5977 13.457 80.543 13.8398 80.543C14.3008 80.543 14.707 80.6211 15.0586 80.7773C15.4141 80.9336 15.6914 81.1699 15.8906 81.4863C16.0938 81.7988 16.1953 82.1914 16.1953 82.6641V85.6172C16.1953 85.8281 16.2129 86.0527 16.248 86.291C16.2871 86.5293 16.3438 86.7344 16.418 86.9062V87H15.2871C15.2324 86.875 15.1895 86.709 15.1582 86.502C15.127 86.291 15.1113 86.0957 15.1113 85.916ZM15.2988 83.1562L15.3105 83.918H14.2148C13.9062 83.918 13.6309 83.9434 13.3887 83.9941C13.1465 84.041 12.9434 84.1133 12.7793 84.2109C12.6152 84.3086 12.4902 84.4316 12.4043 84.5801C12.3184 84.7246 12.2754 84.8945 12.2754 85.0898C12.2754 85.2891 12.3203 85.4707 12.4102 85.6348C12.5 85.7988 12.6348 85.9297 12.8145 86.0273C12.998 86.1211 13.2227 86.168 13.4883 86.168C13.8203 86.168 14.1133 86.0977 14.3672 85.957C14.6211 85.8164 14.8223 85.6445 14.9707 85.4414C15.123 85.2383 15.2051 85.041 15.2168 84.8496L15.6797 85.3711C15.6523 85.5352 15.5781 85.7168 15.457 85.916C15.3359 86.1152 15.1738 86.3066 14.9707 86.4902C14.7715 86.6699 14.5332 86.8203 14.2559 86.9414C13.9824 87.0586 13.6738 87.1172 13.3301 87.1172C12.9004 87.1172 12.5234 87.0332 12.1992 86.8652C11.8789 86.6973 11.6289 86.4727 11.4492 86.1914C11.2734 85.9062 11.1855 85.5879 11.1855 85.2363C11.1855 84.8965 11.252 84.5977 11.3848 84.3398C11.5176 84.0781 11.709 83.8613 11.959 83.6895C12.209 83.5137 12.5098 83.3809 12.8613 83.291C13.2129 83.2012 13.6055 83.1562 14.0391 83.1562H15.2988ZM18.9844 82.0137V87H17.9004V80.6602H18.9258L18.9844 82.0137ZM18.7266 83.5898L18.2754 83.5723C18.2793 83.1387 18.3438 82.7383 18.4688 82.3711C18.5938 82 18.7695 81.6777 18.9961 81.4043C19.2227 81.1309 19.4922 80.9199 19.8047 80.7715C20.1211 80.6191 20.4707 80.543 20.8535 80.543C21.166 80.543 21.4473 80.5859 21.6973 80.6719C21.9473 80.7539 22.1602 80.8867 22.3359 81.0703C22.5156 81.2539 22.6523 81.4922 22.7461 81.7852C22.8398 82.0742 22.8867 82.4277 22.8867 82.8457V87H21.7969V82.834C21.7969 82.502 21.748 82.2363 21.6504 82.0371C21.5527 81.834 21.4102 81.6875 21.2227 81.5977C21.0352 81.5039 20.8047 81.457 20.5312 81.457C20.2617 81.457 20.0156 81.5137 19.793 81.627C19.5742 81.7402 19.3848 81.8965 19.2246 82.0957C19.0684 82.2949 18.9453 82.5234 18.8555 82.7812C18.7695 83.0352 18.7266 83.3047 18.7266 83.5898ZM28.2246 85.3184C28.2246 85.1621 28.1895 85.0176 28.1191 84.8848C28.0527 84.748 27.9141 84.625 27.7031 84.5156C27.4961 84.4023 27.1836 84.3047 26.7656 84.2227C26.4141 84.1484 26.0957 84.0605 25.8105 83.959C25.5293 83.8574 25.2891 83.7344 25.0898 83.5898C24.8945 83.4453 24.7441 83.2754 24.6387 83.0801C24.5332 82.8848 24.4805 82.6562 24.4805 82.3945C24.4805 82.1445 24.5352 81.9082 24.6445 81.6855C24.7578 81.4629 24.916 81.2656 25.1191 81.0938C25.3262 80.9219 25.5742 80.7871 25.8633 80.6895C26.1523 80.5918 26.4746 80.543 26.8301 80.543C27.3379 80.543 27.7715 80.6328 28.1309 80.8125C28.4902 80.9922 28.7656 81.2324 28.957 81.5332C29.1484 81.8301 29.2441 82.1602 29.2441 82.5234H28.1602C28.1602 82.3477 28.1074 82.1777 28.002 82.0137C27.9004 81.8457 27.75 81.707 27.5508 81.5977C27.3555 81.4883 27.1152 81.4336 26.8301 81.4336C26.5293 81.4336 26.2852 81.4805 26.0977 81.5742C25.9141 81.6641 25.7793 81.7793 25.6934 81.9199C25.6113 82.0605 25.5703 82.209 25.5703 82.3652C25.5703 82.4824 25.5898 82.5879 25.6289 82.6816C25.6719 82.7715 25.7461 82.8555 25.8516 82.9336C25.957 83.0078 26.1055 83.0781 26.2969 83.1445C26.4883 83.2109 26.7324 83.2773 27.0293 83.3438C27.5488 83.4609 27.9766 83.6016 28.3125 83.7656C28.6484 83.9297 28.8984 84.1309 29.0625 84.3691C29.2266 84.6074 29.3086 84.8965 29.3086 85.2363C29.3086 85.5137 29.25 85.7676 29.1328 85.998C29.0195 86.2285 28.8535 86.4277 28.6348 86.5957C28.4199 86.7598 28.1621 86.8887 27.8613 86.9824C27.5645 87.0723 27.2305 87.1172 26.8594 87.1172C26.3008 87.1172 25.8281 87.0176 25.4414 86.8184C25.0547 86.6191 24.7617 86.3613 24.5625 86.0449C24.3633 85.7285 24.2637 85.3945 24.2637 85.043H25.3535C25.3691 85.3398 25.4551 85.5762 25.6113 85.752C25.7676 85.9238 25.959 86.0469 26.1855 86.1211C26.4121 86.1914 26.6367 86.2266 26.8594 86.2266C27.1562 86.2266 27.4043 86.1875 27.6035 86.1094C27.8066 86.0312 27.9609 85.9238 28.0664 85.7871C28.1719 85.6504 28.2246 85.4941 28.2246 85.3184ZM31.8105 81.9199V87H30.7207V80.6602H31.752L31.8105 81.9199ZM31.5879 83.5898L31.084 83.5723C31.0879 83.1387 31.1445 82.7383 31.2539 82.3711C31.3633 82 31.5254 81.6777 31.7402 81.4043C31.9551 81.1309 32.2227 80.9199 32.543 80.7715C32.8633 80.6191 33.2344 80.543 33.6562 80.543C33.9531 80.543 34.2266 80.5859 34.4766 80.6719C34.7266 80.7539 34.9434 80.8848 35.127 81.0645C35.3105 81.2441 35.4531 81.4746 35.5547 81.7559C35.6562 82.0371 35.707 82.377 35.707 82.7754V87H34.623V82.8281C34.623 82.4961 34.5664 82.2305 34.4531 82.0312C34.3438 81.832 34.1875 81.6875 33.9844 81.5977C33.7812 81.5039 33.543 81.457 33.2695 81.457C32.9492 81.457 32.6816 81.5137 32.4668 81.627C32.252 81.7402 32.0801 81.8965 31.9512 82.0957C31.8223 82.2949 31.7285 82.5234 31.6699 82.7812C31.6152 83.0352 31.5879 83.3047 31.5879 83.5898ZM35.6953 82.9922L34.9688 83.2148C34.9727 82.8672 35.0293 82.5332 35.1387 82.2129C35.252 81.8926 35.4141 81.6074 35.625 81.3574C35.8398 81.1074 36.1035 80.9102 36.416 80.7656C36.7285 80.6172 37.0859 80.543 37.4883 80.543C37.8281 80.543 38.1289 80.5879 38.3906 80.6777C38.6562 80.7676 38.8789 80.9062 39.0586 81.0938C39.2422 81.2773 39.3809 81.5137 39.4746 81.8027C39.5684 82.0918 39.6152 82.4355 39.6152 82.834V87H38.5254V82.8223C38.5254 82.4668 38.4688 82.1914 38.3555 81.9961C38.2461 81.7969 38.0898 81.6582 37.8867 81.5801C37.6875 81.498 37.4492 81.457 37.1719 81.457C36.9336 81.457 36.7227 81.498 36.5391 81.5801C36.3555 81.6621 36.2012 81.7754 36.0762 81.9199C35.9512 82.0605 35.8555 82.2227 35.7891 82.4062C35.7266 82.5898 35.6953 82.7852 35.6953 82.9922ZM42.4336 80.6602V87H41.3438V80.6602H42.4336ZM41.2617 78.9785C41.2617 78.8027 41.3145 78.6543 41.4199 78.5332C41.5293 78.4121 41.6895 78.3516 41.9004 78.3516C42.1074 78.3516 42.2656 78.4121 42.375 78.5332C42.4883 78.6543 42.5449 78.8027 42.5449 78.9785C42.5449 79.1465 42.4883 79.291 42.375 79.4121C42.2656 79.5293 42.1074 79.5879 41.9004 79.5879C41.6895 79.5879 41.5293 79.5293 41.4199 79.4121C41.3145 79.291 41.2617 79.1465 41.2617 78.9785ZM46.8281 80.6602V81.4922H43.4004V80.6602H46.8281ZM44.5605 79.1191H45.6445V85.4297C45.6445 85.6445 45.6777 85.8066 45.7441 85.916C45.8105 86.0254 45.8965 86.0977 46.002 86.1328C46.1074 86.168 46.2207 86.1855 46.3418 86.1855C46.4316 86.1855 46.5254 86.1777 46.623 86.1621C46.7246 86.1426 46.8008 86.127 46.8516 86.1152L46.8574 87C46.7715 87.0273 46.6582 87.0527 46.5176 87.0762C46.3809 87.1035 46.2148 87.1172 46.0195 87.1172C45.7539 87.1172 45.5098 87.0645 45.2871 86.959C45.0645 86.8535 44.8867 86.6777 44.7539 86.4316C44.625 86.1816 44.5605 85.8457 44.5605 85.4238V79.1191ZM49.2773 80.6602V87H48.1875V80.6602H49.2773ZM48.1055 78.9785C48.1055 78.8027 48.1582 78.6543 48.2637 78.5332C48.373 78.4121 48.5332 78.3516 48.7441 78.3516C48.9512 78.3516 49.1094 78.4121 49.2188 78.5332C49.332 78.6543 49.3887 78.8027 49.3887 78.9785C49.3887 79.1465 49.332 79.291 49.2188 79.4121C49.1094 79.5293 48.9512 79.5879 48.7441 79.5879C48.5332 79.5879 48.373 79.5293 48.2637 79.4121C48.1582 79.291 48.1055 79.1465 48.1055 78.9785ZM55.0137 85.7695V78H56.1035V87H55.1074L55.0137 85.7695ZM50.748 83.9004V83.7773C50.748 83.293 50.8066 82.8535 50.9238 82.459C51.0449 82.0605 51.2148 81.7188 51.4336 81.4336C51.6562 81.1484 51.9199 80.9297 52.2246 80.7773C52.5332 80.6211 52.877 80.543 53.2559 80.543C53.6543 80.543 54.002 80.6133 54.2988 80.7539C54.5996 80.8906 54.8535 81.0918 55.0605 81.3574C55.2715 81.6191 55.4375 81.9355 55.5586 82.3066C55.6797 82.6777 55.7637 83.0977 55.8105 83.5664V84.1055C55.7676 84.5703 55.6836 84.9883 55.5586 85.3594C55.4375 85.7305 55.2715 86.0469 55.0605 86.3086C54.8535 86.5703 54.5996 86.7715 54.2988 86.9121C53.998 87.0488 53.6465 87.1172 53.2441 87.1172C52.873 87.1172 52.5332 87.0371 52.2246 86.877C51.9199 86.7168 51.6562 86.4922 51.4336 86.2031C51.2148 85.9141 51.0449 85.5742 50.9238 85.1836C50.8066 84.7891 50.748 84.3613 50.748 83.9004ZM51.8379 83.7773V83.9004C51.8379 84.2168 51.8691 84.5137 51.9316 84.791C51.998 85.0684 52.0996 85.3125 52.2363 85.5234C52.373 85.7344 52.5469 85.9004 52.7578 86.0215C52.9688 86.1387 53.2207 86.1973 53.5137 86.1973C53.873 86.1973 54.168 86.1211 54.3984 85.9688C54.6328 85.8164 54.8203 85.6152 54.9609 85.3652C55.1016 85.1152 55.2109 84.8438 55.2891 84.5508V83.1387C55.2422 82.9238 55.1738 82.7168 55.084 82.5176C54.998 82.3145 54.8848 82.1348 54.7441 81.9785C54.6074 81.8184 54.4375 81.6914 54.2344 81.5977C54.0352 81.5039 53.7988 81.457 53.5254 81.457C53.2285 81.457 52.9727 81.5195 52.7578 81.6445C52.5469 81.7656 52.373 81.9336 52.2363 82.1484C52.0996 82.3594 51.998 82.6055 51.9316 82.8867C51.8691 83.1641 51.8379 83.4609 51.8379 83.7773ZM57.5039 83.9004V83.7656C57.5039 83.3086 57.5703 82.8848 57.7031 82.4941C57.8359 82.0996 58.0273 81.7578 58.2773 81.4688C58.5273 81.1758 58.8301 80.9492 59.1855 80.7891C59.541 80.625 59.9395 80.543 60.3809 80.543C60.8262 80.543 61.2266 80.625 61.582 80.7891C61.9414 80.9492 62.2461 81.1758 62.4961 81.4688C62.75 81.7578 62.9434 82.0996 63.0762 82.4941C63.209 82.8848 63.2754 83.3086 63.2754 83.7656V83.9004C63.2754 84.3574 63.209 84.7812 63.0762 85.1719C62.9434 85.5625 62.75 85.9043 62.4961 86.1973C62.2461 86.4863 61.9434 86.7129 61.5879 86.877C61.2363 87.0371 60.8379 87.1172 60.3926 87.1172C59.9473 87.1172 59.5469 87.0371 59.1914 86.877C58.8359 86.7129 58.5312 86.4863 58.2773 86.1973C58.0273 85.9043 57.8359 85.5625 57.7031 85.1719C57.5703 84.7812 57.5039 84.3574 57.5039 83.9004ZM58.5879 83.7656V83.9004C58.5879 84.2168 58.625 84.5156 58.6992 84.7969C58.7734 85.0742 58.8848 85.3203 59.0332 85.5352C59.1855 85.75 59.375 85.9199 59.6016 86.0449C59.8281 86.166 60.0918 86.2266 60.3926 86.2266C60.6895 86.2266 60.9492 86.166 61.1719 86.0449C61.3984 85.9199 61.5859 85.75 61.7344 85.5352C61.8828 85.3203 61.9941 85.0742 62.0684 84.7969C62.1465 84.5156 62.1855 84.2168 62.1855 83.9004V83.7656C62.1855 83.4531 62.1465 83.1582 62.0684 82.8809C61.9941 82.5996 61.8809 82.3516 61.7285 82.1367C61.5801 81.918 61.3926 81.7461 61.166 81.6211C60.9434 81.4961 60.6816 81.4336 60.3809 81.4336C60.084 81.4336 59.8223 81.4961 59.5957 81.6211C59.373 81.7461 59.1855 81.918 59.0332 82.1367C58.8848 82.3516 58.7734 82.5996 58.6992 82.8809C58.625 83.1582 58.5879 83.4531 58.5879 83.7656ZM68.6953 78V87H67.6113V78H68.6953ZM68.4375 83.5898L67.9863 83.5723C67.9902 83.1387 68.0547 82.7383 68.1797 82.3711C68.3047 82 68.4805 81.6777 68.707 81.4043C68.9336 81.1309 69.2031 80.9199 69.5156 80.7715C69.832 80.6191 70.1816 80.543 70.5645 80.543C70.877 80.543 71.1582 80.5859 71.4082 80.6719C71.6582 80.7539 71.8711 80.8867 72.0469 81.0703C72.2266 81.2539 72.3633 81.4922 72.457 81.7852C72.5508 82.0742 72.5977 82.4277 72.5977 82.8457V87H71.5078V82.834C71.5078 82.502 71.459 82.2363 71.3613 82.0371C71.2637 81.834 71.1211 81.6875 70.9336 81.5977C70.7461 81.5039 70.5156 81.457 70.2422 81.457C69.9727 81.457 69.7266 81.5137 69.5039 81.627C69.2852 81.7402 69.0957 81.8965 68.9355 82.0957C68.7793 82.2949 68.6562 82.5234 68.5664 82.7812C68.4805 83.0352 68.4375 83.3047 68.4375 83.5898ZM77.959 85.916V82.6523C77.959 82.4023 77.9082 82.1855 77.8066 82.002C77.709 81.8145 77.5605 81.6699 77.3613 81.5684C77.1621 81.4668 76.916 81.416 76.623 81.416C76.3496 81.416 76.1094 81.4629 75.9023 81.5566C75.6992 81.6504 75.5391 81.7734 75.4219 81.9258C75.3086 82.0781 75.252 82.2422 75.252 82.418H74.168C74.168 82.1914 74.2266 81.9668 74.3438 81.7441C74.4609 81.5215 74.6289 81.3203 74.8477 81.1406C75.0703 80.957 75.3359 80.8125 75.6445 80.707C75.957 80.5977 76.3047 80.543 76.6875 80.543C77.1484 80.543 77.5547 80.6211 77.9062 80.7773C78.2617 80.9336 78.5391 81.1699 78.7383 81.4863C78.9414 81.7988 79.043 82.1914 79.043 82.6641V85.6172C79.043 85.8281 79.0605 86.0527 79.0957 86.291C79.1348 86.5293 79.1914 86.7344 79.2656 86.9062V87H78.1348C78.0801 86.875 78.0371 86.709 78.0059 86.502C77.9746 86.291 77.959 86.0957 77.959 85.916ZM78.1465 83.1562L78.1582 83.918H77.0625C76.7539 83.918 76.4785 83.9434 76.2363 83.9941C75.9941 84.041 75.791 84.1133 75.627 84.2109C75.4629 84.3086 75.3379 84.4316 75.252 84.5801C75.166 84.7246 75.123 84.8945 75.123 85.0898C75.123 85.2891 75.168 85.4707 75.2578 85.6348C75.3477 85.7988 75.4824 85.9297 75.6621 86.0273C75.8457 86.1211 76.0703 86.168 76.3359 86.168C76.668 86.168 76.9609 86.0977 77.2148 85.957C77.4688 85.8164 77.6699 85.6445 77.8184 85.4414C77.9707 85.2383 78.0527 85.041 78.0645 84.8496L78.5273 85.3711C78.5 85.5352 78.4258 85.7168 78.3047 85.916C78.1836 86.1152 78.0215 86.3066 77.8184 86.4902C77.6191 86.6699 77.3809 86.8203 77.1035 86.9414C76.8301 87.0586 76.5215 87.1172 76.1777 87.1172C75.748 87.1172 75.3711 87.0332 75.0469 86.8652C74.7266 86.6973 74.4766 86.4727 74.2969 86.1914C74.1211 85.9062 74.0332 85.5879 74.0332 85.2363C74.0332 84.8965 74.0996 84.5977 74.2324 84.3398C74.3652 84.0781 74.5566 83.8613 74.8066 83.6895C75.0566 83.5137 75.3574 83.3809 75.709 83.291C76.0605 83.2012 76.4531 83.1562 76.8867 83.1562H78.1465ZM76.207 79.7227L77.3438 78H78.6504L77.0801 79.7227H76.207ZM87.7676 78.457H87.8613V79.377H87.7676C87.1934 79.377 86.7129 79.4707 86.3262 79.6582C85.9395 79.8418 85.6328 80.0898 85.4062 80.4023C85.1797 80.7109 85.0156 81.0586 84.9141 81.4453C84.8164 81.832 84.7676 82.2246 84.7676 82.623V83.877C84.7676 84.2559 84.8125 84.5918 84.9023 84.8848C84.9922 85.1738 85.1152 85.418 85.2715 85.6172C85.4277 85.8164 85.6035 85.9668 85.7988 86.0684C85.998 86.1699 86.2051 86.2207 86.4199 86.2207C86.6699 86.2207 86.8926 86.1738 87.0879 86.0801C87.2832 85.9824 87.4473 85.8477 87.5801 85.6758C87.7168 85.5 87.8203 85.293 87.8906 85.0547C87.9609 84.8164 87.9961 84.5547 87.9961 84.2695C87.9961 84.0156 87.9648 83.7715 87.9023 83.5371C87.8398 83.2988 87.7441 83.0879 87.6152 82.9043C87.4863 82.7168 87.3242 82.5703 87.1289 82.4648C86.9375 82.3555 86.709 82.3008 86.4434 82.3008C86.1426 82.3008 85.8613 82.375 85.5996 82.5234C85.3418 82.668 85.1289 82.8594 84.9609 83.0977C84.7969 83.332 84.7031 83.5879 84.6797 83.8652L84.1055 83.8594C84.1602 83.4219 84.2617 83.0488 84.4102 82.7402C84.5625 82.4277 84.75 82.1738 84.9727 81.9785C85.1992 81.7793 85.4512 81.6348 85.7285 81.5449C86.0098 81.4512 86.3066 81.4043 86.6191 81.4043C87.0449 81.4043 87.4121 81.4844 87.7207 81.6445C88.0293 81.8047 88.2832 82.0195 88.4824 82.2891C88.6816 82.5547 88.8281 82.8555 88.9219 83.1914C89.0195 83.5234 89.0684 83.8652 89.0684 84.2168C89.0684 84.6191 89.0117 84.9961 88.8984 85.3477C88.7852 85.6992 88.6152 86.0078 88.3887 86.2734C88.166 86.5391 87.8906 86.7461 87.5625 86.8945C87.2344 87.043 86.8535 87.1172 86.4199 87.1172C85.959 87.1172 85.5566 87.0234 85.2129 86.8359C84.8691 86.6445 84.584 86.3906 84.3574 86.0742C84.1309 85.7578 83.9609 85.4062 83.8477 85.0195C83.7344 84.6328 83.6777 84.2402 83.6777 83.8418V83.332C83.6777 82.7305 83.7383 82.1406 83.8594 81.5625C83.9805 80.9844 84.1895 80.4609 84.4863 79.9922C84.7871 79.5234 85.2031 79.1504 85.7344 78.873C86.2656 78.5957 86.9434 78.457 87.7676 78.457ZM97.4473 85.7695V78H98.5371V87H97.541L97.4473 85.7695ZM93.1816 83.9004V83.7773C93.1816 83.293 93.2402 82.8535 93.3574 82.459C93.4785 82.0605 93.6484 81.7188 93.8672 81.4336C94.0898 81.1484 94.3535 80.9297 94.6582 80.7773C94.9668 80.6211 95.3105 80.543 95.6895 80.543C96.0879 80.543 96.4355 80.6133 96.7324 80.7539C97.0332 80.8906 97.2871 81.0918 97.4941 81.3574C97.7051 81.6191 97.8711 81.9355 97.9922 82.3066C98.1133 82.6777 98.1973 83.0977 98.2441 83.5664V84.1055C98.2012 84.5703 98.1172 84.9883 97.9922 85.3594C97.8711 85.7305 97.7051 86.0469 97.4941 86.3086C97.2871 86.5703 97.0332 86.7715 96.7324 86.9121C96.4316 87.0488 96.0801 87.1172 95.6777 87.1172C95.3066 87.1172 94.9668 87.0371 94.6582 86.877C94.3535 86.7168 94.0898 86.4922 93.8672 86.2031C93.6484 85.9141 93.4785 85.5742 93.3574 85.1836C93.2402 84.7891 93.1816 84.3613 93.1816 83.9004ZM94.2715 83.7773V83.9004C94.2715 84.2168 94.3027 84.5137 94.3652 84.791C94.4316 85.0684 94.5332 85.3125 94.6699 85.5234C94.8066 85.7344 94.9805 85.9004 95.1914 86.0215C95.4023 86.1387 95.6543 86.1973 95.9473 86.1973C96.3066 86.1973 96.6016 86.1211 96.832 85.9688C97.0664 85.8164 97.2539 85.6152 97.3945 85.3652C97.5352 85.1152 97.6445 84.8438 97.7227 84.5508V83.1387C97.6758 82.9238 97.6074 82.7168 97.5176 82.5176C97.4316 82.3145 97.3184 82.1348 97.1777 81.9785C97.041 81.8184 96.8711 81.6914 96.668 81.5977C96.4688 81.5039 96.2324 81.457 95.959 81.457C95.6621 81.457 95.4062 81.5195 95.1914 81.6445C94.9805 81.7656 94.8066 81.9336 94.6699 82.1484C94.5332 82.3594 94.4316 82.6055 94.3652 82.8867C94.3027 83.1641 94.2715 83.4609 94.2715 83.7773ZM101.402 80.6602V87H100.312V80.6602H101.402ZM100.23 78.9785C100.23 78.8027 100.283 78.6543 100.389 78.5332C100.498 78.4121 100.658 78.3516 100.869 78.3516C101.076 78.3516 101.234 78.4121 101.344 78.5332C101.457 78.6543 101.514 78.8027 101.514 78.9785C101.514 79.1465 101.457 79.291 101.344 79.4121C101.234 79.5293 101.076 79.5879 100.869 79.5879C100.658 79.5879 100.498 79.5293 100.389 79.4121C100.283 79.291 100.23 79.1465 100.23 78.9785ZM106.881 85.916V82.6523C106.881 82.4023 106.83 82.1855 106.729 82.002C106.631 81.8145 106.482 81.6699 106.283 81.5684C106.084 81.4668 105.838 81.416 105.545 81.416C105.271 81.416 105.031 81.4629 104.824 81.5566C104.621 81.6504 104.461 81.7734 104.344 81.9258C104.23 82.0781 104.174 82.2422 104.174 82.418H103.09C103.09 82.1914 103.148 81.9668 103.266 81.7441C103.383 81.5215 103.551 81.3203 103.77 81.1406C103.992 80.957 104.258 80.8125 104.566 80.707C104.879 80.5977 105.227 80.543 105.609 80.543C106.07 80.543 106.477 80.6211 106.828 80.7773C107.184 80.9336 107.461 81.1699 107.66 81.4863C107.863 81.7988 107.965 82.1914 107.965 82.6641V85.6172C107.965 85.8281 107.982 86.0527 108.018 86.291C108.057 86.5293 108.113 86.7344 108.188 86.9062V87H107.057C107.002 86.875 106.959 86.709 106.928 86.502C106.896 86.291 106.881 86.0957 106.881 85.916ZM107.068 83.1562L107.08 83.918H105.984C105.676 83.918 105.4 83.9434 105.158 83.9941C104.916 84.041 104.713 84.1133 104.549 84.2109C104.385 84.3086 104.26 84.4316 104.174 84.5801C104.088 84.7246 104.045 84.8945 104.045 85.0898C104.045 85.2891 104.09 85.4707 104.18 85.6348C104.27 85.7988 104.404 85.9297 104.584 86.0273C104.768 86.1211 104.992 86.168 105.258 86.168C105.59 86.168 105.883 86.0977 106.137 85.957C106.391 85.8164 106.592 85.6445 106.74 85.4414C106.893 85.2383 106.975 85.041 106.986 84.8496L107.449 85.3711C107.422 85.5352 107.348 85.7168 107.227 85.916C107.105 86.1152 106.943 86.3066 106.74 86.4902C106.541 86.6699 106.303 86.8203 106.025 86.9414C105.752 87.0586 105.443 87.1172 105.1 87.1172C104.67 87.1172 104.293 87.0332 103.969 86.8652C103.648 86.6973 103.398 86.4727 103.219 86.1914C103.043 85.9062 102.955 85.5879 102.955 85.2363C102.955 84.8965 103.021 84.5977 103.154 84.3398C103.287 84.0781 103.479 83.8613 103.729 83.6895C103.979 83.5137 104.279 83.3809 104.631 83.291C104.982 83.2012 105.375 83.1562 105.809 83.1562H107.068ZM113.361 85.3184C113.361 85.1621 113.326 85.0176 113.256 84.8848C113.189 84.748 113.051 84.625 112.84 84.5156C112.633 84.4023 112.32 84.3047 111.902 84.2227C111.551 84.1484 111.232 84.0605 110.947 83.959C110.666 83.8574 110.426 83.7344 110.227 83.5898C110.031 83.4453 109.881 83.2754 109.775 83.0801C109.67 82.8848 109.617 82.6562 109.617 82.3945C109.617 82.1445 109.672 81.9082 109.781 81.6855C109.895 81.4629 110.053 81.2656 110.256 81.0938C110.463 80.9219 110.711 80.7871 111 80.6895C111.289 80.5918 111.611 80.543 111.967 80.543C112.475 80.543 112.908 80.6328 113.268 80.8125C113.627 80.9922 113.902 81.2324 114.094 81.5332C114.285 81.8301 114.381 82.1602 114.381 82.5234H113.297C113.297 82.3477 113.244 82.1777 113.139 82.0137C113.037 81.8457 112.887 81.707 112.688 81.5977C112.492 81.4883 112.252 81.4336 111.967 81.4336C111.666 81.4336 111.422 81.4805 111.234 81.5742C111.051 81.6641 110.916 81.7793 110.83 81.9199C110.748 82.0605 110.707 82.209 110.707 82.3652C110.707 82.4824 110.727 82.5879 110.766 82.6816C110.809 82.7715 110.883 82.8555 110.988 82.9336C111.094 83.0078 111.242 83.0781 111.434 83.1445C111.625 83.2109 111.869 83.2773 112.166 83.3438C112.686 83.4609 113.113 83.6016 113.449 83.7656C113.785 83.9297 114.035 84.1309 114.199 84.3691C114.363 84.6074 114.445 84.8965 114.445 85.2363C114.445 85.5137 114.387 85.7676 114.27 85.998C114.156 86.2285 113.99 86.4277 113.771 86.5957C113.557 86.7598 113.299 86.8887 112.998 86.9824C112.701 87.0723 112.367 87.1172 111.996 87.1172C111.438 87.1172 110.965 87.0176 110.578 86.8184C110.191 86.6191 109.898 86.3613 109.699 86.0449C109.5 85.7285 109.4 85.3945 109.4 85.043H110.49C110.506 85.3398 110.592 85.5762 110.748 85.752C110.904 85.9238 111.096 86.0469 111.322 86.1211C111.549 86.1914 111.773 86.2266 111.996 86.2266C112.293 86.2266 112.541 86.1875 112.74 86.1094C112.943 86.0312 113.098 85.9238 113.203 85.7871C113.309 85.6504 113.361 85.4941 113.361 85.3184Z" fill="#515151"/>
</svg>
