<svg width="196" height="89" viewBox="0 0 196 89" fill="none" xmlns="http://www.w3.org/2000/svg">
<path d="M1.77051 3.04688H3.39746L6.11816 10.5391L8.83203 3.04688H10.4658L6.76758 13H5.46191L1.77051 3.04688ZM0.950195 3.04688H2.54297L2.83008 9.93066V13H0.950195V3.04688ZM9.68652 3.04688H11.2861V13H9.40625V9.93066L9.68652 3.04688ZM17.1377 11.4277V8.0166C17.1377 7.76595 17.0944 7.54948 17.0078 7.36719C16.9212 7.1849 16.7891 7.04362 16.6113 6.94336C16.4336 6.8431 16.208 6.79297 15.9346 6.79297C15.693 6.79297 15.4811 6.83398 15.2988 6.91602C15.1211 6.99805 14.9844 7.11426 14.8887 7.26465C14.793 7.41048 14.7451 7.5791 14.7451 7.77051H12.9336C12.9336 7.46517 13.0065 7.17578 13.1523 6.90234C13.2982 6.62435 13.5055 6.37826 13.7744 6.16406C14.0479 5.94531 14.3737 5.77441 14.752 5.65137C15.1348 5.52832 15.5632 5.4668 16.0371 5.4668C16.5977 5.4668 17.0967 5.5625 17.5342 5.75391C17.9762 5.94076 18.3226 6.22331 18.5732 6.60156C18.8285 6.97982 18.9561 7.45605 18.9561 8.03027V11.2568C18.9561 11.626 18.9788 11.9427 19.0244 12.207C19.0745 12.4668 19.1475 12.6924 19.2432 12.8838V13H17.4043C17.3177 12.8132 17.2516 12.5762 17.2061 12.2891C17.1605 11.9974 17.1377 11.7103 17.1377 11.4277ZM17.3906 8.49512L17.4043 9.56836H16.2627C15.9801 9.56836 15.7318 9.59798 15.5176 9.65723C15.3034 9.71191 15.1279 9.79395 14.9912 9.90332C14.8545 10.0081 14.752 10.1357 14.6836 10.2861C14.6152 10.432 14.5811 10.5983 14.5811 10.7852C14.5811 10.9674 14.6221 11.1315 14.7041 11.2773C14.7907 11.4232 14.9137 11.5394 15.0732 11.626C15.2373 11.708 15.4287 11.749 15.6475 11.749C15.9665 11.749 16.2445 11.6852 16.4814 11.5576C16.7184 11.4255 16.903 11.266 17.0352 11.0791C17.1673 10.8923 17.238 10.7145 17.2471 10.5459L17.7666 11.3252C17.7028 11.512 17.6071 11.7103 17.4795 11.9199C17.3519 12.1296 17.1878 12.3255 16.9873 12.5078C16.7868 12.6901 16.5452 12.8405 16.2627 12.959C15.9801 13.0775 15.652 13.1367 15.2783 13.1367C14.7998 13.1367 14.3714 13.041 13.9932 12.8496C13.6149 12.6582 13.3164 12.3962 13.0977 12.0635C12.8789 11.7308 12.7695 11.3525 12.7695 10.9287C12.7695 10.5368 12.8424 10.1904 12.9883 9.88965C13.1341 9.58887 13.3506 9.33594 13.6377 9.13086C13.9248 8.92122 14.2803 8.764 14.7041 8.65918C15.1325 8.5498 15.6224 8.49512 16.1738 8.49512H17.3906ZM23.6182 11.7148C23.8734 11.7148 24.1012 11.6647 24.3018 11.5645C24.5023 11.4642 24.6618 11.3229 24.7803 11.1406C24.9033 10.9583 24.9694 10.7464 24.9785 10.5049H26.6807C26.6715 11.0062 26.5303 11.4551 26.2568 11.8516C25.9834 12.248 25.6188 12.5625 25.1631 12.7949C24.7119 13.0228 24.2061 13.1367 23.6455 13.1367C23.0758 13.1367 22.5791 13.041 22.1553 12.8496C21.7314 12.6582 21.3783 12.3916 21.0957 12.0498C20.8177 11.708 20.6081 11.3115 20.4668 10.8604C20.3301 10.4092 20.2617 9.92611 20.2617 9.41113V9.19238C20.2617 8.67741 20.3301 8.19434 20.4668 7.74316C20.6081 7.29199 20.8177 6.89551 21.0957 6.55371C21.3783 6.21191 21.7314 5.94531 22.1553 5.75391C22.5791 5.5625 23.0736 5.4668 23.6387 5.4668C24.2357 5.4668 24.7598 5.58301 25.2109 5.81543C25.6667 6.04785 26.0221 6.37598 26.2773 6.7998C26.5371 7.22363 26.6715 7.72266 26.6807 8.29688H24.9785C24.9694 8.03255 24.9102 7.79557 24.8008 7.58594C24.6914 7.3763 24.5365 7.20768 24.3359 7.08008C24.1354 6.95247 23.8916 6.88867 23.6045 6.88867C23.2992 6.88867 23.0439 6.95247 22.8389 7.08008C22.6383 7.20768 22.4811 7.38314 22.3672 7.60645C22.2578 7.8252 22.1803 8.07129 22.1348 8.34473C22.0938 8.61361 22.0732 8.89616 22.0732 9.19238V9.41113C22.0732 9.71191 22.0938 9.99902 22.1348 10.2725C22.1803 10.5459 22.2578 10.792 22.3672 11.0107C22.4811 11.2249 22.6383 11.3958 22.8389 11.5234C23.0439 11.651 23.3037 11.7148 23.6182 11.7148ZM29.6543 2.5V13H27.8428V2.5H29.6543ZM29.3672 9.03516H28.834C28.834 8.52018 28.9023 8.04622 29.0391 7.61328C29.1758 7.18034 29.3695 6.80436 29.6201 6.48535C29.8708 6.16178 30.1693 5.91113 30.5156 5.7334C30.8665 5.55566 31.2539 5.4668 31.6777 5.4668C32.0423 5.4668 32.3727 5.51921 32.6689 5.62402C32.9697 5.72428 33.2272 5.88607 33.4414 6.10938C33.6556 6.33268 33.8197 6.62435 33.9336 6.98438C34.0521 7.33984 34.1113 7.77279 34.1113 8.2832V13H32.293V8.26953C32.293 7.92773 32.2428 7.65885 32.1426 7.46289C32.0423 7.26237 31.8988 7.11882 31.7119 7.03223C31.5296 6.94564 31.304 6.90234 31.0352 6.90234C30.7435 6.90234 30.4928 6.95931 30.2832 7.07324C30.0736 7.18262 29.9004 7.33529 29.7637 7.53125C29.6315 7.72721 29.5312 7.9528 29.4629 8.20801C29.3991 8.46322 29.3672 8.73893 29.3672 9.03516ZM37.6182 5.60352V13H35.8066V5.60352H37.6182ZM35.6836 3.66895C35.6836 3.40007 35.7747 3.17676 35.957 2.99902C36.1439 2.82129 36.3945 2.73242 36.709 2.73242C37.0234 2.73242 37.2718 2.82129 37.4541 2.99902C37.641 3.17676 37.7344 3.40007 37.7344 3.66895C37.7344 3.93327 37.641 4.1543 37.4541 4.33203C37.2718 4.50977 37.0234 4.59863 36.709 4.59863C36.3945 4.59863 36.1439 4.50977 35.957 4.33203C35.7747 4.1543 35.6836 3.93327 35.6836 3.66895ZM41.1113 7.18262V13H39.3066V5.60352H41.002L41.1113 7.18262ZM40.8242 9.03516H40.291C40.2956 8.4974 40.3685 8.00977 40.5098 7.57227C40.651 7.13477 40.8493 6.75879 41.1045 6.44434C41.3643 6.12988 41.6719 5.88835 42.0273 5.71973C42.3828 5.55111 42.7793 5.4668 43.2168 5.4668C43.5723 5.4668 43.8936 5.51693 44.1807 5.61719C44.4678 5.71745 44.7139 5.87695 44.9189 6.0957C45.1286 6.31445 45.2881 6.60156 45.3975 6.95703C45.5114 7.30794 45.5684 7.74089 45.5684 8.25586V13H43.75V8.24219C43.75 7.90495 43.6999 7.63835 43.5996 7.44238C43.5039 7.24642 43.3626 7.10742 43.1758 7.02539C42.9935 6.94336 42.7679 6.90234 42.499 6.90234C42.221 6.90234 41.9772 6.95931 41.7676 7.07324C41.5625 7.18262 41.3893 7.33529 41.248 7.53125C41.1113 7.72721 41.0065 7.9528 40.9336 8.20801C40.8607 8.46322 40.8242 8.73893 40.8242 9.03516ZM50.4834 13.1367C49.9229 13.1367 49.4193 13.0456 48.9727 12.8633C48.526 12.681 48.1455 12.4281 47.8311 12.1045C47.5212 11.7764 47.2819 11.3958 47.1133 10.9629C46.9492 10.5254 46.8672 10.056 46.8672 9.55469V9.28125C46.8672 8.71159 46.9492 8.19434 47.1133 7.72949C47.2773 7.26009 47.5098 6.85677 47.8105 6.51953C48.1113 6.18229 48.4714 5.92253 48.8906 5.74023C49.3099 5.55794 49.7725 5.4668 50.2783 5.4668C50.8024 5.4668 51.265 5.55566 51.666 5.7334C52.0671 5.90658 52.402 6.15267 52.6709 6.47168C52.9398 6.79069 53.1426 7.1735 53.2793 7.62012C53.416 8.06217 53.4844 8.55208 53.4844 9.08984V9.84863H47.6875V8.60449H51.707V8.46777C51.6979 8.18066 51.6432 7.91862 51.543 7.68164C51.4427 7.4401 51.2878 7.2487 51.0781 7.10742C50.8685 6.96159 50.5973 6.88867 50.2646 6.88867C49.9958 6.88867 49.7611 6.94792 49.5605 7.06641C49.3646 7.18034 49.2005 7.3444 49.0684 7.55859C48.9408 7.76823 48.8451 8.01888 48.7812 8.31055C48.7174 8.60221 48.6855 8.92578 48.6855 9.28125V9.55469C48.6855 9.86458 48.7266 10.1517 48.8086 10.416C48.8952 10.6803 49.0205 10.9105 49.1846 11.1064C49.3532 11.2979 49.5537 11.4482 49.7861 11.5576C50.0231 11.6624 50.292 11.7148 50.5928 11.7148C50.971 11.7148 51.3128 11.6419 51.6182 11.4961C51.9281 11.3457 52.1969 11.1247 52.4248 10.833L53.334 11.7764C53.179 12.0042 52.9694 12.223 52.7051 12.4326C52.4453 12.6423 52.1309 12.8132 51.7617 12.9453C51.3926 13.0729 50.9665 13.1367 50.4834 13.1367ZM64.6338 11.5234V13H59.6299V11.5234H64.6338ZM60.1973 3.04688V13H58.3174V3.04688H60.1973ZM69.0771 13.1367C68.5166 13.1367 68.013 13.0456 67.5664 12.8633C67.1198 12.681 66.7393 12.4281 66.4248 12.1045C66.1149 11.7764 65.8757 11.3958 65.707 10.9629C65.543 10.5254 65.4609 10.056 65.4609 9.55469V9.28125C65.4609 8.71159 65.543 8.19434 65.707 7.72949C65.8711 7.26009 66.1035 6.85677 66.4043 6.51953C66.7051 6.18229 67.0651 5.92253 67.4844 5.74023C67.9036 5.55794 68.3662 5.4668 68.8721 5.4668C69.3962 5.4668 69.8587 5.55566 70.2598 5.7334C70.6608 5.90658 70.9958 6.15267 71.2646 6.47168C71.5335 6.79069 71.7363 7.1735 71.873 7.62012C72.0098 8.06217 72.0781 8.55208 72.0781 9.08984V9.84863H66.2812V8.60449H70.3008V8.46777C70.2917 8.18066 70.237 7.91862 70.1367 7.68164C70.0365 7.4401 69.8815 7.2487 69.6719 7.10742C69.4622 6.96159 69.1911 6.88867 68.8584 6.88867C68.5895 6.88867 68.3548 6.94792 68.1543 7.06641C67.9583 7.18034 67.7943 7.3444 67.6621 7.55859C67.5345 7.76823 67.4388 8.01888 67.375 8.31055C67.3112 8.60221 67.2793 8.92578 67.2793 9.28125V9.55469C67.2793 9.86458 67.3203 10.1517 67.4023 10.416C67.4889 10.6803 67.6143 10.9105 67.7783 11.1064C67.9469 11.2979 68.1475 11.4482 68.3799 11.5576C68.6169 11.6624 68.8857 11.7148 69.1865 11.7148C69.5648 11.7148 69.9066 11.6419 70.2119 11.4961C70.5218 11.3457 70.7907 11.1247 71.0186 10.833L71.9277 11.7764C71.7728 12.0042 71.5632 12.223 71.2988 12.4326C71.0391 12.6423 70.7246 12.8132 70.3555 12.9453C69.9863 13.0729 69.5602 13.1367 69.0771 13.1367ZM77.3623 11.4277V8.0166C77.3623 7.76595 77.319 7.54948 77.2324 7.36719C77.1458 7.1849 77.0137 7.04362 76.8359 6.94336C76.6582 6.8431 76.4326 6.79297 76.1592 6.79297C75.9176 6.79297 75.7057 6.83398 75.5234 6.91602C75.3457 6.99805 75.209 7.11426 75.1133 7.26465C75.0176 7.41048 74.9697 7.5791 74.9697 7.77051H73.1582C73.1582 7.46517 73.2311 7.17578 73.377 6.90234C73.5228 6.62435 73.7301 6.37826 73.999 6.16406C74.2725 5.94531 74.5983 5.77441 74.9766 5.65137C75.3594 5.52832 75.7878 5.4668 76.2617 5.4668C76.8223 5.4668 77.3213 5.5625 77.7588 5.75391C78.2008 5.94076 78.5472 6.22331 78.7979 6.60156C79.0531 6.97982 79.1807 7.45605 79.1807 8.03027V11.2568C79.1807 11.626 79.2035 11.9427 79.249 12.207C79.2992 12.4668 79.3721 12.6924 79.4678 12.8838V13H77.6289C77.5423 12.8132 77.4762 12.5762 77.4307 12.2891C77.3851 11.9974 77.3623 11.7103 77.3623 11.4277ZM77.6152 8.49512L77.6289 9.56836H76.4873C76.2048 9.56836 75.9564 9.59798 75.7422 9.65723C75.528 9.71191 75.3525 9.79395 75.2158 9.90332C75.0791 10.0081 74.9766 10.1357 74.9082 10.2861C74.8398 10.432 74.8057 10.5983 74.8057 10.7852C74.8057 10.9674 74.8467 11.1315 74.9287 11.2773C75.0153 11.4232 75.1383 11.5394 75.2979 11.626C75.4619 11.708 75.6533 11.749 75.8721 11.749C76.1911 11.749 76.4691 11.6852 76.7061 11.5576C76.943 11.4255 77.1276 11.266 77.2598 11.0791C77.3919 10.8923 77.4626 10.7145 77.4717 10.5459L77.9912 11.3252C77.9274 11.512 77.8317 11.7103 77.7041 11.9199C77.5765 12.1296 77.4124 12.3255 77.2119 12.5078C77.0114 12.6901 76.7699 12.8405 76.4873 12.959C76.2048 13.0775 75.8766 13.1367 75.5029 13.1367C75.0244 13.1367 74.596 13.041 74.2178 12.8496C73.8395 12.6582 73.541 12.3962 73.3223 12.0635C73.1035 11.7308 72.9941 11.3525 72.9941 10.9287C72.9941 10.5368 73.0671 10.1904 73.2129 9.88965C73.3587 9.58887 73.5752 9.33594 73.8623 9.13086C74.1494 8.92122 74.5049 8.764 74.9287 8.65918C75.3571 8.5498 75.847 8.49512 76.3984 8.49512H77.6152ZM82.6123 7.11426V13H80.8076V5.60352H82.5166L82.6123 7.11426ZM84.8613 5.55566L84.834 7.2373C84.7337 7.21908 84.6198 7.2054 84.4922 7.19629C84.3691 7.18717 84.2529 7.18262 84.1436 7.18262C83.8656 7.18262 83.6217 7.22135 83.4121 7.29883C83.2025 7.37174 83.027 7.47884 82.8857 7.62012C82.749 7.76139 82.6442 7.93457 82.5713 8.13965C82.4984 8.34017 82.4574 8.56803 82.4482 8.82324L82.0586 8.77539C82.0586 8.30599 82.1064 7.87077 82.2021 7.46973C82.2979 7.06868 82.4368 6.71777 82.6191 6.41699C82.8014 6.11621 83.0293 5.88379 83.3027 5.71973C83.5807 5.55111 83.8997 5.4668 84.2598 5.4668C84.36 5.4668 84.4671 5.47591 84.5811 5.49414C84.6995 5.50781 84.793 5.52832 84.8613 5.55566ZM87.623 7.18262V13H85.8184V5.60352H87.5137L87.623 7.18262ZM87.3359 9.03516H86.8027C86.8073 8.4974 86.8802 8.00977 87.0215 7.57227C87.1628 7.13477 87.361 6.75879 87.6162 6.44434C87.876 6.12988 88.1836 5.88835 88.5391 5.71973C88.8945 5.55111 89.291 5.4668 89.7285 5.4668C90.084 5.4668 90.4053 5.51693 90.6924 5.61719C90.9795 5.71745 91.2256 5.87695 91.4307 6.0957C91.6403 6.31445 91.7998 6.60156 91.9092 6.95703C92.0231 7.30794 92.0801 7.74089 92.0801 8.25586V13H90.2617V8.24219C90.2617 7.90495 90.2116 7.63835 90.1113 7.44238C90.0156 7.24642 89.8743 7.10742 89.6875 7.02539C89.5052 6.94336 89.2796 6.90234 89.0107 6.90234C88.7327 6.90234 88.4889 6.95931 88.2793 7.07324C88.0742 7.18262 87.901 7.33529 87.7598 7.53125C87.623 7.72721 87.5182 7.9528 87.4453 8.20801C87.3724 8.46322 87.3359 8.73893 87.3359 9.03516ZM95.5869 5.60352V13H93.7754V5.60352H95.5869ZM93.6523 3.66895C93.6523 3.40007 93.7435 3.17676 93.9258 2.99902C94.1126 2.82129 94.3633 2.73242 94.6777 2.73242C94.9922 2.73242 95.2406 2.82129 95.4229 2.99902C95.6097 3.17676 95.7031 3.40007 95.7031 3.66895C95.7031 3.93327 95.6097 4.1543 95.4229 4.33203C95.2406 4.50977 94.9922 4.59863 94.6777 4.59863C94.3633 4.59863 94.1126 4.50977 93.9258 4.33203C93.7435 4.1543 93.6523 3.93327 93.6523 3.66895ZM99.0801 7.18262V13H97.2754V5.60352H98.9707L99.0801 7.18262ZM98.793 9.03516H98.2598C98.2643 8.4974 98.3372 8.00977 98.4785 7.57227C98.6198 7.13477 98.818 6.75879 99.0732 6.44434C99.333 6.12988 99.6406 5.88835 99.9961 5.71973C100.352 5.55111 100.748 5.4668 101.186 5.4668C101.541 5.4668 101.862 5.51693 102.149 5.61719C102.437 5.71745 102.683 5.87695 102.888 6.0957C103.097 6.31445 103.257 6.60156 103.366 6.95703C103.48 7.30794 103.537 7.74089 103.537 8.25586V13H101.719V8.24219C101.719 7.90495 101.669 7.63835 101.568 7.44238C101.473 7.24642 101.331 7.10742 101.145 7.02539C100.962 6.94336 100.737 6.90234 100.468 6.90234C100.19 6.90234 99.946 6.95931 99.7363 7.07324C99.5312 7.18262 99.3581 7.33529 99.2168 7.53125C99.0801 7.72721 98.9753 7.9528 98.9023 8.20801C98.8294 8.46322 98.793 8.73893 98.793 9.03516ZM109.833 5.60352H111.474V12.7744C111.474 13.4443 111.328 14.0117 111.036 14.4766C110.749 14.946 110.346 15.3014 109.826 15.543C109.307 15.7891 108.703 15.9121 108.015 15.9121C107.718 15.9121 107.397 15.8711 107.051 15.7891C106.709 15.707 106.379 15.5771 106.06 15.3994C105.745 15.2262 105.483 15.0007 105.273 14.7227L106.087 13.6562C106.333 13.9434 106.611 14.1598 106.921 14.3057C107.231 14.4561 107.566 14.5312 107.926 14.5312C108.29 14.5312 108.6 14.4629 108.855 14.3262C109.115 14.194 109.313 13.998 109.45 13.7383C109.591 13.4831 109.662 13.1686 109.662 12.7949V7.29199L109.833 5.60352ZM104.836 9.39062V9.24707C104.836 8.68197 104.904 8.16927 105.041 7.70898C105.178 7.24414 105.374 6.84538 105.629 6.5127C105.889 6.18001 106.201 5.92253 106.565 5.74023C106.935 5.55794 107.349 5.4668 107.81 5.4668C108.297 5.4668 108.707 5.55566 109.04 5.7334C109.377 5.91113 109.655 6.16406 109.874 6.49219C110.097 6.82031 110.271 7.20996 110.394 7.66113C110.521 8.10775 110.619 8.59993 110.688 9.1377V9.52734C110.624 10.0514 110.521 10.5322 110.38 10.9697C110.243 11.4072 110.061 11.79 109.833 12.1182C109.605 12.4417 109.323 12.6924 108.985 12.8701C108.648 13.0479 108.252 13.1367 107.796 13.1367C107.34 13.1367 106.93 13.0433 106.565 12.8564C106.201 12.6696 105.889 12.4076 105.629 12.0703C105.374 11.7331 105.178 11.3366 105.041 10.8809C104.904 10.4251 104.836 9.92839 104.836 9.39062ZM106.641 9.24707V9.39062C106.641 9.70964 106.673 10.0081 106.736 10.2861C106.8 10.5641 106.898 10.8102 107.03 11.0244C107.162 11.234 107.329 11.3981 107.529 11.5166C107.73 11.6351 107.969 11.6943 108.247 11.6943C108.621 11.6943 108.926 11.6169 109.163 11.4619C109.405 11.3024 109.587 11.0859 109.71 10.8125C109.838 10.5345 109.92 10.2223 109.956 9.87598V8.80273C109.933 8.5293 109.883 8.27637 109.806 8.04395C109.733 7.81152 109.63 7.611 109.498 7.44238C109.366 7.27376 109.197 7.1416 108.992 7.0459C108.787 6.9502 108.543 6.90234 108.261 6.90234C107.987 6.90234 107.748 6.96387 107.543 7.08691C107.338 7.2054 107.169 7.37174 107.037 7.58594C106.905 7.80013 106.805 8.0485 106.736 8.33105C106.673 8.61361 106.641 8.91895 106.641 9.24707ZM120.682 4.55762L117.845 13H115.855L119.574 3.04688H120.846L120.682 4.55762ZM123.054 13L120.203 4.55762L120.032 3.04688H121.311L125.05 13H123.054ZM122.924 9.30176V10.7852H117.585V9.30176H122.924ZM128.051 11.6328L129.773 5.60352H131.66L129.124 13H127.976L128.051 11.6328ZM126.793 5.60352L128.536 11.6465L128.598 13H127.442L124.899 5.60352H126.793ZM136.575 11.4277V8.0166C136.575 7.76595 136.532 7.54948 136.445 7.36719C136.359 7.1849 136.227 7.04362 136.049 6.94336C135.871 6.8431 135.646 6.79297 135.372 6.79297C135.131 6.79297 134.919 6.83398 134.736 6.91602C134.559 6.99805 134.422 7.11426 134.326 7.26465C134.23 7.41048 134.183 7.5791 134.183 7.77051H132.371C132.371 7.46517 132.444 7.17578 132.59 6.90234C132.736 6.62435 132.943 6.37826 133.212 6.16406C133.485 5.94531 133.811 5.77441 134.189 5.65137C134.572 5.52832 135.001 5.4668 135.475 5.4668C136.035 5.4668 136.534 5.5625 136.972 5.75391C137.414 5.94076 137.76 6.22331 138.011 6.60156C138.266 6.97982 138.394 7.45605 138.394 8.03027V11.2568C138.394 11.626 138.416 11.9427 138.462 12.207C138.512 12.4668 138.585 12.6924 138.681 12.8838V13H136.842C136.755 12.8132 136.689 12.5762 136.644 12.2891C136.598 11.9974 136.575 11.7103 136.575 11.4277ZM136.828 8.49512L136.842 9.56836H135.7C135.418 9.56836 135.169 9.59798 134.955 9.65723C134.741 9.71191 134.565 9.79395 134.429 9.90332C134.292 10.0081 134.189 10.1357 134.121 10.2861C134.053 10.432 134.019 10.5983 134.019 10.7852C134.019 10.9674 134.06 11.1315 134.142 11.2773C134.228 11.4232 134.351 11.5394 134.511 11.626C134.675 11.708 134.866 11.749 135.085 11.749C135.404 11.749 135.682 11.6852 135.919 11.5576C136.156 11.4255 136.34 11.266 136.473 11.0791C136.605 10.8923 136.675 10.7145 136.685 10.5459L137.204 11.3252C137.14 11.512 137.045 11.7103 136.917 11.9199C136.789 12.1296 136.625 12.3255 136.425 12.5078C136.224 12.6901 135.983 12.8405 135.7 12.959C135.418 13.0775 135.09 13.1367 134.716 13.1367C134.237 13.1367 133.809 13.041 133.431 12.8496C133.052 12.6582 132.754 12.3962 132.535 12.0635C132.316 11.7308 132.207 11.3525 132.207 10.9287C132.207 10.5368 132.28 10.1904 132.426 9.88965C132.572 9.58887 132.788 9.33594 133.075 9.13086C133.362 8.92122 133.718 8.764 134.142 8.65918C134.57 8.5498 135.06 8.49512 135.611 8.49512H136.828ZM141.791 7.18262V13H139.986V5.60352H141.682L141.791 7.18262ZM141.504 9.03516H140.971C140.975 8.4974 141.048 8.00977 141.189 7.57227C141.331 7.13477 141.529 6.75879 141.784 6.44434C142.044 6.12988 142.352 5.88835 142.707 5.71973C143.062 5.55111 143.459 5.4668 143.896 5.4668C144.252 5.4668 144.573 5.51693 144.86 5.61719C145.147 5.71745 145.394 5.87695 145.599 6.0957C145.808 6.31445 145.968 6.60156 146.077 6.95703C146.191 7.30794 146.248 7.74089 146.248 8.25586V13H144.43V8.24219C144.43 7.90495 144.38 7.63835 144.279 7.44238C144.184 7.24642 144.042 7.10742 143.855 7.02539C143.673 6.94336 143.448 6.90234 143.179 6.90234C142.901 6.90234 142.657 6.95931 142.447 7.07324C142.242 7.18262 142.069 7.33529 141.928 7.53125C141.791 7.72721 141.686 7.9528 141.613 8.20801C141.54 8.46322 141.504 8.73893 141.504 9.03516ZM150.876 11.7148C151.131 11.7148 151.359 11.6647 151.56 11.5645C151.76 11.4642 151.92 11.3229 152.038 11.1406C152.161 10.9583 152.227 10.7464 152.236 10.5049H153.938C153.929 11.0062 153.788 11.4551 153.515 11.8516C153.241 12.248 152.877 12.5625 152.421 12.7949C151.97 13.0228 151.464 13.1367 150.903 13.1367C150.334 13.1367 149.837 13.041 149.413 12.8496C148.989 12.6582 148.636 12.3916 148.354 12.0498C148.076 11.708 147.866 11.3115 147.725 10.8604C147.588 10.4092 147.52 9.92611 147.52 9.41113V9.19238C147.52 8.67741 147.588 8.19434 147.725 7.74316C147.866 7.29199 148.076 6.89551 148.354 6.55371C148.636 6.21191 148.989 5.94531 149.413 5.75391C149.837 5.5625 150.331 5.4668 150.896 5.4668C151.493 5.4668 152.018 5.58301 152.469 5.81543C152.924 6.04785 153.28 6.37598 153.535 6.7998C153.795 7.22363 153.929 7.72266 153.938 8.29688H152.236C152.227 8.03255 152.168 7.79557 152.059 7.58594C151.949 7.3763 151.794 7.20768 151.594 7.08008C151.393 6.95247 151.149 6.88867 150.862 6.88867C150.557 6.88867 150.302 6.95247 150.097 7.08008C149.896 7.20768 149.739 7.38314 149.625 7.60645C149.516 7.8252 149.438 8.07129 149.393 8.34473C149.352 8.61361 149.331 8.89616 149.331 9.19238V9.41113C149.331 9.71191 149.352 9.99902 149.393 10.2725C149.438 10.5459 149.516 10.792 149.625 11.0107C149.739 11.2249 149.896 11.3958 150.097 11.5234C150.302 11.651 150.562 11.7148 150.876 11.7148ZM150.145 13H151.491L151.416 13.3896C151.676 13.4352 151.913 13.5446 152.127 13.7178C152.341 13.891 152.448 14.1758 152.448 14.5723C152.448 14.8092 152.398 15.0234 152.298 15.2148C152.202 15.4062 152.056 15.5703 151.86 15.707C151.664 15.8483 151.421 15.9554 151.129 16.0283C150.842 16.1012 150.507 16.1377 150.124 16.1377L150.076 15.126C150.24 15.126 150.386 15.1055 150.514 15.0645C150.646 15.0234 150.748 14.9574 150.821 14.8662C150.899 14.7796 150.938 14.668 150.938 14.5312C150.938 14.3945 150.903 14.2874 150.835 14.21C150.767 14.137 150.657 14.0801 150.507 14.0391C150.361 14.0026 150.17 13.9775 149.933 13.9639L150.145 13ZM159.216 11.4277V8.0166C159.216 7.76595 159.173 7.54948 159.086 7.36719C158.999 7.1849 158.867 7.04362 158.689 6.94336C158.512 6.8431 158.286 6.79297 158.013 6.79297C157.771 6.79297 157.559 6.83398 157.377 6.91602C157.199 6.99805 157.062 7.11426 156.967 7.26465C156.871 7.41048 156.823 7.5791 156.823 7.77051H155.012C155.012 7.46517 155.085 7.17578 155.23 6.90234C155.376 6.62435 155.584 6.37826 155.853 6.16406C156.126 5.94531 156.452 5.77441 156.83 5.65137C157.213 5.52832 157.641 5.4668 158.115 5.4668C158.676 5.4668 159.175 5.5625 159.612 5.75391C160.054 5.94076 160.401 6.22331 160.651 6.60156C160.907 6.97982 161.034 7.45605 161.034 8.03027V11.2568C161.034 11.626 161.057 11.9427 161.103 12.207C161.153 12.4668 161.226 12.6924 161.321 12.8838V13H159.482C159.396 12.8132 159.33 12.5762 159.284 12.2891C159.239 11.9974 159.216 11.7103 159.216 11.4277ZM159.469 8.49512L159.482 9.56836H158.341C158.058 9.56836 157.81 9.59798 157.596 9.65723C157.382 9.71191 157.206 9.79395 157.069 9.90332C156.933 10.0081 156.83 10.1357 156.762 10.2861C156.693 10.432 156.659 10.5983 156.659 10.7852C156.659 10.9674 156.7 11.1315 156.782 11.2773C156.869 11.4232 156.992 11.5394 157.151 11.626C157.315 11.708 157.507 11.749 157.726 11.749C158.045 11.749 158.323 11.6852 158.56 11.5576C158.797 11.4255 158.981 11.266 159.113 11.0791C159.245 10.8923 159.316 10.7145 159.325 10.5459L159.845 11.3252C159.781 11.512 159.685 11.7103 159.558 11.9199C159.43 12.1296 159.266 12.3255 159.065 12.5078C158.865 12.6901 158.623 12.8405 158.341 12.959C158.058 13.0775 157.73 13.1367 157.356 13.1367C156.878 13.1367 156.45 13.041 156.071 12.8496C155.693 12.6582 155.395 12.3962 155.176 12.0635C154.957 11.7308 154.848 11.3525 154.848 10.9287C154.848 10.5368 154.921 10.1904 155.066 9.88965C155.212 9.58887 155.429 9.33594 155.716 9.13086C156.003 8.92122 156.358 8.764 156.782 8.65918C157.211 8.5498 157.701 8.49512 158.252 8.49512H159.469ZM167.098 11.4277V2.5H168.916V13H167.275L167.098 11.4277ZM162.347 9.39062V9.24707C162.347 8.68197 162.41 8.16927 162.538 7.70898C162.67 7.24414 162.862 6.84538 163.112 6.5127C163.363 6.18001 163.666 5.92253 164.021 5.74023C164.382 5.55794 164.789 5.4668 165.245 5.4668C165.687 5.4668 166.072 5.55566 166.4 5.7334C166.733 5.91113 167.016 6.16406 167.248 6.49219C167.485 6.82031 167.674 7.20996 167.815 7.66113C167.957 8.10775 168.059 8.59993 168.123 9.1377V9.52734C168.059 10.0514 167.957 10.5322 167.815 10.9697C167.674 11.4072 167.485 11.79 167.248 12.1182C167.016 12.4417 166.733 12.6924 166.4 12.8701C166.068 13.0479 165.678 13.1367 165.231 13.1367C164.78 13.1367 164.375 13.0433 164.015 12.8564C163.659 12.6696 163.356 12.4076 163.105 12.0703C162.859 11.7331 162.67 11.3366 162.538 10.8809C162.41 10.4251 162.347 9.92839 162.347 9.39062ZM164.158 9.24707V9.39062C164.158 9.70964 164.186 10.0081 164.24 10.2861C164.295 10.5641 164.384 10.8102 164.507 11.0244C164.63 11.234 164.787 11.3981 164.979 11.5166C165.174 11.6351 165.411 11.6943 165.689 11.6943C166.045 11.6943 166.337 11.6169 166.564 11.4619C166.797 11.3024 166.977 11.0859 167.104 10.8125C167.232 10.5345 167.314 10.2223 167.351 9.87598V8.80273C167.332 8.5293 167.285 8.27637 167.207 8.04395C167.134 7.81152 167.029 7.611 166.893 7.44238C166.76 7.27376 166.596 7.1416 166.4 7.0459C166.204 6.9502 165.972 6.90234 165.703 6.90234C165.425 6.90234 165.188 6.96387 164.992 7.08691C164.796 7.2054 164.637 7.37174 164.514 7.58594C164.391 7.80013 164.299 8.0485 164.24 8.33105C164.186 8.61361 164.158 8.91895 164.158 9.24707ZM170.229 9.37695V9.2334C170.229 8.69108 170.306 8.19206 170.461 7.73633C170.616 7.27604 170.841 6.87728 171.138 6.54004C171.434 6.2028 171.796 5.94076 172.225 5.75391C172.653 5.5625 173.141 5.4668 173.688 5.4668C174.243 5.4668 174.736 5.5625 175.164 5.75391C175.597 5.94076 175.962 6.2028 176.258 6.54004C176.554 6.87728 176.78 7.27604 176.935 7.73633C177.09 8.19206 177.167 8.69108 177.167 9.2334V9.37695C177.167 9.91471 177.09 10.4137 176.935 10.874C176.78 11.3298 176.554 11.7285 176.258 12.0703C175.962 12.4076 175.599 12.6696 175.171 12.8564C174.743 13.0433 174.253 13.1367 173.701 13.1367C173.154 13.1367 172.664 13.0433 172.231 12.8564C171.799 12.6696 171.434 12.4076 171.138 12.0703C170.841 11.7285 170.616 11.3298 170.461 10.874C170.306 10.4137 170.229 9.91471 170.229 9.37695ZM172.033 9.2334V9.37695C172.033 9.70052 172.065 10.0036 172.129 10.2861C172.193 10.5687 172.291 10.8171 172.423 11.0312C172.555 11.2454 172.726 11.4141 172.936 11.5371C173.15 11.6556 173.405 11.7148 173.701 11.7148C173.993 11.7148 174.243 11.6556 174.453 11.5371C174.663 11.4141 174.834 11.2454 174.966 11.0312C175.103 10.8171 175.203 10.5687 175.267 10.2861C175.33 10.0036 175.362 9.70052 175.362 9.37695V9.2334C175.362 8.91439 175.33 8.61589 175.267 8.33789C175.203 8.05534 175.103 7.80697 174.966 7.59277C174.834 7.37402 174.66 7.20312 174.446 7.08008C174.237 6.95247 173.984 6.88867 173.688 6.88867C173.396 6.88867 173.145 6.95247 172.936 7.08008C172.726 7.20312 172.555 7.37402 172.423 7.59277C172.291 7.80697 172.193 8.05534 172.129 8.33789C172.065 8.61589 172.033 8.91439 172.033 9.2334ZM185.562 8.02344V9.45215H181.822V8.02344H185.562ZM2.83008 19.0469V29H0.950195V19.0469H2.83008ZM6.84277 23.3467V24.8301H2.33789V23.3467H6.84277ZM7.36914 19.0469V20.5303H2.33789V19.0469H7.36914ZM12.3525 27.4277V24.0166C12.3525 23.766 12.3092 23.5495 12.2227 23.3672C12.1361 23.1849 12.0039 23.0436 11.8262 22.9434C11.6484 22.8431 11.4229 22.793 11.1494 22.793C10.9079 22.793 10.696 22.834 10.5137 22.916C10.3359 22.998 10.1992 23.1143 10.1035 23.2646C10.0078 23.4105 9.95996 23.5791 9.95996 23.7705H8.14844C8.14844 23.4652 8.22135 23.1758 8.36719 22.9023C8.51302 22.6243 8.72038 22.3783 8.98926 22.1641C9.2627 21.9453 9.58854 21.7744 9.9668 21.6514C10.3496 21.5283 10.778 21.4668 11.252 21.4668C11.8125 21.4668 12.3115 21.5625 12.749 21.7539C13.1911 21.9408 13.5374 22.2233 13.7881 22.6016C14.0433 22.9798 14.1709 23.4561 14.1709 24.0303V27.2568C14.1709 27.626 14.1937 27.9427 14.2393 28.207C14.2894 28.4668 14.3623 28.6924 14.458 28.8838V29H12.6191C12.5326 28.8132 12.4665 28.5762 12.4209 28.2891C12.3753 27.9974 12.3525 27.7103 12.3525 27.4277ZM12.6055 24.4951L12.6191 25.5684H11.4775C11.195 25.5684 10.9466 25.598 10.7324 25.6572C10.5182 25.7119 10.3428 25.7939 10.2061 25.9033C10.0693 26.0081 9.9668 26.1357 9.89844 26.2861C9.83008 26.432 9.7959 26.5983 9.7959 26.7852C9.7959 26.9674 9.83691 27.1315 9.91895 27.2773C10.0055 27.4232 10.1286 27.5394 10.2881 27.626C10.4521 27.708 10.6436 27.749 10.8623 27.749C11.1813 27.749 11.4593 27.6852 11.6963 27.5576C11.9333 27.4255 12.1178 27.266 12.25 27.0791C12.3822 26.8923 12.4528 26.7145 12.4619 26.5459L12.9814 27.3252C12.9176 27.512 12.8219 27.7103 12.6943 27.9199C12.5667 28.1296 12.4027 28.3255 12.2021 28.5078C12.0016 28.6901 11.7601 28.8405 11.4775 28.959C11.195 29.0775 10.8669 29.1367 10.4932 29.1367C10.0146 29.1367 9.58626 29.041 9.20801 28.8496C8.82975 28.6582 8.53125 28.3962 8.3125 28.0635C8.09375 27.7308 7.98438 27.3525 7.98438 26.9287C7.98438 26.5368 8.05729 26.1904 8.20312 25.8896C8.34896 25.5889 8.56543 25.3359 8.85254 25.1309C9.13965 24.9212 9.49512 24.764 9.91895 24.6592C10.3473 24.5498 10.8372 24.4951 11.3887 24.4951H12.6055ZM19.8652 26.9766C19.8652 26.8216 19.8242 26.6826 19.7422 26.5596C19.6602 26.4365 19.5052 26.3249 19.2773 26.2246C19.054 26.1198 18.7259 26.0218 18.293 25.9307C17.9102 25.8486 17.557 25.7461 17.2334 25.623C16.9098 25.5 16.6318 25.3519 16.3994 25.1787C16.167 25.001 15.9847 24.7936 15.8525 24.5566C15.7249 24.3151 15.6611 24.0371 15.6611 23.7227C15.6611 23.4173 15.7272 23.1302 15.8594 22.8613C15.9915 22.5879 16.1829 22.3486 16.4336 22.1436C16.6842 21.9339 16.9896 21.7699 17.3496 21.6514C17.7096 21.5283 18.1152 21.4668 18.5664 21.4668C19.1953 21.4668 19.7354 21.5693 20.1865 21.7744C20.6423 21.9795 20.9909 22.262 21.2324 22.6221C21.474 22.9775 21.5947 23.3786 21.5947 23.8252H19.79C19.79 23.6292 19.7445 23.4515 19.6533 23.292C19.5667 23.1325 19.4323 23.0049 19.25 22.9092C19.0677 22.8089 18.8376 22.7588 18.5596 22.7588C18.3089 22.7588 18.097 22.7998 17.9238 22.8818C17.7552 22.9639 17.6276 23.071 17.541 23.2031C17.4544 23.3353 17.4111 23.4811 17.4111 23.6406C17.4111 23.7591 17.4339 23.8662 17.4795 23.9619C17.5296 24.0531 17.6094 24.1374 17.7188 24.2148C17.8281 24.2923 17.9762 24.363 18.1631 24.4268C18.3545 24.4906 18.5892 24.5521 18.8672 24.6113C19.4186 24.7207 19.8994 24.8665 20.3096 25.0488C20.7243 25.2266 21.0479 25.4635 21.2803 25.7598C21.5127 26.056 21.6289 26.4342 21.6289 26.8945C21.6289 27.2227 21.5583 27.5234 21.417 27.7969C21.2757 28.0658 21.0706 28.3005 20.8018 28.501C20.5329 28.7015 20.2116 28.8587 19.8379 28.9727C19.4642 29.082 19.0426 29.1367 18.5732 29.1367C17.8942 29.1367 17.32 29.016 16.8506 28.7744C16.3812 28.5283 16.0257 28.2184 15.7842 27.8447C15.5426 27.4665 15.4219 27.0745 15.4219 26.6689H17.1514C17.165 26.9561 17.2425 27.1862 17.3838 27.3594C17.5251 27.5326 17.7028 27.6579 17.917 27.7354C18.1357 27.8083 18.3659 27.8447 18.6074 27.8447C18.8809 27.8447 19.111 27.8083 19.2979 27.7354C19.4847 27.6579 19.626 27.5553 19.7217 27.4277C19.8174 27.2956 19.8652 27.1452 19.8652 26.9766ZM26.5029 21.6035V22.9023H22.2646V21.6035H26.5029ZM23.3994 19.7852H25.2109V26.8672C25.2109 27.0859 25.2406 27.2546 25.2998 27.373C25.359 27.4915 25.4479 27.5713 25.5664 27.6123C25.6849 27.6533 25.8262 27.6738 25.9902 27.6738C26.1087 27.6738 26.2181 27.667 26.3184 27.6533C26.4186 27.6396 26.5029 27.626 26.5713 27.6123L26.5781 28.9658C26.4277 29.016 26.2568 29.057 26.0654 29.0889C25.8786 29.1208 25.6667 29.1367 25.4297 29.1367C25.0241 29.1367 24.6686 29.0684 24.3633 28.9316C24.0579 28.7904 23.821 28.5648 23.6523 28.2549C23.4837 27.9404 23.3994 27.5257 23.3994 27.0107V19.7852ZM35.2598 19.0469V29H33.3867V19.0469H35.2598ZM38.3496 19.0469V20.5303H30.3311V19.0469H38.3496ZM40.79 23.1143V29H38.9854V21.6035H40.6943L40.79 23.1143ZM43.0391 21.5557L43.0117 23.2373C42.9115 23.2191 42.7975 23.2054 42.6699 23.1963C42.5469 23.1872 42.4307 23.1826 42.3213 23.1826C42.0433 23.1826 41.7995 23.2214 41.5898 23.2988C41.3802 23.3717 41.2048 23.4788 41.0635 23.6201C40.9268 23.7614 40.8219 23.9346 40.749 24.1396C40.6761 24.3402 40.6351 24.568 40.626 24.8232L40.2363 24.7754C40.2363 24.306 40.2842 23.8708 40.3799 23.4697C40.4756 23.0687 40.6146 22.7178 40.7969 22.417C40.9792 22.1162 41.207 21.8838 41.4805 21.7197C41.7585 21.5511 42.0775 21.4668 42.4375 21.4668C42.5378 21.4668 42.6449 21.4759 42.7588 21.4941C42.8773 21.5078 42.9707 21.5283 43.0391 21.5557ZM47.8721 27.4277V24.0166C47.8721 23.766 47.8288 23.5495 47.7422 23.3672C47.6556 23.1849 47.5234 23.0436 47.3457 22.9434C47.168 22.8431 46.9424 22.793 46.6689 22.793C46.4274 22.793 46.2155 22.834 46.0332 22.916C45.8555 22.998 45.7188 23.1143 45.623 23.2646C45.5273 23.4105 45.4795 23.5791 45.4795 23.7705H43.668C43.668 23.4652 43.7409 23.1758 43.8867 22.9023C44.0326 22.6243 44.2399 22.3783 44.5088 22.1641C44.7822 21.9453 45.1081 21.7744 45.4863 21.6514C45.8691 21.5283 46.2975 21.4668 46.7715 21.4668C47.332 21.4668 47.8311 21.5625 48.2686 21.7539C48.7106 21.9408 49.057 22.2233 49.3076 22.6016C49.5628 22.9798 49.6904 23.4561 49.6904 24.0303V27.2568C49.6904 27.626 49.7132 27.9427 49.7588 28.207C49.8089 28.4668 49.8818 28.6924 49.9775 28.8838V29H48.1387C48.0521 28.8132 47.986 28.5762 47.9404 28.2891C47.8949 27.9974 47.8721 27.7103 47.8721 27.4277ZM48.125 24.4951L48.1387 25.5684H46.9971C46.7145 25.5684 46.4661 25.598 46.252 25.6572C46.0378 25.7119 45.8623 25.7939 45.7256 25.9033C45.5889 26.0081 45.4863 26.1357 45.418 26.2861C45.3496 26.432 45.3154 26.5983 45.3154 26.7852C45.3154 26.9674 45.3564 27.1315 45.4385 27.2773C45.5251 27.4232 45.6481 27.5394 45.8076 27.626C45.9717 27.708 46.1631 27.749 46.3818 27.749C46.7008 27.749 46.9788 27.6852 47.2158 27.5576C47.4528 27.4255 47.6374 27.266 47.7695 27.0791C47.9017 26.8923 47.9723 26.7145 47.9814 26.5459L48.501 27.3252C48.4372 27.512 48.3415 27.7103 48.2139 27.9199C48.0863 28.1296 47.9222 28.3255 47.7217 28.5078C47.5212 28.6901 47.2796 28.8405 46.9971 28.959C46.7145 29.0775 46.3864 29.1367 46.0127 29.1367C45.5342 29.1367 45.1058 29.041 44.7275 28.8496C44.3493 28.6582 44.0508 28.3962 43.832 28.0635C43.6133 27.7308 43.5039 27.3525 43.5039 26.9287C43.5039 26.5368 43.5768 26.1904 43.7227 25.8896C43.8685 25.5889 44.085 25.3359 44.3721 25.1309C44.6592 24.9212 45.0146 24.764 45.4385 24.6592C45.8669 24.5498 46.3568 24.4951 46.9082 24.4951H48.125ZM54.3525 27.7148C54.6077 27.7148 54.8356 27.6647 55.0361 27.5645C55.2367 27.4642 55.3962 27.3229 55.5146 27.1406C55.6377 26.9583 55.7038 26.7464 55.7129 26.5049H57.415C57.4059 27.0062 57.2646 27.4551 56.9912 27.8516C56.7178 28.248 56.3532 28.5625 55.8975 28.7949C55.4463 29.0228 54.9404 29.1367 54.3799 29.1367C53.8102 29.1367 53.3135 29.041 52.8896 28.8496C52.4658 28.6582 52.1126 28.3916 51.8301 28.0498C51.5521 27.708 51.3424 27.3115 51.2012 26.8604C51.0645 26.4092 50.9961 25.9261 50.9961 25.4111V25.1924C50.9961 24.6774 51.0645 24.1943 51.2012 23.7432C51.3424 23.292 51.5521 22.8955 51.8301 22.5537C52.1126 22.2119 52.4658 21.9453 52.8896 21.7539C53.3135 21.5625 53.8079 21.4668 54.373 21.4668C54.9701 21.4668 55.4941 21.583 55.9453 21.8154C56.401 22.0479 56.7565 22.376 57.0117 22.7998C57.2715 23.2236 57.4059 23.7227 57.415 24.2969H55.7129C55.7038 24.0326 55.6445 23.7956 55.5352 23.5859C55.4258 23.3763 55.2708 23.2077 55.0703 23.0801C54.8698 22.9525 54.626 22.8887 54.3389 22.8887C54.0335 22.8887 53.7783 22.9525 53.5732 23.0801C53.3727 23.2077 53.2155 23.3831 53.1016 23.6064C52.9922 23.8252 52.9147 24.0713 52.8691 24.3447C52.8281 24.6136 52.8076 24.8962 52.8076 25.1924V25.4111C52.8076 25.7119 52.8281 25.999 52.8691 26.2725C52.9147 26.5459 52.9922 26.792 53.1016 27.0107C53.2155 27.2249 53.3727 27.3958 53.5732 27.5234C53.7783 27.651 54.0381 27.7148 54.3525 27.7148ZM60.4229 18.4932V29H58.6182V18.4932H60.4229ZM65.0576 21.6035L61.8379 25.2197L60.0947 26.9902L59.5205 25.5889L60.8672 23.8936L62.877 21.6035H65.0576ZM63.2119 29L60.9219 25.5547L62.125 24.3857L65.3037 29H63.2119Z" fill="black"/>
<path d="M3.29883 51H1.51758L1.5293 50.0801H3.29883C3.9082 50.0801 4.41602 49.9531 4.82227 49.6992C5.22852 49.4414 5.5332 49.082 5.73633 48.6211C5.94336 48.1562 6.04688 47.6133 6.04688 46.9922V46.4707C6.04688 45.9824 5.98828 45.5488 5.87109 45.1699C5.75391 44.7871 5.58203 44.4648 5.35547 44.2031C5.12891 43.9375 4.85156 43.7363 4.52344 43.5996C4.19922 43.4629 3.82617 43.3945 3.4043 43.3945H1.48242V42.4688H3.4043C3.96289 42.4688 4.47266 42.5625 4.93359 42.75C5.39453 42.9336 5.79102 43.2012 6.12305 43.5527C6.45898 43.9004 6.7168 44.3223 6.89648 44.8184C7.07617 45.3105 7.16602 45.8652 7.16602 46.4824V46.9922C7.16602 47.6094 7.07617 48.166 6.89648 48.6621C6.7168 49.1543 6.45703 49.5742 6.11719 49.9219C5.78125 50.2695 5.375 50.5371 4.89844 50.7246C4.42578 50.9082 3.89258 51 3.29883 51ZM2.12109 42.4688V51H0.990234V42.4688H2.12109ZM9.87891 44.6602V51H8.78906V44.6602H9.87891ZM8.70703 42.9785C8.70703 42.8027 8.75977 42.6543 8.86523 42.5332C8.97461 42.4121 9.13477 42.3516 9.3457 42.3516C9.55273 42.3516 9.71094 42.4121 9.82031 42.5332C9.93359 42.6543 9.99023 42.8027 9.99023 42.9785C9.99023 43.1465 9.93359 43.291 9.82031 43.4121C9.71094 43.5293 9.55273 43.5879 9.3457 43.5879C9.13477 43.5879 8.97461 43.5293 8.86523 43.4121C8.75977 43.291 8.70703 43.1465 8.70703 42.9785ZM15.7266 44.6602H16.7109V50.8652C16.7109 51.4238 16.5977 51.9004 16.3711 52.2949C16.1445 52.6895 15.8281 52.9883 15.4219 53.1914C15.0195 53.3984 14.5547 53.502 14.0273 53.502C13.8086 53.502 13.5508 53.4668 13.2539 53.3965C12.9609 53.3301 12.6719 53.2148 12.3867 53.0508C12.1055 52.8906 11.8691 52.6738 11.6777 52.4004L12.2461 51.7559C12.5117 52.0762 12.7891 52.2988 13.0781 52.4238C13.3711 52.5488 13.6602 52.6113 13.9453 52.6113C14.2891 52.6113 14.5859 52.5469 14.8359 52.418C15.0859 52.2891 15.2793 52.0977 15.416 51.8438C15.5566 51.5938 15.627 51.2852 15.627 50.918V46.0547L15.7266 44.6602ZM11.3613 47.9004V47.7773C11.3613 47.293 11.418 46.8535 11.5312 46.459C11.6484 46.0605 11.8145 45.7188 12.0293 45.4336C12.248 45.1484 12.5117 44.9297 12.8203 44.7773C13.1289 44.6211 13.4766 44.543 13.8633 44.543C14.2617 44.543 14.6094 44.6133 14.9062 44.7539C15.207 44.8906 15.4609 45.0918 15.668 45.3574C15.8789 45.6191 16.0449 45.9355 16.166 46.3066C16.2871 46.6777 16.3711 47.0977 16.418 47.5664V48.1055C16.375 48.5703 16.291 48.9883 16.166 49.3594C16.0449 49.7305 15.8789 50.0469 15.668 50.3086C15.4609 50.5703 15.207 50.7715 14.9062 50.9121C14.6055 51.0488 14.2539 51.1172 13.8516 51.1172C13.4727 51.1172 13.1289 51.0371 12.8203 50.877C12.5156 50.7168 12.2539 50.4922 12.0352 50.2031C11.8164 49.9141 11.6484 49.5742 11.5312 49.1836C11.418 48.7891 11.3613 48.3613 11.3613 47.9004ZM12.4453 47.7773V47.9004C12.4453 48.2168 12.4766 48.5137 12.5391 48.791C12.6055 49.0684 12.7051 49.3125 12.8379 49.5234C12.9746 49.7344 13.1484 49.9004 13.3594 50.0215C13.5703 50.1387 13.8223 50.1973 14.1152 50.1973C14.4746 50.1973 14.7715 50.1211 15.0059 49.9688C15.2402 49.8164 15.4258 49.6152 15.5625 49.3652C15.7031 49.1152 15.8125 48.8438 15.8906 48.5508V47.1387C15.8477 46.9238 15.7812 46.7168 15.6914 46.5176C15.6055 46.3145 15.4922 46.1348 15.3516 45.9785C15.2148 45.8184 15.0449 45.6914 14.8418 45.5977C14.6387 45.5039 14.4004 45.457 14.127 45.457C13.8301 45.457 13.5742 45.5195 13.3594 45.6445C13.1484 45.7656 12.9746 45.9336 12.8379 46.1484C12.7051 46.3594 12.6055 46.6055 12.5391 46.8867C12.4766 47.1641 12.4453 47.4609 12.4453 47.7773ZM19.5352 44.6602V51H18.4453V44.6602H19.5352ZM18.3633 42.9785C18.3633 42.8027 18.416 42.6543 18.5215 42.5332C18.6309 42.4121 18.791 42.3516 19.002 42.3516C19.209 42.3516 19.3672 42.4121 19.4766 42.5332C19.5898 42.6543 19.6465 42.8027 19.6465 42.9785C19.6465 43.1465 19.5898 43.291 19.4766 43.4121C19.3672 43.5293 19.209 43.5879 19.002 43.5879C18.791 43.5879 18.6309 43.5293 18.5215 43.4121C18.416 43.291 18.3633 43.1465 18.3633 42.9785ZM23.9297 44.6602V45.4922H20.502V44.6602H23.9297ZM21.6621 43.1191H22.7461V49.4297C22.7461 49.6445 22.7793 49.8066 22.8457 49.916C22.9121 50.0254 22.998 50.0977 23.1035 50.1328C23.209 50.168 23.3223 50.1855 23.4434 50.1855C23.5332 50.1855 23.627 50.1777 23.7246 50.1621C23.8262 50.1426 23.9023 50.127 23.9531 50.1152L23.959 51C23.873 51.0273 23.7598 51.0527 23.6191 51.0762C23.4824 51.1035 23.3164 51.1172 23.1211 51.1172C22.8555 51.1172 22.6113 51.0645 22.3887 50.959C22.166 50.8535 21.9883 50.6777 21.8555 50.4316C21.7266 50.1816 21.6621 49.8457 21.6621 49.4238V43.1191ZM28.9395 49.916V46.6523C28.9395 46.4023 28.8887 46.1855 28.7871 46.002C28.6895 45.8145 28.541 45.6699 28.3418 45.5684C28.1426 45.4668 27.8965 45.416 27.6035 45.416C27.3301 45.416 27.0898 45.4629 26.8828 45.5566C26.6797 45.6504 26.5195 45.7734 26.4023 45.9258C26.2891 46.0781 26.2324 46.2422 26.2324 46.418H25.1484C25.1484 46.1914 25.207 45.9668 25.3242 45.7441C25.4414 45.5215 25.6094 45.3203 25.8281 45.1406C26.0508 44.957 26.3164 44.8125 26.625 44.707C26.9375 44.5977 27.2852 44.543 27.668 44.543C28.1289 44.543 28.5352 44.6211 28.8867 44.7773C29.2422 44.9336 29.5195 45.1699 29.7188 45.4863C29.9219 45.7988 30.0234 46.1914 30.0234 46.6641V49.6172C30.0234 49.8281 30.041 50.0527 30.0762 50.291C30.1152 50.5293 30.1719 50.7344 30.2461 50.9062V51H29.1152C29.0605 50.875 29.0176 50.709 28.9863 50.502C28.9551 50.291 28.9395 50.0957 28.9395 49.916ZM29.127 47.1562L29.1387 47.918H28.043C27.7344 47.918 27.459 47.9434 27.2168 47.9941C26.9746 48.041 26.7715 48.1133 26.6074 48.2109C26.4434 48.3086 26.3184 48.4316 26.2324 48.5801C26.1465 48.7246 26.1035 48.8945 26.1035 49.0898C26.1035 49.2891 26.1484 49.4707 26.2383 49.6348C26.3281 49.7988 26.4629 49.9297 26.6426 50.0273C26.8262 50.1211 27.0508 50.168 27.3164 50.168C27.6484 50.168 27.9414 50.0977 28.1953 49.957C28.4492 49.8164 28.6504 49.6445 28.7988 49.4414C28.9512 49.2383 29.0332 49.041 29.0449 48.8496L29.5078 49.3711C29.4805 49.5352 29.4062 49.7168 29.2852 49.916C29.1641 50.1152 29.002 50.3066 28.7988 50.4902C28.5996 50.6699 28.3613 50.8203 28.084 50.9414C27.8105 51.0586 27.502 51.1172 27.1582 51.1172C26.7285 51.1172 26.3516 51.0332 26.0273 50.8652C25.707 50.6973 25.457 50.4727 25.2773 50.1914C25.1016 49.9062 25.0137 49.5879 25.0137 49.2363C25.0137 48.8965 25.0801 48.5977 25.2129 48.3398C25.3457 48.0781 25.5371 47.8613 25.7871 47.6895C26.0371 47.5137 26.3379 47.3809 26.6895 47.291C27.041 47.2012 27.4336 47.1562 27.8672 47.1562H29.127ZM32.9062 42V51H31.8164V42H32.9062ZM36.0234 42.4688V51H34.8926V42.4688H36.0234ZM39 46.0137V51H37.916V44.6602H38.9414L39 46.0137ZM38.7422 47.5898L38.291 47.5723C38.2949 47.1387 38.3594 46.7383 38.4844 46.3711C38.6094 46 38.7852 45.6777 39.0117 45.4043C39.2383 45.1309 39.5078 44.9199 39.8203 44.7715C40.1367 44.6191 40.4863 44.543 40.8691 44.543C41.1816 44.543 41.4629 44.5859 41.7129 44.6719C41.9629 44.7539 42.1758 44.8867 42.3516 45.0703C42.5312 45.2539 42.668 45.4922 42.7617 45.7852C42.8555 46.0742 42.9023 46.4277 42.9023 46.8457V51H41.8125V46.834C41.8125 46.502 41.7637 46.2363 41.666 46.0371C41.5684 45.834 41.4258 45.6875 41.2383 45.5977C41.0508 45.5039 40.8203 45.457 40.5469 45.457C40.2773 45.457 40.0312 45.5137 39.8086 45.627C39.5898 45.7402 39.4004 45.8965 39.2402 46.0957C39.084 46.2949 38.9609 46.5234 38.8711 46.7812C38.7852 47.0352 38.7422 47.3047 38.7422 47.5898ZM45.6328 46.0137V51H44.5488V44.6602H45.5742L45.6328 46.0137ZM45.375 47.5898L44.9238 47.5723C44.9277 47.1387 44.9922 46.7383 45.1172 46.3711C45.2422 46 45.418 45.6777 45.6445 45.4043C45.8711 45.1309 46.1406 44.9199 46.4531 44.7715C46.7695 44.6191 47.1191 44.543 47.502 44.543C47.8145 44.543 48.0957 44.5859 48.3457 44.6719C48.5957 44.7539 48.8086 44.8867 48.9844 45.0703C49.1641 45.2539 49.3008 45.4922 49.3945 45.7852C49.4883 46.0742 49.5352 46.4277 49.5352 46.8457V51H48.4453V46.834C48.4453 46.502 48.3965 46.2363 48.2988 46.0371C48.2012 45.834 48.0586 45.6875 47.8711 45.5977C47.6836 45.5039 47.4531 45.457 47.1797 45.457C46.9102 45.457 46.6641 45.5137 46.4414 45.627C46.2227 45.7402 46.0332 45.8965 45.873 46.0957C45.7168 46.2949 45.5938 46.5234 45.5039 46.7812C45.418 47.0352 45.375 47.3047 45.375 47.5898ZM50.8945 47.9004V47.7656C50.8945 47.3086 50.9609 46.8848 51.0938 46.4941C51.2266 46.0996 51.418 45.7578 51.668 45.4688C51.918 45.1758 52.2207 44.9492 52.5762 44.7891C52.9316 44.625 53.3301 44.543 53.7715 44.543C54.2168 44.543 54.6172 44.625 54.9727 44.7891C55.332 44.9492 55.6367 45.1758 55.8867 45.4688C56.1406 45.7578 56.334 46.0996 56.4668 46.4941C56.5996 46.8848 56.666 47.3086 56.666 47.7656V47.9004C56.666 48.3574 56.5996 48.7812 56.4668 49.1719C56.334 49.5625 56.1406 49.9043 55.8867 50.1973C55.6367 50.4863 55.334 50.7129 54.9785 50.877C54.627 51.0371 54.2285 51.1172 53.7832 51.1172C53.3379 51.1172 52.9375 51.0371 52.582 50.877C52.2266 50.7129 51.9219 50.4863 51.668 50.1973C51.418 49.9043 51.2266 49.5625 51.0938 49.1719C50.9609 48.7812 50.8945 48.3574 50.8945 47.9004ZM51.9785 47.7656V47.9004C51.9785 48.2168 52.0156 48.5156 52.0898 48.7969C52.1641 49.0742 52.2754 49.3203 52.4238 49.5352C52.5762 49.75 52.7656 49.9199 52.9922 50.0449C53.2188 50.166 53.4824 50.2266 53.7832 50.2266C54.0801 50.2266 54.3398 50.166 54.5625 50.0449C54.7891 49.9199 54.9766 49.75 55.125 49.5352C55.2734 49.3203 55.3848 49.0742 55.459 48.7969C55.5371 48.5156 55.5762 48.2168 55.5762 47.9004V47.7656C55.5762 47.4531 55.5371 47.1582 55.459 46.8809C55.3848 46.5996 55.2715 46.3516 55.1191 46.1367C54.9707 45.918 54.7832 45.7461 54.5566 45.6211C54.334 45.4961 54.0723 45.4336 53.7715 45.4336C53.4746 45.4336 53.2129 45.4961 52.9863 45.6211C52.7637 45.7461 52.5762 45.918 52.4238 46.1367C52.2754 46.3516 52.1641 46.5996 52.0898 46.8809C52.0156 47.1582 51.9785 47.4531 51.9785 47.7656ZM59.8594 50.0215L61.5938 44.6602H62.7012L60.4219 51H59.6953L59.8594 50.0215ZM58.4121 44.6602L60.1992 50.0508L60.3223 51H59.5957L57.2988 44.6602H58.4121ZM67.3887 49.916V46.6523C67.3887 46.4023 67.3379 46.1855 67.2363 46.002C67.1387 45.8145 66.9902 45.6699 66.791 45.5684C66.5918 45.4668 66.3457 45.416 66.0527 45.416C65.7793 45.416 65.5391 45.4629 65.332 45.5566C65.1289 45.6504 64.9688 45.7734 64.8516 45.9258C64.7383 46.0781 64.6816 46.2422 64.6816 46.418H63.5977C63.5977 46.1914 63.6562 45.9668 63.7734 45.7441C63.8906 45.5215 64.0586 45.3203 64.2773 45.1406C64.5 44.957 64.7656 44.8125 65.0742 44.707C65.3867 44.5977 65.7344 44.543 66.1172 44.543C66.5781 44.543 66.9844 44.6211 67.3359 44.7773C67.6914 44.9336 67.9688 45.1699 68.168 45.4863C68.3711 45.7988 68.4727 46.1914 68.4727 46.6641V49.6172C68.4727 49.8281 68.4902 50.0527 68.5254 50.291C68.5645 50.5293 68.6211 50.7344 68.6953 50.9062V51H67.5645C67.5098 50.875 67.4668 50.709 67.4355 50.502C67.4043 50.291 67.3887 50.0957 67.3887 49.916ZM67.5762 47.1562L67.5879 47.918H66.4922C66.1836 47.918 65.9082 47.9434 65.666 47.9941C65.4238 48.041 65.2207 48.1133 65.0566 48.2109C64.8926 48.3086 64.7676 48.4316 64.6816 48.5801C64.5957 48.7246 64.5527 48.8945 64.5527 49.0898C64.5527 49.2891 64.5977 49.4707 64.6875 49.6348C64.7773 49.7988 64.9121 49.9297 65.0918 50.0273C65.2754 50.1211 65.5 50.168 65.7656 50.168C66.0977 50.168 66.3906 50.0977 66.6445 49.957C66.8984 49.8164 67.0996 49.6445 67.248 49.4414C67.4004 49.2383 67.4824 49.041 67.4941 48.8496L67.957 49.3711C67.9297 49.5352 67.8555 49.7168 67.7344 49.916C67.6133 50.1152 67.4512 50.3066 67.248 50.4902C67.0488 50.6699 66.8105 50.8203 66.5332 50.9414C66.2598 51.0586 65.9512 51.1172 65.6074 51.1172C65.1777 51.1172 64.8008 51.0332 64.4766 50.8652C64.1562 50.6973 63.9062 50.4727 63.7266 50.1914C63.5508 49.9062 63.4629 49.5879 63.4629 49.2363C63.4629 48.8965 63.5293 48.5977 63.6621 48.3398C63.7949 48.0781 63.9863 47.8613 64.2363 47.6895C64.4863 47.5137 64.7871 47.3809 65.1387 47.291C65.4902 47.2012 65.8828 47.1562 66.3164 47.1562H67.5762ZM72.832 44.6602V45.4922H69.4043V44.6602H72.832ZM70.5645 43.1191H71.6484V49.4297C71.6484 49.6445 71.6816 49.8066 71.748 49.916C71.8145 50.0254 71.9004 50.0977 72.0059 50.1328C72.1113 50.168 72.2246 50.1855 72.3457 50.1855C72.4355 50.1855 72.5293 50.1777 72.627 50.1621C72.7285 50.1426 72.8047 50.127 72.8555 50.1152L72.8613 51C72.7754 51.0273 72.6621 51.0527 72.5215 51.0762C72.3848 51.1035 72.2188 51.1172 72.0234 51.1172C71.7578 51.1172 71.5137 51.0645 71.291 50.959C71.0684 50.8535 70.8906 50.6777 70.7578 50.4316C70.6289 50.1816 70.5645 49.8457 70.5645 49.4238V43.1191ZM75.2812 44.6602V51H74.1914V44.6602H75.2812ZM74.1094 42.9785C74.1094 42.8027 74.1621 42.6543 74.2676 42.5332C74.377 42.4121 74.5371 42.3516 74.748 42.3516C74.9551 42.3516 75.1133 42.4121 75.2227 42.5332C75.3359 42.6543 75.3926 42.8027 75.3926 42.9785C75.3926 43.1465 75.3359 43.291 75.2227 43.4121C75.1133 43.5293 74.9551 43.5879 74.748 43.5879C74.5371 43.5879 74.377 43.5293 74.2676 43.4121C74.1621 43.291 74.1094 43.1465 74.1094 42.9785ZM76.7344 47.9004V47.7656C76.7344 47.3086 76.8008 46.8848 76.9336 46.4941C77.0664 46.0996 77.2578 45.7578 77.5078 45.4688C77.7578 45.1758 78.0605 44.9492 78.416 44.7891C78.7715 44.625 79.1699 44.543 79.6113 44.543C80.0566 44.543 80.457 44.625 80.8125 44.7891C81.1719 44.9492 81.4766 45.1758 81.7266 45.4688C81.9805 45.7578 82.1738 46.0996 82.3066 46.4941C82.4395 46.8848 82.5059 47.3086 82.5059 47.7656V47.9004C82.5059 48.3574 82.4395 48.7812 82.3066 49.1719C82.1738 49.5625 81.9805 49.9043 81.7266 50.1973C81.4766 50.4863 81.1738 50.7129 80.8184 50.877C80.4668 51.0371 80.0684 51.1172 79.623 51.1172C79.1777 51.1172 78.7773 51.0371 78.4219 50.877C78.0664 50.7129 77.7617 50.4863 77.5078 50.1973C77.2578 49.9043 77.0664 49.5625 76.9336 49.1719C76.8008 48.7812 76.7344 48.3574 76.7344 47.9004ZM77.8184 47.7656V47.9004C77.8184 48.2168 77.8555 48.5156 77.9297 48.7969C78.0039 49.0742 78.1152 49.3203 78.2637 49.5352C78.416 49.75 78.6055 49.9199 78.832 50.0449C79.0586 50.166 79.3223 50.2266 79.623 50.2266C79.9199 50.2266 80.1797 50.166 80.4023 50.0449C80.6289 49.9199 80.8164 49.75 80.9648 49.5352C81.1133 49.3203 81.2246 49.0742 81.2988 48.7969C81.377 48.5156 81.416 48.2168 81.416 47.9004V47.7656C81.416 47.4531 81.377 47.1582 81.2988 46.8809C81.2246 46.5996 81.1113 46.3516 80.959 46.1367C80.8105 45.918 80.623 45.7461 80.3965 45.6211C80.1738 45.4961 79.9121 45.4336 79.6113 45.4336C79.3145 45.4336 79.0527 45.4961 78.8262 45.6211C78.6035 45.7461 78.416 45.918 78.2637 46.1367C78.1152 46.3516 78.0039 46.5996 77.9297 46.8809C77.8555 47.1582 77.8184 47.4531 77.8184 47.7656ZM84.9492 46.0137V51H83.8652V44.6602H84.8906L84.9492 46.0137ZM84.6914 47.5898L84.2402 47.5723C84.2441 47.1387 84.3086 46.7383 84.4336 46.3711C84.5586 46 84.7344 45.6777 84.9609 45.4043C85.1875 45.1309 85.457 44.9199 85.7695 44.7715C86.0859 44.6191 86.4355 44.543 86.8184 44.543C87.1309 44.543 87.4121 44.5859 87.6621 44.6719C87.9121 44.7539 88.125 44.8867 88.3008 45.0703C88.4805 45.2539 88.6172 45.4922 88.7109 45.7852C88.8047 46.0742 88.8516 46.4277 88.8516 46.8457V51H87.7617V46.834C87.7617 46.502 87.7129 46.2363 87.6152 46.0371C87.5176 45.834 87.375 45.6875 87.1875 45.5977C87 45.5039 86.7695 45.457 86.4961 45.457C86.2266 45.457 85.9805 45.5137 85.7578 45.627C85.5391 45.7402 85.3496 45.8965 85.1895 46.0957C85.0332 46.2949 84.9102 46.5234 84.8203 46.7812C84.7344 47.0352 84.6914 47.3047 84.6914 47.5898ZM97.2305 46.4648V47.0039C97.2305 47.6445 97.1504 48.2188 96.9902 48.7266C96.8301 49.2344 96.5996 49.666 96.2988 50.0215C95.998 50.377 95.6367 50.6484 95.2148 50.8359C94.7969 51.0234 94.3281 51.1172 93.8086 51.1172C93.3047 51.1172 92.8418 51.0234 92.4199 50.8359C92.002 50.6484 91.6387 50.377 91.3301 50.0215C91.0254 49.666 90.7891 49.2344 90.6211 48.7266C90.4531 48.2188 90.3691 47.6445 90.3691 47.0039V46.4648C90.3691 45.8242 90.4512 45.252 90.6152 44.748C90.7832 44.2402 91.0195 43.8086 91.3242 43.4531C91.6289 43.0938 91.9902 42.8203 92.4082 42.6328C92.8301 42.4453 93.293 42.3516 93.7969 42.3516C94.3164 42.3516 94.7852 42.4453 95.2031 42.6328C95.625 42.8203 95.9863 43.0938 96.2871 43.4531C96.5918 43.8086 96.8242 44.2402 96.9844 44.748C97.1484 45.252 97.2305 45.8242 97.2305 46.4648ZM96.1113 47.0039V46.4531C96.1113 45.9453 96.0586 45.4961 95.9531 45.1055C95.8516 44.7148 95.7012 44.3867 95.502 44.1211C95.3027 43.8555 95.0586 43.6543 94.7695 43.5176C94.4844 43.3809 94.1602 43.3125 93.7969 43.3125C93.4453 43.3125 93.127 43.3809 92.8418 43.5176C92.5605 43.6543 92.3184 43.8555 92.1152 44.1211C91.916 44.3867 91.7617 44.7148 91.6523 45.1055C91.543 45.4961 91.4883 45.9453 91.4883 46.4531V47.0039C91.4883 47.5156 91.543 47.9688 91.6523 48.3633C91.7617 48.7539 91.918 49.084 92.1211 49.3535C92.3281 49.6191 92.5723 49.8203 92.8535 49.957C93.1387 50.0938 93.457 50.1621 93.8086 50.1621C94.1758 50.1621 94.502 50.0938 94.7871 49.957C95.0723 49.8203 95.3125 49.6191 95.5078 49.3535C95.707 49.084 95.8574 48.7539 95.959 48.3633C96.0605 47.9688 96.1113 47.5156 96.1113 47.0039ZM99.8438 46.0137V51H98.7598V44.6602H99.7852L99.8438 46.0137ZM99.5859 47.5898L99.1348 47.5723C99.1387 47.1387 99.2031 46.7383 99.3281 46.3711C99.4531 46 99.6289 45.6777 99.8555 45.4043C100.082 45.1309 100.352 44.9199 100.664 44.7715C100.98 44.6191 101.33 44.543 101.713 44.543C102.025 44.543 102.307 44.5859 102.557 44.6719C102.807 44.7539 103.02 44.8867 103.195 45.0703C103.375 45.2539 103.512 45.4922 103.605 45.7852C103.699 46.0742 103.746 46.4277 103.746 46.8457V51H102.656V46.834C102.656 46.502 102.607 46.2363 102.51 46.0371C102.412 45.834 102.27 45.6875 102.082 45.5977C101.895 45.5039 101.664 45.457 101.391 45.457C101.121 45.457 100.875 45.5137 100.652 45.627C100.434 45.7402 100.244 45.8965 100.084 46.0957C99.9277 46.2949 99.8047 46.5234 99.7148 46.7812C99.6289 47.0352 99.5859 47.3047 99.5859 47.5898ZM108.023 51.1172C107.582 51.1172 107.182 51.043 106.822 50.8945C106.467 50.7422 106.16 50.5293 105.902 50.2559C105.648 49.9824 105.453 49.6582 105.316 49.2832C105.18 48.9082 105.111 48.498 105.111 48.0527V47.8066C105.111 47.291 105.188 46.832 105.34 46.4297C105.492 46.0234 105.699 45.6797 105.961 45.3984C106.223 45.1172 106.52 44.9043 106.852 44.7598C107.184 44.6152 107.527 44.543 107.883 44.543C108.336 44.543 108.727 44.6211 109.055 44.7773C109.387 44.9336 109.658 45.1523 109.869 45.4336C110.08 45.7109 110.236 46.0391 110.338 46.418C110.439 46.793 110.49 47.2031 110.49 47.6484V48.1348H105.756V47.25H109.406V47.168C109.391 46.8867 109.332 46.6133 109.23 46.3477C109.133 46.082 108.977 45.8633 108.762 45.6914C108.547 45.5195 108.254 45.4336 107.883 45.4336C107.637 45.4336 107.41 45.4863 107.203 45.5918C106.996 45.6934 106.818 45.8457 106.67 46.0488C106.521 46.252 106.406 46.5 106.324 46.793C106.242 47.0859 106.201 47.4238 106.201 47.8066V48.0527C106.201 48.3535 106.242 48.6367 106.324 48.9023C106.41 49.1641 106.533 49.3945 106.693 49.5938C106.857 49.793 107.055 49.9492 107.285 50.0625C107.52 50.1758 107.785 50.2324 108.082 50.2324C108.465 50.2324 108.789 50.1543 109.055 49.998C109.32 49.8418 109.553 49.6328 109.752 49.3711L110.408 49.8926C110.271 50.0996 110.098 50.2969 109.887 50.4844C109.676 50.6719 109.416 50.8242 109.107 50.9414C108.803 51.0586 108.441 51.1172 108.023 51.1172Z" fill="#515151"/>
<path d="M4.27148 63.4219V72H3.1875V64.7754L1.00195 65.5723V64.5938L4.10156 63.4219H4.27148ZM8.56055 70.7109V71.584C8.56055 71.9395 8.4707 72.3145 8.29102 72.709C8.11133 73.1074 7.85938 73.4395 7.53516 73.7051L6.91992 73.2773C7.04492 73.1055 7.15039 72.9297 7.23633 72.75C7.32227 72.5742 7.38672 72.3906 7.42969 72.1992C7.47656 72.0117 7.5 71.8125 7.5 71.6016V70.7109H8.56055ZM15.3398 63.4688V64.0781L11.8066 72H10.6641L14.1914 64.3594H9.57422V63.4688H15.3398ZM20.748 66.9199V72H19.6582V65.6602H20.6895L20.748 66.9199ZM20.5254 68.5898L20.0215 68.5723C20.0254 68.1387 20.082 67.7383 20.1914 67.3711C20.3008 67 20.4629 66.6777 20.6777 66.4043C20.8926 66.1309 21.1602 65.9199 21.4805 65.7715C21.8008 65.6191 22.1719 65.543 22.5938 65.543C22.8906 65.543 23.1641 65.5859 23.4141 65.6719C23.6641 65.7539 23.8809 65.8848 24.0645 66.0645C24.248 66.2441 24.3906 66.4746 24.4922 66.7559C24.5938 67.0371 24.6445 67.377 24.6445 67.7754V72H23.5605V67.8281C23.5605 67.4961 23.5039 67.2305 23.3906 67.0312C23.2812 66.832 23.125 66.6875 22.9219 66.5977C22.7188 66.5039 22.4805 66.457 22.207 66.457C21.8867 66.457 21.6191 66.5137 21.4043 66.627C21.1895 66.7402 21.0176 66.8965 20.8887 67.0957C20.7598 67.2949 20.666 67.5234 20.6074 67.7812C20.5527 68.0352 20.5254 68.3047 20.5254 68.5898ZM24.6328 67.9922L23.9062 68.2148C23.9102 67.8672 23.9668 67.5332 24.0762 67.2129C24.1895 66.8926 24.3516 66.6074 24.5625 66.3574C24.7773 66.1074 25.041 65.9102 25.3535 65.7656C25.666 65.6172 26.0234 65.543 26.4258 65.543C26.7656 65.543 27.0664 65.5879 27.3281 65.6777C27.5938 65.7676 27.8164 65.9062 27.9961 66.0938C28.1797 66.2773 28.3184 66.5137 28.4121 66.8027C28.5059 67.0918 28.5527 67.4355 28.5527 67.834V72H27.4629V67.8223C27.4629 67.4668 27.4062 67.1914 27.293 66.9961C27.1836 66.7969 27.0273 66.6582 26.8242 66.5801C26.625 66.498 26.3867 66.457 26.1094 66.457C25.8711 66.457 25.6602 66.498 25.4766 66.5801C25.293 66.6621 25.1387 66.7754 25.0137 66.9199C24.8887 67.0605 24.793 67.2227 24.7266 67.4062C24.6641 67.5898 24.6328 67.7852 24.6328 67.9922ZM31.3711 65.6602V72H30.2812V65.6602H31.3711ZM30.1992 63.9785C30.1992 63.8027 30.252 63.6543 30.3574 63.5332C30.4668 63.4121 30.627 63.3516 30.8379 63.3516C31.0449 63.3516 31.2031 63.4121 31.3125 63.5332C31.4258 63.6543 31.4824 63.8027 31.4824 63.9785C31.4824 64.1465 31.4258 64.291 31.3125 64.4121C31.2031 64.5293 31.0449 64.5879 30.8379 64.5879C30.627 64.5879 30.4668 64.5293 30.3574 64.4121C30.252 64.291 30.1992 64.1465 30.1992 63.9785ZM34.2891 63V72H33.1992V63H34.2891ZM40.9336 71.0215L42.668 65.6602H43.7754L41.4961 72H40.7695L40.9336 71.0215ZM39.4863 65.6602L41.2734 71.0508L41.3965 72H40.6699L38.373 65.6602H39.4863ZM45.9961 65.6602V72H44.9062V65.6602H45.9961ZM44.8242 63.9785C44.8242 63.8027 44.877 63.6543 44.9824 63.5332C45.0918 63.4121 45.252 63.3516 45.4629 63.3516C45.6699 63.3516 45.8281 63.4121 45.9375 63.5332C46.0508 63.6543 46.1074 63.8027 46.1074 63.9785C46.1074 64.1465 46.0508 64.291 45.9375 64.4121C45.8281 64.5293 45.6699 64.5879 45.4629 64.5879C45.252 64.5879 45.0918 64.5293 44.9824 64.4121C44.877 64.291 44.8242 64.1465 44.8242 63.9785ZM51.4277 70.3184C51.4277 70.1621 51.3926 70.0176 51.3223 69.8848C51.2559 69.748 51.1172 69.625 50.9062 69.5156C50.6992 69.4023 50.3867 69.3047 49.9688 69.2227C49.6172 69.1484 49.2988 69.0605 49.0137 68.959C48.7324 68.8574 48.4922 68.7344 48.293 68.5898C48.0977 68.4453 47.9473 68.2754 47.8418 68.0801C47.7363 67.8848 47.6836 67.6562 47.6836 67.3945C47.6836 67.1445 47.7383 66.9082 47.8477 66.6855C47.9609 66.4629 48.1191 66.2656 48.3223 66.0938C48.5293 65.9219 48.7773 65.7871 49.0664 65.6895C49.3555 65.5918 49.6777 65.543 50.0332 65.543C50.541 65.543 50.9746 65.6328 51.334 65.8125C51.6934 65.9922 51.9688 66.2324 52.1602 66.5332C52.3516 66.8301 52.4473 67.1602 52.4473 67.5234H51.3633C51.3633 67.3477 51.3105 67.1777 51.2051 67.0137C51.1035 66.8457 50.9531 66.707 50.7539 66.5977C50.5586 66.4883 50.3184 66.4336 50.0332 66.4336C49.7324 66.4336 49.4883 66.4805 49.3008 66.5742C49.1172 66.6641 48.9824 66.7793 48.8965 66.9199C48.8145 67.0605 48.7734 67.209 48.7734 67.3652C48.7734 67.4824 48.793 67.5879 48.832 67.6816C48.875 67.7715 48.9492 67.8555 49.0547 67.9336C49.1602 68.0078 49.3086 68.0781 49.5 68.1445C49.6914 68.2109 49.9355 68.2773 50.2324 68.3438C50.752 68.4609 51.1797 68.6016 51.5156 68.7656C51.8516 68.9297 52.1016 69.1309 52.2656 69.3691C52.4297 69.6074 52.5117 69.8965 52.5117 70.2363C52.5117 70.5137 52.4531 70.7676 52.3359 70.998C52.2227 71.2285 52.0566 71.4277 51.8379 71.5957C51.623 71.7598 51.3652 71.8887 51.0645 71.9824C50.7676 72.0723 50.4336 72.1172 50.0625 72.1172C49.5039 72.1172 49.0312 72.0176 48.6445 71.8184C48.2578 71.6191 47.9648 71.3613 47.7656 71.0449C47.5664 70.7285 47.4668 70.3945 47.4668 70.043H48.5566C48.5723 70.3398 48.6582 70.5762 48.8145 70.752C48.9707 70.9238 49.1621 71.0469 49.3887 71.1211C49.6152 71.1914 49.8398 71.2266 50.0625 71.2266C50.3594 71.2266 50.6074 71.1875 50.8066 71.1094C51.0098 71.0312 51.1641 70.9238 51.2695 70.7871C51.375 70.6504 51.4277 70.4941 51.4277 70.3184ZM57.8145 70.5352V65.6602H58.9043V72H57.8672L57.8145 70.5352ZM58.0195 69.1992L58.4707 69.1875C58.4707 69.6094 58.4258 70 58.3359 70.3594C58.25 70.7148 58.1094 71.0234 57.9141 71.2852C57.7188 71.5469 57.4629 71.752 57.1465 71.9004C56.8301 72.0449 56.4453 72.1172 55.9922 72.1172C55.6836 72.1172 55.4004 72.0723 55.1426 71.9824C54.8887 71.8926 54.6699 71.7539 54.4863 71.5664C54.3027 71.3789 54.1602 71.1348 54.0586 70.834C53.9609 70.5332 53.9121 70.1719 53.9121 69.75V65.6602H54.9961V69.7617C54.9961 70.0469 55.0273 70.2832 55.0898 70.4707C55.1562 70.6543 55.2441 70.8008 55.3535 70.9102C55.4668 71.0156 55.5918 71.0898 55.7285 71.1328C55.8691 71.1758 56.0137 71.1973 56.1621 71.1973C56.623 71.1973 56.9883 71.1094 57.2578 70.9336C57.5273 70.7539 57.7207 70.5137 57.8379 70.2129C57.959 69.9082 58.0195 69.5703 58.0195 69.1992ZM64.2949 70.916V67.6523C64.2949 67.4023 64.2441 67.1855 64.1426 67.002C64.0449 66.8145 63.8965 66.6699 63.6973 66.5684C63.498 66.4668 63.252 66.416 62.959 66.416C62.6855 66.416 62.4453 66.4629 62.2383 66.5566C62.0352 66.6504 61.875 66.7734 61.7578 66.9258C61.6445 67.0781 61.5879 67.2422 61.5879 67.418H60.5039C60.5039 67.1914 60.5625 66.9668 60.6797 66.7441C60.7969 66.5215 60.9648 66.3203 61.1836 66.1406C61.4062 65.957 61.6719 65.8125 61.9805 65.707C62.293 65.5977 62.6406 65.543 63.0234 65.543C63.4844 65.543 63.8906 65.6211 64.2422 65.7773C64.5977 65.9336 64.875 66.1699 65.0742 66.4863C65.2773 66.7988 65.3789 67.1914 65.3789 67.6641V70.6172C65.3789 70.8281 65.3965 71.0527 65.4316 71.291C65.4707 71.5293 65.5273 71.7344 65.6016 71.9062V72H64.4707C64.416 71.875 64.373 71.709 64.3418 71.502C64.3105 71.291 64.2949 71.0957 64.2949 70.916ZM64.4824 68.1562L64.4941 68.918H63.3984C63.0898 68.918 62.8145 68.9434 62.5723 68.9941C62.3301 69.041 62.127 69.1133 61.9629 69.2109C61.7988 69.3086 61.6738 69.4316 61.5879 69.5801C61.502 69.7246 61.459 69.8945 61.459 70.0898C61.459 70.2891 61.5039 70.4707 61.5938 70.6348C61.6836 70.7988 61.8184 70.9297 61.998 71.0273C62.1816 71.1211 62.4062 71.168 62.6719 71.168C63.0039 71.168 63.2969 71.0977 63.5508 70.957C63.8047 70.8164 64.0059 70.6445 64.1543 70.4414C64.3066 70.2383 64.3887 70.041 64.4004 69.8496L64.8633 70.3711C64.8359 70.5352 64.7617 70.7168 64.6406 70.916C64.5195 71.1152 64.3574 71.3066 64.1543 71.4902C63.9551 71.6699 63.7168 71.8203 63.4395 71.9414C63.166 72.0586 62.8574 72.1172 62.5137 72.1172C62.084 72.1172 61.707 72.0332 61.3828 71.8652C61.0625 71.6973 60.8125 71.4727 60.6328 71.1914C60.457 70.9062 60.3691 70.5879 60.3691 70.2363C60.3691 69.8965 60.4355 69.5977 60.5684 69.3398C60.7012 69.0781 60.8926 68.8613 61.1426 68.6895C61.3926 68.5137 61.6934 68.3809 62.0449 68.291C62.3965 68.2012 62.7891 68.1562 63.2227 68.1562H64.4824ZM68.2617 63V72H67.1719V63H68.2617ZM71.1797 65.6602V72H70.0898V65.6602H71.1797ZM70.0078 63.9785C70.0078 63.8027 70.0605 63.6543 70.166 63.5332C70.2754 63.4121 70.4355 63.3516 70.6465 63.3516C70.8535 63.3516 71.0117 63.4121 71.1211 63.5332C71.2344 63.6543 71.291 63.8027 71.291 63.9785C71.291 64.1465 71.2344 64.291 71.1211 64.4121C71.0117 64.5293 70.8535 64.5879 70.6465 64.5879C70.4355 64.5879 70.2754 64.5293 70.166 64.4121C70.0605 64.291 70.0078 64.1465 70.0078 63.9785ZM77.6426 71.1094V72H73.0312V71.1094H77.6426ZM77.4727 66.4277L73.2773 72H72.6152V71.2031L76.7812 65.6602H77.4727V66.4277ZM76.9922 65.6602V66.5566H72.6621V65.6602H76.9922ZM82.6113 70.916V67.6523C82.6113 67.4023 82.5605 67.1855 82.459 67.002C82.3613 66.8145 82.2129 66.6699 82.0137 66.5684C81.8145 66.4668 81.5684 66.416 81.2754 66.416C81.002 66.416 80.7617 66.4629 80.5547 66.5566C80.3516 66.6504 80.1914 66.7734 80.0742 66.9258C79.9609 67.0781 79.9043 67.2422 79.9043 67.418H78.8203C78.8203 67.1914 78.8789 66.9668 78.9961 66.7441C79.1133 66.5215 79.2812 66.3203 79.5 66.1406C79.7227 65.957 79.9883 65.8125 80.2969 65.707C80.6094 65.5977 80.957 65.543 81.3398 65.543C81.8008 65.543 82.207 65.6211 82.5586 65.7773C82.9141 65.9336 83.1914 66.1699 83.3906 66.4863C83.5938 66.7988 83.6953 67.1914 83.6953 67.6641V70.6172C83.6953 70.8281 83.7129 71.0527 83.748 71.291C83.7871 71.5293 83.8438 71.7344 83.918 71.9062V72H82.7871C82.7324 71.875 82.6895 71.709 82.6582 71.502C82.627 71.291 82.6113 71.0957 82.6113 70.916ZM82.7988 68.1562L82.8105 68.918H81.7148C81.4062 68.918 81.1309 68.9434 80.8887 68.9941C80.6465 69.041 80.4434 69.1133 80.2793 69.2109C80.1152 69.3086 79.9902 69.4316 79.9043 69.5801C79.8184 69.7246 79.7754 69.8945 79.7754 70.0898C79.7754 70.2891 79.8203 70.4707 79.9102 70.6348C80 70.7988 80.1348 70.9297 80.3145 71.0273C80.498 71.1211 80.7227 71.168 80.9883 71.168C81.3203 71.168 81.6133 71.0977 81.8672 70.957C82.1211 70.8164 82.3223 70.6445 82.4707 70.4414C82.623 70.2383 82.7051 70.041 82.7168 69.8496L83.1797 70.3711C83.1523 70.5352 83.0781 70.7168 82.957 70.916C82.8359 71.1152 82.6738 71.3066 82.4707 71.4902C82.2715 71.6699 82.0332 71.8203 81.7559 71.9414C81.4824 72.0586 81.1738 72.1172 80.8301 72.1172C80.4004 72.1172 80.0234 72.0332 79.6992 71.8652C79.3789 71.6973 79.1289 71.4727 78.9492 71.1914C78.7734 70.9062 78.6855 70.5879 78.6855 70.2363C78.6855 69.8965 78.752 69.5977 78.8848 69.3398C79.0176 69.0781 79.209 68.8613 79.459 68.6895C79.709 68.5137 80.0098 68.3809 80.3613 68.291C80.7129 68.2012 81.1055 68.1562 81.5391 68.1562H82.7988ZM87.9375 71.2266C88.1953 71.2266 88.4336 71.1738 88.6523 71.0684C88.8711 70.9629 89.0508 70.8184 89.1914 70.6348C89.332 70.4473 89.4121 70.2344 89.4316 69.9961H90.4629C90.4434 70.3711 90.3164 70.7207 90.082 71.0449C89.8516 71.3652 89.5488 71.625 89.1738 71.8242C88.7988 72.0195 88.3867 72.1172 87.9375 72.1172C87.4609 72.1172 87.0449 72.0332 86.6895 71.8652C86.3379 71.6973 86.0449 71.4668 85.8105 71.1738C85.5801 70.8809 85.4062 70.5449 85.2891 70.166C85.1758 69.7832 85.1191 69.3789 85.1191 68.9531V68.707C85.1191 68.2812 85.1758 67.8789 85.2891 67.5C85.4062 67.1172 85.5801 66.7793 85.8105 66.4863C86.0449 66.1934 86.3379 65.9629 86.6895 65.7949C87.0449 65.627 87.4609 65.543 87.9375 65.543C88.4336 65.543 88.8672 65.6445 89.2383 65.8477C89.6094 66.0469 89.9004 66.3203 90.1113 66.668C90.3262 67.0117 90.4434 67.4023 90.4629 67.8398H89.4316C89.4121 67.5781 89.3379 67.3418 89.209 67.1309C89.084 66.9199 88.9121 66.752 88.6934 66.627C88.4785 66.498 88.2266 66.4336 87.9375 66.4336C87.6055 66.4336 87.3262 66.5 87.0996 66.6328C86.877 66.7617 86.6992 66.9375 86.5664 67.1602C86.4375 67.3789 86.3438 67.623 86.2852 67.8926C86.2305 68.1582 86.2031 68.4297 86.2031 68.707V68.9531C86.2031 69.2305 86.2305 69.5039 86.2852 69.7734C86.3398 70.043 86.4316 70.2871 86.5605 70.5059C86.6934 70.7246 86.8711 70.9004 87.0938 71.0332C87.3203 71.1621 87.6016 71.2266 87.9375 71.2266ZM87.3398 72.0586H88.1191L88.0488 72.3691C88.2754 72.4082 88.4805 72.502 88.6641 72.6504C88.8516 72.7988 88.9453 73.043 88.9453 73.3828C88.9453 73.5664 88.9062 73.7324 88.8281 73.8809C88.7539 74.0332 88.6426 74.1621 88.4941 74.2676C88.3457 74.377 88.1602 74.4609 87.9375 74.5195C87.7188 74.5781 87.4629 74.6074 87.1699 74.6074L87.1289 73.9805C87.3086 73.9805 87.4707 73.9609 87.6152 73.9219C87.7637 73.8828 87.8809 73.8203 87.9668 73.7344C88.0566 73.6484 88.1016 73.5371 88.1016 73.4004C88.1016 73.2715 88.0684 73.1699 88.002 73.0957C87.9355 73.0215 87.832 72.9648 87.6914 72.9258C87.5547 72.8906 87.377 72.8652 87.1582 72.8496L87.3398 72.0586ZM91.3945 68.9004V68.7656C91.3945 68.3086 91.4609 67.8848 91.5938 67.4941C91.7266 67.0996 91.918 66.7578 92.168 66.4688C92.418 66.1758 92.7207 65.9492 93.0762 65.7891C93.4316 65.625 93.8301 65.543 94.2715 65.543C94.7168 65.543 95.1172 65.625 95.4727 65.7891C95.832 65.9492 96.1367 66.1758 96.3867 66.4688C96.6406 66.7578 96.834 67.0996 96.9668 67.4941C97.0996 67.8848 97.166 68.3086 97.166 68.7656V68.9004C97.166 69.3574 97.0996 69.7812 96.9668 70.1719C96.834 70.5625 96.6406 70.9043 96.3867 71.1973C96.1367 71.4863 95.834 71.7129 95.4785 71.877C95.127 72.0371 94.7285 72.1172 94.2832 72.1172C93.8379 72.1172 93.4375 72.0371 93.082 71.877C92.7266 71.7129 92.4219 71.4863 92.168 71.1973C91.918 70.9043 91.7266 70.5625 91.5938 70.1719C91.4609 69.7812 91.3945 69.3574 91.3945 68.9004ZM92.4785 68.7656V68.9004C92.4785 69.2168 92.5156 69.5156 92.5898 69.7969C92.6641 70.0742 92.7754 70.3203 92.9238 70.5352C93.0762 70.75 93.2656 70.9199 93.4922 71.0449C93.7188 71.166 93.9824 71.2266 94.2832 71.2266C94.5801 71.2266 94.8398 71.166 95.0625 71.0449C95.2891 70.9199 95.4766 70.75 95.625 70.5352C95.7734 70.3203 95.8848 70.0742 95.959 69.7969C96.0371 69.5156 96.0762 69.2168 96.0762 68.9004V68.7656C96.0762 68.4531 96.0371 68.1582 95.959 67.8809C95.8848 67.5996 95.7715 67.3516 95.6191 67.1367C95.4707 66.918 95.2832 66.7461 95.0566 66.6211C94.834 66.4961 94.5723 66.4336 94.2715 66.4336C93.9746 66.4336 93.7129 66.4961 93.4863 66.6211C93.2637 66.7461 93.0762 66.918 92.9238 67.1367C92.7754 67.3516 92.6641 67.5996 92.5898 67.8809C92.5156 68.1582 92.4785 68.4531 92.4785 68.7656ZM95.5723 63.1172L96.3047 63.1816C96.3047 63.4668 96.248 63.7168 96.1348 63.9316C96.0215 64.1465 95.8691 64.3125 95.6777 64.4297C95.4902 64.5469 95.2773 64.6055 95.0391 64.6055C94.8398 64.6055 94.6758 64.5781 94.5469 64.5234C94.418 64.4648 94.3027 64.4004 94.2012 64.3301C94.0996 64.2559 93.9922 64.1914 93.8789 64.1367C93.7695 64.0781 93.6328 64.0488 93.4688 64.0488C93.3047 64.0488 93.166 64.1113 93.0527 64.2363C92.9434 64.3613 92.8887 64.5156 92.8887 64.6992L92.1562 64.6641C92.1562 64.3789 92.2109 64.1289 92.3203 63.9141C92.4336 63.6953 92.5859 63.5254 92.7773 63.4043C92.9688 63.2793 93.1816 63.2168 93.416 63.2168C93.584 63.2168 93.7305 63.2461 93.8555 63.3047C93.9844 63.3594 94.1055 63.4238 94.2188 63.498C94.332 63.5684 94.4492 63.6328 94.5703 63.6914C94.6914 63.7461 94.8301 63.7734 94.9863 63.7734C95.1504 63.7734 95.2891 63.7109 95.4023 63.5859C95.5156 63.457 95.5723 63.3008 95.5723 63.1172ZM101.156 72.1172C100.715 72.1172 100.314 72.043 99.9551 71.8945C99.5996 71.7422 99.293 71.5293 99.0352 71.2559C98.7812 70.9824 98.5859 70.6582 98.4492 70.2832C98.3125 69.9082 98.2441 69.498 98.2441 69.0527V68.8066C98.2441 68.291 98.3203 67.832 98.4727 67.4297C98.625 67.0234 98.832 66.6797 99.0938 66.3984C99.3555 66.1172 99.6523 65.9043 99.9844 65.7598C100.316 65.6152 100.66 65.543 101.016 65.543C101.469 65.543 101.859 65.6211 102.188 65.7773C102.52 65.9336 102.791 66.1523 103.002 66.4336C103.213 66.7109 103.369 67.0391 103.471 67.418C103.572 67.793 103.623 68.2031 103.623 68.6484V69.1348H98.8887V68.25H102.539V68.168C102.523 67.8867 102.465 67.6133 102.363 67.3477C102.266 67.082 102.109 66.8633 101.895 66.6914C101.68 66.5195 101.387 66.4336 101.016 66.4336C100.77 66.4336 100.543 66.4863 100.336 66.5918C100.129 66.6934 99.9512 66.8457 99.8027 67.0488C99.6543 67.252 99.5391 67.5 99.457 67.793C99.375 68.0859 99.334 68.4238 99.334 68.8066V69.0527C99.334 69.3535 99.375 69.6367 99.457 69.9023C99.543 70.1641 99.666 70.3945 99.8262 70.5938C99.9902 70.793 100.188 70.9492 100.418 71.0625C100.652 71.1758 100.918 71.2324 101.215 71.2324C101.598 71.2324 101.922 71.1543 102.188 70.998C102.453 70.8418 102.686 70.6328 102.885 70.3711L103.541 70.8926C103.404 71.0996 103.23 71.2969 103.02 71.4844C102.809 71.6719 102.549 71.8242 102.24 71.9414C101.936 72.0586 101.574 72.1172 101.156 72.1172ZM108.58 70.3184C108.58 70.1621 108.545 70.0176 108.475 69.8848C108.408 69.748 108.27 69.625 108.059 69.5156C107.852 69.4023 107.539 69.3047 107.121 69.2227C106.77 69.1484 106.451 69.0605 106.166 68.959C105.885 68.8574 105.645 68.7344 105.445 68.5898C105.25 68.4453 105.1 68.2754 104.994 68.0801C104.889 67.8848 104.836 67.6562 104.836 67.3945C104.836 67.1445 104.891 66.9082 105 66.6855C105.113 66.4629 105.271 66.2656 105.475 66.0938C105.682 65.9219 105.93 65.7871 106.219 65.6895C106.508 65.5918 106.83 65.543 107.186 65.543C107.693 65.543 108.127 65.6328 108.486 65.8125C108.846 65.9922 109.121 66.2324 109.312 66.5332C109.504 66.8301 109.6 67.1602 109.6 67.5234H108.516C108.516 67.3477 108.463 67.1777 108.357 67.0137C108.256 66.8457 108.105 66.707 107.906 66.5977C107.711 66.4883 107.471 66.4336 107.186 66.4336C106.885 66.4336 106.641 66.4805 106.453 66.5742C106.27 66.6641 106.135 66.7793 106.049 66.9199C105.967 67.0605 105.926 67.209 105.926 67.3652C105.926 67.4824 105.945 67.5879 105.984 67.6816C106.027 67.7715 106.102 67.8555 106.207 67.9336C106.312 68.0078 106.461 68.0781 106.652 68.1445C106.844 68.2109 107.088 68.2773 107.385 68.3438C107.904 68.4609 108.332 68.6016 108.668 68.7656C109.004 68.9297 109.254 69.1309 109.418 69.3691C109.582 69.6074 109.664 69.8965 109.664 70.2363C109.664 70.5137 109.605 70.7676 109.488 70.998C109.375 71.2285 109.209 71.4277 108.99 71.5957C108.775 71.7598 108.518 71.8887 108.217 71.9824C107.92 72.0723 107.586 72.1172 107.215 72.1172C106.656 72.1172 106.184 72.0176 105.797 71.8184C105.41 71.6191 105.117 71.3613 104.918 71.0449C104.719 70.7285 104.619 70.3945 104.619 70.043H105.709C105.725 70.3398 105.811 70.5762 105.967 70.752C106.123 70.9238 106.314 71.0469 106.541 71.1211C106.768 71.1914 106.992 71.2266 107.215 71.2266C107.512 71.2266 107.76 71.1875 107.959 71.1094C108.162 71.0312 108.316 70.9238 108.422 70.7871C108.527 70.6504 108.58 70.4941 108.58 70.3184ZM4.14258 77.4688V86H3.0293V77.4688H4.14258ZM6.88477 77.4688V78.3945H0.292969V77.4688H6.88477ZM8.625 80.6562V86H7.54102V79.6602H8.5957L8.625 80.6562ZM10.6055 79.625L10.5996 80.6328C10.5098 80.6133 10.4238 80.6016 10.3418 80.5977C10.2637 80.5898 10.1738 80.5859 10.0723 80.5859C9.82227 80.5859 9.60156 80.625 9.41016 80.7031C9.21875 80.7812 9.05664 80.8906 8.92383 81.0312C8.79102 81.1719 8.68555 81.3398 8.60742 81.5352C8.5332 81.7266 8.48438 81.9375 8.46094 82.168L8.15625 82.3438C8.15625 81.9609 8.19336 81.6016 8.26758 81.2656C8.3457 80.9297 8.46484 80.6328 8.625 80.375C8.78516 80.1133 8.98828 79.9102 9.23438 79.7656C9.48438 79.6172 9.78125 79.543 10.125 79.543C10.2031 79.543 10.293 79.5527 10.3945 79.5723C10.4961 79.5879 10.5664 79.6055 10.6055 79.625ZM15.1113 84.916V81.6523C15.1113 81.4023 15.0605 81.1855 14.959 81.002C14.8613 80.8145 14.7129 80.6699 14.5137 80.5684C14.3145 80.4668 14.0684 80.416 13.7754 80.416C13.502 80.416 13.2617 80.4629 13.0547 80.5566C12.8516 80.6504 12.6914 80.7734 12.5742 80.9258C12.4609 81.0781 12.4043 81.2422 12.4043 81.418H11.3203C11.3203 81.1914 11.3789 80.9668 11.4961 80.7441C11.6133 80.5215 11.7812 80.3203 12 80.1406C12.2227 79.957 12.4883 79.8125 12.7969 79.707C13.1094 79.5977 13.457 79.543 13.8398 79.543C14.3008 79.543 14.707 79.6211 15.0586 79.7773C15.4141 79.9336 15.6914 80.1699 15.8906 80.4863C16.0938 80.7988 16.1953 81.1914 16.1953 81.6641V84.6172C16.1953 84.8281 16.2129 85.0527 16.248 85.291C16.2871 85.5293 16.3438 85.7344 16.418 85.9062V86H15.2871C15.2324 85.875 15.1895 85.709 15.1582 85.502C15.127 85.291 15.1113 85.0957 15.1113 84.916ZM15.2988 82.1562L15.3105 82.918H14.2148C13.9062 82.918 13.6309 82.9434 13.3887 82.9941C13.1465 83.041 12.9434 83.1133 12.7793 83.2109C12.6152 83.3086 12.4902 83.4316 12.4043 83.5801C12.3184 83.7246 12.2754 83.8945 12.2754 84.0898C12.2754 84.2891 12.3203 84.4707 12.4102 84.6348C12.5 84.7988 12.6348 84.9297 12.8145 85.0273C12.998 85.1211 13.2227 85.168 13.4883 85.168C13.8203 85.168 14.1133 85.0977 14.3672 84.957C14.6211 84.8164 14.8223 84.6445 14.9707 84.4414C15.123 84.2383 15.2051 84.041 15.2168 83.8496L15.6797 84.3711C15.6523 84.5352 15.5781 84.7168 15.457 84.916C15.3359 85.1152 15.1738 85.3066 14.9707 85.4902C14.7715 85.6699 14.5332 85.8203 14.2559 85.9414C13.9824 86.0586 13.6738 86.1172 13.3301 86.1172C12.9004 86.1172 12.5234 86.0332 12.1992 85.8652C11.8789 85.6973 11.6289 85.4727 11.4492 85.1914C11.2734 84.9062 11.1855 84.5879 11.1855 84.2363C11.1855 83.8965 11.252 83.5977 11.3848 83.3398C11.5176 83.0781 11.709 82.8613 11.959 82.6895C12.209 82.5137 12.5098 82.3809 12.8613 82.291C13.2129 82.2012 13.6055 82.1562 14.0391 82.1562H15.2988ZM18.9844 81.0137V86H17.9004V79.6602H18.9258L18.9844 81.0137ZM18.7266 82.5898L18.2754 82.5723C18.2793 82.1387 18.3438 81.7383 18.4688 81.3711C18.5938 81 18.7695 80.6777 18.9961 80.4043C19.2227 80.1309 19.4922 79.9199 19.8047 79.7715C20.1211 79.6191 20.4707 79.543 20.8535 79.543C21.166 79.543 21.4473 79.5859 21.6973 79.6719C21.9473 79.7539 22.1602 79.8867 22.3359 80.0703C22.5156 80.2539 22.6523 80.4922 22.7461 80.7852C22.8398 81.0742 22.8867 81.4277 22.8867 81.8457V86H21.7969V81.834C21.7969 81.502 21.748 81.2363 21.6504 81.0371C21.5527 80.834 21.4102 80.6875 21.2227 80.5977C21.0352 80.5039 20.8047 80.457 20.5312 80.457C20.2617 80.457 20.0156 80.5137 19.793 80.627C19.5742 80.7402 19.3848 80.8965 19.2246 81.0957C19.0684 81.2949 18.9453 81.5234 18.8555 81.7812C18.7695 82.0352 18.7266 82.3047 18.7266 82.5898ZM28.2246 84.3184C28.2246 84.1621 28.1895 84.0176 28.1191 83.8848C28.0527 83.748 27.9141 83.625 27.7031 83.5156C27.4961 83.4023 27.1836 83.3047 26.7656 83.2227C26.4141 83.1484 26.0957 83.0605 25.8105 82.959C25.5293 82.8574 25.2891 82.7344 25.0898 82.5898C24.8945 82.4453 24.7441 82.2754 24.6387 82.0801C24.5332 81.8848 24.4805 81.6562 24.4805 81.3945C24.4805 81.1445 24.5352 80.9082 24.6445 80.6855C24.7578 80.4629 24.916 80.2656 25.1191 80.0938C25.3262 79.9219 25.5742 79.7871 25.8633 79.6895C26.1523 79.5918 26.4746 79.543 26.8301 79.543C27.3379 79.543 27.7715 79.6328 28.1309 79.8125C28.4902 79.9922 28.7656 80.2324 28.957 80.5332C29.1484 80.8301 29.2441 81.1602 29.2441 81.5234H28.1602C28.1602 81.3477 28.1074 81.1777 28.002 81.0137C27.9004 80.8457 27.75 80.707 27.5508 80.5977C27.3555 80.4883 27.1152 80.4336 26.8301 80.4336C26.5293 80.4336 26.2852 80.4805 26.0977 80.5742C25.9141 80.6641 25.7793 80.7793 25.6934 80.9199C25.6113 81.0605 25.5703 81.209 25.5703 81.3652C25.5703 81.4824 25.5898 81.5879 25.6289 81.6816C25.6719 81.7715 25.7461 81.8555 25.8516 81.9336C25.957 82.0078 26.1055 82.0781 26.2969 82.1445C26.4883 82.2109 26.7324 82.2773 27.0293 82.3438C27.5488 82.4609 27.9766 82.6016 28.3125 82.7656C28.6484 82.9297 28.8984 83.1309 29.0625 83.3691C29.2266 83.6074 29.3086 83.8965 29.3086 84.2363C29.3086 84.5137 29.25 84.7676 29.1328 84.998C29.0195 85.2285 28.8535 85.4277 28.6348 85.5957C28.4199 85.7598 28.1621 85.8887 27.8613 85.9824C27.5645 86.0723 27.2305 86.1172 26.8594 86.1172C26.3008 86.1172 25.8281 86.0176 25.4414 85.8184C25.0547 85.6191 24.7617 85.3613 24.5625 85.0449C24.3633 84.7285 24.2637 84.3945 24.2637 84.043H25.3535C25.3691 84.3398 25.4551 84.5762 25.6113 84.752C25.7676 84.9238 25.959 85.0469 26.1855 85.1211C26.4121 85.1914 26.6367 85.2266 26.8594 85.2266C27.1562 85.2266 27.4043 85.1875 27.6035 85.1094C27.8066 85.0312 27.9609 84.9238 28.0664 84.7871C28.1719 84.6504 28.2246 84.4941 28.2246 84.3184ZM31.8105 80.9199V86H30.7207V79.6602H31.752L31.8105 80.9199ZM31.5879 82.5898L31.084 82.5723C31.0879 82.1387 31.1445 81.7383 31.2539 81.3711C31.3633 81 31.5254 80.6777 31.7402 80.4043C31.9551 80.1309 32.2227 79.9199 32.543 79.7715C32.8633 79.6191 33.2344 79.543 33.6562 79.543C33.9531 79.543 34.2266 79.5859 34.4766 79.6719C34.7266 79.7539 34.9434 79.8848 35.127 80.0645C35.3105 80.2441 35.4531 80.4746 35.5547 80.7559C35.6562 81.0371 35.707 81.377 35.707 81.7754V86H34.623V81.8281C34.623 81.4961 34.5664 81.2305 34.4531 81.0312C34.3438 80.832 34.1875 80.6875 33.9844 80.5977C33.7812 80.5039 33.543 80.457 33.2695 80.457C32.9492 80.457 32.6816 80.5137 32.4668 80.627C32.252 80.7402 32.0801 80.8965 31.9512 81.0957C31.8223 81.2949 31.7285 81.5234 31.6699 81.7812C31.6152 82.0352 31.5879 82.3047 31.5879 82.5898ZM35.6953 81.9922L34.9688 82.2148C34.9727 81.8672 35.0293 81.5332 35.1387 81.2129C35.252 80.8926 35.4141 80.6074 35.625 80.3574C35.8398 80.1074 36.1035 79.9102 36.416 79.7656C36.7285 79.6172 37.0859 79.543 37.4883 79.543C37.8281 79.543 38.1289 79.5879 38.3906 79.6777C38.6562 79.7676 38.8789 79.9062 39.0586 80.0938C39.2422 80.2773 39.3809 80.5137 39.4746 80.8027C39.5684 81.0918 39.6152 81.4355 39.6152 81.834V86H38.5254V81.8223C38.5254 81.4668 38.4688 81.1914 38.3555 80.9961C38.2461 80.7969 38.0898 80.6582 37.8867 80.5801C37.6875 80.498 37.4492 80.457 37.1719 80.457C36.9336 80.457 36.7227 80.498 36.5391 80.5801C36.3555 80.6621 36.2012 80.7754 36.0762 80.9199C35.9512 81.0605 35.8555 81.2227 35.7891 81.4062C35.7266 81.5898 35.6953 81.7852 35.6953 81.9922ZM42.4336 79.6602V86H41.3438V79.6602H42.4336ZM41.2617 77.9785C41.2617 77.8027 41.3145 77.6543 41.4199 77.5332C41.5293 77.4121 41.6895 77.3516 41.9004 77.3516C42.1074 77.3516 42.2656 77.4121 42.375 77.5332C42.4883 77.6543 42.5449 77.8027 42.5449 77.9785C42.5449 78.1465 42.4883 78.291 42.375 78.4121C42.2656 78.5293 42.1074 78.5879 41.9004 78.5879C41.6895 78.5879 41.5293 78.5293 41.4199 78.4121C41.3145 78.291 41.2617 78.1465 41.2617 77.9785ZM46.8281 79.6602V80.4922H43.4004V79.6602H46.8281ZM44.5605 78.1191H45.6445V84.4297C45.6445 84.6445 45.6777 84.8066 45.7441 84.916C45.8105 85.0254 45.8965 85.0977 46.002 85.1328C46.1074 85.168 46.2207 85.1855 46.3418 85.1855C46.4316 85.1855 46.5254 85.1777 46.623 85.1621C46.7246 85.1426 46.8008 85.127 46.8516 85.1152L46.8574 86C46.7715 86.0273 46.6582 86.0527 46.5176 86.0762C46.3809 86.1035 46.2148 86.1172 46.0195 86.1172C45.7539 86.1172 45.5098 86.0645 45.2871 85.959C45.0645 85.8535 44.8867 85.6777 44.7539 85.4316C44.625 85.1816 44.5605 84.8457 44.5605 84.4238V78.1191ZM49.2773 79.6602V86H48.1875V79.6602H49.2773ZM48.1055 77.9785C48.1055 77.8027 48.1582 77.6543 48.2637 77.5332C48.373 77.4121 48.5332 77.3516 48.7441 77.3516C48.9512 77.3516 49.1094 77.4121 49.2188 77.5332C49.332 77.6543 49.3887 77.8027 49.3887 77.9785C49.3887 78.1465 49.332 78.291 49.2188 78.4121C49.1094 78.5293 48.9512 78.5879 48.7441 78.5879C48.5332 78.5879 48.373 78.5293 48.2637 78.4121C48.1582 78.291 48.1055 78.1465 48.1055 77.9785ZM55.0137 84.7695V77H56.1035V86H55.1074L55.0137 84.7695ZM50.748 82.9004V82.7773C50.748 82.293 50.8066 81.8535 50.9238 81.459C51.0449 81.0605 51.2148 80.7188 51.4336 80.4336C51.6562 80.1484 51.9199 79.9297 52.2246 79.7773C52.5332 79.6211 52.877 79.543 53.2559 79.543C53.6543 79.543 54.002 79.6133 54.2988 79.7539C54.5996 79.8906 54.8535 80.0918 55.0605 80.3574C55.2715 80.6191 55.4375 80.9355 55.5586 81.3066C55.6797 81.6777 55.7637 82.0977 55.8105 82.5664V83.1055C55.7676 83.5703 55.6836 83.9883 55.5586 84.3594C55.4375 84.7305 55.2715 85.0469 55.0605 85.3086C54.8535 85.5703 54.5996 85.7715 54.2988 85.9121C53.998 86.0488 53.6465 86.1172 53.2441 86.1172C52.873 86.1172 52.5332 86.0371 52.2246 85.877C51.9199 85.7168 51.6562 85.4922 51.4336 85.2031C51.2148 84.9141 51.0449 84.5742 50.9238 84.1836C50.8066 83.7891 50.748 83.3613 50.748 82.9004ZM51.8379 82.7773V82.9004C51.8379 83.2168 51.8691 83.5137 51.9316 83.791C51.998 84.0684 52.0996 84.3125 52.2363 84.5234C52.373 84.7344 52.5469 84.9004 52.7578 85.0215C52.9688 85.1387 53.2207 85.1973 53.5137 85.1973C53.873 85.1973 54.168 85.1211 54.3984 84.9688C54.6328 84.8164 54.8203 84.6152 54.9609 84.3652C55.1016 84.1152 55.2109 83.8438 55.2891 83.5508V82.1387C55.2422 81.9238 55.1738 81.7168 55.084 81.5176C54.998 81.3145 54.8848 81.1348 54.7441 80.9785C54.6074 80.8184 54.4375 80.6914 54.2344 80.5977C54.0352 80.5039 53.7988 80.457 53.5254 80.457C53.2285 80.457 52.9727 80.5195 52.7578 80.6445C52.5469 80.7656 52.373 80.9336 52.2363 81.1484C52.0996 81.3594 51.998 81.6055 51.9316 81.8867C51.8691 82.1641 51.8379 82.4609 51.8379 82.7773ZM57.5039 82.9004V82.7656C57.5039 82.3086 57.5703 81.8848 57.7031 81.4941C57.8359 81.0996 58.0273 80.7578 58.2773 80.4688C58.5273 80.1758 58.8301 79.9492 59.1855 79.7891C59.541 79.625 59.9395 79.543 60.3809 79.543C60.8262 79.543 61.2266 79.625 61.582 79.7891C61.9414 79.9492 62.2461 80.1758 62.4961 80.4688C62.75 80.7578 62.9434 81.0996 63.0762 81.4941C63.209 81.8848 63.2754 82.3086 63.2754 82.7656V82.9004C63.2754 83.3574 63.209 83.7812 63.0762 84.1719C62.9434 84.5625 62.75 84.9043 62.4961 85.1973C62.2461 85.4863 61.9434 85.7129 61.5879 85.877C61.2363 86.0371 60.8379 86.1172 60.3926 86.1172C59.9473 86.1172 59.5469 86.0371 59.1914 85.877C58.8359 85.7129 58.5312 85.4863 58.2773 85.1973C58.0273 84.9043 57.8359 84.5625 57.7031 84.1719C57.5703 83.7812 57.5039 83.3574 57.5039 82.9004ZM58.5879 82.7656V82.9004C58.5879 83.2168 58.625 83.5156 58.6992 83.7969C58.7734 84.0742 58.8848 84.3203 59.0332 84.5352C59.1855 84.75 59.375 84.9199 59.6016 85.0449C59.8281 85.166 60.0918 85.2266 60.3926 85.2266C60.6895 85.2266 60.9492 85.166 61.1719 85.0449C61.3984 84.9199 61.5859 84.75 61.7344 84.5352C61.8828 84.3203 61.9941 84.0742 62.0684 83.7969C62.1465 83.5156 62.1855 83.2168 62.1855 82.9004V82.7656C62.1855 82.4531 62.1465 82.1582 62.0684 81.8809C61.9941 81.5996 61.8809 81.3516 61.7285 81.1367C61.5801 80.918 61.3926 80.7461 61.166 80.6211C60.9434 80.4961 60.6816 80.4336 60.3809 80.4336C60.084 80.4336 59.8223 80.4961 59.5957 80.6211C59.373 80.7461 59.1855 80.918 59.0332 81.1367C58.8848 81.3516 58.7734 81.5996 58.6992 81.8809C58.625 82.1582 58.5879 82.4531 58.5879 82.7656ZM68.6953 77V86H67.6113V77H68.6953ZM68.4375 82.5898L67.9863 82.5723C67.9902 82.1387 68.0547 81.7383 68.1797 81.3711C68.3047 81 68.4805 80.6777 68.707 80.4043C68.9336 80.1309 69.2031 79.9199 69.5156 79.7715C69.832 79.6191 70.1816 79.543 70.5645 79.543C70.877 79.543 71.1582 79.5859 71.4082 79.6719C71.6582 79.7539 71.8711 79.8867 72.0469 80.0703C72.2266 80.2539 72.3633 80.4922 72.457 80.7852C72.5508 81.0742 72.5977 81.4277 72.5977 81.8457V86H71.5078V81.834C71.5078 81.502 71.459 81.2363 71.3613 81.0371C71.2637 80.834 71.1211 80.6875 70.9336 80.5977C70.7461 80.5039 70.5156 80.457 70.2422 80.457C69.9727 80.457 69.7266 80.5137 69.5039 80.627C69.2852 80.7402 69.0957 80.8965 68.9355 81.0957C68.7793 81.2949 68.6562 81.5234 68.5664 81.7812C68.4805 82.0352 68.4375 82.3047 68.4375 82.5898ZM77.959 84.916V81.6523C77.959 81.4023 77.9082 81.1855 77.8066 81.002C77.709 80.8145 77.5605 80.6699 77.3613 80.5684C77.1621 80.4668 76.916 80.416 76.623 80.416C76.3496 80.416 76.1094 80.4629 75.9023 80.5566C75.6992 80.6504 75.5391 80.7734 75.4219 80.9258C75.3086 81.0781 75.252 81.2422 75.252 81.418H74.168C74.168 81.1914 74.2266 80.9668 74.3438 80.7441C74.4609 80.5215 74.6289 80.3203 74.8477 80.1406C75.0703 79.957 75.3359 79.8125 75.6445 79.707C75.957 79.5977 76.3047 79.543 76.6875 79.543C77.1484 79.543 77.5547 79.6211 77.9062 79.7773C78.2617 79.9336 78.5391 80.1699 78.7383 80.4863C78.9414 80.7988 79.043 81.1914 79.043 81.6641V84.6172C79.043 84.8281 79.0605 85.0527 79.0957 85.291C79.1348 85.5293 79.1914 85.7344 79.2656 85.9062V86H78.1348C78.0801 85.875 78.0371 85.709 78.0059 85.502C77.9746 85.291 77.959 85.0957 77.959 84.916ZM78.1465 82.1562L78.1582 82.918H77.0625C76.7539 82.918 76.4785 82.9434 76.2363 82.9941C75.9941 83.041 75.791 83.1133 75.627 83.2109C75.4629 83.3086 75.3379 83.4316 75.252 83.5801C75.166 83.7246 75.123 83.8945 75.123 84.0898C75.123 84.2891 75.168 84.4707 75.2578 84.6348C75.3477 84.7988 75.4824 84.9297 75.6621 85.0273C75.8457 85.1211 76.0703 85.168 76.3359 85.168C76.668 85.168 76.9609 85.0977 77.2148 84.957C77.4688 84.8164 77.6699 84.6445 77.8184 84.4414C77.9707 84.2383 78.0527 84.041 78.0645 83.8496L78.5273 84.3711C78.5 84.5352 78.4258 84.7168 78.3047 84.916C78.1836 85.1152 78.0215 85.3066 77.8184 85.4902C77.6191 85.6699 77.3809 85.8203 77.1035 85.9414C76.8301 86.0586 76.5215 86.1172 76.1777 86.1172C75.748 86.1172 75.3711 86.0332 75.0469 85.8652C74.7266 85.6973 74.4766 85.4727 74.2969 85.1914C74.1211 84.9062 74.0332 84.5879 74.0332 84.2363C74.0332 83.8965 74.0996 83.5977 74.2324 83.3398C74.3652 83.0781 74.5566 82.8613 74.8066 82.6895C75.0566 82.5137 75.3574 82.3809 75.709 82.291C76.0605 82.2012 76.4531 82.1562 76.8867 82.1562H78.1465ZM76.207 78.7227L77.3438 77H78.6504L77.0801 78.7227H76.207ZM89.373 83.1289V84.0195H83.209V83.3809L87.0293 77.4688H87.9141L86.9648 79.1797L84.4395 83.1289H89.373ZM88.1836 77.4688V86H87.0996V77.4688H88.1836ZM97.4473 84.7695V77H98.5371V86H97.541L97.4473 84.7695ZM93.1816 82.9004V82.7773C93.1816 82.293 93.2402 81.8535 93.3574 81.459C93.4785 81.0605 93.6484 80.7188 93.8672 80.4336C94.0898 80.1484 94.3535 79.9297 94.6582 79.7773C94.9668 79.6211 95.3105 79.543 95.6895 79.543C96.0879 79.543 96.4355 79.6133 96.7324 79.7539C97.0332 79.8906 97.2871 80.0918 97.4941 80.3574C97.7051 80.6191 97.8711 80.9355 97.9922 81.3066C98.1133 81.6777 98.1973 82.0977 98.2441 82.5664V83.1055C98.2012 83.5703 98.1172 83.9883 97.9922 84.3594C97.8711 84.7305 97.7051 85.0469 97.4941 85.3086C97.2871 85.5703 97.0332 85.7715 96.7324 85.9121C96.4316 86.0488 96.0801 86.1172 95.6777 86.1172C95.3066 86.1172 94.9668 86.0371 94.6582 85.877C94.3535 85.7168 94.0898 85.4922 93.8672 85.2031C93.6484 84.9141 93.4785 84.5742 93.3574 84.1836C93.2402 83.7891 93.1816 83.3613 93.1816 82.9004ZM94.2715 82.7773V82.9004C94.2715 83.2168 94.3027 83.5137 94.3652 83.791C94.4316 84.0684 94.5332 84.3125 94.6699 84.5234C94.8066 84.7344 94.9805 84.9004 95.1914 85.0215C95.4023 85.1387 95.6543 85.1973 95.9473 85.1973C96.3066 85.1973 96.6016 85.1211 96.832 84.9688C97.0664 84.8164 97.2539 84.6152 97.3945 84.3652C97.5352 84.1152 97.6445 83.8438 97.7227 83.5508V82.1387C97.6758 81.9238 97.6074 81.7168 97.5176 81.5176C97.4316 81.3145 97.3184 81.1348 97.1777 80.9785C97.041 80.8184 96.8711 80.6914 96.668 80.5977C96.4688 80.5039 96.2324 80.457 95.959 80.457C95.6621 80.457 95.4062 80.5195 95.1914 80.6445C94.9805 80.7656 94.8066 80.9336 94.6699 81.1484C94.5332 81.3594 94.4316 81.6055 94.3652 81.8867C94.3027 82.1641 94.2715 82.4609 94.2715 82.7773ZM101.402 79.6602V86H100.312V79.6602H101.402ZM100.23 77.9785C100.23 77.8027 100.283 77.6543 100.389 77.5332C100.498 77.4121 100.658 77.3516 100.869 77.3516C101.076 77.3516 101.234 77.4121 101.344 77.5332C101.457 77.6543 101.514 77.8027 101.514 77.9785C101.514 78.1465 101.457 78.291 101.344 78.4121C101.234 78.5293 101.076 78.5879 100.869 78.5879C100.658 78.5879 100.498 78.5293 100.389 78.4121C100.283 78.291 100.23 78.1465 100.23 77.9785ZM106.881 84.916V81.6523C106.881 81.4023 106.83 81.1855 106.729 81.002C106.631 80.8145 106.482 80.6699 106.283 80.5684C106.084 80.4668 105.838 80.416 105.545 80.416C105.271 80.416 105.031 80.4629 104.824 80.5566C104.621 80.6504 104.461 80.7734 104.344 80.9258C104.23 81.0781 104.174 81.2422 104.174 81.418H103.09C103.09 81.1914 103.148 80.9668 103.266 80.7441C103.383 80.5215 103.551 80.3203 103.77 80.1406C103.992 79.957 104.258 79.8125 104.566 79.707C104.879 79.5977 105.227 79.543 105.609 79.543C106.07 79.543 106.477 79.6211 106.828 79.7773C107.184 79.9336 107.461 80.1699 107.66 80.4863C107.863 80.7988 107.965 81.1914 107.965 81.6641V84.6172C107.965 84.8281 107.982 85.0527 108.018 85.291C108.057 85.5293 108.113 85.7344 108.188 85.9062V86H107.057C107.002 85.875 106.959 85.709 106.928 85.502C106.896 85.291 106.881 85.0957 106.881 84.916ZM107.068 82.1562L107.08 82.918H105.984C105.676 82.918 105.4 82.9434 105.158 82.9941C104.916 83.041 104.713 83.1133 104.549 83.2109C104.385 83.3086 104.26 83.4316 104.174 83.5801C104.088 83.7246 104.045 83.8945 104.045 84.0898C104.045 84.2891 104.09 84.4707 104.18 84.6348C104.27 84.7988 104.404 84.9297 104.584 85.0273C104.768 85.1211 104.992 85.168 105.258 85.168C105.59 85.168 105.883 85.0977 106.137 84.957C106.391 84.8164 106.592 84.6445 106.74 84.4414C106.893 84.2383 106.975 84.041 106.986 83.8496L107.449 84.3711C107.422 84.5352 107.348 84.7168 107.227 84.916C107.105 85.1152 106.943 85.3066 106.74 85.4902C106.541 85.6699 106.303 85.8203 106.025 85.9414C105.752 86.0586 105.443 86.1172 105.1 86.1172C104.67 86.1172 104.293 86.0332 103.969 85.8652C103.648 85.6973 103.398 85.4727 103.219 85.1914C103.043 84.9062 102.955 84.5879 102.955 84.2363C102.955 83.8965 103.021 83.5977 103.154 83.3398C103.287 83.0781 103.479 82.8613 103.729 82.6895C103.979 82.5137 104.279 82.3809 104.631 82.291C104.982 82.2012 105.375 82.1562 105.809 82.1562H107.068ZM113.361 84.3184C113.361 84.1621 113.326 84.0176 113.256 83.8848C113.189 83.748 113.051 83.625 112.84 83.5156C112.633 83.4023 112.32 83.3047 111.902 83.2227C111.551 83.1484 111.232 83.0605 110.947 82.959C110.666 82.8574 110.426 82.7344 110.227 82.5898C110.031 82.4453 109.881 82.2754 109.775 82.0801C109.67 81.8848 109.617 81.6562 109.617 81.3945C109.617 81.1445 109.672 80.9082 109.781 80.6855C109.895 80.4629 110.053 80.2656 110.256 80.0938C110.463 79.9219 110.711 79.7871 111 79.6895C111.289 79.5918 111.611 79.543 111.967 79.543C112.475 79.543 112.908 79.6328 113.268 79.8125C113.627 79.9922 113.902 80.2324 114.094 80.5332C114.285 80.8301 114.381 81.1602 114.381 81.5234H113.297C113.297 81.3477 113.244 81.1777 113.139 81.0137C113.037 80.8457 112.887 80.707 112.688 80.5977C112.492 80.4883 112.252 80.4336 111.967 80.4336C111.666 80.4336 111.422 80.4805 111.234 80.5742C111.051 80.6641 110.916 80.7793 110.83 80.9199C110.748 81.0605 110.707 81.209 110.707 81.3652C110.707 81.4824 110.727 81.5879 110.766 81.6816C110.809 81.7715 110.883 81.8555 110.988 81.9336C111.094 82.0078 111.242 82.0781 111.434 82.1445C111.625 82.2109 111.869 82.2773 112.166 82.3438C112.686 82.4609 113.113 82.6016 113.449 82.7656C113.785 82.9297 114.035 83.1309 114.199 83.3691C114.363 83.6074 114.445 83.8965 114.445 84.2363C114.445 84.5137 114.387 84.7676 114.27 84.998C114.156 85.2285 113.99 85.4277 113.771 85.5957C113.557 85.7598 113.299 85.8887 112.998 85.9824C112.701 86.0723 112.367 86.1172 111.996 86.1172C111.438 86.1172 110.965 86.0176 110.578 85.8184C110.191 85.6191 109.898 85.3613 109.699 85.0449C109.5 84.7285 109.4 84.3945 109.4 84.043H110.49C110.506 84.3398 110.592 84.5762 110.748 84.752C110.904 84.9238 111.096 85.0469 111.322 85.1211C111.549 85.1914 111.773 85.2266 111.996 85.2266C112.293 85.2266 112.541 85.1875 112.74 85.1094C112.943 85.0312 113.098 84.9238 113.203 84.7871C113.309 84.6504 113.361 84.4941 113.361 84.3184Z" fill="#515151"/>
</svg>
