<svg width="196" height="73" viewBox="0 0 196 73" fill="none" xmlns="http://www.w3.org/2000/svg">
<path d="M6.15918 10.416C6.15918 10.2246 6.12956 10.0537 6.07031 9.90332C6.01562 9.74837 5.91309 9.60938 5.7627 9.48633C5.61686 9.35872 5.40951 9.23568 5.14062 9.11719C4.8763 8.99414 4.53451 8.86654 4.11523 8.73438C3.65039 8.58854 3.21745 8.42448 2.81641 8.24219C2.41536 8.0599 2.06217 7.84798 1.75684 7.60645C1.45605 7.36491 1.22135 7.08691 1.05273 6.77246C0.884115 6.45345 0.799805 6.08431 0.799805 5.66504C0.799805 5.25488 0.886393 4.88118 1.05957 4.54395C1.2373 4.20671 1.48796 3.91732 1.81152 3.67578C2.13509 3.42969 2.51562 3.24056 2.95312 3.1084C3.39518 2.97624 3.88281 2.91016 4.41602 2.91016C5.1543 2.91016 5.79232 3.0446 6.33008 3.31348C6.8724 3.58236 7.29167 3.94694 7.58789 4.40723C7.88411 4.86751 8.03223 5.38477 8.03223 5.95898H6.15918C6.15918 5.64909 6.0931 5.37565 5.96094 5.13867C5.83333 4.90169 5.63737 4.71484 5.37305 4.57812C5.11328 4.44141 4.78516 4.37305 4.38867 4.37305C4.00586 4.37305 3.68685 4.43001 3.43164 4.54395C3.18099 4.65788 2.99186 4.81283 2.86426 5.00879C2.74121 5.20475 2.67969 5.4235 2.67969 5.66504C2.67969 5.84733 2.72298 6.01139 2.80957 6.15723C2.89616 6.2985 3.02604 6.43294 3.19922 6.56055C3.3724 6.68359 3.58659 6.7998 3.8418 6.90918C4.10156 7.014 4.40234 7.11882 4.74414 7.22363C5.29102 7.3877 5.76953 7.56999 6.17969 7.77051C6.5944 7.97103 6.93848 8.19889 7.21191 8.4541C7.48991 8.70931 7.69727 8.99642 7.83398 9.31543C7.97526 9.63444 8.0459 9.99674 8.0459 10.4023C8.0459 10.8307 7.96159 11.2135 7.79297 11.5508C7.62435 11.888 7.38281 12.1751 7.06836 12.4121C6.75391 12.6491 6.37565 12.8291 5.93359 12.9521C5.49609 13.0752 5.00618 13.1367 4.46387 13.1367C3.98079 13.1367 3.50228 13.0729 3.02832 12.9453C2.55892 12.8132 2.13281 12.6172 1.75 12.3574C1.36719 12.0931 1.06185 11.7604 0.833984 11.3594C0.60612 10.9538 0.492188 10.4798 0.492188 9.9375H2.37891C2.37891 10.252 2.42904 10.5208 2.5293 10.7441C2.63411 10.9629 2.77995 11.1429 2.9668 11.2842C3.1582 11.4209 3.38151 11.5212 3.63672 11.585C3.89193 11.6488 4.16764 11.6807 4.46387 11.6807C4.84668 11.6807 5.16113 11.6283 5.40723 11.5234C5.65788 11.4141 5.84473 11.2637 5.96777 11.0723C6.09538 10.8809 6.15918 10.6621 6.15918 10.416ZM12.3936 11.7148C12.6488 11.7148 12.8766 11.6647 13.0771 11.5645C13.2777 11.4642 13.4372 11.3229 13.5557 11.1406C13.6787 10.9583 13.7448 10.7464 13.7539 10.5049H15.4561C15.4469 11.0062 15.3057 11.4551 15.0322 11.8516C14.7588 12.248 14.3942 12.5625 13.9385 12.7949C13.4873 13.0228 12.9814 13.1367 12.4209 13.1367C11.8512 13.1367 11.3545 13.041 10.9307 12.8496C10.5068 12.6582 10.1536 12.3916 9.87109 12.0498C9.5931 11.708 9.38346 11.3115 9.24219 10.8604C9.10547 10.4092 9.03711 9.92611 9.03711 9.41113V9.19238C9.03711 8.67741 9.10547 8.19434 9.24219 7.74316C9.38346 7.29199 9.5931 6.89551 9.87109 6.55371C10.1536 6.21191 10.5068 5.94531 10.9307 5.75391C11.3545 5.5625 11.849 5.4668 12.4141 5.4668C13.0111 5.4668 13.5352 5.58301 13.9863 5.81543C14.4421 6.04785 14.7975 6.37598 15.0527 6.7998C15.3125 7.22363 15.4469 7.72266 15.4561 8.29688H13.7539C13.7448 8.03255 13.6855 7.79557 13.5762 7.58594C13.4668 7.3763 13.3118 7.20768 13.1113 7.08008C12.9108 6.95247 12.667 6.88867 12.3799 6.88867C12.0745 6.88867 11.8193 6.95247 11.6143 7.08008C11.4137 7.20768 11.2565 7.38314 11.1426 7.60645C11.0332 7.8252 10.9557 8.07129 10.9102 8.34473C10.8691 8.61361 10.8486 8.89616 10.8486 9.19238V9.41113C10.8486 9.71191 10.8691 9.99902 10.9102 10.2725C10.9557 10.5459 11.0332 10.792 11.1426 11.0107C11.2565 11.2249 11.4137 11.3958 11.6143 11.5234C11.8193 11.651 12.0791 11.7148 12.3936 11.7148ZM18.4639 7.11426V13H16.6592V5.60352H18.3682L18.4639 7.11426ZM20.7129 5.55566L20.6855 7.2373C20.5853 7.21908 20.4714 7.2054 20.3438 7.19629C20.2207 7.18717 20.1045 7.18262 19.9951 7.18262C19.7171 7.18262 19.4733 7.22135 19.2637 7.29883C19.054 7.37174 18.8786 7.47884 18.7373 7.62012C18.6006 7.76139 18.4958 7.93457 18.4229 8.13965C18.3499 8.34017 18.3089 8.56803 18.2998 8.82324L17.9102 8.77539C17.9102 8.30599 17.958 7.87077 18.0537 7.46973C18.1494 7.06868 18.2884 6.71777 18.4707 6.41699C18.653 6.11621 18.8809 5.88379 19.1543 5.71973C19.4323 5.55111 19.7513 5.4668 20.1113 5.4668C20.2116 5.4668 20.3187 5.47591 20.4326 5.49414C20.5511 5.50781 20.6445 5.52832 20.7129 5.55566ZM26.1064 11.2432V5.60352H27.9248V13H26.2158L26.1064 11.2432ZM26.3389 9.71191L26.8994 9.69824C26.8994 10.195 26.8447 10.653 26.7354 11.0723C26.626 11.4915 26.4551 11.8561 26.2227 12.166C25.9948 12.4714 25.7054 12.7106 25.3545 12.8838C25.0036 13.0524 24.5889 13.1367 24.1104 13.1367C23.7458 13.1367 23.4131 13.0866 23.1123 12.9863C22.8115 12.8815 22.5518 12.7197 22.333 12.501C22.1188 12.2777 21.9525 11.9928 21.834 11.6465C21.7155 11.2956 21.6562 10.874 21.6562 10.3818V5.60352H23.4609V10.3955C23.4609 10.6416 23.4883 10.8467 23.543 11.0107C23.6022 11.1748 23.682 11.3092 23.7822 11.4141C23.887 11.5143 24.0078 11.5872 24.1445 11.6328C24.2858 11.6738 24.4362 11.6943 24.5957 11.6943C25.0332 11.6943 25.3773 11.6077 25.6279 11.4346C25.8831 11.2568 26.0654 11.0199 26.1748 10.7236C26.2842 10.4229 26.3389 10.0856 26.3389 9.71191ZM31.3223 7.12109V13H29.5176V5.60352H31.2197L31.3223 7.12109ZM31.0557 9.03516H30.502C30.502 8.52018 30.5635 8.04622 30.6865 7.61328C30.8141 7.18034 31.001 6.80436 31.2471 6.48535C31.4932 6.16178 31.7962 5.91113 32.1562 5.7334C32.5208 5.55566 32.9424 5.4668 33.4209 5.4668C33.7536 5.4668 34.0589 5.51693 34.3369 5.61719C34.6149 5.71289 34.8542 5.86556 35.0547 6.0752C35.2598 6.28027 35.417 6.54915 35.5264 6.88184C35.6357 7.20996 35.6904 7.60417 35.6904 8.06445V13H33.8857V8.24902C33.8857 7.90267 33.8356 7.63151 33.7354 7.43555C33.6396 7.23958 33.5007 7.10286 33.3184 7.02539C33.1361 6.94336 32.9173 6.90234 32.6621 6.90234C32.3796 6.90234 32.1357 6.95931 31.9307 7.07324C31.7301 7.18262 31.5638 7.33529 31.4316 7.53125C31.304 7.72721 31.2083 7.9528 31.1445 8.20801C31.0853 8.46322 31.0557 8.73893 31.0557 9.03516ZM35.5537 8.7002L34.8086 8.83691C34.8132 8.37207 34.877 7.93685 35 7.53125C35.123 7.12109 35.3031 6.76335 35.54 6.45801C35.7816 6.14811 36.0801 5.90658 36.4355 5.7334C36.7956 5.55566 37.2103 5.4668 37.6797 5.4668C38.0443 5.4668 38.3724 5.51921 38.6641 5.62402C38.9603 5.72428 39.2132 5.88607 39.4229 6.10938C39.6325 6.32812 39.792 6.61296 39.9014 6.96387C40.0153 7.31478 40.0723 7.74316 40.0723 8.24902V13H38.2539V8.24219C38.2539 7.88216 38.2038 7.60645 38.1035 7.41504C38.0078 7.22363 37.8688 7.09147 37.6865 7.01855C37.5042 6.94108 37.29 6.90234 37.0439 6.90234C36.7933 6.90234 36.5745 6.9502 36.3877 7.0459C36.2054 7.13704 36.0505 7.26465 35.9229 7.42871C35.7998 7.59277 35.7064 7.78418 35.6426 8.00293C35.5833 8.21712 35.5537 8.44954 35.5537 8.7002ZM49.2461 3.04688V13H47.373V3.04688H49.2461ZM52.3359 3.04688V4.53027H44.3174V3.04688H52.3359ZM56.5537 11.4277V8.0166C56.5537 7.76595 56.5104 7.54948 56.4238 7.36719C56.3372 7.1849 56.2051 7.04362 56.0273 6.94336C55.8496 6.8431 55.624 6.79297 55.3506 6.79297C55.109 6.79297 54.8971 6.83398 54.7148 6.91602C54.5371 6.99805 54.4004 7.11426 54.3047 7.26465C54.209 7.41048 54.1611 7.5791 54.1611 7.77051H52.3496C52.3496 7.46517 52.4225 7.17578 52.5684 6.90234C52.7142 6.62435 52.9215 6.37826 53.1904 6.16406C53.4639 5.94531 53.7897 5.77441 54.168 5.65137C54.5508 5.52832 54.9792 5.4668 55.4531 5.4668C56.0137 5.4668 56.5127 5.5625 56.9502 5.75391C57.3923 5.94076 57.7386 6.22331 57.9893 6.60156C58.2445 6.97982 58.3721 7.45605 58.3721 8.03027V11.2568C58.3721 11.626 58.3949 11.9427 58.4404 12.207C58.4906 12.4668 58.5635 12.6924 58.6592 12.8838V13H56.8203C56.7337 12.8132 56.6676 12.5762 56.6221 12.2891C56.5765 11.9974 56.5537 11.7103 56.5537 11.4277ZM56.8066 8.49512L56.8203 9.56836H55.6787C55.3962 9.56836 55.1478 9.59798 54.9336 9.65723C54.7194 9.71191 54.5439 9.79395 54.4072 9.90332C54.2705 10.0081 54.168 10.1357 54.0996 10.2861C54.0312 10.432 53.9971 10.5983 53.9971 10.7852C53.9971 10.9674 54.0381 11.1315 54.1201 11.2773C54.2067 11.4232 54.3298 11.5394 54.4893 11.626C54.6533 11.708 54.8447 11.749 55.0635 11.749C55.3825 11.749 55.6605 11.6852 55.8975 11.5576C56.1344 11.4255 56.319 11.266 56.4512 11.0791C56.5833 10.8923 56.654 10.7145 56.6631 10.5459L57.1826 11.3252C57.1188 11.512 57.0231 11.7103 56.8955 11.9199C56.7679 12.1296 56.6038 12.3255 56.4033 12.5078C56.2028 12.6901 55.9613 12.8405 55.6787 12.959C55.3962 13.0775 55.068 13.1367 54.6943 13.1367C54.2158 13.1367 53.7874 13.041 53.4092 12.8496C53.0309 12.6582 52.7324 12.3962 52.5137 12.0635C52.2949 11.7308 52.1855 11.3525 52.1855 10.9287C52.1855 10.5368 52.2585 10.1904 52.4043 9.88965C52.5501 9.58887 52.7666 9.33594 53.0537 9.13086C53.3408 8.92122 53.6963 8.764 54.1201 8.65918C54.5485 8.5498 55.0384 8.49512 55.5898 8.49512H56.8066ZM61.9131 2.5V13H60.1016V2.5H61.9131ZM65.4404 2.49316V13H63.6357V2.49316H65.4404ZM70.0752 5.60352L66.8555 9.21973L65.1123 10.9902L64.5381 9.58887L65.8848 7.89355L67.8945 5.60352H70.0752ZM68.2295 13L65.9395 9.55469L67.1426 8.38574L70.3213 13H68.2295ZM75.0996 10.9766C75.0996 10.8216 75.0586 10.6826 74.9766 10.5596C74.8945 10.4365 74.7396 10.3249 74.5117 10.2246C74.2884 10.1198 73.9603 10.0218 73.5273 9.93066C73.1445 9.84863 72.7913 9.74609 72.4678 9.62305C72.1442 9.5 71.8662 9.35189 71.6338 9.17871C71.4014 9.00098 71.2191 8.79362 71.0869 8.55664C70.9593 8.3151 70.8955 8.03711 70.8955 7.72266C70.8955 7.41732 70.9616 7.13021 71.0938 6.86133C71.2259 6.58789 71.4173 6.34863 71.668 6.14355C71.9186 5.93392 72.224 5.76986 72.584 5.65137C72.944 5.52832 73.3496 5.4668 73.8008 5.4668C74.4297 5.4668 74.9697 5.56934 75.4209 5.77441C75.8766 5.97949 76.2253 6.26204 76.4668 6.62207C76.7083 6.97754 76.8291 7.37858 76.8291 7.8252H75.0244C75.0244 7.62923 74.9788 7.4515 74.8877 7.29199C74.8011 7.13249 74.6667 7.00488 74.4844 6.90918C74.3021 6.80892 74.0719 6.75879 73.7939 6.75879C73.5433 6.75879 73.3314 6.7998 73.1582 6.88184C72.9896 6.96387 72.862 7.07096 72.7754 7.20312C72.6888 7.33529 72.6455 7.48112 72.6455 7.64062C72.6455 7.75911 72.6683 7.86621 72.7139 7.96191C72.764 8.05306 72.8438 8.13737 72.9531 8.21484C73.0625 8.29232 73.2106 8.36296 73.3975 8.42676C73.5889 8.49056 73.8236 8.55208 74.1016 8.61133C74.653 8.7207 75.1338 8.86654 75.5439 9.04883C75.9587 9.22656 76.2822 9.46354 76.5146 9.75977C76.7471 10.056 76.8633 10.4342 76.8633 10.8945C76.8633 11.2227 76.7926 11.5234 76.6514 11.7969C76.5101 12.0658 76.305 12.3005 76.0361 12.501C75.7673 12.7015 75.446 12.8587 75.0723 12.9727C74.6986 13.082 74.277 13.1367 73.8076 13.1367C73.1286 13.1367 72.5544 13.016 72.085 12.7744C71.6156 12.5283 71.2601 12.2184 71.0186 11.8447C70.777 11.4665 70.6562 11.0745 70.6562 10.6689H72.3857C72.3994 10.9561 72.4769 11.1862 72.6182 11.3594C72.7594 11.5326 72.9372 11.6579 73.1514 11.7354C73.3701 11.8083 73.6003 11.8447 73.8418 11.8447C74.1152 11.8447 74.3454 11.8083 74.5322 11.7354C74.7191 11.6579 74.8604 11.5553 74.9561 11.4277C75.0518 11.2956 75.0996 11.1452 75.0996 10.9766Z" fill="black"/>
<path d="M3.29883 35H1.51758L1.5293 34.0801H3.29883C3.9082 34.0801 4.41602 33.9531 4.82227 33.6992C5.22852 33.4414 5.5332 33.082 5.73633 32.6211C5.94336 32.1562 6.04688 31.6133 6.04688 30.9922V30.4707C6.04688 29.9824 5.98828 29.5488 5.87109 29.1699C5.75391 28.7871 5.58203 28.4648 5.35547 28.2031C5.12891 27.9375 4.85156 27.7363 4.52344 27.5996C4.19922 27.4629 3.82617 27.3945 3.4043 27.3945H1.48242V26.4688H3.4043C3.96289 26.4688 4.47266 26.5625 4.93359 26.75C5.39453 26.9336 5.79102 27.2012 6.12305 27.5527C6.45898 27.9004 6.7168 28.3223 6.89648 28.8184C7.07617 29.3105 7.16602 29.8652 7.16602 30.4824V30.9922C7.16602 31.6094 7.07617 32.166 6.89648 32.6621C6.7168 33.1543 6.45703 33.5742 6.11719 33.9219C5.78125 34.2695 5.375 34.5371 4.89844 34.7246C4.42578 34.9082 3.89258 35 3.29883 35ZM2.12109 26.4688V35H0.990234V26.4688H2.12109ZM9.87891 28.6602V35H8.78906V28.6602H9.87891ZM8.70703 26.9785C8.70703 26.8027 8.75977 26.6543 8.86523 26.5332C8.97461 26.4121 9.13477 26.3516 9.3457 26.3516C9.55273 26.3516 9.71094 26.4121 9.82031 26.5332C9.93359 26.6543 9.99023 26.8027 9.99023 26.9785C9.99023 27.1465 9.93359 27.291 9.82031 27.4121C9.71094 27.5293 9.55273 27.5879 9.3457 27.5879C9.13477 27.5879 8.97461 27.5293 8.86523 27.4121C8.75977 27.291 8.70703 27.1465 8.70703 26.9785ZM15.7266 28.6602H16.7109V34.8652C16.7109 35.4238 16.5977 35.9004 16.3711 36.2949C16.1445 36.6895 15.8281 36.9883 15.4219 37.1914C15.0195 37.3984 14.5547 37.502 14.0273 37.502C13.8086 37.502 13.5508 37.4668 13.2539 37.3965C12.9609 37.3301 12.6719 37.2148 12.3867 37.0508C12.1055 36.8906 11.8691 36.6738 11.6777 36.4004L12.2461 35.7559C12.5117 36.0762 12.7891 36.2988 13.0781 36.4238C13.3711 36.5488 13.6602 36.6113 13.9453 36.6113C14.2891 36.6113 14.5859 36.5469 14.8359 36.418C15.0859 36.2891 15.2793 36.0977 15.416 35.8438C15.5566 35.5938 15.627 35.2852 15.627 34.918V30.0547L15.7266 28.6602ZM11.3613 31.9004V31.7773C11.3613 31.293 11.418 30.8535 11.5312 30.459C11.6484 30.0605 11.8145 29.7188 12.0293 29.4336C12.248 29.1484 12.5117 28.9297 12.8203 28.7773C13.1289 28.6211 13.4766 28.543 13.8633 28.543C14.2617 28.543 14.6094 28.6133 14.9062 28.7539C15.207 28.8906 15.4609 29.0918 15.668 29.3574C15.8789 29.6191 16.0449 29.9355 16.166 30.3066C16.2871 30.6777 16.3711 31.0977 16.418 31.5664V32.1055C16.375 32.5703 16.291 32.9883 16.166 33.3594C16.0449 33.7305 15.8789 34.0469 15.668 34.3086C15.4609 34.5703 15.207 34.7715 14.9062 34.9121C14.6055 35.0488 14.2539 35.1172 13.8516 35.1172C13.4727 35.1172 13.1289 35.0371 12.8203 34.877C12.5156 34.7168 12.2539 34.4922 12.0352 34.2031C11.8164 33.9141 11.6484 33.5742 11.5312 33.1836C11.418 32.7891 11.3613 32.3613 11.3613 31.9004ZM12.4453 31.7773V31.9004C12.4453 32.2168 12.4766 32.5137 12.5391 32.791C12.6055 33.0684 12.7051 33.3125 12.8379 33.5234C12.9746 33.7344 13.1484 33.9004 13.3594 34.0215C13.5703 34.1387 13.8223 34.1973 14.1152 34.1973C14.4746 34.1973 14.7715 34.1211 15.0059 33.9688C15.2402 33.8164 15.4258 33.6152 15.5625 33.3652C15.7031 33.1152 15.8125 32.8438 15.8906 32.5508V31.1387C15.8477 30.9238 15.7812 30.7168 15.6914 30.5176C15.6055 30.3145 15.4922 30.1348 15.3516 29.9785C15.2148 29.8184 15.0449 29.6914 14.8418 29.5977C14.6387 29.5039 14.4004 29.457 14.127 29.457C13.8301 29.457 13.5742 29.5195 13.3594 29.6445C13.1484 29.7656 12.9746 29.9336 12.8379 30.1484C12.7051 30.3594 12.6055 30.6055 12.5391 30.8867C12.4766 31.1641 12.4453 31.4609 12.4453 31.7773ZM19.5352 28.6602V35H18.4453V28.6602H19.5352ZM18.3633 26.9785C18.3633 26.8027 18.416 26.6543 18.5215 26.5332C18.6309 26.4121 18.791 26.3516 19.002 26.3516C19.209 26.3516 19.3672 26.4121 19.4766 26.5332C19.5898 26.6543 19.6465 26.8027 19.6465 26.9785C19.6465 27.1465 19.5898 27.291 19.4766 27.4121C19.3672 27.5293 19.209 27.5879 19.002 27.5879C18.791 27.5879 18.6309 27.5293 18.5215 27.4121C18.416 27.291 18.3633 27.1465 18.3633 26.9785ZM23.9297 28.6602V29.4922H20.502V28.6602H23.9297ZM21.6621 27.1191H22.7461V33.4297C22.7461 33.6445 22.7793 33.8066 22.8457 33.916C22.9121 34.0254 22.998 34.0977 23.1035 34.1328C23.209 34.168 23.3223 34.1855 23.4434 34.1855C23.5332 34.1855 23.627 34.1777 23.7246 34.1621C23.8262 34.1426 23.9023 34.127 23.9531 34.1152L23.959 35C23.873 35.0273 23.7598 35.0527 23.6191 35.0762C23.4824 35.1035 23.3164 35.1172 23.1211 35.1172C22.8555 35.1172 22.6113 35.0645 22.3887 34.959C22.166 34.8535 21.9883 34.6777 21.8555 34.4316C21.7266 34.1816 21.6621 33.8457 21.6621 33.4238V27.1191ZM28.9395 33.916V30.6523C28.9395 30.4023 28.8887 30.1855 28.7871 30.002C28.6895 29.8145 28.541 29.6699 28.3418 29.5684C28.1426 29.4668 27.8965 29.416 27.6035 29.416C27.3301 29.416 27.0898 29.4629 26.8828 29.5566C26.6797 29.6504 26.5195 29.7734 26.4023 29.9258C26.2891 30.0781 26.2324 30.2422 26.2324 30.418H25.1484C25.1484 30.1914 25.207 29.9668 25.3242 29.7441C25.4414 29.5215 25.6094 29.3203 25.8281 29.1406C26.0508 28.957 26.3164 28.8125 26.625 28.707C26.9375 28.5977 27.2852 28.543 27.668 28.543C28.1289 28.543 28.5352 28.6211 28.8867 28.7773C29.2422 28.9336 29.5195 29.1699 29.7188 29.4863C29.9219 29.7988 30.0234 30.1914 30.0234 30.6641V33.6172C30.0234 33.8281 30.041 34.0527 30.0762 34.291C30.1152 34.5293 30.1719 34.7344 30.2461 34.9062V35H29.1152C29.0605 34.875 29.0176 34.709 28.9863 34.502C28.9551 34.291 28.9395 34.0957 28.9395 33.916ZM29.127 31.1562L29.1387 31.918H28.043C27.7344 31.918 27.459 31.9434 27.2168 31.9941C26.9746 32.041 26.7715 32.1133 26.6074 32.2109C26.4434 32.3086 26.3184 32.4316 26.2324 32.5801C26.1465 32.7246 26.1035 32.8945 26.1035 33.0898C26.1035 33.2891 26.1484 33.4707 26.2383 33.6348C26.3281 33.7988 26.4629 33.9297 26.6426 34.0273C26.8262 34.1211 27.0508 34.168 27.3164 34.168C27.6484 34.168 27.9414 34.0977 28.1953 33.957C28.4492 33.8164 28.6504 33.6445 28.7988 33.4414C28.9512 33.2383 29.0332 33.041 29.0449 32.8496L29.5078 33.3711C29.4805 33.5352 29.4062 33.7168 29.2852 33.916C29.1641 34.1152 29.002 34.3066 28.7988 34.4902C28.5996 34.6699 28.3613 34.8203 28.084 34.9414C27.8105 35.0586 27.502 35.1172 27.1582 35.1172C26.7285 35.1172 26.3516 35.0332 26.0273 34.8652C25.707 34.6973 25.457 34.4727 25.2773 34.1914C25.1016 33.9062 25.0137 33.5879 25.0137 33.2363C25.0137 32.8965 25.0801 32.5977 25.2129 32.3398C25.3457 32.0781 25.5371 31.8613 25.7871 31.6895C26.0371 31.5137 26.3379 31.3809 26.6895 31.291C27.041 31.2012 27.4336 31.1562 27.8672 31.1562H29.127ZM32.9062 26V35H31.8164V26H32.9062ZM36.0234 26.4688V35H34.8926V26.4688H36.0234ZM39 30.0137V35H37.916V28.6602H38.9414L39 30.0137ZM38.7422 31.5898L38.291 31.5723C38.2949 31.1387 38.3594 30.7383 38.4844 30.3711C38.6094 30 38.7852 29.6777 39.0117 29.4043C39.2383 29.1309 39.5078 28.9199 39.8203 28.7715C40.1367 28.6191 40.4863 28.543 40.8691 28.543C41.1816 28.543 41.4629 28.5859 41.7129 28.6719C41.9629 28.7539 42.1758 28.8867 42.3516 29.0703C42.5312 29.2539 42.668 29.4922 42.7617 29.7852C42.8555 30.0742 42.9023 30.4277 42.9023 30.8457V35H41.8125V30.834C41.8125 30.502 41.7637 30.2363 41.666 30.0371C41.5684 29.834 41.4258 29.6875 41.2383 29.5977C41.0508 29.5039 40.8203 29.457 40.5469 29.457C40.2773 29.457 40.0312 29.5137 39.8086 29.627C39.5898 29.7402 39.4004 29.8965 39.2402 30.0957C39.084 30.2949 38.9609 30.5234 38.8711 30.7812C38.7852 31.0352 38.7422 31.3047 38.7422 31.5898ZM45.6328 30.0137V35H44.5488V28.6602H45.5742L45.6328 30.0137ZM45.375 31.5898L44.9238 31.5723C44.9277 31.1387 44.9922 30.7383 45.1172 30.3711C45.2422 30 45.418 29.6777 45.6445 29.4043C45.8711 29.1309 46.1406 28.9199 46.4531 28.7715C46.7695 28.6191 47.1191 28.543 47.502 28.543C47.8145 28.543 48.0957 28.5859 48.3457 28.6719C48.5957 28.7539 48.8086 28.8867 48.9844 29.0703C49.1641 29.2539 49.3008 29.4922 49.3945 29.7852C49.4883 30.0742 49.5352 30.4277 49.5352 30.8457V35H48.4453V30.834C48.4453 30.502 48.3965 30.2363 48.2988 30.0371C48.2012 29.834 48.0586 29.6875 47.8711 29.5977C47.6836 29.5039 47.4531 29.457 47.1797 29.457C46.9102 29.457 46.6641 29.5137 46.4414 29.627C46.2227 29.7402 46.0332 29.8965 45.873 30.0957C45.7168 30.2949 45.5938 30.5234 45.5039 30.7812C45.418 31.0352 45.375 31.3047 45.375 31.5898ZM50.8945 31.9004V31.7656C50.8945 31.3086 50.9609 30.8848 51.0938 30.4941C51.2266 30.0996 51.418 29.7578 51.668 29.4688C51.918 29.1758 52.2207 28.9492 52.5762 28.7891C52.9316 28.625 53.3301 28.543 53.7715 28.543C54.2168 28.543 54.6172 28.625 54.9727 28.7891C55.332 28.9492 55.6367 29.1758 55.8867 29.4688C56.1406 29.7578 56.334 30.0996 56.4668 30.4941C56.5996 30.8848 56.666 31.3086 56.666 31.7656V31.9004C56.666 32.3574 56.5996 32.7812 56.4668 33.1719C56.334 33.5625 56.1406 33.9043 55.8867 34.1973C55.6367 34.4863 55.334 34.7129 54.9785 34.877C54.627 35.0371 54.2285 35.1172 53.7832 35.1172C53.3379 35.1172 52.9375 35.0371 52.582 34.877C52.2266 34.7129 51.9219 34.4863 51.668 34.1973C51.418 33.9043 51.2266 33.5625 51.0938 33.1719C50.9609 32.7812 50.8945 32.3574 50.8945 31.9004ZM51.9785 31.7656V31.9004C51.9785 32.2168 52.0156 32.5156 52.0898 32.7969C52.1641 33.0742 52.2754 33.3203 52.4238 33.5352C52.5762 33.75 52.7656 33.9199 52.9922 34.0449C53.2188 34.166 53.4824 34.2266 53.7832 34.2266C54.0801 34.2266 54.3398 34.166 54.5625 34.0449C54.7891 33.9199 54.9766 33.75 55.125 33.5352C55.2734 33.3203 55.3848 33.0742 55.459 32.7969C55.5371 32.5156 55.5762 32.2168 55.5762 31.9004V31.7656C55.5762 31.4531 55.5371 31.1582 55.459 30.8809C55.3848 30.5996 55.2715 30.3516 55.1191 30.1367C54.9707 29.918 54.7832 29.7461 54.5566 29.6211C54.334 29.4961 54.0723 29.4336 53.7715 29.4336C53.4746 29.4336 53.2129 29.4961 52.9863 29.6211C52.7637 29.7461 52.5762 29.918 52.4238 30.1367C52.2754 30.3516 52.1641 30.5996 52.0898 30.8809C52.0156 31.1582 51.9785 31.4531 51.9785 31.7656ZM59.8594 34.0215L61.5938 28.6602H62.7012L60.4219 35H59.6953L59.8594 34.0215ZM58.4121 28.6602L60.1992 34.0508L60.3223 35H59.5957L57.2988 28.6602H58.4121ZM67.3887 33.916V30.6523C67.3887 30.4023 67.3379 30.1855 67.2363 30.002C67.1387 29.8145 66.9902 29.6699 66.791 29.5684C66.5918 29.4668 66.3457 29.416 66.0527 29.416C65.7793 29.416 65.5391 29.4629 65.332 29.5566C65.1289 29.6504 64.9688 29.7734 64.8516 29.9258C64.7383 30.0781 64.6816 30.2422 64.6816 30.418H63.5977C63.5977 30.1914 63.6562 29.9668 63.7734 29.7441C63.8906 29.5215 64.0586 29.3203 64.2773 29.1406C64.5 28.957 64.7656 28.8125 65.0742 28.707C65.3867 28.5977 65.7344 28.543 66.1172 28.543C66.5781 28.543 66.9844 28.6211 67.3359 28.7773C67.6914 28.9336 67.9688 29.1699 68.168 29.4863C68.3711 29.7988 68.4727 30.1914 68.4727 30.6641V33.6172C68.4727 33.8281 68.4902 34.0527 68.5254 34.291C68.5645 34.5293 68.6211 34.7344 68.6953 34.9062V35H67.5645C67.5098 34.875 67.4668 34.709 67.4355 34.502C67.4043 34.291 67.3887 34.0957 67.3887 33.916ZM67.5762 31.1562L67.5879 31.918H66.4922C66.1836 31.918 65.9082 31.9434 65.666 31.9941C65.4238 32.041 65.2207 32.1133 65.0566 32.2109C64.8926 32.3086 64.7676 32.4316 64.6816 32.5801C64.5957 32.7246 64.5527 32.8945 64.5527 33.0898C64.5527 33.2891 64.5977 33.4707 64.6875 33.6348C64.7773 33.7988 64.9121 33.9297 65.0918 34.0273C65.2754 34.1211 65.5 34.168 65.7656 34.168C66.0977 34.168 66.3906 34.0977 66.6445 33.957C66.8984 33.8164 67.0996 33.6445 67.248 33.4414C67.4004 33.2383 67.4824 33.041 67.4941 32.8496L67.957 33.3711C67.9297 33.5352 67.8555 33.7168 67.7344 33.916C67.6133 34.1152 67.4512 34.3066 67.248 34.4902C67.0488 34.6699 66.8105 34.8203 66.5332 34.9414C66.2598 35.0586 65.9512 35.1172 65.6074 35.1172C65.1777 35.1172 64.8008 35.0332 64.4766 34.8652C64.1562 34.6973 63.9062 34.4727 63.7266 34.1914C63.5508 33.9062 63.4629 33.5879 63.4629 33.2363C63.4629 32.8965 63.5293 32.5977 63.6621 32.3398C63.7949 32.0781 63.9863 31.8613 64.2363 31.6895C64.4863 31.5137 64.7871 31.3809 65.1387 31.291C65.4902 31.2012 65.8828 31.1562 66.3164 31.1562H67.5762ZM72.832 28.6602V29.4922H69.4043V28.6602H72.832ZM70.5645 27.1191H71.6484V33.4297C71.6484 33.6445 71.6816 33.8066 71.748 33.916C71.8145 34.0254 71.9004 34.0977 72.0059 34.1328C72.1113 34.168 72.2246 34.1855 72.3457 34.1855C72.4355 34.1855 72.5293 34.1777 72.627 34.1621C72.7285 34.1426 72.8047 34.127 72.8555 34.1152L72.8613 35C72.7754 35.0273 72.6621 35.0527 72.5215 35.0762C72.3848 35.1035 72.2188 35.1172 72.0234 35.1172C71.7578 35.1172 71.5137 35.0645 71.291 34.959C71.0684 34.8535 70.8906 34.6777 70.7578 34.4316C70.6289 34.1816 70.5645 33.8457 70.5645 33.4238V27.1191ZM75.2812 28.6602V35H74.1914V28.6602H75.2812ZM74.1094 26.9785C74.1094 26.8027 74.1621 26.6543 74.2676 26.5332C74.377 26.4121 74.5371 26.3516 74.748 26.3516C74.9551 26.3516 75.1133 26.4121 75.2227 26.5332C75.3359 26.6543 75.3926 26.8027 75.3926 26.9785C75.3926 27.1465 75.3359 27.291 75.2227 27.4121C75.1133 27.5293 74.9551 27.5879 74.748 27.5879C74.5371 27.5879 74.377 27.5293 74.2676 27.4121C74.1621 27.291 74.1094 27.1465 74.1094 26.9785ZM76.7344 31.9004V31.7656C76.7344 31.3086 76.8008 30.8848 76.9336 30.4941C77.0664 30.0996 77.2578 29.7578 77.5078 29.4688C77.7578 29.1758 78.0605 28.9492 78.416 28.7891C78.7715 28.625 79.1699 28.543 79.6113 28.543C80.0566 28.543 80.457 28.625 80.8125 28.7891C81.1719 28.9492 81.4766 29.1758 81.7266 29.4688C81.9805 29.7578 82.1738 30.0996 82.3066 30.4941C82.4395 30.8848 82.5059 31.3086 82.5059 31.7656V31.9004C82.5059 32.3574 82.4395 32.7812 82.3066 33.1719C82.1738 33.5625 81.9805 33.9043 81.7266 34.1973C81.4766 34.4863 81.1738 34.7129 80.8184 34.877C80.4668 35.0371 80.0684 35.1172 79.623 35.1172C79.1777 35.1172 78.7773 35.0371 78.4219 34.877C78.0664 34.7129 77.7617 34.4863 77.5078 34.1973C77.2578 33.9043 77.0664 33.5625 76.9336 33.1719C76.8008 32.7812 76.7344 32.3574 76.7344 31.9004ZM77.8184 31.7656V31.9004C77.8184 32.2168 77.8555 32.5156 77.9297 32.7969C78.0039 33.0742 78.1152 33.3203 78.2637 33.5352C78.416 33.75 78.6055 33.9199 78.832 34.0449C79.0586 34.166 79.3223 34.2266 79.623 34.2266C79.9199 34.2266 80.1797 34.166 80.4023 34.0449C80.6289 33.9199 80.8164 33.75 80.9648 33.5352C81.1133 33.3203 81.2246 33.0742 81.2988 32.7969C81.377 32.5156 81.416 32.2168 81.416 31.9004V31.7656C81.416 31.4531 81.377 31.1582 81.2988 30.8809C81.2246 30.5996 81.1113 30.3516 80.959 30.1367C80.8105 29.918 80.623 29.7461 80.3965 29.6211C80.1738 29.4961 79.9121 29.4336 79.6113 29.4336C79.3145 29.4336 79.0527 29.4961 78.8262 29.6211C78.6035 29.7461 78.416 29.918 78.2637 30.1367C78.1152 30.3516 78.0039 30.5996 77.9297 30.8809C77.8555 31.1582 77.8184 31.4531 77.8184 31.7656ZM84.9492 30.0137V35H83.8652V28.6602H84.8906L84.9492 30.0137ZM84.6914 31.5898L84.2402 31.5723C84.2441 31.1387 84.3086 30.7383 84.4336 30.3711C84.5586 30 84.7344 29.6777 84.9609 29.4043C85.1875 29.1309 85.457 28.9199 85.7695 28.7715C86.0859 28.6191 86.4355 28.543 86.8184 28.543C87.1309 28.543 87.4121 28.5859 87.6621 28.6719C87.9121 28.7539 88.125 28.8867 88.3008 29.0703C88.4805 29.2539 88.6172 29.4922 88.7109 29.7852C88.8047 30.0742 88.8516 30.4277 88.8516 30.8457V35H87.7617V30.834C87.7617 30.502 87.7129 30.2363 87.6152 30.0371C87.5176 29.834 87.375 29.6875 87.1875 29.5977C87 29.5039 86.7695 29.457 86.4961 29.457C86.2266 29.457 85.9805 29.5137 85.7578 29.627C85.5391 29.7402 85.3496 29.8965 85.1895 30.0957C85.0332 30.2949 84.9102 30.5234 84.8203 30.7812C84.7344 31.0352 84.6914 31.3047 84.6914 31.5898ZM97.2305 30.4648V31.0039C97.2305 31.6445 97.1504 32.2188 96.9902 32.7266C96.8301 33.2344 96.5996 33.666 96.2988 34.0215C95.998 34.377 95.6367 34.6484 95.2148 34.8359C94.7969 35.0234 94.3281 35.1172 93.8086 35.1172C93.3047 35.1172 92.8418 35.0234 92.4199 34.8359C92.002 34.6484 91.6387 34.377 91.3301 34.0215C91.0254 33.666 90.7891 33.2344 90.6211 32.7266C90.4531 32.2188 90.3691 31.6445 90.3691 31.0039V30.4648C90.3691 29.8242 90.4512 29.252 90.6152 28.748C90.7832 28.2402 91.0195 27.8086 91.3242 27.4531C91.6289 27.0938 91.9902 26.8203 92.4082 26.6328C92.8301 26.4453 93.293 26.3516 93.7969 26.3516C94.3164 26.3516 94.7852 26.4453 95.2031 26.6328C95.625 26.8203 95.9863 27.0938 96.2871 27.4531C96.5918 27.8086 96.8242 28.2402 96.9844 28.748C97.1484 29.252 97.2305 29.8242 97.2305 30.4648ZM96.1113 31.0039V30.4531C96.1113 29.9453 96.0586 29.4961 95.9531 29.1055C95.8516 28.7148 95.7012 28.3867 95.502 28.1211C95.3027 27.8555 95.0586 27.6543 94.7695 27.5176C94.4844 27.3809 94.1602 27.3125 93.7969 27.3125C93.4453 27.3125 93.127 27.3809 92.8418 27.5176C92.5605 27.6543 92.3184 27.8555 92.1152 28.1211C91.916 28.3867 91.7617 28.7148 91.6523 29.1055C91.543 29.4961 91.4883 29.9453 91.4883 30.4531V31.0039C91.4883 31.5156 91.543 31.9688 91.6523 32.3633C91.7617 32.7539 91.918 33.084 92.1211 33.3535C92.3281 33.6191 92.5723 33.8203 92.8535 33.957C93.1387 34.0938 93.457 34.1621 93.8086 34.1621C94.1758 34.1621 94.502 34.0938 94.7871 33.957C95.0723 33.8203 95.3125 33.6191 95.5078 33.3535C95.707 33.084 95.8574 32.7539 95.959 32.3633C96.0605 31.9688 96.1113 31.5156 96.1113 31.0039ZM99.8438 30.0137V35H98.7598V28.6602H99.7852L99.8438 30.0137ZM99.5859 31.5898L99.1348 31.5723C99.1387 31.1387 99.2031 30.7383 99.3281 30.3711C99.4531 30 99.6289 29.6777 99.8555 29.4043C100.082 29.1309 100.352 28.9199 100.664 28.7715C100.98 28.6191 101.33 28.543 101.713 28.543C102.025 28.543 102.307 28.5859 102.557 28.6719C102.807 28.7539 103.02 28.8867 103.195 29.0703C103.375 29.2539 103.512 29.4922 103.605 29.7852C103.699 30.0742 103.746 30.4277 103.746 30.8457V35H102.656V30.834C102.656 30.502 102.607 30.2363 102.51 30.0371C102.412 29.834 102.27 29.6875 102.082 29.5977C101.895 29.5039 101.664 29.457 101.391 29.457C101.121 29.457 100.875 29.5137 100.652 29.627C100.434 29.7402 100.244 29.8965 100.084 30.0957C99.9277 30.2949 99.8047 30.5234 99.7148 30.7812C99.6289 31.0352 99.5859 31.3047 99.5859 31.5898ZM108.023 35.1172C107.582 35.1172 107.182 35.043 106.822 34.8945C106.467 34.7422 106.16 34.5293 105.902 34.2559C105.648 33.9824 105.453 33.6582 105.316 33.2832C105.18 32.9082 105.111 32.498 105.111 32.0527V31.8066C105.111 31.291 105.188 30.832 105.34 30.4297C105.492 30.0234 105.699 29.6797 105.961 29.3984C106.223 29.1172 106.52 28.9043 106.852 28.7598C107.184 28.6152 107.527 28.543 107.883 28.543C108.336 28.543 108.727 28.6211 109.055 28.7773C109.387 28.9336 109.658 29.1523 109.869 29.4336C110.08 29.7109 110.236 30.0391 110.338 30.418C110.439 30.793 110.49 31.2031 110.49 31.6484V32.1348H105.756V31.25H109.406V31.168C109.391 30.8867 109.332 30.6133 109.23 30.3477C109.133 30.082 108.977 29.8633 108.762 29.6914C108.547 29.5195 108.254 29.4336 107.883 29.4336C107.637 29.4336 107.41 29.4863 107.203 29.5918C106.996 29.6934 106.818 29.8457 106.67 30.0488C106.521 30.252 106.406 30.5 106.324 30.793C106.242 31.0859 106.201 31.4238 106.201 31.8066V32.0527C106.201 32.3535 106.242 32.6367 106.324 32.9023C106.41 33.1641 106.533 33.3945 106.693 33.5938C106.857 33.793 107.055 33.9492 107.285 34.0625C107.52 34.1758 107.785 34.2324 108.082 34.2324C108.465 34.2324 108.789 34.1543 109.055 33.998C109.32 33.8418 109.553 33.6328 109.752 33.3711L110.408 33.8926C110.271 34.0996 110.098 34.2969 109.887 34.4844C109.676 34.6719 109.416 34.8242 109.107 34.9414C108.803 35.0586 108.441 35.1172 108.023 35.1172Z" fill="#515151"/>
<path d="M4.27148 47.4219V56H3.1875V48.7754L1.00195 49.5723V48.5938L4.10156 47.4219H4.27148ZM8.56055 54.7109V55.584C8.56055 55.9395 8.4707 56.3145 8.29102 56.709C8.11133 57.1074 7.85938 57.4395 7.53516 57.7051L6.91992 57.2773C7.04492 57.1055 7.15039 56.9297 7.23633 56.75C7.32227 56.5742 7.38672 56.3906 7.42969 56.1992C7.47656 56.0117 7.5 55.8125 7.5 55.6016V54.7109H8.56055ZM13.9863 47.457H14.0801V48.377H13.9863C13.4121 48.377 12.9316 48.4707 12.5449 48.6582C12.1582 48.8418 11.8516 49.0898 11.625 49.4023C11.3984 49.7109 11.2344 50.0586 11.1328 50.4453C11.0352 50.832 10.9863 51.2246 10.9863 51.623V52.877C10.9863 53.2559 11.0312 53.5918 11.1211 53.8848C11.2109 54.1738 11.334 54.418 11.4902 54.6172C11.6465 54.8164 11.8223 54.9668 12.0176 55.0684C12.2168 55.1699 12.4238 55.2207 12.6387 55.2207C12.8887 55.2207 13.1113 55.1738 13.3066 55.0801C13.502 54.9824 13.666 54.8477 13.7988 54.6758C13.9355 54.5 14.0391 54.293 14.1094 54.0547C14.1797 53.8164 14.2148 53.5547 14.2148 53.2695C14.2148 53.0156 14.1836 52.7715 14.1211 52.5371C14.0586 52.2988 13.9629 52.0879 13.834 51.9043C13.7051 51.7168 13.543 51.5703 13.3477 51.4648C13.1562 51.3555 12.9277 51.3008 12.6621 51.3008C12.3613 51.3008 12.0801 51.375 11.8184 51.5234C11.5605 51.668 11.3477 51.8594 11.1797 52.0977C11.0156 52.332 10.9219 52.5879 10.8984 52.8652L10.3242 52.8594C10.3789 52.4219 10.4805 52.0488 10.6289 51.7402C10.7812 51.4277 10.9688 51.1738 11.1914 50.9785C11.418 50.7793 11.6699 50.6348 11.9473 50.5449C12.2285 50.4512 12.5254 50.4043 12.8379 50.4043C13.2637 50.4043 13.6309 50.4844 13.9395 50.6445C14.248 50.8047 14.502 51.0195 14.7012 51.2891C14.9004 51.5547 15.0469 51.8555 15.1406 52.1914C15.2383 52.5234 15.2871 52.8652 15.2871 53.2168C15.2871 53.6191 15.2305 53.9961 15.1172 54.3477C15.0039 54.6992 14.834 55.0078 14.6074 55.2734C14.3848 55.5391 14.1094 55.7461 13.7812 55.8945C13.4531 56.043 13.0723 56.1172 12.6387 56.1172C12.1777 56.1172 11.7754 56.0234 11.4316 55.8359C11.0879 55.6445 10.8027 55.3906 10.5762 55.0742C10.3496 54.7578 10.1797 54.4062 10.0664 54.0195C9.95312 53.6328 9.89648 53.2402 9.89648 52.8418V52.332C9.89648 51.7305 9.95703 51.1406 10.0781 50.5625C10.1992 49.9844 10.4082 49.4609 10.7051 48.9922C11.0059 48.5234 11.4219 48.1504 11.9531 47.873C12.4844 47.5957 13.1621 47.457 13.9863 47.457ZM20.748 50.9199V56H19.6582V49.6602H20.6895L20.748 50.9199ZM20.5254 52.5898L20.0215 52.5723C20.0254 52.1387 20.082 51.7383 20.1914 51.3711C20.3008 51 20.4629 50.6777 20.6777 50.4043C20.8926 50.1309 21.1602 49.9199 21.4805 49.7715C21.8008 49.6191 22.1719 49.543 22.5938 49.543C22.8906 49.543 23.1641 49.5859 23.4141 49.6719C23.6641 49.7539 23.8809 49.8848 24.0645 50.0645C24.248 50.2441 24.3906 50.4746 24.4922 50.7559C24.5938 51.0371 24.6445 51.377 24.6445 51.7754V56H23.5605V51.8281C23.5605 51.4961 23.5039 51.2305 23.3906 51.0312C23.2812 50.832 23.125 50.6875 22.9219 50.5977C22.7188 50.5039 22.4805 50.457 22.207 50.457C21.8867 50.457 21.6191 50.5137 21.4043 50.627C21.1895 50.7402 21.0176 50.8965 20.8887 51.0957C20.7598 51.2949 20.666 51.5234 20.6074 51.7812C20.5527 52.0352 20.5254 52.3047 20.5254 52.5898ZM24.6328 51.9922L23.9062 52.2148C23.9102 51.8672 23.9668 51.5332 24.0762 51.2129C24.1895 50.8926 24.3516 50.6074 24.5625 50.3574C24.7773 50.1074 25.041 49.9102 25.3535 49.7656C25.666 49.6172 26.0234 49.543 26.4258 49.543C26.7656 49.543 27.0664 49.5879 27.3281 49.6777C27.5938 49.7676 27.8164 49.9062 27.9961 50.0938C28.1797 50.2773 28.3184 50.5137 28.4121 50.8027C28.5059 51.0918 28.5527 51.4355 28.5527 51.834V56H27.4629V51.8223C27.4629 51.4668 27.4062 51.1914 27.293 50.9961C27.1836 50.7969 27.0273 50.6582 26.8242 50.5801C26.625 50.498 26.3867 50.457 26.1094 50.457C25.8711 50.457 25.6602 50.498 25.4766 50.5801C25.293 50.6621 25.1387 50.7754 25.0137 50.9199C24.8887 51.0605 24.793 51.2227 24.7266 51.4062C24.6641 51.5898 24.6328 51.7852 24.6328 51.9922ZM31.3711 49.6602V56H30.2812V49.6602H31.3711ZM30.1992 47.9785C30.1992 47.8027 30.252 47.6543 30.3574 47.5332C30.4668 47.4121 30.627 47.3516 30.8379 47.3516C31.0449 47.3516 31.2031 47.4121 31.3125 47.5332C31.4258 47.6543 31.4824 47.8027 31.4824 47.9785C31.4824 48.1465 31.4258 48.291 31.3125 48.4121C31.2031 48.5293 31.0449 48.5879 30.8379 48.5879C30.627 48.5879 30.4668 48.5293 30.3574 48.4121C30.252 48.291 30.1992 48.1465 30.1992 47.9785ZM34.2891 47V56H33.1992V47H34.2891ZM40.9336 55.0215L42.668 49.6602H43.7754L41.4961 56H40.7695L40.9336 55.0215ZM39.4863 49.6602L41.2734 55.0508L41.3965 56H40.6699L38.373 49.6602H39.4863ZM45.9961 49.6602V56H44.9062V49.6602H45.9961ZM44.8242 47.9785C44.8242 47.8027 44.877 47.6543 44.9824 47.5332C45.0918 47.4121 45.252 47.3516 45.4629 47.3516C45.6699 47.3516 45.8281 47.4121 45.9375 47.5332C46.0508 47.6543 46.1074 47.8027 46.1074 47.9785C46.1074 48.1465 46.0508 48.291 45.9375 48.4121C45.8281 48.5293 45.6699 48.5879 45.4629 48.5879C45.252 48.5879 45.0918 48.5293 44.9824 48.4121C44.877 48.291 44.8242 48.1465 44.8242 47.9785ZM51.4277 54.3184C51.4277 54.1621 51.3926 54.0176 51.3223 53.8848C51.2559 53.748 51.1172 53.625 50.9062 53.5156C50.6992 53.4023 50.3867 53.3047 49.9688 53.2227C49.6172 53.1484 49.2988 53.0605 49.0137 52.959C48.7324 52.8574 48.4922 52.7344 48.293 52.5898C48.0977 52.4453 47.9473 52.2754 47.8418 52.0801C47.7363 51.8848 47.6836 51.6562 47.6836 51.3945C47.6836 51.1445 47.7383 50.9082 47.8477 50.6855C47.9609 50.4629 48.1191 50.2656 48.3223 50.0938C48.5293 49.9219 48.7773 49.7871 49.0664 49.6895C49.3555 49.5918 49.6777 49.543 50.0332 49.543C50.541 49.543 50.9746 49.6328 51.334 49.8125C51.6934 49.9922 51.9688 50.2324 52.1602 50.5332C52.3516 50.8301 52.4473 51.1602 52.4473 51.5234H51.3633C51.3633 51.3477 51.3105 51.1777 51.2051 51.0137C51.1035 50.8457 50.9531 50.707 50.7539 50.5977C50.5586 50.4883 50.3184 50.4336 50.0332 50.4336C49.7324 50.4336 49.4883 50.4805 49.3008 50.5742C49.1172 50.6641 48.9824 50.7793 48.8965 50.9199C48.8145 51.0605 48.7734 51.209 48.7734 51.3652C48.7734 51.4824 48.793 51.5879 48.832 51.6816C48.875 51.7715 48.9492 51.8555 49.0547 51.9336C49.1602 52.0078 49.3086 52.0781 49.5 52.1445C49.6914 52.2109 49.9355 52.2773 50.2324 52.3438C50.752 52.4609 51.1797 52.6016 51.5156 52.7656C51.8516 52.9297 52.1016 53.1309 52.2656 53.3691C52.4297 53.6074 52.5117 53.8965 52.5117 54.2363C52.5117 54.5137 52.4531 54.7676 52.3359 54.998C52.2227 55.2285 52.0566 55.4277 51.8379 55.5957C51.623 55.7598 51.3652 55.8887 51.0645 55.9824C50.7676 56.0723 50.4336 56.1172 50.0625 56.1172C49.5039 56.1172 49.0312 56.0176 48.6445 55.8184C48.2578 55.6191 47.9648 55.3613 47.7656 55.0449C47.5664 54.7285 47.4668 54.3945 47.4668 54.043H48.5566C48.5723 54.3398 48.6582 54.5762 48.8145 54.752C48.9707 54.9238 49.1621 55.0469 49.3887 55.1211C49.6152 55.1914 49.8398 55.2266 50.0625 55.2266C50.3594 55.2266 50.6074 55.1875 50.8066 55.1094C51.0098 55.0312 51.1641 54.9238 51.2695 54.7871C51.375 54.6504 51.4277 54.4941 51.4277 54.3184ZM57.8145 54.5352V49.6602H58.9043V56H57.8672L57.8145 54.5352ZM58.0195 53.1992L58.4707 53.1875C58.4707 53.6094 58.4258 54 58.3359 54.3594C58.25 54.7148 58.1094 55.0234 57.9141 55.2852C57.7188 55.5469 57.4629 55.752 57.1465 55.9004C56.8301 56.0449 56.4453 56.1172 55.9922 56.1172C55.6836 56.1172 55.4004 56.0723 55.1426 55.9824C54.8887 55.8926 54.6699 55.7539 54.4863 55.5664C54.3027 55.3789 54.1602 55.1348 54.0586 54.834C53.9609 54.5332 53.9121 54.1719 53.9121 53.75V49.6602H54.9961V53.7617C54.9961 54.0469 55.0273 54.2832 55.0898 54.4707C55.1562 54.6543 55.2441 54.8008 55.3535 54.9102C55.4668 55.0156 55.5918 55.0898 55.7285 55.1328C55.8691 55.1758 56.0137 55.1973 56.1621 55.1973C56.623 55.1973 56.9883 55.1094 57.2578 54.9336C57.5273 54.7539 57.7207 54.5137 57.8379 54.2129C57.959 53.9082 58.0195 53.5703 58.0195 53.1992ZM64.2949 54.916V51.6523C64.2949 51.4023 64.2441 51.1855 64.1426 51.002C64.0449 50.8145 63.8965 50.6699 63.6973 50.5684C63.498 50.4668 63.252 50.416 62.959 50.416C62.6855 50.416 62.4453 50.4629 62.2383 50.5566C62.0352 50.6504 61.875 50.7734 61.7578 50.9258C61.6445 51.0781 61.5879 51.2422 61.5879 51.418H60.5039C60.5039 51.1914 60.5625 50.9668 60.6797 50.7441C60.7969 50.5215 60.9648 50.3203 61.1836 50.1406C61.4062 49.957 61.6719 49.8125 61.9805 49.707C62.293 49.5977 62.6406 49.543 63.0234 49.543C63.4844 49.543 63.8906 49.6211 64.2422 49.7773C64.5977 49.9336 64.875 50.1699 65.0742 50.4863C65.2773 50.7988 65.3789 51.1914 65.3789 51.6641V54.6172C65.3789 54.8281 65.3965 55.0527 65.4316 55.291C65.4707 55.5293 65.5273 55.7344 65.6016 55.9062V56H64.4707C64.416 55.875 64.373 55.709 64.3418 55.502C64.3105 55.291 64.2949 55.0957 64.2949 54.916ZM64.4824 52.1562L64.4941 52.918H63.3984C63.0898 52.918 62.8145 52.9434 62.5723 52.9941C62.3301 53.041 62.127 53.1133 61.9629 53.2109C61.7988 53.3086 61.6738 53.4316 61.5879 53.5801C61.502 53.7246 61.459 53.8945 61.459 54.0898C61.459 54.2891 61.5039 54.4707 61.5938 54.6348C61.6836 54.7988 61.8184 54.9297 61.998 55.0273C62.1816 55.1211 62.4062 55.168 62.6719 55.168C63.0039 55.168 63.2969 55.0977 63.5508 54.957C63.8047 54.8164 64.0059 54.6445 64.1543 54.4414C64.3066 54.2383 64.3887 54.041 64.4004 53.8496L64.8633 54.3711C64.8359 54.5352 64.7617 54.7168 64.6406 54.916C64.5195 55.1152 64.3574 55.3066 64.1543 55.4902C63.9551 55.6699 63.7168 55.8203 63.4395 55.9414C63.166 56.0586 62.8574 56.1172 62.5137 56.1172C62.084 56.1172 61.707 56.0332 61.3828 55.8652C61.0625 55.6973 60.8125 55.4727 60.6328 55.1914C60.457 54.9062 60.3691 54.5879 60.3691 54.2363C60.3691 53.8965 60.4355 53.5977 60.5684 53.3398C60.7012 53.0781 60.8926 52.8613 61.1426 52.6895C61.3926 52.5137 61.6934 52.3809 62.0449 52.291C62.3965 52.2012 62.7891 52.1562 63.2227 52.1562H64.4824ZM68.2617 47V56H67.1719V47H68.2617ZM71.1797 49.6602V56H70.0898V49.6602H71.1797ZM70.0078 47.9785C70.0078 47.8027 70.0605 47.6543 70.166 47.5332C70.2754 47.4121 70.4355 47.3516 70.6465 47.3516C70.8535 47.3516 71.0117 47.4121 71.1211 47.5332C71.2344 47.6543 71.291 47.8027 71.291 47.9785C71.291 48.1465 71.2344 48.291 71.1211 48.4121C71.0117 48.5293 70.8535 48.5879 70.6465 48.5879C70.4355 48.5879 70.2754 48.5293 70.166 48.4121C70.0605 48.291 70.0078 48.1465 70.0078 47.9785ZM77.6426 55.1094V56H73.0312V55.1094H77.6426ZM77.4727 50.4277L73.2773 56H72.6152V55.2031L76.7812 49.6602H77.4727V50.4277ZM76.9922 49.6602V50.5566H72.6621V49.6602H76.9922ZM82.6113 54.916V51.6523C82.6113 51.4023 82.5605 51.1855 82.459 51.002C82.3613 50.8145 82.2129 50.6699 82.0137 50.5684C81.8145 50.4668 81.5684 50.416 81.2754 50.416C81.002 50.416 80.7617 50.4629 80.5547 50.5566C80.3516 50.6504 80.1914 50.7734 80.0742 50.9258C79.9609 51.0781 79.9043 51.2422 79.9043 51.418H78.8203C78.8203 51.1914 78.8789 50.9668 78.9961 50.7441C79.1133 50.5215 79.2812 50.3203 79.5 50.1406C79.7227 49.957 79.9883 49.8125 80.2969 49.707C80.6094 49.5977 80.957 49.543 81.3398 49.543C81.8008 49.543 82.207 49.6211 82.5586 49.7773C82.9141 49.9336 83.1914 50.1699 83.3906 50.4863C83.5938 50.7988 83.6953 51.1914 83.6953 51.6641V54.6172C83.6953 54.8281 83.7129 55.0527 83.748 55.291C83.7871 55.5293 83.8438 55.7344 83.918 55.9062V56H82.7871C82.7324 55.875 82.6895 55.709 82.6582 55.502C82.627 55.291 82.6113 55.0957 82.6113 54.916ZM82.7988 52.1562L82.8105 52.918H81.7148C81.4062 52.918 81.1309 52.9434 80.8887 52.9941C80.6465 53.041 80.4434 53.1133 80.2793 53.2109C80.1152 53.3086 79.9902 53.4316 79.9043 53.5801C79.8184 53.7246 79.7754 53.8945 79.7754 54.0898C79.7754 54.2891 79.8203 54.4707 79.9102 54.6348C80 54.7988 80.1348 54.9297 80.3145 55.0273C80.498 55.1211 80.7227 55.168 80.9883 55.168C81.3203 55.168 81.6133 55.0977 81.8672 54.957C82.1211 54.8164 82.3223 54.6445 82.4707 54.4414C82.623 54.2383 82.7051 54.041 82.7168 53.8496L83.1797 54.3711C83.1523 54.5352 83.0781 54.7168 82.957 54.916C82.8359 55.1152 82.6738 55.3066 82.4707 55.4902C82.2715 55.6699 82.0332 55.8203 81.7559 55.9414C81.4824 56.0586 81.1738 56.1172 80.8301 56.1172C80.4004 56.1172 80.0234 56.0332 79.6992 55.8652C79.3789 55.6973 79.1289 55.4727 78.9492 55.1914C78.7734 54.9062 78.6855 54.5879 78.6855 54.2363C78.6855 53.8965 78.752 53.5977 78.8848 53.3398C79.0176 53.0781 79.209 52.8613 79.459 52.6895C79.709 52.5137 80.0098 52.3809 80.3613 52.291C80.7129 52.2012 81.1055 52.1562 81.5391 52.1562H82.7988ZM87.9375 55.2266C88.1953 55.2266 88.4336 55.1738 88.6523 55.0684C88.8711 54.9629 89.0508 54.8184 89.1914 54.6348C89.332 54.4473 89.4121 54.2344 89.4316 53.9961H90.4629C90.4434 54.3711 90.3164 54.7207 90.082 55.0449C89.8516 55.3652 89.5488 55.625 89.1738 55.8242C88.7988 56.0195 88.3867 56.1172 87.9375 56.1172C87.4609 56.1172 87.0449 56.0332 86.6895 55.8652C86.3379 55.6973 86.0449 55.4668 85.8105 55.1738C85.5801 54.8809 85.4062 54.5449 85.2891 54.166C85.1758 53.7832 85.1191 53.3789 85.1191 52.9531V52.707C85.1191 52.2812 85.1758 51.8789 85.2891 51.5C85.4062 51.1172 85.5801 50.7793 85.8105 50.4863C86.0449 50.1934 86.3379 49.9629 86.6895 49.7949C87.0449 49.627 87.4609 49.543 87.9375 49.543C88.4336 49.543 88.8672 49.6445 89.2383 49.8477C89.6094 50.0469 89.9004 50.3203 90.1113 50.668C90.3262 51.0117 90.4434 51.4023 90.4629 51.8398H89.4316C89.4121 51.5781 89.3379 51.3418 89.209 51.1309C89.084 50.9199 88.9121 50.752 88.6934 50.627C88.4785 50.498 88.2266 50.4336 87.9375 50.4336C87.6055 50.4336 87.3262 50.5 87.0996 50.6328C86.877 50.7617 86.6992 50.9375 86.5664 51.1602C86.4375 51.3789 86.3438 51.623 86.2852 51.8926C86.2305 52.1582 86.2031 52.4297 86.2031 52.707V52.9531C86.2031 53.2305 86.2305 53.5039 86.2852 53.7734C86.3398 54.043 86.4316 54.2871 86.5605 54.5059C86.6934 54.7246 86.8711 54.9004 87.0938 55.0332C87.3203 55.1621 87.6016 55.2266 87.9375 55.2266ZM87.3398 56.0586H88.1191L88.0488 56.3691C88.2754 56.4082 88.4805 56.502 88.6641 56.6504C88.8516 56.7988 88.9453 57.043 88.9453 57.3828C88.9453 57.5664 88.9062 57.7324 88.8281 57.8809C88.7539 58.0332 88.6426 58.1621 88.4941 58.2676C88.3457 58.377 88.1602 58.4609 87.9375 58.5195C87.7188 58.5781 87.4629 58.6074 87.1699 58.6074L87.1289 57.9805C87.3086 57.9805 87.4707 57.9609 87.6152 57.9219C87.7637 57.8828 87.8809 57.8203 87.9668 57.7344C88.0566 57.6484 88.1016 57.5371 88.1016 57.4004C88.1016 57.2715 88.0684 57.1699 88.002 57.0957C87.9355 57.0215 87.832 56.9648 87.6914 56.9258C87.5547 56.8906 87.377 56.8652 87.1582 56.8496L87.3398 56.0586ZM91.3945 52.9004V52.7656C91.3945 52.3086 91.4609 51.8848 91.5938 51.4941C91.7266 51.0996 91.918 50.7578 92.168 50.4688C92.418 50.1758 92.7207 49.9492 93.0762 49.7891C93.4316 49.625 93.8301 49.543 94.2715 49.543C94.7168 49.543 95.1172 49.625 95.4727 49.7891C95.832 49.9492 96.1367 50.1758 96.3867 50.4688C96.6406 50.7578 96.834 51.0996 96.9668 51.4941C97.0996 51.8848 97.166 52.3086 97.166 52.7656V52.9004C97.166 53.3574 97.0996 53.7812 96.9668 54.1719C96.834 54.5625 96.6406 54.9043 96.3867 55.1973C96.1367 55.4863 95.834 55.7129 95.4785 55.877C95.127 56.0371 94.7285 56.1172 94.2832 56.1172C93.8379 56.1172 93.4375 56.0371 93.082 55.877C92.7266 55.7129 92.4219 55.4863 92.168 55.1973C91.918 54.9043 91.7266 54.5625 91.5938 54.1719C91.4609 53.7812 91.3945 53.3574 91.3945 52.9004ZM92.4785 52.7656V52.9004C92.4785 53.2168 92.5156 53.5156 92.5898 53.7969C92.6641 54.0742 92.7754 54.3203 92.9238 54.5352C93.0762 54.75 93.2656 54.9199 93.4922 55.0449C93.7188 55.166 93.9824 55.2266 94.2832 55.2266C94.5801 55.2266 94.8398 55.166 95.0625 55.0449C95.2891 54.9199 95.4766 54.75 95.625 54.5352C95.7734 54.3203 95.8848 54.0742 95.959 53.7969C96.0371 53.5156 96.0762 53.2168 96.0762 52.9004V52.7656C96.0762 52.4531 96.0371 52.1582 95.959 51.8809C95.8848 51.5996 95.7715 51.3516 95.6191 51.1367C95.4707 50.918 95.2832 50.7461 95.0566 50.6211C94.834 50.4961 94.5723 50.4336 94.2715 50.4336C93.9746 50.4336 93.7129 50.4961 93.4863 50.6211C93.2637 50.7461 93.0762 50.918 92.9238 51.1367C92.7754 51.3516 92.6641 51.5996 92.5898 51.8809C92.5156 52.1582 92.4785 52.4531 92.4785 52.7656ZM95.5723 47.1172L96.3047 47.1816C96.3047 47.4668 96.248 47.7168 96.1348 47.9316C96.0215 48.1465 95.8691 48.3125 95.6777 48.4297C95.4902 48.5469 95.2773 48.6055 95.0391 48.6055C94.8398 48.6055 94.6758 48.5781 94.5469 48.5234C94.418 48.4648 94.3027 48.4004 94.2012 48.3301C94.0996 48.2559 93.9922 48.1914 93.8789 48.1367C93.7695 48.0781 93.6328 48.0488 93.4688 48.0488C93.3047 48.0488 93.166 48.1113 93.0527 48.2363C92.9434 48.3613 92.8887 48.5156 92.8887 48.6992L92.1562 48.6641C92.1562 48.3789 92.2109 48.1289 92.3203 47.9141C92.4336 47.6953 92.5859 47.5254 92.7773 47.4043C92.9688 47.2793 93.1816 47.2168 93.416 47.2168C93.584 47.2168 93.7305 47.2461 93.8555 47.3047C93.9844 47.3594 94.1055 47.4238 94.2188 47.498C94.332 47.5684 94.4492 47.6328 94.5703 47.6914C94.6914 47.7461 94.8301 47.7734 94.9863 47.7734C95.1504 47.7734 95.2891 47.7109 95.4023 47.5859C95.5156 47.457 95.5723 47.3008 95.5723 47.1172ZM101.156 56.1172C100.715 56.1172 100.314 56.043 99.9551 55.8945C99.5996 55.7422 99.293 55.5293 99.0352 55.2559C98.7812 54.9824 98.5859 54.6582 98.4492 54.2832C98.3125 53.9082 98.2441 53.498 98.2441 53.0527V52.8066C98.2441 52.291 98.3203 51.832 98.4727 51.4297C98.625 51.0234 98.832 50.6797 99.0938 50.3984C99.3555 50.1172 99.6523 49.9043 99.9844 49.7598C100.316 49.6152 100.66 49.543 101.016 49.543C101.469 49.543 101.859 49.6211 102.188 49.7773C102.52 49.9336 102.791 50.1523 103.002 50.4336C103.213 50.7109 103.369 51.0391 103.471 51.418C103.572 51.793 103.623 52.2031 103.623 52.6484V53.1348H98.8887V52.25H102.539V52.168C102.523 51.8867 102.465 51.6133 102.363 51.3477C102.266 51.082 102.109 50.8633 101.895 50.6914C101.68 50.5195 101.387 50.4336 101.016 50.4336C100.77 50.4336 100.543 50.4863 100.336 50.5918C100.129 50.6934 99.9512 50.8457 99.8027 51.0488C99.6543 51.252 99.5391 51.5 99.457 51.793C99.375 52.0859 99.334 52.4238 99.334 52.8066V53.0527C99.334 53.3535 99.375 53.6367 99.457 53.9023C99.543 54.1641 99.666 54.3945 99.8262 54.5938C99.9902 54.793 100.188 54.9492 100.418 55.0625C100.652 55.1758 100.918 55.2324 101.215 55.2324C101.598 55.2324 101.922 55.1543 102.188 54.998C102.453 54.8418 102.686 54.6328 102.885 54.3711L103.541 54.8926C103.404 55.0996 103.23 55.2969 103.02 55.4844C102.809 55.6719 102.549 55.8242 102.24 55.9414C101.936 56.0586 101.574 56.1172 101.156 56.1172ZM108.58 54.3184C108.58 54.1621 108.545 54.0176 108.475 53.8848C108.408 53.748 108.27 53.625 108.059 53.5156C107.852 53.4023 107.539 53.3047 107.121 53.2227C106.77 53.1484 106.451 53.0605 106.166 52.959C105.885 52.8574 105.645 52.7344 105.445 52.5898C105.25 52.4453 105.1 52.2754 104.994 52.0801C104.889 51.8848 104.836 51.6562 104.836 51.3945C104.836 51.1445 104.891 50.9082 105 50.6855C105.113 50.4629 105.271 50.2656 105.475 50.0938C105.682 49.9219 105.93 49.7871 106.219 49.6895C106.508 49.5918 106.83 49.543 107.186 49.543C107.693 49.543 108.127 49.6328 108.486 49.8125C108.846 49.9922 109.121 50.2324 109.312 50.5332C109.504 50.8301 109.6 51.1602 109.6 51.5234H108.516C108.516 51.3477 108.463 51.1777 108.357 51.0137C108.256 50.8457 108.105 50.707 107.906 50.5977C107.711 50.4883 107.471 50.4336 107.186 50.4336C106.885 50.4336 106.641 50.4805 106.453 50.5742C106.27 50.6641 106.135 50.7793 106.049 50.9199C105.967 51.0605 105.926 51.209 105.926 51.3652C105.926 51.4824 105.945 51.5879 105.984 51.6816C106.027 51.7715 106.102 51.8555 106.207 51.9336C106.312 52.0078 106.461 52.0781 106.652 52.1445C106.844 52.2109 107.088 52.2773 107.385 52.3438C107.904 52.4609 108.332 52.6016 108.668 52.7656C109.004 52.9297 109.254 53.1309 109.418 53.3691C109.582 53.6074 109.664 53.8965 109.664 54.2363C109.664 54.5137 109.605 54.7676 109.488 54.998C109.375 55.2285 109.209 55.4277 108.99 55.5957C108.775 55.7598 108.518 55.8887 108.217 55.9824C107.92 56.0723 107.586 56.1172 107.215 56.1172C106.656 56.1172 106.184 56.0176 105.797 55.8184C105.41 55.6191 105.117 55.3613 104.918 55.0449C104.719 54.7285 104.619 54.3945 104.619 54.043H105.709C105.725 54.3398 105.811 54.5762 105.967 54.752C106.123 54.9238 106.314 55.0469 106.541 55.1211C106.768 55.1914 106.992 55.2266 107.215 55.2266C107.512 55.2266 107.76 55.1875 107.959 55.1094C108.162 55.0312 108.316 54.9238 108.422 54.7871C108.527 54.6504 108.58 54.4941 108.58 54.3184ZM4.14258 61.4688V70H3.0293V61.4688H4.14258ZM6.88477 61.4688V62.3945H0.292969V61.4688H6.88477ZM8.625 64.6562V70H7.54102V63.6602H8.5957L8.625 64.6562ZM10.6055 63.625L10.5996 64.6328C10.5098 64.6133 10.4238 64.6016 10.3418 64.5977C10.2637 64.5898 10.1738 64.5859 10.0723 64.5859C9.82227 64.5859 9.60156 64.625 9.41016 64.7031C9.21875 64.7812 9.05664 64.8906 8.92383 65.0312C8.79102 65.1719 8.68555 65.3398 8.60742 65.5352C8.5332 65.7266 8.48438 65.9375 8.46094 66.168L8.15625 66.3438C8.15625 65.9609 8.19336 65.6016 8.26758 65.2656C8.3457 64.9297 8.46484 64.6328 8.625 64.375C8.78516 64.1133 8.98828 63.9102 9.23438 63.7656C9.48438 63.6172 9.78125 63.543 10.125 63.543C10.2031 63.543 10.293 63.5527 10.3945 63.5723C10.4961 63.5879 10.5664 63.6055 10.6055 63.625ZM15.1113 68.916V65.6523C15.1113 65.4023 15.0605 65.1855 14.959 65.002C14.8613 64.8145 14.7129 64.6699 14.5137 64.5684C14.3145 64.4668 14.0684 64.416 13.7754 64.416C13.502 64.416 13.2617 64.4629 13.0547 64.5566C12.8516 64.6504 12.6914 64.7734 12.5742 64.9258C12.4609 65.0781 12.4043 65.2422 12.4043 65.418H11.3203C11.3203 65.1914 11.3789 64.9668 11.4961 64.7441C11.6133 64.5215 11.7812 64.3203 12 64.1406C12.2227 63.957 12.4883 63.8125 12.7969 63.707C13.1094 63.5977 13.457 63.543 13.8398 63.543C14.3008 63.543 14.707 63.6211 15.0586 63.7773C15.4141 63.9336 15.6914 64.1699 15.8906 64.4863C16.0938 64.7988 16.1953 65.1914 16.1953 65.6641V68.6172C16.1953 68.8281 16.2129 69.0527 16.248 69.291C16.2871 69.5293 16.3438 69.7344 16.418 69.9062V70H15.2871C15.2324 69.875 15.1895 69.709 15.1582 69.502C15.127 69.291 15.1113 69.0957 15.1113 68.916ZM15.2988 66.1562L15.3105 66.918H14.2148C13.9062 66.918 13.6309 66.9434 13.3887 66.9941C13.1465 67.041 12.9434 67.1133 12.7793 67.2109C12.6152 67.3086 12.4902 67.4316 12.4043 67.5801C12.3184 67.7246 12.2754 67.8945 12.2754 68.0898C12.2754 68.2891 12.3203 68.4707 12.4102 68.6348C12.5 68.7988 12.6348 68.9297 12.8145 69.0273C12.998 69.1211 13.2227 69.168 13.4883 69.168C13.8203 69.168 14.1133 69.0977 14.3672 68.957C14.6211 68.8164 14.8223 68.6445 14.9707 68.4414C15.123 68.2383 15.2051 68.041 15.2168 67.8496L15.6797 68.3711C15.6523 68.5352 15.5781 68.7168 15.457 68.916C15.3359 69.1152 15.1738 69.3066 14.9707 69.4902C14.7715 69.6699 14.5332 69.8203 14.2559 69.9414C13.9824 70.0586 13.6738 70.1172 13.3301 70.1172C12.9004 70.1172 12.5234 70.0332 12.1992 69.8652C11.8789 69.6973 11.6289 69.4727 11.4492 69.1914C11.2734 68.9062 11.1855 68.5879 11.1855 68.2363C11.1855 67.8965 11.252 67.5977 11.3848 67.3398C11.5176 67.0781 11.709 66.8613 11.959 66.6895C12.209 66.5137 12.5098 66.3809 12.8613 66.291C13.2129 66.2012 13.6055 66.1562 14.0391 66.1562H15.2988ZM18.9844 65.0137V70H17.9004V63.6602H18.9258L18.9844 65.0137ZM18.7266 66.5898L18.2754 66.5723C18.2793 66.1387 18.3438 65.7383 18.4688 65.3711C18.5938 65 18.7695 64.6777 18.9961 64.4043C19.2227 64.1309 19.4922 63.9199 19.8047 63.7715C20.1211 63.6191 20.4707 63.543 20.8535 63.543C21.166 63.543 21.4473 63.5859 21.6973 63.6719C21.9473 63.7539 22.1602 63.8867 22.3359 64.0703C22.5156 64.2539 22.6523 64.4922 22.7461 64.7852C22.8398 65.0742 22.8867 65.4277 22.8867 65.8457V70H21.7969V65.834C21.7969 65.502 21.748 65.2363 21.6504 65.0371C21.5527 64.834 21.4102 64.6875 21.2227 64.5977C21.0352 64.5039 20.8047 64.457 20.5312 64.457C20.2617 64.457 20.0156 64.5137 19.793 64.627C19.5742 64.7402 19.3848 64.8965 19.2246 65.0957C19.0684 65.2949 18.9453 65.5234 18.8555 65.7812C18.7695 66.0352 18.7266 66.3047 18.7266 66.5898ZM28.2246 68.3184C28.2246 68.1621 28.1895 68.0176 28.1191 67.8848C28.0527 67.748 27.9141 67.625 27.7031 67.5156C27.4961 67.4023 27.1836 67.3047 26.7656 67.2227C26.4141 67.1484 26.0957 67.0605 25.8105 66.959C25.5293 66.8574 25.2891 66.7344 25.0898 66.5898C24.8945 66.4453 24.7441 66.2754 24.6387 66.0801C24.5332 65.8848 24.4805 65.6562 24.4805 65.3945C24.4805 65.1445 24.5352 64.9082 24.6445 64.6855C24.7578 64.4629 24.916 64.2656 25.1191 64.0938C25.3262 63.9219 25.5742 63.7871 25.8633 63.6895C26.1523 63.5918 26.4746 63.543 26.8301 63.543C27.3379 63.543 27.7715 63.6328 28.1309 63.8125C28.4902 63.9922 28.7656 64.2324 28.957 64.5332C29.1484 64.8301 29.2441 65.1602 29.2441 65.5234H28.1602C28.1602 65.3477 28.1074 65.1777 28.002 65.0137C27.9004 64.8457 27.75 64.707 27.5508 64.5977C27.3555 64.4883 27.1152 64.4336 26.8301 64.4336C26.5293 64.4336 26.2852 64.4805 26.0977 64.5742C25.9141 64.6641 25.7793 64.7793 25.6934 64.9199C25.6113 65.0605 25.5703 65.209 25.5703 65.3652C25.5703 65.4824 25.5898 65.5879 25.6289 65.6816C25.6719 65.7715 25.7461 65.8555 25.8516 65.9336C25.957 66.0078 26.1055 66.0781 26.2969 66.1445C26.4883 66.2109 26.7324 66.2773 27.0293 66.3438C27.5488 66.4609 27.9766 66.6016 28.3125 66.7656C28.6484 66.9297 28.8984 67.1309 29.0625 67.3691C29.2266 67.6074 29.3086 67.8965 29.3086 68.2363C29.3086 68.5137 29.25 68.7676 29.1328 68.998C29.0195 69.2285 28.8535 69.4277 28.6348 69.5957C28.4199 69.7598 28.1621 69.8887 27.8613 69.9824C27.5645 70.0723 27.2305 70.1172 26.8594 70.1172C26.3008 70.1172 25.8281 70.0176 25.4414 69.8184C25.0547 69.6191 24.7617 69.3613 24.5625 69.0449C24.3633 68.7285 24.2637 68.3945 24.2637 68.043H25.3535C25.3691 68.3398 25.4551 68.5762 25.6113 68.752C25.7676 68.9238 25.959 69.0469 26.1855 69.1211C26.4121 69.1914 26.6367 69.2266 26.8594 69.2266C27.1562 69.2266 27.4043 69.1875 27.6035 69.1094C27.8066 69.0312 27.9609 68.9238 28.0664 68.7871C28.1719 68.6504 28.2246 68.4941 28.2246 68.3184ZM31.8105 64.9199V70H30.7207V63.6602H31.752L31.8105 64.9199ZM31.5879 66.5898L31.084 66.5723C31.0879 66.1387 31.1445 65.7383 31.2539 65.3711C31.3633 65 31.5254 64.6777 31.7402 64.4043C31.9551 64.1309 32.2227 63.9199 32.543 63.7715C32.8633 63.6191 33.2344 63.543 33.6562 63.543C33.9531 63.543 34.2266 63.5859 34.4766 63.6719C34.7266 63.7539 34.9434 63.8848 35.127 64.0645C35.3105 64.2441 35.4531 64.4746 35.5547 64.7559C35.6562 65.0371 35.707 65.377 35.707 65.7754V70H34.623V65.8281C34.623 65.4961 34.5664 65.2305 34.4531 65.0312C34.3438 64.832 34.1875 64.6875 33.9844 64.5977C33.7812 64.5039 33.543 64.457 33.2695 64.457C32.9492 64.457 32.6816 64.5137 32.4668 64.627C32.252 64.7402 32.0801 64.8965 31.9512 65.0957C31.8223 65.2949 31.7285 65.5234 31.6699 65.7812C31.6152 66.0352 31.5879 66.3047 31.5879 66.5898ZM35.6953 65.9922L34.9688 66.2148C34.9727 65.8672 35.0293 65.5332 35.1387 65.2129C35.252 64.8926 35.4141 64.6074 35.625 64.3574C35.8398 64.1074 36.1035 63.9102 36.416 63.7656C36.7285 63.6172 37.0859 63.543 37.4883 63.543C37.8281 63.543 38.1289 63.5879 38.3906 63.6777C38.6562 63.7676 38.8789 63.9062 39.0586 64.0938C39.2422 64.2773 39.3809 64.5137 39.4746 64.8027C39.5684 65.0918 39.6152 65.4355 39.6152 65.834V70H38.5254V65.8223C38.5254 65.4668 38.4688 65.1914 38.3555 64.9961C38.2461 64.7969 38.0898 64.6582 37.8867 64.5801C37.6875 64.498 37.4492 64.457 37.1719 64.457C36.9336 64.457 36.7227 64.498 36.5391 64.5801C36.3555 64.6621 36.2012 64.7754 36.0762 64.9199C35.9512 65.0605 35.8555 65.2227 35.7891 65.4062C35.7266 65.5898 35.6953 65.7852 35.6953 65.9922ZM42.4336 63.6602V70H41.3438V63.6602H42.4336ZM41.2617 61.9785C41.2617 61.8027 41.3145 61.6543 41.4199 61.5332C41.5293 61.4121 41.6895 61.3516 41.9004 61.3516C42.1074 61.3516 42.2656 61.4121 42.375 61.5332C42.4883 61.6543 42.5449 61.8027 42.5449 61.9785C42.5449 62.1465 42.4883 62.291 42.375 62.4121C42.2656 62.5293 42.1074 62.5879 41.9004 62.5879C41.6895 62.5879 41.5293 62.5293 41.4199 62.4121C41.3145 62.291 41.2617 62.1465 41.2617 61.9785ZM46.8281 63.6602V64.4922H43.4004V63.6602H46.8281ZM44.5605 62.1191H45.6445V68.4297C45.6445 68.6445 45.6777 68.8066 45.7441 68.916C45.8105 69.0254 45.8965 69.0977 46.002 69.1328C46.1074 69.168 46.2207 69.1855 46.3418 69.1855C46.4316 69.1855 46.5254 69.1777 46.623 69.1621C46.7246 69.1426 46.8008 69.127 46.8516 69.1152L46.8574 70C46.7715 70.0273 46.6582 70.0527 46.5176 70.0762C46.3809 70.1035 46.2148 70.1172 46.0195 70.1172C45.7539 70.1172 45.5098 70.0645 45.2871 69.959C45.0645 69.8535 44.8867 69.6777 44.7539 69.4316C44.625 69.1816 44.5605 68.8457 44.5605 68.4238V62.1191ZM49.2773 63.6602V70H48.1875V63.6602H49.2773ZM48.1055 61.9785C48.1055 61.8027 48.1582 61.6543 48.2637 61.5332C48.373 61.4121 48.5332 61.3516 48.7441 61.3516C48.9512 61.3516 49.1094 61.4121 49.2188 61.5332C49.332 61.6543 49.3887 61.8027 49.3887 61.9785C49.3887 62.1465 49.332 62.291 49.2188 62.4121C49.1094 62.5293 48.9512 62.5879 48.7441 62.5879C48.5332 62.5879 48.373 62.5293 48.2637 62.4121C48.1582 62.291 48.1055 62.1465 48.1055 61.9785ZM55.0137 68.7695V61H56.1035V70H55.1074L55.0137 68.7695ZM50.748 66.9004V66.7773C50.748 66.293 50.8066 65.8535 50.9238 65.459C51.0449 65.0605 51.2148 64.7188 51.4336 64.4336C51.6562 64.1484 51.9199 63.9297 52.2246 63.7773C52.5332 63.6211 52.877 63.543 53.2559 63.543C53.6543 63.543 54.002 63.6133 54.2988 63.7539C54.5996 63.8906 54.8535 64.0918 55.0605 64.3574C55.2715 64.6191 55.4375 64.9355 55.5586 65.3066C55.6797 65.6777 55.7637 66.0977 55.8105 66.5664V67.1055C55.7676 67.5703 55.6836 67.9883 55.5586 68.3594C55.4375 68.7305 55.2715 69.0469 55.0605 69.3086C54.8535 69.5703 54.5996 69.7715 54.2988 69.9121C53.998 70.0488 53.6465 70.1172 53.2441 70.1172C52.873 70.1172 52.5332 70.0371 52.2246 69.877C51.9199 69.7168 51.6562 69.4922 51.4336 69.2031C51.2148 68.9141 51.0449 68.5742 50.9238 68.1836C50.8066 67.7891 50.748 67.3613 50.748 66.9004ZM51.8379 66.7773V66.9004C51.8379 67.2168 51.8691 67.5137 51.9316 67.791C51.998 68.0684 52.0996 68.3125 52.2363 68.5234C52.373 68.7344 52.5469 68.9004 52.7578 69.0215C52.9688 69.1387 53.2207 69.1973 53.5137 69.1973C53.873 69.1973 54.168 69.1211 54.3984 68.9688C54.6328 68.8164 54.8203 68.6152 54.9609 68.3652C55.1016 68.1152 55.2109 67.8438 55.2891 67.5508V66.1387C55.2422 65.9238 55.1738 65.7168 55.084 65.5176C54.998 65.3145 54.8848 65.1348 54.7441 64.9785C54.6074 64.8184 54.4375 64.6914 54.2344 64.5977C54.0352 64.5039 53.7988 64.457 53.5254 64.457C53.2285 64.457 52.9727 64.5195 52.7578 64.6445C52.5469 64.7656 52.373 64.9336 52.2363 65.1484C52.0996 65.3594 51.998 65.6055 51.9316 65.8867C51.8691 66.1641 51.8379 66.4609 51.8379 66.7773ZM57.5039 66.9004V66.7656C57.5039 66.3086 57.5703 65.8848 57.7031 65.4941C57.8359 65.0996 58.0273 64.7578 58.2773 64.4688C58.5273 64.1758 58.8301 63.9492 59.1855 63.7891C59.541 63.625 59.9395 63.543 60.3809 63.543C60.8262 63.543 61.2266 63.625 61.582 63.7891C61.9414 63.9492 62.2461 64.1758 62.4961 64.4688C62.75 64.7578 62.9434 65.0996 63.0762 65.4941C63.209 65.8848 63.2754 66.3086 63.2754 66.7656V66.9004C63.2754 67.3574 63.209 67.7812 63.0762 68.1719C62.9434 68.5625 62.75 68.9043 62.4961 69.1973C62.2461 69.4863 61.9434 69.7129 61.5879 69.877C61.2363 70.0371 60.8379 70.1172 60.3926 70.1172C59.9473 70.1172 59.5469 70.0371 59.1914 69.877C58.8359 69.7129 58.5312 69.4863 58.2773 69.1973C58.0273 68.9043 57.8359 68.5625 57.7031 68.1719C57.5703 67.7812 57.5039 67.3574 57.5039 66.9004ZM58.5879 66.7656V66.9004C58.5879 67.2168 58.625 67.5156 58.6992 67.7969C58.7734 68.0742 58.8848 68.3203 59.0332 68.5352C59.1855 68.75 59.375 68.9199 59.6016 69.0449C59.8281 69.166 60.0918 69.2266 60.3926 69.2266C60.6895 69.2266 60.9492 69.166 61.1719 69.0449C61.3984 68.9199 61.5859 68.75 61.7344 68.5352C61.8828 68.3203 61.9941 68.0742 62.0684 67.7969C62.1465 67.5156 62.1855 67.2168 62.1855 66.9004V66.7656C62.1855 66.4531 62.1465 66.1582 62.0684 65.8809C61.9941 65.5996 61.8809 65.3516 61.7285 65.1367C61.5801 64.918 61.3926 64.7461 61.166 64.6211C60.9434 64.4961 60.6816 64.4336 60.3809 64.4336C60.084 64.4336 59.8223 64.4961 59.5957 64.6211C59.373 64.7461 59.1855 64.918 59.0332 65.1367C58.8848 65.3516 58.7734 65.5996 58.6992 65.8809C58.625 66.1582 58.5879 66.4531 58.5879 66.7656ZM68.6953 61V70H67.6113V61H68.6953ZM68.4375 66.5898L67.9863 66.5723C67.9902 66.1387 68.0547 65.7383 68.1797 65.3711C68.3047 65 68.4805 64.6777 68.707 64.4043C68.9336 64.1309 69.2031 63.9199 69.5156 63.7715C69.832 63.6191 70.1816 63.543 70.5645 63.543C70.877 63.543 71.1582 63.5859 71.4082 63.6719C71.6582 63.7539 71.8711 63.8867 72.0469 64.0703C72.2266 64.2539 72.3633 64.4922 72.457 64.7852C72.5508 65.0742 72.5977 65.4277 72.5977 65.8457V70H71.5078V65.834C71.5078 65.502 71.459 65.2363 71.3613 65.0371C71.2637 64.834 71.1211 64.6875 70.9336 64.5977C70.7461 64.5039 70.5156 64.457 70.2422 64.457C69.9727 64.457 69.7266 64.5137 69.5039 64.627C69.2852 64.7402 69.0957 64.8965 68.9355 65.0957C68.7793 65.2949 68.6562 65.5234 68.5664 65.7812C68.4805 66.0352 68.4375 66.3047 68.4375 66.5898ZM77.959 68.916V65.6523C77.959 65.4023 77.9082 65.1855 77.8066 65.002C77.709 64.8145 77.5605 64.6699 77.3613 64.5684C77.1621 64.4668 76.916 64.416 76.623 64.416C76.3496 64.416 76.1094 64.4629 75.9023 64.5566C75.6992 64.6504 75.5391 64.7734 75.4219 64.9258C75.3086 65.0781 75.252 65.2422 75.252 65.418H74.168C74.168 65.1914 74.2266 64.9668 74.3438 64.7441C74.4609 64.5215 74.6289 64.3203 74.8477 64.1406C75.0703 63.957 75.3359 63.8125 75.6445 63.707C75.957 63.5977 76.3047 63.543 76.6875 63.543C77.1484 63.543 77.5547 63.6211 77.9062 63.7773C78.2617 63.9336 78.5391 64.1699 78.7383 64.4863C78.9414 64.7988 79.043 65.1914 79.043 65.6641V68.6172C79.043 68.8281 79.0605 69.0527 79.0957 69.291C79.1348 69.5293 79.1914 69.7344 79.2656 69.9062V70H78.1348C78.0801 69.875 78.0371 69.709 78.0059 69.502C77.9746 69.291 77.959 69.0957 77.959 68.916ZM78.1465 66.1562L78.1582 66.918H77.0625C76.7539 66.918 76.4785 66.9434 76.2363 66.9941C75.9941 67.041 75.791 67.1133 75.627 67.2109C75.4629 67.3086 75.3379 67.4316 75.252 67.5801C75.166 67.7246 75.123 67.8945 75.123 68.0898C75.123 68.2891 75.168 68.4707 75.2578 68.6348C75.3477 68.7988 75.4824 68.9297 75.6621 69.0273C75.8457 69.1211 76.0703 69.168 76.3359 69.168C76.668 69.168 76.9609 69.0977 77.2148 68.957C77.4688 68.8164 77.6699 68.6445 77.8184 68.4414C77.9707 68.2383 78.0527 68.041 78.0645 67.8496L78.5273 68.3711C78.5 68.5352 78.4258 68.7168 78.3047 68.916C78.1836 69.1152 78.0215 69.3066 77.8184 69.4902C77.6191 69.6699 77.3809 69.8203 77.1035 69.9414C76.8301 70.0586 76.5215 70.1172 76.1777 70.1172C75.748 70.1172 75.3711 70.0332 75.0469 69.8652C74.7266 69.6973 74.4766 69.4727 74.2969 69.1914C74.1211 68.9062 74.0332 68.5879 74.0332 68.2363C74.0332 67.8965 74.0996 67.5977 74.2324 67.3398C74.3652 67.0781 74.5566 66.8613 74.8066 66.6895C75.0566 66.5137 75.3574 66.3809 75.709 66.291C76.0605 66.2012 76.4531 66.1562 76.8867 66.1562H78.1465ZM76.207 62.7227L77.3438 61H78.6504L77.0801 62.7227H76.207ZM85.1895 65.2012H85.9629C86.3418 65.2012 86.6543 65.1387 86.9004 65.0137C87.1504 64.8848 87.3359 64.7109 87.457 64.4922C87.582 64.2695 87.6445 64.0195 87.6445 63.7422C87.6445 63.4141 87.5898 63.1387 87.4805 62.916C87.3711 62.6934 87.207 62.5254 86.9883 62.4121C86.7695 62.2988 86.4922 62.2422 86.1562 62.2422C85.8516 62.2422 85.582 62.3027 85.3477 62.4238C85.1172 62.541 84.9355 62.709 84.8027 62.9277C84.6738 63.1465 84.6094 63.4043 84.6094 63.7012H83.5254C83.5254 63.2676 83.6348 62.873 83.8535 62.5176C84.0723 62.1621 84.3789 61.8789 84.7734 61.668C85.1719 61.457 85.6328 61.3516 86.1562 61.3516C86.6719 61.3516 87.123 61.4434 87.5098 61.627C87.8965 61.8066 88.1973 62.0762 88.4121 62.4355C88.627 62.791 88.7344 63.2344 88.7344 63.7656C88.7344 63.9805 88.6836 64.2109 88.582 64.457C88.4844 64.6992 88.3301 64.9258 88.1191 65.1367C87.9121 65.3477 87.6426 65.5215 87.3105 65.6582C86.9785 65.791 86.5801 65.8574 86.1152 65.8574H85.1895V65.2012ZM85.1895 66.0918V65.4414H86.1152C86.6582 65.4414 87.1074 65.5059 87.4629 65.6348C87.8184 65.7637 88.0977 65.9355 88.3008 66.1504C88.5078 66.3652 88.6523 66.6016 88.7344 66.8594C88.8203 67.1133 88.8633 67.3672 88.8633 67.6211C88.8633 68.0195 88.7949 68.373 88.6582 68.6816C88.5254 68.9902 88.3359 69.252 88.0898 69.4668C87.8477 69.6816 87.5625 69.8438 87.2344 69.9531C86.9062 70.0625 86.5488 70.1172 86.1621 70.1172C85.791 70.1172 85.4414 70.0645 85.1133 69.959C84.7891 69.8535 84.502 69.7012 84.252 69.502C84.002 69.2988 83.8066 69.0508 83.666 68.7578C83.5254 68.4609 83.4551 68.123 83.4551 67.7441H84.5391C84.5391 68.041 84.6035 68.3008 84.7324 68.5234C84.8652 68.7461 85.0527 68.9199 85.2949 69.0449C85.541 69.166 85.8301 69.2266 86.1621 69.2266C86.4941 69.2266 86.7793 69.1699 87.0176 69.0566C87.2598 68.9395 87.4453 68.7637 87.5742 68.5293C87.707 68.2949 87.7734 68 87.7734 67.6445C87.7734 67.2891 87.6992 66.998 87.5508 66.7715C87.4023 66.541 87.1914 66.3711 86.918 66.2617C86.6484 66.1484 86.3301 66.0918 85.9629 66.0918H85.1895ZM97.4473 68.7695V61H98.5371V70H97.541L97.4473 68.7695ZM93.1816 66.9004V66.7773C93.1816 66.293 93.2402 65.8535 93.3574 65.459C93.4785 65.0605 93.6484 64.7188 93.8672 64.4336C94.0898 64.1484 94.3535 63.9297 94.6582 63.7773C94.9668 63.6211 95.3105 63.543 95.6895 63.543C96.0879 63.543 96.4355 63.6133 96.7324 63.7539C97.0332 63.8906 97.2871 64.0918 97.4941 64.3574C97.7051 64.6191 97.8711 64.9355 97.9922 65.3066C98.1133 65.6777 98.1973 66.0977 98.2441 66.5664V67.1055C98.2012 67.5703 98.1172 67.9883 97.9922 68.3594C97.8711 68.7305 97.7051 69.0469 97.4941 69.3086C97.2871 69.5703 97.0332 69.7715 96.7324 69.9121C96.4316 70.0488 96.0801 70.1172 95.6777 70.1172C95.3066 70.1172 94.9668 70.0371 94.6582 69.877C94.3535 69.7168 94.0898 69.4922 93.8672 69.2031C93.6484 68.9141 93.4785 68.5742 93.3574 68.1836C93.2402 67.7891 93.1816 67.3613 93.1816 66.9004ZM94.2715 66.7773V66.9004C94.2715 67.2168 94.3027 67.5137 94.3652 67.791C94.4316 68.0684 94.5332 68.3125 94.6699 68.5234C94.8066 68.7344 94.9805 68.9004 95.1914 69.0215C95.4023 69.1387 95.6543 69.1973 95.9473 69.1973C96.3066 69.1973 96.6016 69.1211 96.832 68.9688C97.0664 68.8164 97.2539 68.6152 97.3945 68.3652C97.5352 68.1152 97.6445 67.8438 97.7227 67.5508V66.1387C97.6758 65.9238 97.6074 65.7168 97.5176 65.5176C97.4316 65.3145 97.3184 65.1348 97.1777 64.9785C97.041 64.8184 96.8711 64.6914 96.668 64.5977C96.4688 64.5039 96.2324 64.457 95.959 64.457C95.6621 64.457 95.4062 64.5195 95.1914 64.6445C94.9805 64.7656 94.8066 64.9336 94.6699 65.1484C94.5332 65.3594 94.4316 65.6055 94.3652 65.8867C94.3027 66.1641 94.2715 66.4609 94.2715 66.7773ZM101.402 63.6602V70H100.312V63.6602H101.402ZM100.23 61.9785C100.23 61.8027 100.283 61.6543 100.389 61.5332C100.498 61.4121 100.658 61.3516 100.869 61.3516C101.076 61.3516 101.234 61.4121 101.344 61.5332C101.457 61.6543 101.514 61.8027 101.514 61.9785C101.514 62.1465 101.457 62.291 101.344 62.4121C101.234 62.5293 101.076 62.5879 100.869 62.5879C100.658 62.5879 100.498 62.5293 100.389 62.4121C100.283 62.291 100.23 62.1465 100.23 61.9785ZM106.881 68.916V65.6523C106.881 65.4023 106.83 65.1855 106.729 65.002C106.631 64.8145 106.482 64.6699 106.283 64.5684C106.084 64.4668 105.838 64.416 105.545 64.416C105.271 64.416 105.031 64.4629 104.824 64.5566C104.621 64.6504 104.461 64.7734 104.344 64.9258C104.23 65.0781 104.174 65.2422 104.174 65.418H103.09C103.09 65.1914 103.148 64.9668 103.266 64.7441C103.383 64.5215 103.551 64.3203 103.77 64.1406C103.992 63.957 104.258 63.8125 104.566 63.707C104.879 63.5977 105.227 63.543 105.609 63.543C106.07 63.543 106.477 63.6211 106.828 63.7773C107.184 63.9336 107.461 64.1699 107.66 64.4863C107.863 64.7988 107.965 65.1914 107.965 65.6641V68.6172C107.965 68.8281 107.982 69.0527 108.018 69.291C108.057 69.5293 108.113 69.7344 108.188 69.9062V70H107.057C107.002 69.875 106.959 69.709 106.928 69.502C106.896 69.291 106.881 69.0957 106.881 68.916ZM107.068 66.1562L107.08 66.918H105.984C105.676 66.918 105.4 66.9434 105.158 66.9941C104.916 67.041 104.713 67.1133 104.549 67.2109C104.385 67.3086 104.26 67.4316 104.174 67.5801C104.088 67.7246 104.045 67.8945 104.045 68.0898C104.045 68.2891 104.09 68.4707 104.18 68.6348C104.27 68.7988 104.404 68.9297 104.584 69.0273C104.768 69.1211 104.992 69.168 105.258 69.168C105.59 69.168 105.883 69.0977 106.137 68.957C106.391 68.8164 106.592 68.6445 106.74 68.4414C106.893 68.2383 106.975 68.041 106.986 67.8496L107.449 68.3711C107.422 68.5352 107.348 68.7168 107.227 68.916C107.105 69.1152 106.943 69.3066 106.74 69.4902C106.541 69.6699 106.303 69.8203 106.025 69.9414C105.752 70.0586 105.443 70.1172 105.1 70.1172C104.67 70.1172 104.293 70.0332 103.969 69.8652C103.648 69.6973 103.398 69.4727 103.219 69.1914C103.043 68.9062 102.955 68.5879 102.955 68.2363C102.955 67.8965 103.021 67.5977 103.154 67.3398C103.287 67.0781 103.479 66.8613 103.729 66.6895C103.979 66.5137 104.279 66.3809 104.631 66.291C104.982 66.2012 105.375 66.1562 105.809 66.1562H107.068ZM113.361 68.3184C113.361 68.1621 113.326 68.0176 113.256 67.8848C113.189 67.748 113.051 67.625 112.84 67.5156C112.633 67.4023 112.32 67.3047 111.902 67.2227C111.551 67.1484 111.232 67.0605 110.947 66.959C110.666 66.8574 110.426 66.7344 110.227 66.5898C110.031 66.4453 109.881 66.2754 109.775 66.0801C109.67 65.8848 109.617 65.6562 109.617 65.3945C109.617 65.1445 109.672 64.9082 109.781 64.6855C109.895 64.4629 110.053 64.2656 110.256 64.0938C110.463 63.9219 110.711 63.7871 111 63.6895C111.289 63.5918 111.611 63.543 111.967 63.543C112.475 63.543 112.908 63.6328 113.268 63.8125C113.627 63.9922 113.902 64.2324 114.094 64.5332C114.285 64.8301 114.381 65.1602 114.381 65.5234H113.297C113.297 65.3477 113.244 65.1777 113.139 65.0137C113.037 64.8457 112.887 64.707 112.688 64.5977C112.492 64.4883 112.252 64.4336 111.967 64.4336C111.666 64.4336 111.422 64.4805 111.234 64.5742C111.051 64.6641 110.916 64.7793 110.83 64.9199C110.748 65.0605 110.707 65.209 110.707 65.3652C110.707 65.4824 110.727 65.5879 110.766 65.6816C110.809 65.7715 110.883 65.8555 110.988 65.9336C111.094 66.0078 111.242 66.0781 111.434 66.1445C111.625 66.2109 111.869 66.2773 112.166 66.3438C112.686 66.4609 113.113 66.6016 113.449 66.7656C113.785 66.9297 114.035 67.1309 114.199 67.3691C114.363 67.6074 114.445 67.8965 114.445 68.2363C114.445 68.5137 114.387 68.7676 114.27 68.998C114.156 69.2285 113.99 69.4277 113.771 69.5957C113.557 69.7598 113.299 69.8887 112.998 69.9824C112.701 70.0723 112.367 70.1172 111.996 70.1172C111.438 70.1172 110.965 70.0176 110.578 69.8184C110.191 69.6191 109.898 69.3613 109.699 69.0449C109.5 68.7285 109.4 68.3945 109.4 68.043H110.49C110.506 68.3398 110.592 68.5762 110.748 68.752C110.904 68.9238 111.096 69.0469 111.322 69.1211C111.549 69.1914 111.773 69.2266 111.996 69.2266C112.293 69.2266 112.541 69.1875 112.74 69.1094C112.943 69.0312 113.098 68.9238 113.203 68.7871C113.309 68.6504 113.361 68.4941 113.361 68.3184Z" fill="#515151"/>
</svg>
